<svg width="221" height="68" viewBox="0 0 221 68" fill="none" xmlns="http://www.w3.org/2000/svg">
<path d="M186.617 0H34.2677C15.5525 0 0.380859 15.1626 0.380859 33.8667C0.380859 52.5708 15.5525 67.7334 34.2677 67.7334H186.617C205.333 67.7334 220.504 52.5708 220.504 33.8667C220.504 15.1626 205.333 0 186.617 0Z" fill="#010102"/>
<path d="M87.0796 17.32C89.5157 17.32 90.9548 18.8384 90.9548 21.4203C90.9548 24.0023 89.5205 25.5265 87.0796 25.5265H84.3193V17.3188H87.0796V17.32ZM85.3435 24.6066H87.0112C88.8722 24.6066 89.9082 23.4687 89.9082 21.4333C89.9082 19.3979 88.8781 18.2423 87.0112 18.2423H85.3435V24.6066Z" fill="#D0D0D0"/>
<path d="M92.3623 22.5695C92.3623 20.6813 93.4666 19.5093 95.1049 19.5093C96.7431 19.5093 97.8428 20.6813 97.8428 22.5695C97.8428 24.4577 96.7384 25.6297 95.1049 25.6297C93.4714 25.6297 92.3623 24.4518 92.3623 22.5695ZM96.8351 22.5695C96.8351 21.176 96.1527 20.3798 95.1049 20.3798C94.0571 20.3798 93.3688 21.176 93.3688 22.5695C93.3688 23.963 94.0571 24.7592 95.1049 24.7592C96.1527 24.7592 96.8351 23.963 96.8351 22.5695Z" fill="#D0D0D0"/>
<path d="M105.301 25.5273H104.293L102.955 20.9488H102.933L101.601 25.5273H100.593L98.9375 19.6118H99.9216L101.105 24.4236H101.127L102.465 19.6118H103.421L104.764 24.4236H104.787L105.97 19.6118H106.95L105.3 25.5273H105.301Z" fill="#D0D0D0"/>
<path d="M108.342 19.6118H109.275V20.5565H109.298C109.628 19.9192 110.26 19.5105 111.175 19.5105C112.473 19.5105 113.224 20.3468 113.224 21.6885V25.5273H112.234V21.864C112.234 20.9087 111.783 20.3857 110.874 20.3857C109.964 20.3857 109.331 21.0453 109.331 22.0465V25.5273H108.341V19.6118H108.342Z" fill="#D0D0D0"/>
<path d="M115.116 17.3201H116.106V25.5278H115.116V17.3201Z" fill="#D0D0D0"/>
<path d="M117.736 22.5695C117.736 20.6813 118.841 19.5093 120.479 19.5093C122.117 19.5093 123.217 20.6813 123.217 22.5695C123.217 24.4577 122.112 25.6297 120.479 25.6297C118.845 25.6297 117.736 24.4518 117.736 22.5695ZM122.209 22.5695C122.209 21.176 121.527 20.3798 120.479 20.3798C119.431 20.3798 118.743 21.176 118.743 22.5695C118.743 23.963 119.431 24.7592 120.479 24.7592C121.527 24.7592 122.209 23.963 122.209 22.5695Z" fill="#D0D0D0"/>
<path d="M124.558 23.8556C124.558 22.8426 125.338 22.2065 126.703 22.1264L128.399 22.0298V21.5351C128.399 20.8131 127.92 20.3808 127.101 20.3808C126.339 20.3808 125.86 20.7389 125.735 21.3196H124.779C124.848 20.296 125.725 19.5115 127.124 19.5115C128.523 19.5115 129.389 20.2618 129.389 21.4397V25.5294H128.45V24.5117H128.427C128.075 25.189 127.323 25.6319 126.526 25.6319C125.347 25.6319 124.557 24.9204 124.557 23.8568L124.558 23.8556ZM128.399 23.2808V22.7978L126.817 22.8944C126.02 22.9451 125.566 23.2985 125.566 23.8556C125.566 24.4128 126.038 24.7885 126.749 24.7885C127.682 24.7885 128.399 24.1348 128.399 23.2808Z" fill="#D0D0D0"/>
<path d="M130.939 22.57C130.939 20.716 131.957 19.5098 133.448 19.5098C134.295 19.5098 134.979 19.9244 135.331 20.5735H135.354V17.3201H136.344V25.5278H135.398V24.5265H135.382C135 25.2085 134.324 25.6302 133.47 25.6302C131.962 25.6302 130.938 24.4241 130.938 22.57H130.939ZM131.952 22.57C131.952 23.9128 132.612 24.7598 133.66 24.7598C134.708 24.7598 135.362 23.8952 135.362 22.57C135.362 21.2449 134.68 20.3803 133.66 20.3803C132.641 20.3803 131.952 21.2331 131.952 22.57Z" fill="#D0D0D0"/>
<path d="M140.947 22.5695C140.947 20.6813 142.052 19.5093 143.69 19.5093C145.328 19.5093 146.428 20.6813 146.428 22.5695C146.428 24.4577 145.323 25.6297 143.69 25.6297C142.056 25.6297 140.947 24.4518 140.947 22.5695ZM145.42 22.5695C145.42 21.176 144.738 20.3798 143.69 20.3798C142.642 20.3798 141.954 21.176 141.954 22.5695C141.954 23.963 142.642 24.7592 143.69 24.7592C144.738 24.7592 145.42 23.963 145.42 22.5695Z" fill="#D0D0D0"/>
<path d="M148.007 19.6118H148.941V20.5565H148.963C149.293 19.9192 149.925 19.5105 150.84 19.5105C152.138 19.5105 152.889 20.3468 152.889 21.6885V25.5273H151.899V21.864C151.899 20.9087 151.45 20.3857 150.539 20.3857C149.628 20.3857 148.996 21.0453 148.996 22.0465V25.5273H148.006V19.6118H148.007Z" fill="#D0D0D0"/>
<path d="M159.011 18.1848V19.6124H160.16V20.4264H159.011V23.9413C159.011 24.4819 159.239 24.7258 159.746 24.7258C159.86 24.7258 160.087 24.7081 160.156 24.6975V25.5279C160.037 25.5562 159.763 25.5739 159.53 25.5739C158.443 25.5739 158.021 25.1298 158.021 23.9931V20.4264H157.14V19.6124H158.021V18.1848H159.011Z" fill="#D0D0D0"/>
<path d="M161.849 17.3201H162.839V20.557H162.861C163.191 19.8973 163.841 19.511 164.739 19.511C166.036 19.511 166.821 20.3873 166.821 21.7066V25.5289H165.831V21.8892C165.831 20.9504 165.359 20.3873 164.431 20.3873C163.447 20.3873 162.838 21.0588 162.838 22.0824V25.5289H161.848V17.3212L161.849 17.3201Z" fill="#D0D0D0"/>
<path d="M173.564 23.8322C173.393 24.8676 172.391 25.6297 171.099 25.6297C169.403 25.6297 168.373 24.4518 168.373 22.5919C168.373 20.732 169.42 19.5093 171.053 19.5093C172.687 19.5093 173.637 20.6695 173.637 22.4611V22.8369H169.391V22.8934C169.391 24.0254 170.057 24.7698 171.122 24.7698C171.872 24.7698 172.425 24.3882 172.59 23.831H173.564V23.8322ZM169.397 22.063H172.612C172.59 21.0735 171.969 20.368 171.035 20.368C170.102 20.368 169.459 21.0794 169.396 22.063H169.397Z" fill="#D0D0D0"/>
<path d="M89.4176 32.1038H91.9799L97.5275 47.3707H95.0395L93.6417 43.2444H87.7558L86.3474 47.3707H83.8594L89.4176 32.1038ZM88.3911 41.3398H92.9958L90.72 34.6316H90.6775L88.3911 41.3398Z" fill="white"/>
<path d="M100.019 36.2404H102.305V38.1557H102.358C103.025 36.8329 104.253 36.0295 105.841 36.0295C108.678 36.0295 110.499 38.2511 110.499 41.806V41.8166C110.499 45.361 108.667 47.5931 105.873 47.5931C104.296 47.5931 103.015 46.7886 102.358 45.4988H102.305V51.075H100.019V36.2416V36.2404ZM108.17 41.8154V41.8048C108.17 39.4349 107.037 37.9861 105.248 37.9861C103.459 37.9861 102.294 39.4879 102.294 41.8048V41.8154C102.294 44.1218 103.523 45.6236 105.248 45.6236C106.973 45.6236 108.17 44.163 108.17 41.8154Z" fill="white"/>
<path d="M113.353 36.2404H115.639V38.1557H115.692C116.359 36.8329 117.587 36.0295 119.175 36.0295C122.012 36.0295 123.833 38.2511 123.833 41.806V41.8166C123.833 45.361 122.001 47.5931 119.207 47.5931C117.63 47.5931 116.349 46.7886 115.692 45.4988H115.639V51.075H113.353V36.2416V36.2404ZM121.504 41.8154V41.8048C121.504 39.4349 120.371 37.9861 118.582 37.9861C116.793 37.9861 115.628 39.4879 115.628 41.8048V41.8154C115.628 44.1218 116.856 45.6236 118.582 45.6236C120.307 45.6236 121.504 44.163 121.504 41.8154Z" fill="white"/>
<path d="M131.761 43.3078L131.75 43.1488H134.058L134.079 43.2866C134.291 44.6942 135.698 45.5718 137.742 45.5718C139.786 45.5718 141.076 44.6518 141.076 43.223V43.2124C141.076 41.9851 140.239 41.3183 138.218 40.8743L136.556 40.5256C133.56 39.8907 132.111 38.5149 132.111 36.251V36.2404C132.121 33.6372 134.418 31.8491 137.648 31.8491C140.877 31.8491 143.015 33.5842 143.174 36.145L143.185 36.3252H140.877L140.866 36.1768C140.654 34.7586 139.426 33.9022 137.617 33.9022C135.722 33.9128 134.515 34.8116 134.515 36.145V36.1556C134.515 37.2981 135.384 37.9966 137.288 38.4089L138.961 38.7576C142.116 39.4243 143.47 40.7047 143.47 43.064V43.0746C143.47 45.8568 141.268 47.6237 137.648 47.6237C134.218 47.6237 131.953 45.9947 131.762 43.3067L131.761 43.3078Z" fill="white"/>
<path d="M147.049 44.4396V38.06H145.451V36.2402H147.049V33.3413H149.389V36.2402H151.474V38.06H149.389V44.3018C149.389 45.4338 149.897 45.7718 150.86 45.7718C151.104 45.7718 151.304 45.7506 151.474 45.7294V47.4963C151.209 47.5387 150.775 47.5917 150.309 47.5917C148.108 47.5917 147.049 46.6611 147.049 44.4384V44.4396Z" fill="white"/>
<path d="M153.682 41.806V41.7848C153.682 38.2299 155.788 36.0295 158.953 36.0295C162.119 36.0295 164.247 38.2193 164.247 41.7848V41.806C164.247 45.3928 162.151 47.5931 158.964 47.5931C155.777 47.5931 153.682 45.3822 153.682 41.806ZM161.907 41.806V41.7848C161.907 39.3513 160.743 37.9448 158.953 37.9448C157.164 37.9448 156.021 39.3524 156.021 41.7848V41.806C156.021 44.2714 157.186 45.6778 158.975 45.6778C160.764 45.6778 161.907 44.2596 161.907 41.806Z" fill="white"/>
<path d="M167.1 36.2404H169.386V38.1451H169.439C169.799 36.8435 170.731 36.0295 172.001 36.0295C172.329 36.0295 172.615 36.0826 172.796 36.1144V38.2405C172.615 38.1663 172.214 38.1133 171.769 38.1133C170.298 38.1133 169.387 39.0756 169.387 40.7377V47.3717H167.101V36.2416L167.1 36.2404Z" fill="white"/>
<path d="M174.324 41.8474V41.8368C174.324 38.3561 176.336 36.0286 179.458 36.0286C182.58 36.0286 184.497 38.2713 184.497 41.6142V42.3869H176.61C176.652 44.4919 177.806 45.7192 179.627 45.7192C180.982 45.7192 181.882 45.0207 182.168 44.1856L182.2 44.1008H184.37L184.348 44.2174C183.989 45.9843 182.274 47.5921 179.574 47.5921C176.303 47.5921 174.323 45.36 174.323 41.8474H174.324ZM176.643 40.7685H182.232C182.041 38.8426 180.961 37.9014 179.469 37.9014C177.977 37.9014 176.843 38.9062 176.643 40.7685Z" fill="white"/>
<path d="M63.4865 29.0783C62.0604 30.069 61.0916 31.0631 60.5789 32.062C60.0662 33.0609 59.8093 34.1434 59.8093 35.3071C59.8093 36.2283 59.9613 37.0705 60.2654 37.8349C60.5695 38.5994 60.9996 39.325 61.5559 40.0117C62.1122 40.6984 63.0422 41.3804 64.3469 42.0577C63.8424 43.5348 63.0598 45.0414 62.0003 46.5797C60.9395 48.1169 59.979 49.2077 59.1186 49.8508C58.2582 50.4939 57.4368 50.8155 56.6542 50.8155C56.0284 50.8155 55.1845 50.6164 54.1249 50.216L53.6299 50.0334L52.8214 49.6941C52.2474 49.521 51.6133 49.4338 50.918 49.4338C50.2226 49.4338 49.4058 49.5905 48.5184 49.9026L47.8925 50.137L47.1099 50.4504C46.4841 50.6942 45.8583 50.8155 45.2324 50.8155C43.9112 50.8155 42.4946 49.8909 40.9813 48.0404C39.4691 46.1899 38.3259 44.2004 37.5516 42.0719C36.7772 39.9434 36.3906 37.7937 36.3906 35.6216C36.3906 32.8241 37.1862 30.4965 38.7773 28.6366C40.3684 26.7779 42.5276 25.8473 45.2572 25.8473C46.2484 25.8473 47.1783 26.0299 48.0469 26.3951L48.6468 26.6295L49.2726 26.8898C49.8289 27.1159 50.2721 27.229 50.6021 27.229C51.0889 27.229 51.5756 27.1336 52.0624 26.9428L52.8968 26.6295L53.4967 26.3951C54.4703 26.0299 55.5475 25.8473 56.7308 25.8473C59.5299 25.8473 61.7811 26.9251 63.4853 29.0795L63.4865 29.0783ZM56.8628 16.6584C56.897 17.0413 56.9147 17.3357 56.9147 17.5442C56.9147 18.622 56.6012 19.734 55.9753 20.8801C55.3495 22.0274 54.5315 22.9179 53.5238 23.5516C52.515 24.1865 51.4024 24.5033 50.1861 24.5033C50.1342 24.0864 50.1083 23.7825 50.1083 23.5916C50.1083 22.6705 50.3817 21.7023 50.9298 20.6857C51.4778 19.6692 52.2203 18.8046 53.1596 18.092C54.099 17.3793 55.1585 16.9282 56.3407 16.7362C56.4456 16.7197 56.6188 16.6926 56.8628 16.6584Z" fill="white"/>
</svg>
