<svg width="164" height="50" viewBox="0 0 164 50" fill="none" xmlns="http://www.w3.org/2000/svg">
<path d="M138.353 0H25.8899C12.0745 0 0.875 11.1929 0.875 25C0.875 38.8071 12.0745 50 25.8899 50H138.353C152.168 50 163.367 38.8071 163.367 25C163.367 11.1929 152.168 0 138.353 0Z" fill="#272727"/>
<path d="M64.8765 12.7853C66.6748 12.7853 67.7371 13.9061 67.7371 15.8121C67.7371 17.7181 66.6783 18.8432 64.8765 18.8432H62.8389V12.7844H64.8765V12.7853ZM63.5949 18.1641H64.826C66.1998 18.1641 66.9645 17.3242 66.9645 15.8217C66.9645 14.3191 66.2041 13.4661 64.826 13.4661H63.5949V18.1641Z" fill="#D0D0D0"/>
<path d="M68.7773 16.6606C68.7773 15.2668 69.5926 14.4016 70.8019 14.4016C72.0112 14.4016 72.823 15.2668 72.823 16.6606C72.823 18.0545 72.0077 18.9196 70.8019 18.9196C69.596 18.9196 68.7773 18.0501 68.7773 16.6606ZM72.0791 16.6606C72.0791 15.632 71.5753 15.0442 70.8019 15.0442C70.0284 15.0442 69.5203 15.632 69.5203 16.6606C69.5203 17.6893 70.0284 18.2771 70.8019 18.2771C71.5753 18.2771 72.0791 17.6893 72.0791 16.6606Z" fill="#D0D0D0"/>
<path d="M78.3262 18.844H77.5823L76.5948 15.4642H76.5783L75.5951 18.844H74.8513L73.6289 14.4773H74.3554L75.2289 18.0293H75.2454L76.2329 14.4773H76.9385L77.9303 18.0293H77.9468L78.8203 14.4773H79.5433L78.3253 18.844H78.3262Z" fill="#D0D0D0"/>
<path d="M80.5731 14.4764H81.2622V15.1737H81.2787C81.5223 14.7033 81.9886 14.4016 82.6647 14.4016C83.6225 14.4016 84.1768 15.019 84.1768 16.0094V18.8431H83.4459V16.1389C83.4459 15.4337 83.1136 15.0477 82.4419 15.0477C81.7703 15.0477 81.3031 15.5346 81.3031 16.2737V18.8431H80.5723V14.4764H80.5731Z" fill="#D0D0D0"/>
<path d="M85.5742 12.7856H86.305V18.8445H85.5742V12.7856Z" fill="#D0D0D0"/>
<path d="M87.5078 16.6606C87.5078 15.2668 88.323 14.4016 89.5324 14.4016C90.7417 14.4016 91.5534 15.2668 91.5534 16.6606C91.5534 18.0545 90.7382 18.9196 89.5324 18.9196C88.3265 18.9196 87.5078 18.0501 87.5078 16.6606ZM90.8095 16.6606C90.8095 15.632 90.3058 15.0442 89.5324 15.0442C88.7589 15.0442 88.2508 15.632 88.2508 16.6606C88.2508 17.6893 88.7589 18.2771 89.5324 18.2771C90.3058 18.2771 90.8095 17.6893 90.8095 16.6606Z" fill="#D0D0D0"/>
<path d="M92.5409 17.6084C92.5409 16.8606 93.1169 16.3911 94.1243 16.3319L95.3763 16.2606V15.8954C95.3763 15.3624 95.0231 15.0433 94.4184 15.0433C93.8555 15.0433 93.5023 15.3076 93.4101 15.7363H92.7045C92.7549 14.9807 93.4022 14.4016 94.435 14.4016C95.4677 14.4016 96.1071 14.9555 96.1071 15.825V18.844H95.4137V18.0927H95.3972C95.1371 18.5927 94.582 18.9196 93.9938 18.9196C93.1238 18.9196 92.54 18.3944 92.54 17.6093L92.5409 17.6084ZM95.3763 17.1841V16.8276L94.2088 16.8989C93.6206 16.9363 93.2848 17.1971 93.2848 17.6084C93.2848 18.0197 93.6337 18.2971 94.1583 18.2971C94.8473 18.2971 95.3763 17.8145 95.3763 17.1841Z" fill="#D0D0D0"/>
<path d="M97.2509 16.6611C97.2509 15.2925 98.0026 14.4021 99.1031 14.4021C99.7287 14.4021 100.233 14.7082 100.493 15.1873H100.51V12.7856H101.241V18.8445H100.543V18.1054H100.531C100.249 18.6088 99.7496 18.9201 99.1197 18.9201C98.006 18.9201 97.25 18.0297 97.25 16.6611H97.2509ZM97.9991 16.6611C97.9991 17.6523 98.4863 18.2775 99.2597 18.2775C100.033 18.2775 100.516 17.6393 100.516 16.6611C100.516 15.6829 100.012 15.0447 99.2597 15.0447C98.5072 15.0447 97.9991 15.6742 97.9991 16.6611Z" fill="#D0D0D0"/>
<path d="M104.64 16.6606C104.64 15.2668 105.455 14.4016 106.664 14.4016C107.874 14.4016 108.685 15.2668 108.685 16.6606C108.685 18.0545 107.87 18.9196 106.664 18.9196C105.458 18.9196 104.64 18.0501 104.64 16.6606ZM107.941 16.6606C107.941 15.632 107.438 15.0442 106.664 15.0442C105.891 15.0442 105.383 15.632 105.383 16.6606C105.383 17.6893 105.891 18.2771 106.664 18.2771C107.438 18.2771 107.941 17.6893 107.941 16.6606Z" fill="#D0D0D0"/>
<path d="M109.852 14.4764H110.542V15.1737H110.558C110.802 14.7033 111.268 14.4016 111.944 14.4016C112.902 14.4016 113.456 15.019 113.456 16.0094V18.8431H112.725V16.1389C112.725 15.4337 112.394 15.0477 111.721 15.0477C111.049 15.0477 110.582 15.5346 110.582 16.2737V18.8431H109.852V14.4764H109.852Z" fill="#D0D0D0"/>
<path d="M117.977 13.4241V14.4779H118.826V15.0788H117.977V17.6734C117.977 18.0725 118.145 18.2525 118.519 18.2525C118.604 18.2525 118.772 18.2395 118.822 18.2317V18.8447C118.734 18.8655 118.532 18.8786 118.36 18.8786C117.558 18.8786 117.246 18.5508 117.246 17.7117V15.0788H116.596V14.4779H117.246V13.4241H117.977Z" fill="#D0D0D0"/>
<path d="M120.07 12.7856H120.801V15.1751H120.818C121.061 14.6882 121.541 14.4029 122.204 14.4029C123.161 14.4029 123.741 15.0499 123.741 16.0237V18.8453H123.01V16.1585C123.01 15.4655 122.661 15.0499 121.976 15.0499C121.25 15.0499 120.8 15.5455 120.8 16.3011V18.8453H120.069V12.7865L120.07 12.7856Z" fill="#D0D0D0"/>
<path d="M128.718 17.5928C128.592 18.3571 127.853 18.9196 126.899 18.9196C125.647 18.9196 124.887 18.0501 124.887 16.6771C124.887 15.3042 125.659 14.4016 126.865 14.4016C128.071 14.4016 128.772 15.2581 128.772 16.5806V16.858H125.638V16.8997C125.638 17.7354 126.13 18.2849 126.916 18.2849C127.47 18.2849 127.878 18.0032 128 17.5919H128.718V17.5928ZM125.643 16.2867H128.016C128 15.5563 127.541 15.0355 126.852 15.0355C126.163 15.0355 125.688 15.5607 125.642 16.2867H125.643Z" fill="#D0D0D0"/>
<path d="M66.6021 23.6985H68.4935L72.5887 34.9683H70.7521L69.7202 31.9224H65.3753L64.3357 34.9683H62.499L66.6021 23.6985ZM65.8443 30.5164H69.2434L67.5634 25.5645H67.5321L65.8443 30.5164Z" fill="white"/>
<path d="M74.4248 26.7504H76.1126V28.1642H76.1518C76.6442 27.1877 77.5508 26.5947 78.7227 26.5947C80.8169 26.5947 82.161 28.2346 82.161 30.8589V30.8667C82.161 33.4831 80.809 35.1308 78.7462 35.1308C77.5821 35.1308 76.6364 34.5369 76.1518 33.5848H76.1126V37.7011H74.4248V26.7512V26.7504ZM80.4419 30.8658V30.858C80.4419 29.1085 79.6058 28.039 78.2851 28.039C76.9644 28.039 76.1048 29.1476 76.1048 30.858V30.8658C76.1048 32.5683 77.0114 33.677 78.2851 33.677C79.5588 33.677 80.4419 32.5988 80.4419 30.8658Z" fill="white"/>
<path d="M84.2686 26.7504H85.9564V28.1642H85.9955C86.488 27.1877 87.3945 26.5947 88.5665 26.5947C90.6606 26.5947 92.0048 28.2346 92.0048 30.8589V30.8667C92.0048 33.4831 90.6528 35.1308 88.59 35.1308C87.4259 35.1308 86.4801 34.5369 85.9955 33.5848H85.9564V37.7011H84.2686V26.7512V26.7504ZM90.2856 30.8658V30.858C90.2856 29.1085 89.4495 28.039 88.1288 28.039C86.8081 28.039 85.9486 29.1476 85.9486 30.858V30.8658C85.9486 32.5683 86.8551 33.677 88.1288 33.677C89.4025 33.677 90.2856 32.5988 90.2856 30.8658Z" fill="white"/>
<path d="M97.8604 31.9677L97.8525 31.8503H99.5561L99.5717 31.9521C99.7283 32.9911 100.767 33.6389 102.276 33.6389C103.784 33.6389 104.737 32.9598 104.737 31.9051V31.8973C104.737 30.9913 104.119 30.4991 102.627 30.1713L101.4 29.9139C99.1889 29.4452 98.1188 28.4296 98.1188 26.7584V26.7506C98.1266 24.829 99.8223 23.509 102.206 23.509C104.59 23.509 106.168 24.7898 106.286 26.6802L106.294 26.8132H104.59L104.582 26.7036C104.426 25.6567 103.519 25.0246 102.184 25.0246C100.785 25.0324 99.8936 25.6959 99.8936 26.6802V26.688C99.8936 27.5314 100.535 28.0471 101.941 28.3514L103.175 28.6088C105.504 29.1009 106.504 30.0461 106.504 31.7877V31.7956C106.504 33.8494 104.879 35.1536 102.206 35.1536C99.6744 35.1536 98.0022 33.9511 97.8612 31.9669L97.8604 31.9677Z" fill="white"/>
<path d="M109.147 32.8047V28.0954H107.967V26.752H109.147V24.6121H110.874V26.752H112.413V28.0954H110.874V32.7029C110.874 33.5386 111.249 33.7881 111.959 33.7881C112.139 33.7881 112.287 33.7725 112.413 33.7568V35.0611C112.217 35.0924 111.897 35.1315 111.553 35.1315C109.928 35.1315 109.147 34.4446 109.147 32.8038V32.8047Z" fill="white"/>
<path d="M114.042 30.8589V30.8432C114.042 28.219 115.597 26.5947 117.934 26.5947C120.27 26.5947 121.841 28.2112 121.841 30.8432V30.8589C121.841 33.5065 120.294 35.1308 117.941 35.1308C115.589 35.1308 114.042 33.4987 114.042 30.8589ZM120.114 30.8589V30.8432C120.114 29.0468 119.254 28.0086 117.934 28.0086C116.613 28.0086 115.769 29.0476 115.769 30.8432V30.8589C115.769 32.6788 116.629 33.717 117.949 33.717C119.27 33.717 120.114 32.6701 120.114 30.8589Z" fill="white"/>
<path d="M123.946 26.7504H125.634V28.1564H125.673C125.939 27.1956 126.627 26.5947 127.565 26.5947C127.807 26.5947 128.018 26.6339 128.151 26.6573V28.2268C128.018 28.172 127.721 28.1329 127.393 28.1329C126.308 28.1329 125.635 28.8433 125.635 30.0702V34.9673H123.947V26.7512L123.946 26.7504Z" fill="white"/>
<path d="M129.279 30.8902V30.8823C129.279 28.3129 130.764 26.5947 133.069 26.5947C135.374 26.5947 136.788 28.2503 136.788 30.718V31.2884H130.966C130.997 32.8422 131.849 33.7483 133.193 33.7483C134.194 33.7483 134.858 33.2326 135.069 32.6162L135.093 32.5535H136.694L136.679 32.6396C136.413 33.9439 135.147 35.1308 133.154 35.1308C130.74 35.1308 129.278 33.4831 129.278 30.8902H129.279ZM130.991 30.0937H135.116C134.975 28.672 134.178 27.9773 133.077 27.9773C131.975 27.9773 131.138 28.719 130.991 30.0937Z" fill="white"/>
<path d="M47.4589 21.4653C46.4061 22.1966 45.691 22.9305 45.3125 23.6678C44.9341 24.4052 44.7444 25.2043 44.7444 26.0634C44.7444 26.7433 44.8566 27.365 45.0811 27.9293C45.3056 28.4937 45.6231 29.0293 46.0338 29.5362C46.4444 30.0431 47.1309 30.5466 48.094 31.0466C47.7216 32.1369 47.1439 33.2491 46.3618 34.3847C45.5787 35.5194 44.8697 36.3246 44.2346 36.7993C43.5994 37.2741 42.993 37.5115 42.4154 37.5115C41.9534 37.5115 41.3304 37.3645 40.5483 37.0689L40.1829 36.9341L39.586 36.6837C39.1623 36.5558 38.6942 36.4915 38.1809 36.4915C37.6676 36.4915 37.0647 36.6072 36.4096 36.8376L35.9476 37.0106L35.3699 37.2419C34.9079 37.4219 34.4459 37.5115 33.9839 37.5115C33.0086 37.5115 31.9629 36.8289 30.8458 35.4629C29.7295 34.0968 28.8856 32.6282 28.314 31.057C27.7424 29.4858 27.457 27.8989 27.457 26.2955C27.457 24.2304 28.0443 22.5122 29.2188 21.1393C30.3934 19.7672 31.9873 19.0802 34.0022 19.0802C34.7339 19.0802 35.4204 19.215 36.0616 19.4846L36.5044 19.6576L36.9664 19.8498C37.377 20.0167 37.7042 20.1002 37.9478 20.1002C38.3071 20.1002 38.6664 20.0298 39.0257 19.8889L39.6417 19.6576L40.0846 19.4846C40.8032 19.215 41.5984 19.0802 42.4719 19.0802C44.5382 19.0802 46.1999 19.8758 47.458 21.4662L47.4589 21.4653ZM42.5693 12.2971C42.5946 12.5797 42.6076 12.7971 42.6076 12.951C42.6076 13.7466 42.3762 14.5674 41.9142 15.4135C41.4522 16.2604 40.8484 16.9177 40.1046 17.3855C39.3598 17.8542 38.5385 18.0881 37.6407 18.0881C37.6024 17.7803 37.5832 17.556 37.5832 17.4151C37.5832 16.7351 37.7851 16.0204 38.1896 15.27C38.5942 14.5196 39.1423 13.8814 39.8357 13.3553C40.5291 12.8293 41.3113 12.4962 42.1839 12.3545C42.2613 12.3423 42.3893 12.3223 42.5693 12.2971Z" fill="white"/>
</svg>
