<svg width="10" height="5" viewBox="0 0 10 5" fill="none" xmlns="http://www.w3.org/2000/svg">
<path d="M4.71891 5C4.63966 5 4.56701 4.98711 4.50096 4.96134C4.43492 4.93557 4.36887 4.89048 4.30282 4.82605L0.379656 0.999159C0.273982 0.896078 0.224447 0.757563 0.231052 0.583613C0.237656 0.409664 0.293796 0.271148 0.39947 0.168067C0.531563 0.0392154 0.673563 -0.0155462 0.825471 0.00378153C0.977378 0.0231093 1.11277 0.0843139 1.23166 0.187395L4.71891 3.58908L8.20617 0.187395C8.31185 0.0843139 8.45385 0.0263304 8.63217 0.0134452C8.8105 0.00056009 8.9525 0.0585436 9.05817 0.187395C9.19027 0.290476 9.24641 0.42577 9.22659 0.593277C9.20678 0.760784 9.14404 0.902521 9.03836 1.01849L5.13501 4.82605C5.06896 4.89048 5.00291 4.93557 4.93687 4.96134C4.87082 4.98711 4.79817 5 4.71891 5Z" fill="#706E6E"/>
</svg>
