<svg width="349" height="183" viewBox="0 0 349 183" fill="none" xmlns="http://www.w3.org/2000/svg">
<mask id="mask0_559_2321" style="mask-type:alpha" maskUnits="userSpaceOnUse" x="0" y="-110" width="414" height="314">
<rect y="-110" width="414" height="313.625" rx="30" fill="#E9E9E9"/>
</mask>
<g mask="url(#mask0_559_2321)">
<path d="M176.887 91.6354C202.297 66.4915 235.665 85.1264 256.09 96.5317C258.7 97.9901 261.173 99.3732 263.287 100.45C272.62 105.243 271.966 115.368 267.409 122.746C261.467 132.365 248.317 139.624 233.488 132.774C219.794 126.454 203.406 131.721 190.244 135.958C178.152 139.842 167.715 143.201 163.425 136.286C154.729 122.287 171.522 97.8902 172.236 96.8527L172.262 96.8278C173.768 94.917 175.317 93.1882 176.887 91.6354ZM262.629 127.07C264.114 125.6 265.4 123.983 266.452 122.281C270.726 115.363 271.354 105.88 262.672 101.419C260.542 100.328 258.069 98.9445 255.444 97.4719C234.087 85.5463 198.335 65.5914 173.159 97.3968C172.657 98.1185 156.146 122.357 164.43 135.668C168.298 141.903 177.871 138.829 189.987 134.935C203.355 130.645 219.99 125.299 234.071 131.793C245.623 137.123 256.084 133.531 262.629 127.054L262.629 127.07Z" fill="url(#paint0_linear_559_2321)"/>
<g opacity="0.95">
<path d="M168.732 85.2839C181.622 72.5293 197.729 67.7063 216.731 70.9223C235.124 74.0348 252.804 83.9066 265.706 91.1159C268.91 92.9024 271.936 94.5934 274.525 95.9221C285.868 101.745 285.07 114.055 279.53 123.037C272.297 134.76 256.272 143.587 238.198 135.247C221.381 127.481 201.28 133.943 185.138 139.131C170.396 143.865 157.663 147.965 152.46 139.595C141.861 122.522 162.363 92.7278 163.239 91.4707L163.264 91.4458C165.016 89.2169 166.844 87.1677 168.74 85.2911L168.732 85.2839ZM273.886 128.471C275.716 126.66 277.289 124.668 278.588 122.571C283.855 114.041 284.635 102.349 273.92 96.8362C271.315 95.4932 268.289 93.8022 265.077 92.0085C238.879 77.3787 195.025 52.9139 164.114 91.9719C163.561 92.7743 143.221 122.588 153.407 138.988C158.204 146.708 169.974 142.931 184.873 138.147C201.212 132.899 221.543 126.359 238.747 134.298C252.956 140.86 265.838 136.434 273.895 128.462L273.886 128.471Z" fill="url(#paint1_linear_559_2321)"/>
</g>
<g opacity="0.9">
<path d="M160.721 78.7786C175.943 63.7155 194.954 58.0166 217.398 61.8225C239.135 65.5009 260.042 77.1807 275.305 85.7039C279.094 87.8269 282.675 89.8259 285.738 91.391C299.091 98.2446 298.149 112.755 291.625 123.325C283.085 137.153 264.201 147.562 242.875 137.724C222.934 128.528 199.129 136.177 180 142.324C162.599 147.917 147.577 152.749 141.462 142.909C128.951 122.771 153.962 86.4427 154.209 86.0782L154.234 86.0533C156.306 83.4317 158.463 81.0123 160.704 78.7952L160.721 78.7786ZM285.151 129.881C287.324 127.731 289.202 125.362 290.741 122.878C296.999 112.735 297.924 98.8282 285.175 92.279C282.096 90.6996 278.507 88.6935 274.709 86.5788C243.678 69.2518 191.747 40.2523 155.075 86.5723C154.472 87.44 130.295 122.838 142.4 142.326C148.117 151.538 162.085 147.044 179.766 141.369C199.076 135.163 223.111 127.436 243.423 136.806C260.297 144.591 275.592 139.339 285.151 129.881Z" fill="url(#paint2_linear_559_2321)"/>
</g>
<g opacity="0.86">
<path d="M152.709 72.2575C170.257 54.8943 192.196 48.3101 218.073 52.6987C243.163 56.9502 267.306 70.4296 284.929 80.2668C289.305 82.7109 293.44 85.0177 296.985 86.8418C312.339 94.734 311.261 111.42 303.755 123.579C293.923 139.511 272.157 151.496 247.594 140.159C224.529 129.519 197.012 138.363 174.903 145.46C154.852 151.904 137.525 157.468 130.514 146.173C116.092 122.954 144.939 81.0572 145.237 80.6429L145.262 80.618C147.648 77.5964 150.141 74.7985 152.726 72.2409L152.709 72.2575ZM296.416 131.276C298.934 128.785 301.108 126.048 302.886 123.162C310.145 111.399 311.214 95.2915 296.43 87.6906C292.877 85.8594 288.735 83.5454 284.35 81.1096C248.478 61.0784 188.438 27.5464 146.054 81.1404C145.408 82.0806 117.378 123.063 131.402 145.639C138.047 156.336 154.205 151.147 174.667 144.567C196.95 137.403 224.689 128.49 248.116 139.297C267.647 148.314 285.355 142.236 296.432 131.275L296.416 131.276Z" fill="url(#paint3_linear_559_2321)"/>
</g>
<g opacity="0.81">
<path d="M144.698 65.7494C164.578 46.0778 189.429 38.6248 218.74 43.5962C247.174 48.4135 274.553 63.6926 294.536 74.8592C299.506 77.6315 304.195 80.2462 308.206 82.315C325.578 91.2446 324.349 110.109 315.851 123.88C304.719 141.908 280.078 155.477 252.271 142.649C226.082 130.563 194.853 140.603 169.764 148.666C147.054 155.968 127.439 162.265 119.523 149.506C103.19 123.222 135.874 75.757 136.206 75.2787L136.231 75.2537C138.938 71.8238 141.752 68.664 144.681 65.766L144.698 65.7494ZM307.681 132.684C310.543 129.853 313.013 126.733 315.031 123.459C323.281 110.084 324.495 91.7606 307.677 83.1235C303.65 81.0558 298.953 78.4339 293.975 75.6545C274.048 64.5225 246.75 49.284 218.47 44.4943C184.792 38.7824 158.15 48.9992 137.001 75.7083C136.312 76.7055 104.437 123.281 120.379 148.945C127.953 161.126 146.3 155.227 169.545 147.756C194.807 139.642 226.242 129.534 252.769 141.781C274.964 152.021 295.086 145.117 307.673 132.662L307.681 132.684Z" fill="url(#paint4_linear_559_2321)"/>
</g>
<g opacity="0.76">
<path d="M136.684 59.239C158.897 37.2589 186.66 28.9371 219.413 34.483C251.208 39.8651 281.805 56.9605 304.15 69.4256C309.697 72.5272 314.948 75.457 319.434 77.7622C338.815 87.722 337.442 108.786 327.961 124.146C315.539 144.278 288.03 159.422 256.971 145.096C227.65 131.574 192.717 142.8 164.648 151.814C138.243 160.295 117.377 167.004 108.548 152.775C90.3126 123.417 126.833 70.3833 127.207 69.848L127.232 69.823C130.252 65.9932 133.411 62.462 136.676 59.2318L136.684 59.239ZM318.944 134.09C322.149 130.918 324.915 127.43 327.181 123.761C336.431 108.78 337.789 88.2417 318.938 78.5529C314.428 76.2417 309.186 73.3036 303.622 70.2031C281.334 57.7572 250.808 40.7107 219.168 35.3562C181.464 28.9724 151.639 40.4008 127.977 70.3025C127.246 71.3566 91.5248 123.524 109.377 152.284C117.863 165.951 138.425 159.349 164.452 150.987C192.685 141.915 227.824 130.621 257.458 144.299C282.311 155.769 304.854 148.032 318.944 134.09Z" fill="url(#paint5_linear_559_2321)"/>
</g>
<g opacity="0.71">
<path d="M128.75 52.6339C140.297 41.2079 153.194 33.0873 167.233 28.418C183.075 23.151 200.852 22.1274 220.073 25.3819C255.212 31.3299 289.045 50.225 313.75 64.0195C319.892 67.4493 325.697 70.687 330.665 73.2358C352.056 84.2259 350.54 107.475 340.075 124.438C332.876 136.112 321.37 145.5 308.497 150.187C293.465 155.675 277.268 154.774 261.674 147.57C229.23 132.602 190.593 145.015 159.544 154.996C130.373 164.365 107.325 171.776 97.5838 156.092C77.4373 123.669 117.794 65.0514 118.211 64.4591L118.228 64.4425C121.595 60.1795 125.1 56.246 128.75 52.6339ZM330.194 135.492C333.744 131.98 336.806 128.108 339.311 124.053C349.553 107.46 351.064 84.7124 330.171 73.9801C325.195 71.4242 319.382 68.1793 313.24 64.7495C288.591 50.9896 254.822 32.1363 219.829 26.2088C178.116 19.1364 145.099 31.8003 118.925 64.8791C118.151 65.9902 78.5766 123.758 98.3564 155.598C107.771 170.749 130.522 163.437 159.322 154.194C190.527 144.164 229.37 131.682 262.12 146.798C289.637 159.492 314.593 150.929 330.194 135.492Z" fill="url(#paint6_linear_559_2321)"/>
</g>
<g opacity="0.67">
<path d="M120.737 46.1147C133.383 33.6009 147.501 24.7079 162.874 19.5896C180.215 13.8158 199.69 12.7032 220.738 16.2683C259.229 22.7894 296.298 43.4841 323.355 58.6008C330.083 62.3517 336.434 65.9056 341.885 68.698C365.286 80.7183 363.617 106.16 352.178 124.704C344.295 137.475 331.704 147.757 317.619 152.892C301.161 158.889 283.441 157.903 266.366 150.032C230.798 133.619 188.448 147.228 154.412 158.167C122.475 168.426 97.2462 176.538 86.6 159.391C64.5506 123.894 108.744 59.7082 109.187 59.06L109.204 59.0434C112.892 54.3721 116.734 50.0602 120.72 46.1159L120.737 46.1147ZM341.449 136.897C345.342 133.044 348.701 128.805 351.453 124.354C362.688 106.149 364.343 81.1858 341.424 69.4091C335.965 66.6096 329.607 63.0485 322.871 59.2905C295.854 44.2095 258.865 23.5554 220.504 17.056C174.772 9.30326 138.589 23.1778 109.877 59.4586C109.078 60.61 65.641 123.987 87.339 158.93C97.6733 175.574 122.622 167.559 154.205 157.41C188.389 146.43 230.929 132.754 266.786 149.301C296.96 163.226 324.329 153.837 341.44 136.906L341.449 136.897Z" fill="url(#paint7_linear_559_2321)"/>
</g>
<g opacity="0.62">
<path d="M112.744 39.5916C126.482 25.9983 141.821 16.3327 158.535 10.7727C177.383 4.49925 198.542 3.28324 221.424 7.16617C263.267 14.2603 303.556 36.7559 332.981 53.1782C340.296 57.2656 347.209 61.1191 353.133 64.1633C378.544 77.2139 376.74 104.848 364.301 124.997C355.734 138.88 342.057 150.04 326.761 155.623C308.877 162.145 289.627 161.067 271.078 152.506C232.395 134.655 186.325 149.451 149.317 161.348C114.614 172.496 87.2125 181.301 75.6454 162.693C63.1114 142.518 70.4728 113.921 78.85 93.4963C87.9108 71.4036 100.081 53.8339 100.208 53.663L100.225 53.6464C104.227 48.5751 108.414 43.8918 112.752 39.5987L112.744 39.5916ZM352.724 138.298C356.962 134.105 360.625 129.49 363.609 124.644C375.835 104.827 377.635 77.6482 352.682 64.8352C346.749 61.7839 339.836 57.9304 332.514 53.8358C303.145 37.4326 262.912 14.9717 221.207 7.90634C171.457 -0.526674 132.092 14.5596 100.867 54.0329C100.025 55.2413 52.7349 124.203 76.3596 162.242C87.6222 180.37 114.761 171.645 149.126 160.606C186.282 148.668 232.525 133.805 271.498 151.79C304.337 166.938 334.119 156.723 352.741 138.297L352.724 138.298Z" fill="url(#paint8_linear_559_2321)"/>
</g>
<g opacity="0.57">
<path d="M104.735 33.0706C119.572 18.3895 136.132 7.95149 154.172 1.95092C174.527 -4.82221 197.376 -6.13449 222.077 -1.94806C267.273 5.70367 310.797 30.0143 342.575 47.759C350.483 52.1745 357.942 56.3443 364.341 59.6249C391.761 73.7057 389.814 103.524 376.391 125.277C367.14 140.258 352.378 152.312 335.871 158.328C316.569 165.366 295.78 164.204 275.758 154.968C233.942 135.68 184.168 151.663 144.173 164.519C106.704 176.556 77.1213 186.063 64.6497 165.991C51.1254 144.213 59.0651 113.347 68.117 91.2778C77.9051 67.4141 91.0532 48.4413 91.1809 48.255L91.1976 48.2384C95.5289 42.766 100.036 37.7053 104.719 33.0718L104.735 33.0706ZM363.975 139.71C368.557 135.176 372.508 130.186 375.748 124.952C388.974 103.514 390.917 74.1354 363.931 60.2707C357.524 56.983 350.057 52.8061 342.149 48.3905C310.411 30.6662 266.951 6.39726 221.885 -1.2328C168.118 -10.3461 125.569 5.96729 91.8228 48.626C90.9638 49.8665 39.7953 124.439 65.3467 165.572C77.5294 185.193 106.874 175.758 144.021 163.828C184.148 150.932 234.087 134.891 276.176 154.298C311.671 170.678 343.868 159.622 364 139.701L363.975 139.71Z" fill="url(#paint9_linear_559_2321)"/>
</g>
<g opacity="0.52">
<path d="M96.73 26.5578C112.666 10.7889 130.455 -0.414506 149.821 -6.85568C171.682 -14.1284 196.223 -15.537 222.749 -11.0399C271.298 -2.81515 318.049 23.288 352.188 42.3466C360.683 47.0832 368.703 51.568 375.576 55.1004C405.015 70.2187 402.915 102.23 388.509 125.572C378.583 141.657 362.727 154.597 345 161.054C324.281 168.609 301.96 167.37 280.465 157.443C235.527 136.71 182.048 153.896 139.073 167.702C98.8391 180.629 67.0747 190.837 53.6985 169.302C39.176 145.913 47.7023 112.77 57.4202 89.0805C67.9271 63.4542 82.045 43.0712 82.1894 42.8682L82.2062 42.8515C86.8591 36.9709 91.7033 31.5317 96.73 26.5578ZM375.238 141.122C380.164 136.247 384.419 130.881 387.882 125.261C402.1 102.211 404.196 70.6235 375.168 55.7154C368.286 52.1758 360.257 47.6993 351.763 42.9472C317.665 23.909 270.969 -2.15962 222.543 -10.3699C164.757 -20.1635 119.034 -2.63115 82.7669 43.213C82.3844 43.7566 68.4594 63.9487 58.0749 89.2888C48.4184 112.827 39.9309 145.752 54.3213 168.912C67.4324 190.017 98.9662 179.887 138.896 167.051C181.995 153.198 235.637 135.97 280.826 156.816C318.986 174.419 353.587 162.545 375.23 141.13L375.238 141.122Z" fill="url(#paint10_linear_559_2321)"/>
</g>
<g opacity="0.48">
<path d="M88.7262 20.0255C105.753 3.17713 124.771 -8.80709 145.471 -15.6972C168.839 -23.4696 195.063 -24.9815 223.424 -20.1666C275.316 -11.376 325.304 16.5424 361.803 36.9149C370.883 41.988 379.466 46.7724 386.806 50.5495C400.825 57.7493 409.259 69.2454 411.211 83.7746C412.982 96.9672 409.214 111.9 400.621 125.824C390.011 143.022 373.062 156.834 354.131 163.746C331.986 171.825 308.135 170.494 285.159 159.885C237.096 137.707 179.906 156.088 133.943 170.853C90.9428 184.669 56.9972 195.579 42.7 172.582C27.1788 147.598 36.3002 112.168 46.6844 86.8435C57.9185 59.4462 73.0142 37.6601 73.1671 37.4488L73.1839 37.4322C78.1583 31.1433 83.3311 25.3339 88.7103 20.0112L88.7262 20.0255ZM386.502 142.514C391.772 137.299 396.323 131.564 400.026 125.542C415.244 100.887 417.476 67.0768 386.422 51.1241C379.059 47.3409 370.484 42.5483 361.395 37.4834C324.936 17.1312 275.005 -10.7525 223.226 -19.5204C161.423 -29.9942 112.517 -11.2502 73.7281 37.7948C73.3373 38.3468 58.4425 59.949 47.3227 87.0529C36.9916 112.235 27.917 147.453 43.3056 172.223C57.3372 194.806 91.0686 183.974 133.78 170.247C179.859 155.443 237.197 137.021 285.501 159.306C326.318 178.14 363.341 165.432 386.494 142.522L386.502 142.514Z" fill="url(#paint11_linear_559_2321)"/>
</g>
<g opacity="0.43">
<path d="M80.7117 13.5049C98.8383 -4.43131 119.069 -17.1797 141.111 -24.5115C165.977 -32.7907 193.892 -34.3834 224.087 -29.2663C279.332 -19.9025 332.547 9.80834 371.398 31.5031C381.065 36.8973 390.194 41.9978 398.024 46.0257C412.944 53.6863 421.919 65.9076 423.984 81.3774C425.861 95.4107 421.862 111.309 412.714 126.128C401.42 144.422 383.393 159.136 363.235 166.481C339.672 175.077 314.29 173.653 289.832 162.378C238.638 138.763 177.743 158.33 128.809 174.054C106.757 181.139 85.9156 187.839 69.1956 189.559C50.6022 191.481 38.7034 187.139 31.7227 175.902C15.2032 149.307 24.9193 111.607 35.9693 84.6622C47.9307 55.494 64.0043 32.3047 64.1575 32.078L64.1742 32.0614C69.4618 25.3725 74.9796 19.1918 80.7029 13.5286L80.7117 13.5049ZM397.756 143.917C403.37 138.362 408.209 132.253 412.167 125.843C428.377 99.5746 430.762 63.556 397.666 46.5599C389.836 42.532 380.691 37.4326 371.024 32.0384C332.205 10.3568 279.038 -19.3266 223.899 -28.6592C158.078 -39.8134 105.988 -19.8422 64.6872 32.3799C64.3043 32.939 48.4234 55.9527 36.5679 84.8359C25.5705 111.654 15.9008 149.158 32.2872 175.554C47.2388 199.63 83.1763 188.086 128.654 173.471C177.704 157.709 238.746 138.1 290.158 161.815C333.639 181.872 373.075 168.339 397.739 143.934L397.756 143.917Z" fill="url(#paint12_linear_559_2321)"/>
</g>
<g opacity="0.38">
<path d="M72.7131 6.99287C91.939 -12.0311 113.398 -25.5449 136.758 -33.3244C163.131 -42.1032 192.729 -43.7994 224.751 -38.3716C283.348 -28.4502 339.799 3.07575 381.011 26.0845C391.263 31.8151 400.954 37.2153 409.258 41.4795C425.063 49.6021 434.588 62.5557 436.782 78.9495C438.773 93.8307 434.527 110.679 424.84 126.392C412.87 145.791 393.75 161.391 372.38 169.185C347.4 178.297 320.478 176.789 294.547 164.824C240.23 139.764 175.623 160.526 123.708 177.215C100.307 184.736 78.2141 191.832 60.4794 193.67C40.7737 195.701 28.1561 191.109 20.7622 179.2C3.25249 151.002 13.5473 111.016 25.2715 82.4432C37.9518 51.5123 54.9952 26.9128 55.1652 26.6695L55.182 26.6529C60.791 19.5558 66.6458 12.9965 72.7131 6.99287ZM409.025 145.33C414.984 139.434 420.127 132.948 424.317 126.144C441.518 98.2637 444.048 60.0295 408.926 41.9889C400.614 37.7175 390.931 32.309 380.662 26.5795C339.482 3.5839 283.08 -27.8992 224.58 -37.812C154.741 -49.6465 99.4848 -28.4492 55.6468 26.944C55.2555 27.5114 38.3883 51.9364 25.8136 82.5977C14.1415 111.059 3.88466 150.857 21.2777 178.855C37.1578 204.416 75.2764 192.17 123.552 176.663C149.654 168.274 179.237 158.767 208.609 154.666C242.355 149.947 270.559 153.099 294.848 164.301C340.986 185.59 382.843 171.222 409.009 145.331L409.025 145.33Z" fill="url(#paint13_linear_559_2321)"/>
</g>
<g opacity="0.33">
<path d="M64.7021 0.463702C85.0189 -19.6397 107.707 -33.9342 132.409 -42.1555C160.281 -51.4257 191.578 -53.2264 225.426 -47.488C287.376 -36.9936 347.054 -3.67505 390.626 20.6631C401.465 26.7148 411.71 32.4383 420.488 36.9389C437.193 45.5223 447.252 59.2094 449.566 76.5354C451.672 92.2645 447.195 110.062 436.936 126.672C424.291 147.175 404.077 163.662 381.495 171.888C355.089 181.525 326.645 179.931 299.233 167.284C241.8 140.786 173.472 162.736 118.578 180.376C93.8433 188.33 70.4834 195.824 51.7345 197.765C30.9244 199.912 17.5884 195.055 9.77301 182.482C1.59924 169.317 -1.57311 152.645 0.349225 132.915C1.88975 117.152 6.66715 99.4182 14.545 80.2082C27.9604 47.5135 45.9737 21.5038 46.1605 21.2438L46.1772 21.2273C52.1078 13.7219 58.2912 6.79237 64.7026 0.448284L64.7021 0.463702ZM420.274 146.733C426.576 140.497 432.008 133.636 436.453 126.444C454.655 96.943 457.328 56.5085 420.165 37.4245C411.378 32.9167 401.133 27.1932 390.286 21.1343C346.746 -3.17523 287.108 -36.4734 225.256 -46.9593C151.399 -59.4741 92.9603 -37.0651 46.6009 21.529C46.2096 22.0964 28.3642 47.9399 15.0539 80.3805C2.71542 110.478 -8.13646 152.561 10.2544 182.186C27.0545 209.239 67.3793 196.283 118.429 179.878C146.029 171.013 177.307 160.954 208.351 156.612C244.02 151.626 273.834 154.958 299.508 166.802C348.311 189.314 392.581 174.12 420.258 146.734L420.274 146.733Z" fill="url(#paint14_linear_559_2321)"/>
</g>
<g opacity="0.29">
<path d="M56.7037 -6.05283C78.1199 -27.2441 102.029 -42.3111 128.057 -50.973C157.435 -60.7428 190.423 -62.6397 226.098 -56.5907C291.391 -45.5304 354.297 -10.4039 400.238 15.2398C411.671 21.6197 422.47 27.6512 431.723 32.4037C449.328 41.4479 459.921 55.8684 462.371 74.1256C464.593 90.6871 459.868 109.451 449.069 126.954C435.732 148.562 414.449 165.927 390.648 174.609C362.824 184.763 332.841 183.085 303.964 169.755C243.407 141.812 171.367 164.957 113.493 183.563C87.4167 191.943 62.7971 199.858 43.0339 201.901C21.103 204.166 7.05666 199.05 -1.1719 185.805C-9.78229 171.931 -13.125 154.361 -11.1074 133.575C-9.48573 116.966 -4.4527 98.2732 3.85438 78.0228C17.997 43.557 36.9881 16.1443 37.1753 15.8689L37.1837 15.8605C43.4358 7.94687 49.9478 0.647151 56.7116 -6.04569L56.7037 -6.05283ZM431.544 148.141C438.19 141.564 443.926 134.327 448.602 126.741C467.796 95.6276 470.614 52.9775 431.425 32.8489C422.164 28.0892 411.365 22.0578 399.932 15.6779C354.023 -9.95273 291.166 -45.0518 225.953 -56.1024C148.086 -69.2903 86.4648 -45.6696 37.5845 16.1099C37.1848 16.6856 18.3615 43.9323 4.32351 78.1593C-8.68922 109.885 -20.1366 154.27 -0.723125 185.511C7.40425 198.586 21.2973 203.644 43.0157 201.393C62.7135 199.355 87.3164 191.457 113.352 183.087C142.441 173.739 175.415 163.145 208.137 158.568C245.731 153.315 277.155 156.826 304.213 169.298C355.673 193.041 402.357 177.022 431.552 148.133L431.544 148.141Z" fill="url(#paint15_linear_559_2321)"/>
</g>
<g opacity="0.24">
<path d="M48.6932 -12.5756C71.2087 -34.8546 96.3469 -50.6871 123.7 -59.7895C154.577 -70.0662 189.257 -72.0592 226.757 -65.6996C295.403 -54.0662 361.545 -17.1401 409.838 9.8259C421.857 16.5423 433.202 22.8745 442.937 27.8706C461.434 37.3684 472.569 52.5295 475.14 71.7191C477.476 89.1284 472.512 108.85 461.158 127.249C447.145 149.961 424.768 168.212 399.747 177.335C370.498 187.998 338.992 186.236 308.625 172.232C244.936 142.851 169.193 167.184 108.339 186.74C80.9292 195.554 55.0421 203.866 34.2647 206.012C11.2215 208.386 -3.53528 203.012 -12.1854 189.102C-21.2408 174.527 -24.7453 156.051 -22.6241 134.202C-20.9293 116.739 -15.6327 97.0945 -6.89646 75.8036C7.97349 39.5669 27.926 10.7522 28.13 10.4602L28.1384 10.4519C34.7116 2.14538 41.5605 -5.53286 48.6684 -12.5662L48.6932 -12.5756ZM442.801 149.543C449.792 142.626 455.823 135.02 460.748 127.039C480.942 94.3203 483.904 49.4545 442.672 28.2825C432.937 23.2865 421.577 16.94 409.558 10.2236C361.297 -16.7293 295.195 -53.6351 226.622 -65.2505C144.737 -79.1187 79.9409 -54.2791 28.5312 10.694C28.1403 11.246 8.33043 39.9196 -6.44368 75.9413C-20.1311 109.311 -32.1572 155.981 -11.7539 188.841C-3.20538 202.596 11.4144 207.91 34.2615 205.549C54.9736 203.409 80.8443 195.097 108.221 186.301C138.808 176.477 173.47 165.339 207.879 160.52C247.406 154.992 280.439 158.683 308.874 171.805C362.998 196.771 412.095 179.926 442.793 149.551L442.801 149.543Z" fill="url(#paint16_linear_559_2321)"/>
</g>
<g opacity="0.19">
<path d="M40.6936 -19.0955C64.3001 -42.454 90.6591 -59.0589 119.355 -68.6186C151.739 -79.3949 188.109 -81.4842 227.444 -74.8223C299.451 -62.6241 368.82 -23.89 419.474 4.38992C432.079 11.4274 443.986 18.0746 454.195 23.3225C473.585 33.2895 485.262 49.1758 487.961 69.2893C490.411 87.5465 485.2 108.218 473.299 127.504C458.602 151.313 435.14 170.459 408.907 180.03C378.233 191.218 345.196 189.362 313.364 174.675C246.551 143.85 167.103 169.385 103.262 189.9C74.5104 199.14 47.3555 207.866 25.5802 210.113C1.42415 212.612 -14.043 206.98 -23.0979 192.389C-32.5899 177.104 -36.281 157.731 -34.0482 134.825C-32.2639 116.508 -26.7117 95.9046 -17.5547 73.5815C-1.96588 35.5822 18.9728 5.35598 19.1852 5.05569L19.1936 5.04738C26.0883 -3.6674 33.2743 -11.7241 40.7263 -19.0978L40.6936 -19.0955ZM454.07 150.947C461.404 143.689 467.732 135.701 472.896 127.332C494.082 93.0015 497.189 45.9201 453.931 23.7036C443.722 18.4556 431.815 11.8084 419.202 4.7638C368.58 -23.503 299.235 -62.2157 227.31 -74.4041C141.399 -88.9597 73.4363 -62.8941 19.4971 5.27274C19.0891 5.85676 -1.69063 35.9406 -17.1832 73.7095C-31.5369 108.715 -44.1584 157.686 -22.7569 192.156C-13.7793 206.598 1.5588 212.178 25.5346 209.707C47.2609 207.464 74.3994 198.739 103.118 189.517C135.195 179.21 171.553 167.521 207.64 162.482C249.09 156.688 283.734 160.558 313.553 174.323C370.334 200.52 421.845 182.833 454.053 150.964L454.07 150.947Z" fill="url(#paint17_linear_559_2321)"/>
</g>
<g opacity="0.14">
<path d="M32.8469 -25.7905C41.8095 -34.6589 51.1371 -42.5969 60.7623 -49.5226C77.6565 -61.6885 95.8991 -71.0732 115.002 -77.4341C148.893 -88.71 186.954 -90.8956 228.116 -83.923C303.467 -71.159 376.071 -30.6252 429.077 -1.02304C442.277 6.34263 454.729 13.3061 465.413 18.7904C485.703 29.2182 497.914 45.8379 500.734 66.8837C503.291 85.9816 497.848 107.618 485.391 127.799C470.019 152.713 445.463 172.745 418.011 182.757C385.918 194.461 351.351 192.529 318.037 177.16C248.101 144.889 164.941 171.619 98.12 193.085C68.0347 202.758 39.6125 211.882 16.8144 214.24C-8.4539 216.849 -24.6315 210.958 -34.108 195.703C-44.0365 179.709 -47.8978 159.438 -45.5615 135.468C-43.696 116.305 -37.8883 94.7424 -28.302 71.3788C-11.986 31.6084 9.92212 -0.012455 10.1434 -0.336546L10.1517 -0.344789C17.402 -9.51651 24.9837 -18.0099 32.8386 -25.7822L32.8469 -25.7905ZM465.331 152.35C473.01 144.752 479.634 136.395 485.045 127.631C507.223 91.6881 510.482 42.3982 465.183 19.1382C454.491 13.6468 442.03 6.69162 428.839 -0.682346C375.849 -30.2703 303.285 -70.7837 227.999 -83.5369C138.07 -98.7728 66.9159 -71.4872 10.4721 -0.136105C10.0808 0.43134 -11.6931 31.9194 -27.9221 71.4985C-42.9505 108.147 -56.1672 159.405 -33.751 195.485C-24.3523 210.607 -8.27944 216.451 16.8171 213.862C39.5661 211.508 67.9634 202.393 98.024 192.73C131.591 181.939 169.644 169.714 207.402 164.434C250.769 158.366 287.03 162.422 318.234 176.814C377.681 204.235 431.596 185.731 465.323 152.358L465.331 152.35Z" fill="url(#paint18_linear_559_2321)"/>
</g>
<g opacity="0.1">
<path d="M24.8338 -32.3217C34.1991 -41.5887 43.9362 -49.8717 53.9779 -57.1044C71.6133 -69.8085 90.6752 -79.6135 110.626 -86.2579C117.444 -88.5282 124.448 -90.4569 131.588 -92.0251C85.6237 -81.8093 41.0933 -55.7399 1.40819 -5.56752C1.0169 -5.00007 -21.7352 27.9064 -38.6999 69.2649C-54.4025 107.542 -68.2063 161.093 -44.7844 198.806C-34.965 214.623 -18.1733 220.717 8.06021 218.009C31.8235 215.553 61.4887 206.025 92.8908 195.935C127.956 184.669 167.696 171.9 207.141 166.378C252.432 160.043 290.295 164.271 322.892 179.313C399.132 214.493 466.675 177.337 497.155 127.938C520.333 90.3747 523.72 38.8858 476.403 14.573C465.245 8.83678 452.223 1.56657 438.429 -6.1273C380.364 -38.5495 302.26 -82.1575 221.83 -94.1157C224.128 -93.7767 226.434 -93.4151 228.739 -93.0226C307.442 -79.6855 383.275 -37.3438 438.641 -6.42761C452.419 1.26741 465.441 8.53759 476.599 14.2738C497.782 25.1552 510.542 42.5227 513.483 64.4853C516.154 84.4312 510.464 107.018 497.468 128.093C481.421 154.111 455.771 175.03 427.115 185.482C393.606 197.702 357.499 195.686 322.712 179.627C249.644 145.919 162.78 173.836 92.9792 196.268C61.5524 206.368 31.8787 215.904 8.06643 218.364C-18.3142 221.082 -35.2106 214.941 -45.1002 199.013C-55.4817 182.311 -59.5054 161.15 -57.057 136.108C-55.102 116.09 -49.0386 93.5684 -39.0316 69.1727C-21.9883 27.6313 0.889618 -5.3998 1.11927 -5.73217C8.69102 -15.3121 16.6097 -24.184 24.817 -32.3051L24.8338 -32.3217Z" fill="url(#paint19_linear_559_2321)"/>
</g>
<g opacity="0.05">
<path d="M16.8448 -38.8425C26.6047 -48.4998 36.7596 -57.1362 47.2341 -64.6771C65.6271 -77.9204 85.492 -88.1445 106.291 -95.0569C125.575 -101.477 146.202 -105.231 167.591 -106.224C187.175 -107.129 207.991 -105.753 229.436 -102.115C311.484 -88.2122 390.552 -44.0708 448.279 -11.8407C462.651 -3.81749 476.227 3.76059 487.851 9.74147C509.934 21.0837 523.228 39.1847 526.289 62.0796C529.075 82.8733 523.146 106.418 509.587 128.381C501.456 141.563 491.112 153.406 478.858 163.594C465.96 174.313 451.623 182.597 436.245 188.201C401.309 200.947 363.671 198.838 327.411 182.104C251.22 146.951 160.643 176.063 87.8631 199.446C55.1027 209.979 24.1533 219.921 -0.664841 222.475C-28.1583 225.318 -45.7646 218.904 -56.0758 202.312C-66.8939 184.9 -71.0878 162.841 -68.5363 136.75C-66.5002 115.886 -60.1812 92.4061 -49.745 66.9698C-31.9829 23.6658 -8.11877 -10.7767 -7.88072 -11.1174C0.0125831 -21.1056 8.26832 -30.356 16.8197 -38.8175L16.8448 -38.8425ZM487.849 155.163C496.215 146.884 503.431 137.776 509.322 128.223C533.492 89.0468 537.031 35.3494 487.673 9.99314C476.033 4.01341 462.456 -3.56469 448.084 -11.5879C390.381 -43.812 311.338 -87.9474 229.339 -101.838C131.374 -118.435 53.8626 -88.7186 -7.62358 -10.9813C-8.00604 -10.4376 -31.7447 23.8958 -49.445 67.0335C-65.8224 106.955 -80.2133 162.798 -55.7848 202.114C-45.5443 218.611 -28.0263 224.977 -0.655619 222.151C24.1219 219.592 55.0549 209.651 87.7986 199.134C124.354 187.385 165.798 174.072 206.913 168.324C254.128 161.722 293.601 166.13 327.591 181.806C392.359 211.681 451.109 191.517 487.849 155.163Z" fill="url(#paint20_linear_559_2321)"/>
</g>
</g>
<defs>
<linearGradient id="paint0_linear_559_2321" x1="194.144" y1="152.245" x2="227.237" y2="82.0558" gradientUnits="userSpaceOnUse">
<stop stop-color="#FF5910"/>
<stop offset="1" stop-color="#5500FF"/>
</linearGradient>
<linearGradient id="paint1_linear_559_2321" x1="190.031" y1="159.082" x2="230.418" y2="73.4249" gradientUnits="userSpaceOnUse">
<stop stop-color="#FF5910"/>
<stop offset="1" stop-color="#5500FF"/>
</linearGradient>
<linearGradient id="paint2_linear_559_2321" x1="185.944" y1="165.922" x2="233.629" y2="64.7859" gradientUnits="userSpaceOnUse">
<stop stop-color="#FF5910"/>
<stop offset="1" stop-color="#5500FF"/>
</linearGradient>
<linearGradient id="paint3_linear_559_2321" x1="181.831" y1="172.762" x2="236.814" y2="56.1472" gradientUnits="userSpaceOnUse">
<stop stop-color="#FF5910"/>
<stop offset="1" stop-color="#5500FF"/>
</linearGradient>
<linearGradient id="paint4_linear_559_2321" x1="177.718" y1="179.599" x2="240.004" y2="47.4955" gradientUnits="userSpaceOnUse">
<stop stop-color="#FF5910"/>
<stop offset="1" stop-color="#5500FF"/>
</linearGradient>
<linearGradient id="paint5_linear_559_2321" x1="173.575" y1="186.501" x2="243.189" y2="38.8561" gradientUnits="userSpaceOnUse">
<stop stop-color="#FF5910"/>
<stop offset="1" stop-color="#5500FF"/>
</linearGradient>
<linearGradient id="paint6_linear_559_2321" x1="169.456" y1="193.339" x2="246.372" y2="30.206" gradientUnits="userSpaceOnUse">
<stop stop-color="#FF5910"/>
<stop offset="1" stop-color="#5500FF"/>
</linearGradient>
<linearGradient id="paint7_linear_559_2321" x1="165.341" y1="200.181" x2="249.56" y2="21.5587" gradientUnits="userSpaceOnUse">
<stop stop-color="#FF5910"/>
<stop offset="1" stop-color="#5500FF"/>
</linearGradient>
<linearGradient id="paint8_linear_559_2321" x1="161.221" y1="207.015" x2="252.738" y2="12.9144" gradientUnits="userSpaceOnUse">
<stop stop-color="#FF5910"/>
<stop offset="1" stop-color="#5500FF"/>
</linearGradient>
<linearGradient id="paint9_linear_559_2321" x1="157.104" y1="213.865" x2="255.929" y2="4.26489" gradientUnits="userSpaceOnUse">
<stop stop-color="#FF5910"/>
<stop offset="1" stop-color="#5500FF"/>
</linearGradient>
<linearGradient id="paint10_linear_559_2321" x1="152.99" y1="220.706" x2="259.112" y2="-4.37282" gradientUnits="userSpaceOnUse">
<stop stop-color="#FF5910"/>
<stop offset="1" stop-color="#5500FF"/>
</linearGradient>
<linearGradient id="paint11_linear_559_2321" x1="148.876" y1="227.543" x2="262.302" y2="-13.0248" gradientUnits="userSpaceOnUse">
<stop stop-color="#FF5910"/>
<stop offset="1" stop-color="#5500FF"/>
</linearGradient>
<linearGradient id="paint12_linear_559_2321" x1="144.784" y1="234.343" x2="265.493" y2="-21.6716" gradientUnits="userSpaceOnUse">
<stop stop-color="#FF5910"/>
<stop offset="1" stop-color="#5500FF"/>
</linearGradient>
<linearGradient id="paint13_linear_559_2321" x1="140.675" y1="241.185" x2="268.682" y2="-30.3084" gradientUnits="userSpaceOnUse">
<stop stop-color="#FF5910"/>
<stop offset="1" stop-color="#5500FF"/>
</linearGradient>
<linearGradient id="paint14_linear_559_2321" x1="136.564" y1="248.03" x2="271.874" y2="-38.9526" gradientUnits="userSpaceOnUse">
<stop stop-color="#FF5910"/>
<stop offset="1" stop-color="#5500FF"/>
</linearGradient>
<linearGradient id="paint15_linear_559_2321" x1="132.456" y1="254.867" x2="275.064" y2="-47.5941" gradientUnits="userSpaceOnUse">
<stop stop-color="#FF5910"/>
<stop offset="1" stop-color="#5500FF"/>
</linearGradient>
<linearGradient id="paint16_linear_559_2321" x1="128.344" y1="261.705" x2="278.255" y2="-56.2449" gradientUnits="userSpaceOnUse">
<stop stop-color="#FF5910"/>
<stop offset="1" stop-color="#5500FF"/>
</linearGradient>
<linearGradient id="paint17_linear_559_2321" x1="124.227" y1="268.547" x2="281.44" y2="-64.8918" gradientUnits="userSpaceOnUse">
<stop stop-color="#FF5910"/>
<stop offset="1" stop-color="#5500FF"/>
</linearGradient>
<linearGradient id="paint18_linear_559_2321" x1="120.118" y1="275.386" x2="284.63" y2="-73.5312" gradientUnits="userSpaceOnUse">
<stop stop-color="#FF5910"/>
<stop offset="1" stop-color="#5500FF"/>
</linearGradient>
<linearGradient id="paint19_linear_559_2321" x1="115.995" y1="282.224" x2="287.81" y2="-82.1822" gradientUnits="userSpaceOnUse">
<stop stop-color="#FF5910"/>
<stop offset="1" stop-color="#5500FF"/>
</linearGradient>
<linearGradient id="paint20_linear_559_2321" x1="111.889" y1="289.065" x2="291.001" y2="-90.8195" gradientUnits="userSpaceOnUse">
<stop stop-color="#FF5910"/>
<stop offset="1" stop-color="#5500FF"/>
</linearGradient>
</defs>
</svg>
