<svg width="376" height="302" viewBox="0 0 376 302" fill="none" xmlns="http://www.w3.org/2000/svg">
<mask id="mask0_559_4237" style="mask-type:alpha" maskUnits="userSpaceOnUse" x="0" y="0" width="376" height="302">
<rect width="376" height="302" rx="30" fill="#E9E9E9"/>
</mask>
<g mask="url(#mask0_559_4237)">
<path d="M160.656 194.16C183.734 169.948 214.039 187.892 232.59 198.875C234.959 200.279 237.205 201.611 239.126 202.648C247.602 207.263 247.008 217.013 242.869 224.117C237.473 233.38 225.53 240.37 212.062 233.774C199.625 227.688 184.741 232.76 172.787 236.84C161.805 240.58 152.326 243.814 148.43 237.156C140.532 223.675 155.783 200.183 156.432 199.184L156.455 199.16C157.823 197.32 159.23 195.655 160.656 194.16ZM238.528 228.281C239.877 226.866 241.045 225.308 242 223.67C245.882 217.008 246.452 207.877 238.567 203.581C236.632 202.53 234.387 201.198 232.002 199.78C212.606 188.297 180.135 169.081 157.27 199.708C156.814 200.403 141.819 223.742 149.342 236.56C152.856 242.564 161.55 239.604 172.554 235.855C184.694 231.724 199.803 226.576 212.591 232.829C223.083 237.962 232.583 234.503 238.528 228.266L238.528 228.281Z" fill="url(#paint0_linear_559_4237)"/>
<g opacity="0.95">
<path d="M153.249 188.046C164.955 175.764 179.584 171.12 196.842 174.217C213.547 177.214 229.604 186.72 241.321 193.662C244.231 195.382 246.98 197.011 249.331 198.29C259.633 203.897 258.908 215.751 253.876 224.4C247.307 235.688 232.753 244.188 216.339 236.157C201.065 228.679 182.809 234.902 168.149 239.897C154.76 244.456 143.195 248.403 138.47 240.344C128.844 223.904 147.464 195.214 148.259 194.004L148.282 193.98C149.873 191.833 151.533 189.86 153.256 188.053L153.249 188.046ZM248.751 229.632C250.412 227.889 251.841 225.97 253.021 223.951C257.804 215.737 258.513 204.479 248.781 199.17C246.416 197.877 243.667 196.249 240.75 194.521C216.957 180.434 177.128 156.876 149.054 194.486C148.552 195.259 130.079 223.967 139.33 239.76C143.687 247.193 154.377 243.557 167.908 238.95C182.747 233.896 201.212 227.599 216.837 235.243C229.742 241.562 241.442 237.3 248.758 229.624L248.751 229.632Z" fill="url(#paint1_linear_559_4237)"/>
</g>
<g opacity="0.9">
<path d="M145.972 181.781C159.798 167.277 177.064 161.789 197.447 165.454C217.19 168.996 236.178 180.243 250.039 188.45C253.481 190.494 256.733 192.419 259.515 193.926C271.642 200.526 270.786 214.498 264.862 224.676C257.105 237.992 239.955 248.015 220.586 238.542C202.475 229.687 180.856 237.053 163.482 242.972C147.678 248.357 134.035 253.01 128.481 243.534C117.119 224.143 139.834 189.161 140.058 188.811L140.081 188.787C141.964 186.262 143.922 183.932 145.957 181.797L145.972 181.781ZM258.982 230.99C260.956 228.919 262.661 226.638 264.059 224.246C269.743 214.48 270.583 201.088 259.003 194.781C256.207 193.261 252.948 191.329 249.498 189.292C221.315 172.608 174.152 144.683 140.845 189.286C140.297 190.122 118.34 224.207 129.333 242.973C134.525 251.844 147.212 247.516 163.27 242.052C180.808 236.076 202.637 228.636 221.084 237.658C236.41 245.154 250.301 240.097 258.982 230.99Z" fill="url(#paint2_linear_559_4237)"/>
</g>
<g opacity="0.86">
<path d="M138.697 175.502C154.634 158.782 174.56 152.442 198.062 156.668C220.848 160.762 242.775 173.742 258.781 183.214C262.755 185.568 266.51 187.789 269.73 189.546C283.675 197.145 282.696 213.213 275.879 224.921C266.949 240.262 247.181 251.804 224.873 240.887C203.925 230.641 178.934 239.157 158.854 245.991C140.643 252.196 124.907 257.554 118.539 246.677C105.441 224.319 131.641 183.976 131.91 183.577L131.933 183.553C134.1 180.643 136.365 177.949 138.712 175.486L138.697 175.502ZM269.214 232.333C271.5 229.934 273.474 227.299 275.09 224.52C281.682 213.193 282.653 197.682 269.227 190.363C266 188.6 262.237 186.371 258.255 184.026C225.675 164.737 171.147 132.448 132.653 184.056C132.066 184.961 106.609 224.425 119.345 246.164C125.381 256.464 140.055 251.468 158.64 245.131C178.877 238.233 204.07 229.65 225.347 240.057C243.085 248.739 259.168 242.887 269.228 232.332L269.214 232.333Z" fill="url(#paint3_linear_559_4237)"/>
</g>
<g opacity="0.81">
<path d="M131.418 169.237C149.474 150.295 172.044 143.118 198.664 147.905C224.488 152.544 249.354 167.257 267.503 178.01C272.017 180.679 276.275 183.197 279.918 185.189C295.696 193.788 294.579 211.952 286.861 225.213C276.752 242.573 254.372 255.639 229.117 243.287C205.332 231.649 176.969 241.316 154.184 249.081C133.558 256.112 115.744 262.175 108.554 249.89C93.7206 224.58 123.404 178.874 123.706 178.414L123.728 178.39C126.187 175.087 128.743 172.044 131.403 169.253L131.418 169.237ZM279.442 233.691C282.04 230.965 284.284 227.96 286.117 224.808C293.61 211.928 294.712 194.285 279.438 185.968C275.78 183.977 271.515 181.452 266.994 178.775C248.895 168.056 224.103 153.382 198.419 148.77C167.832 143.27 143.635 153.108 124.428 178.827C123.802 179.787 94.8524 224.636 109.331 249.349C116.21 261.079 132.873 255.399 153.985 248.205C176.928 240.391 205.478 230.658 229.569 242.451C249.728 252.311 268.002 245.663 279.435 233.67L279.442 233.691Z" fill="url(#paint4_linear_559_4237)"/>
</g>
<g opacity="0.76">
<path d="M124.136 162.966C144.31 141.8 169.525 133.787 199.271 139.127C228.148 144.31 255.937 160.772 276.23 172.775C281.269 175.761 286.038 178.583 290.112 180.802C307.714 190.393 306.467 210.676 297.856 225.467C286.574 244.853 261.591 259.435 233.382 245.641C206.753 232.619 175.026 243.429 149.534 252.109C125.552 260.275 106.601 266.736 98.5824 253.034C82.0208 224.765 115.189 173.697 115.529 173.181L115.551 173.157C118.295 169.47 121.164 166.069 124.128 162.959L124.136 162.966ZM289.666 235.042C292.578 231.988 295.09 228.629 297.148 225.096C305.549 210.671 306.782 190.893 289.662 181.564C285.566 179.338 280.804 176.509 275.751 173.523C255.509 161.539 227.785 145.124 199.049 139.968C164.806 133.821 137.718 144.826 116.228 173.619C115.564 174.634 83.1218 224.868 99.3358 252.562C107.043 265.723 125.717 259.365 149.355 251.313C174.997 242.578 206.91 231.702 233.825 244.872C256.396 255.918 276.87 248.467 289.666 235.042Z" fill="url(#paint5_linear_559_4237)"/>
</g>
<g opacity="0.71">
<path d="M116.935 156.606C127.422 145.604 139.136 137.784 151.886 133.288C166.274 128.216 182.419 127.23 199.876 130.364C231.789 136.092 262.517 154.286 284.954 167.57C290.533 170.872 295.805 173.99 300.317 176.444C319.745 187.027 318.367 209.414 308.863 225.749C302.325 236.99 291.875 246.03 280.184 250.543C266.531 255.827 251.821 254.961 237.658 248.023C208.192 233.61 173.101 245.563 144.903 255.173C118.409 264.196 97.477 271.332 88.6295 256.229C70.3321 225.008 106.985 168.563 107.363 167.993L107.379 167.977C110.437 163.872 113.62 160.084 116.935 156.606ZM299.889 236.393C303.113 233.011 305.894 229.283 308.169 225.377C317.471 209.399 318.843 187.495 299.868 177.161C295.349 174.7 290.069 171.575 284.491 168.273C262.105 155.023 231.435 136.868 199.654 131.16C161.77 124.35 131.784 136.545 108.012 168.397C107.309 169.467 71.3669 225.094 89.3311 255.754C97.8812 270.343 118.544 263.302 144.701 254.401C173.042 244.743 208.32 232.724 238.063 247.28C263.055 259.503 285.72 251.258 299.889 236.393Z" fill="url(#paint6_linear_559_4237)"/>
</g>
<g opacity="0.67">
<path d="M109.659 150.327C121.145 138.277 133.967 129.713 147.928 124.785C163.677 119.225 181.366 118.153 200.481 121.587C235.439 127.866 269.106 147.793 293.679 162.35C299.79 165.962 305.558 169.384 310.508 172.073C331.761 183.648 330.246 208.146 319.856 226.003C312.697 238.301 301.262 248.201 288.47 253.146C273.522 258.92 257.429 257.971 241.921 250.392C209.618 234.588 171.155 247.691 140.243 258.225C111.238 268.104 88.3245 275.915 78.6555 259.404C58.63 225.223 98.7673 163.416 99.1692 162.792L99.1844 162.776C102.535 158.278 106.024 154.126 109.644 150.328L109.659 150.327ZM310.112 237.744C313.649 234.034 316.699 229.952 319.199 225.666C329.402 208.135 330.905 184.098 310.09 172.757C305.132 170.062 299.357 166.633 293.239 163.014C268.702 148.492 235.109 128.603 200.268 122.345C158.735 114.88 125.873 128.24 99.796 163.176C99.07 164.285 59.6202 225.312 79.3267 258.96C88.7123 274.988 111.371 267.27 140.055 257.497C171.102 246.923 209.737 233.755 242.303 249.688C269.707 263.097 294.564 254.056 310.105 237.752L310.112 237.744Z" fill="url(#paint7_linear_559_4237)"/>
</g>
<g opacity="0.62">
<path d="M102.4 144.046C114.876 130.957 128.807 121.65 143.988 116.296C161.105 110.255 180.322 109.084 201.104 112.823C239.106 119.654 275.697 141.316 302.422 157.129C309.065 161.065 315.343 164.776 320.724 167.707C343.802 180.274 342.164 206.884 330.866 226.286C323.086 239.655 310.665 250.401 296.772 255.777C280.53 262.057 263.046 261.019 246.2 252.775C211.068 235.586 169.226 249.834 135.615 261.29C104.098 272.025 79.2113 280.503 68.7059 262.585C57.3224 243.158 64.0081 215.621 71.6164 195.953C79.8456 174.679 90.8988 157.761 91.0143 157.596L91.0296 157.58C94.6641 152.697 98.4664 148.187 102.407 144.053L102.4 144.046ZM320.353 239.094C324.202 235.057 327.528 230.612 330.238 225.947C341.342 206.863 342.976 180.692 320.314 168.354C314.926 165.416 308.647 161.705 301.997 157.763C275.324 141.967 238.784 120.339 200.907 113.536C155.724 105.415 119.971 119.942 91.6122 157.952C90.8477 159.116 47.8983 225.522 69.3546 262.15C79.5835 279.607 104.231 271.205 135.442 260.575C169.187 249.079 211.186 234.768 246.582 252.086C276.406 266.673 303.455 256.836 320.367 239.093L320.353 239.094Z" fill="url(#paint8_linear_559_4237)"/>
</g>
<g opacity="0.57">
<path d="M95.1231 137.767C108.598 123.63 123.638 113.579 140.022 107.801C158.508 101.279 179.261 100.015 201.694 104.046C242.742 111.415 282.271 134.824 311.132 151.911C318.314 156.163 325.088 160.178 330.9 163.337C355.804 176.896 354.035 205.609 341.844 226.556C333.443 240.981 320.036 252.588 305.043 258.381C287.513 265.158 268.632 264.04 250.448 255.146C212.471 236.573 167.265 251.963 130.941 264.343C96.9115 275.934 70.0438 285.088 58.7169 265.761C46.434 244.79 53.6449 215.068 61.866 193.817C70.7556 170.838 82.6969 152.568 82.8128 152.389L82.8281 152.373C86.7618 147.103 90.8554 142.23 95.1083 137.768L95.1231 137.767ZM330.568 240.454C334.729 236.088 338.317 231.283 341.26 226.243C353.272 205.6 355.037 177.31 330.528 163.959C324.709 160.793 317.928 156.771 310.745 152.519C281.92 135.452 242.45 112.082 201.52 104.735C152.688 95.9597 114.045 111.668 83.3959 152.746C82.6157 153.94 36.1439 225.748 59.35 265.357C70.4144 284.251 97.0655 275.165 130.803 263.677C167.247 251.259 212.602 235.813 250.828 254.501C283.065 270.273 312.306 259.627 330.591 240.445L330.568 240.454Z" fill="url(#paint9_linear_559_4237)"/>
</g>
<g opacity="0.52">
<path d="M87.8529 131.494C102.326 116.309 118.482 105.521 136.071 99.3188C155.925 92.3156 178.214 90.9593 202.305 95.2896C246.397 103.21 288.858 128.345 319.863 146.697C327.578 151.258 334.862 155.577 341.105 158.978C367.841 173.536 365.934 204.361 352.85 226.838C343.835 242.326 329.435 254.787 313.335 261.005C294.518 268.279 274.246 267.086 254.724 257.528C213.91 237.563 165.34 254.112 126.31 267.406C89.7684 279.854 60.9196 289.684 48.7712 268.947C35.5816 246.425 43.3254 214.51 52.1512 191.699C61.6937 167.022 74.5158 147.395 74.647 147.2L74.6622 147.184C78.888 141.521 83.2876 136.283 87.8529 131.494ZM340.797 241.811C345.271 237.117 349.136 231.95 352.281 226.539C365.194 204.343 367.097 173.926 340.733 159.571C334.484 156.162 327.192 151.852 319.477 147.276C288.509 128.943 246.099 103.841 202.118 95.9348C149.636 86.5042 108.11 103.387 75.1714 147.532C74.824 148.055 62.1772 167.499 52.7458 191.899C43.9757 214.565 36.2672 246.27 49.3368 268.571C61.2444 288.894 89.8838 279.14 126.149 266.78C165.291 253.439 214.01 236.85 255.051 256.924C289.708 273.874 321.134 262.441 340.79 241.819L340.797 241.811Z" fill="url(#paint10_linear_559_4237)"/>
</g>
<g opacity="0.48">
<path d="M80.5836 125.207C96.0479 108.983 113.32 97.4434 132.12 90.8087C153.343 83.3244 177.16 81.8685 202.918 86.5049C250.047 94.9697 295.446 121.853 328.595 141.471C336.842 146.356 344.637 150.963 351.303 154.6C364.036 161.533 371.695 172.603 373.469 186.593C375.077 199.297 371.654 213.676 363.851 227.084C354.215 243.644 338.821 256.945 321.628 263.6C301.516 271.38 279.853 270.098 258.986 259.883C215.335 238.527 163.394 256.226 121.65 270.444C82.5967 283.748 51.7669 294.253 38.7821 272.109C24.6855 248.051 32.9697 213.934 42.4007 189.549C52.6037 163.167 66.3139 142.188 66.4526 141.985L66.4679 141.969C70.9857 135.913 75.6837 130.319 80.5692 125.193L80.5836 125.207ZM351.028 243.155C355.814 238.134 359.947 232.612 363.31 226.813C377.131 203.071 379.159 170.514 350.955 155.153C344.267 151.51 336.48 146.895 328.225 142.018C295.112 122.42 249.764 95.5701 202.738 87.1272C146.608 77.0415 102.19 95.0908 66.9622 142.318C66.6072 142.849 53.0796 163.651 42.9805 189.75C33.5976 213.999 25.3559 247.912 39.3321 271.764C52.0757 293.51 82.711 283.078 121.502 269.861C163.351 255.605 215.427 237.867 259.297 259.325C296.367 277.461 329.992 265.224 351.02 243.163L351.028 243.155Z" fill="url(#paint11_linear_559_4237)"/>
</g>
<g opacity="0.43">
<path d="M73.3054 118.927C89.7682 101.656 108.142 89.3802 128.16 82.3202C150.745 74.3479 176.097 72.8142 203.521 77.7417C253.695 86.7584 302.025 115.368 337.311 136.259C346.09 141.453 354.381 146.364 361.492 150.243C375.043 157.619 383.194 169.388 385.07 184.284C386.774 197.797 383.142 213.106 374.834 227.376C364.577 244.992 348.204 259.16 329.896 266.233C308.497 274.511 285.444 273.139 263.231 262.282C216.736 239.543 161.431 258.385 116.988 273.525C96.9602 280.348 78.0316 286.799 62.8463 288.456C45.9596 290.306 35.1529 286.125 28.813 275.305C13.8098 249.696 22.634 213.393 32.6698 187.447C43.5333 159.36 58.1315 137.03 58.2707 136.812L58.2859 136.796C63.0881 130.355 68.0994 124.404 73.2974 118.95L73.3054 118.927ZM361.249 244.506C366.348 239.157 370.742 233.273 374.337 227.101C389.059 201.807 391.225 167.123 361.167 150.757C354.056 146.879 345.751 141.968 336.971 136.774C301.715 115.896 253.428 87.313 203.35 78.3263C143.57 67.5855 96.262 86.8165 58.7518 137.103C58.4041 137.641 43.9807 159.802 33.2135 187.614C23.2255 213.438 14.4433 249.552 29.3257 274.97C42.9049 298.154 75.5438 287.038 116.847 272.964C161.395 257.786 216.834 238.904 263.527 261.741C303.018 281.054 338.834 268.022 361.234 244.522L361.249 244.506Z" fill="url(#paint12_linear_559_4237)"/>
</g>
<g opacity="0.38">
<path d="M66.037 112.655C83.4982 94.3359 102.988 81.323 124.203 73.8318C148.156 65.3784 175.037 63.7451 204.12 68.9717C257.338 78.5253 308.607 108.883 346.037 131.039C355.348 136.557 364.15 141.757 371.692 145.863C386.045 153.685 394.697 166.158 396.689 181.944C398.497 196.274 394.641 212.498 385.843 227.628C374.972 246.308 357.606 261.33 338.198 268.834C315.511 277.609 291.06 276.157 267.509 264.635C218.177 240.504 159.501 260.497 112.351 276.567C91.0977 283.809 71.033 290.642 54.9262 292.412C37.0292 294.368 25.5697 289.946 18.8545 278.479C2.95196 251.326 12.3018 212.822 22.9499 185.308C34.4663 155.524 49.9453 131.836 50.0998 131.602L50.115 131.586C55.2092 124.752 60.5266 118.436 66.037 112.655ZM371.48 245.864C376.891 240.187 381.562 233.941 385.368 227.389C400.99 200.542 403.288 163.725 371.39 146.353C363.84 142.24 355.047 137.032 345.72 131.515C308.32 109.372 257.094 79.0559 203.964 69.5105C140.536 58.1147 90.3513 78.5263 50.5371 131.866C50.1817 132.413 34.8628 155.932 23.4423 185.457C12.8414 212.864 3.52607 251.186 19.3227 278.147C33.7451 302.76 68.365 290.968 112.21 276.036C135.915 267.957 162.783 258.803 189.46 254.854C220.107 250.31 245.723 253.346 267.782 264.132C309.686 284.632 347.701 270.796 371.465 245.865L371.48 245.864Z" fill="url(#paint13_linear_559_4237)"/>
</g>
<g opacity="0.33">
<path d="M58.77 106.367C77.222 87.0091 97.828 73.2444 120.262 65.3279C145.576 56.4013 174 54.6674 204.742 60.1931C261.005 70.2985 315.206 102.382 354.778 125.818C364.622 131.645 373.927 137.157 381.9 141.491C397.071 149.756 406.207 162.935 408.308 179.619C410.221 194.765 406.155 211.903 396.837 227.897C385.353 247.64 366.994 263.516 346.486 271.437C322.503 280.717 296.67 279.183 271.774 267.005C219.612 241.489 157.557 262.625 107.701 279.611C85.2364 287.27 64.0207 294.487 46.9927 296.355C28.0927 298.423 15.9808 293.746 8.88273 281.639C1.45921 268.962 -1.42198 252.908 0.323926 233.909C1.72305 218.731 6.06194 201.654 13.2167 183.156C25.4008 151.673 41.7606 126.628 41.9303 126.377L41.9455 126.361C47.3317 119.134 52.9475 112.461 58.7705 106.353L58.77 106.367ZM381.705 247.215C387.429 241.21 392.361 234.604 396.399 227.678C412.93 199.27 415.358 160.335 381.606 141.958C373.625 137.617 364.321 132.106 354.47 126.272C314.926 102.863 260.762 70.7994 204.587 60.7021C137.509 48.6513 84.4345 70.2296 42.3303 126.652C41.9749 127.198 25.7675 152.084 13.6789 183.322C2.47295 212.303 -7.38287 252.827 9.31998 281.353C24.578 307.404 61.2015 294.928 107.566 279.131C132.632 270.595 161.04 260.909 189.233 256.727C221.629 251.926 248.706 255.135 272.023 266.54C316.347 288.217 356.554 273.587 381.69 247.216L381.705 247.215Z" fill="url(#paint14_linear_559_4237)"/>
</g>
<g opacity="0.29">
<path d="M51.4986 100.095C70.949 79.6892 92.6638 65.1807 116.302 56.8399C142.984 47.4322 172.944 45.6056 205.344 51.4304C264.645 62.0808 321.777 95.9052 363.501 120.598C373.885 126.742 383.692 132.55 392.096 137.126C408.085 145.835 417.706 159.721 419.931 177.301C421.948 193.249 417.657 211.317 407.85 228.172C395.737 248.979 376.408 265.7 354.791 274.061C329.521 283.838 302.29 282.223 276.063 269.386C221.065 242.479 155.638 264.766 103.076 282.683C79.3926 290.752 57.0327 298.374 39.0835 300.341C19.1656 302.522 6.40851 297.596 -1.06478 284.841C-8.88482 271.481 -11.9207 254.563 -10.0883 234.548C-8.61549 218.554 -4.04441 200.554 3.50015 181.054C16.3447 147.866 33.5926 121.469 33.7627 121.204L33.7703 121.196C39.4485 113.576 45.3628 106.547 51.5058 100.102L51.4986 100.095ZM391.933 248.573C397.969 242.241 403.178 235.272 407.426 227.966C424.858 198.006 427.417 156.937 391.825 137.555C383.414 132.972 373.607 127.164 363.223 121.02C321.528 96.3397 264.44 62.5416 205.213 51.9006C134.493 39.2016 78.528 61.9467 34.1343 121.436C33.7713 121.991 16.6758 148.227 3.92622 181.186C-7.89211 211.735 -18.2887 254.475 -0.657184 284.558C6.72419 297.149 19.342 302.019 39.0669 299.852C56.9567 297.889 79.3014 290.284 102.947 282.225C129.366 273.223 159.314 263.021 189.032 258.614C223.176 253.556 251.715 256.937 276.29 268.946C323.026 291.809 365.425 276.383 391.941 248.565L391.933 248.573Z" fill="url(#paint15_linear_559_4237)"/>
</g>
<g opacity="0.24">
<path d="M44.2236 93.8151C64.6725 72.3619 87.5033 57.1163 112.346 48.3512C140.389 38.4555 171.885 36.5363 205.944 42.6603C268.289 53.8624 328.359 89.4198 372.22 115.386C383.136 121.854 393.439 127.951 402.281 132.762C419.08 141.908 429.193 156.507 431.528 174.985C433.649 191.749 429.141 210.74 418.829 228.457C406.102 250.327 385.78 267.902 363.055 276.687C336.491 286.954 307.877 285.257 280.297 271.772C222.454 243.481 153.663 266.911 98.395 285.743C73.5008 294.23 49.9898 302.234 31.1195 304.3C10.1913 306.587 -3.21091 301.412 -11.0671 288.018C-19.2913 273.983 -22.4741 256.192 -20.5476 235.152C-19.0084 218.337 -14.1979 199.42 -6.26356 178.918C7.24146 144.025 25.3626 116.278 25.5479 115.997L25.5555 115.989C31.5254 107.99 37.7456 100.597 44.2012 93.8242L44.2236 93.8151ZM402.158 249.924C408.506 243.263 413.984 235.94 418.457 228.254C436.797 196.749 439.487 153.546 402.04 133.159C393.199 128.348 382.881 122.237 371.965 115.769C328.134 89.8154 268.1 54.2775 205.821 43.0927C131.452 29.7386 72.6032 53.6574 25.9122 116.222C25.5572 116.754 7.56567 144.364 -5.85236 179.051C-18.2834 211.184 -29.2057 256.124 -10.6752 287.765C-2.91131 301.011 10.3666 306.128 31.1166 303.855C49.9276 301.794 73.4237 293.79 98.2878 285.32C126.067 275.86 157.548 265.135 188.798 260.495C224.697 255.172 254.698 258.726 280.523 271.362C329.68 295.402 374.27 279.181 402.15 249.932L402.158 249.924Z" fill="url(#paint16_linear_559_4237)"/>
</g>
<g opacity="0.19">
<path d="M36.9631 87.5345C58.4028 65.0418 82.3424 49.0524 108.404 39.847C137.816 29.4702 170.848 27.4583 206.573 33.8734C271.97 45.6193 334.972 82.9177 380.976 110.149C392.424 116.926 403.238 123.327 412.51 128.38C430.12 137.978 440.725 153.275 443.177 172.643C445.402 190.224 440.669 210.129 429.861 228.7C416.513 251.627 395.204 270.063 371.379 279.279C343.52 290.052 313.516 288.266 284.606 274.123C223.926 244.44 151.77 269.028 93.7886 288.783C67.6759 297.681 43.0136 306.083 23.2369 308.247C1.2981 310.653 -12.7494 305.23 -20.9731 291.18C-29.5939 276.462 -32.9462 257.807 -30.9183 235.75C-29.2978 218.112 -24.2553 198.272 -15.9387 176.776C-1.78077 140.185 17.236 111.08 17.4289 110.79L17.4366 110.783C23.6984 102.391 30.2248 94.6328 36.9928 87.5323L36.9631 87.5345ZM412.397 251.274C419.058 244.286 424.805 236.593 429.495 228.535C448.736 195.476 451.558 150.14 412.271 128.747C402.999 123.694 392.185 117.293 380.729 110.509C334.754 83.2904 271.774 46.0127 206.451 34.276C128.425 20.2599 66.7004 45.3594 17.7122 111C17.3416 111.562 -1.53077 140.531 -15.6013 176.9C-28.6375 210.607 -40.1006 257.763 -20.6634 290.956C-12.5099 304.863 1.42041 310.236 23.1955 307.856C42.9276 305.696 67.5751 297.295 93.6577 288.414C122.791 278.489 155.811 267.233 188.586 262.382C226.232 256.802 257.695 260.529 284.778 273.783C336.347 299.009 383.13 281.979 412.381 251.29L412.397 251.274Z" fill="url(#paint17_linear_559_4237)"/>
</g>
<g opacity="0.14">
<path d="M29.8295 81.0886C37.9694 72.5489 46.4409 64.9051 55.1826 58.2362C70.5261 46.5212 87.0942 37.4843 104.444 31.3592C135.224 20.5012 169.792 18.3967 207.175 25.1108C275.61 37.4017 341.55 76.433 389.691 104.938C401.679 112.031 412.988 118.736 422.691 124.017C441.119 134.058 452.209 150.062 454.77 170.328C457.092 188.718 452.149 209.552 440.836 228.985C426.875 252.975 404.573 272.265 379.64 281.906C350.493 293.176 319.099 291.316 288.843 276.516C225.326 245.442 149.799 271.181 89.1113 291.851C61.7875 301.166 35.974 309.952 15.2686 312.222C-7.68044 314.734 -22.3731 309.061 -30.9798 294.372C-39.997 278.971 -43.5039 259.451 -41.382 236.37C-39.6878 217.917 -34.4131 197.154 -25.7067 174.656C-10.8883 136.36 9.00889 105.911 9.20984 105.599L9.21742 105.591C15.8022 96.7594 22.688 88.5808 29.8219 81.0966L29.8295 81.0886ZM422.617 252.626C429.591 245.309 435.607 237.263 440.522 228.823C460.664 194.213 463.624 146.75 422.482 124.352C412.772 119.064 401.455 112.367 389.475 105.266C341.348 76.7749 275.444 37.7631 207.069 25.4826C125.394 10.8115 60.7713 37.0857 9.50841 105.792C9.15305 106.338 -10.6223 136.659 -25.3617 174.771C-39.0107 210.062 -51.0142 259.419 -30.6556 294.162C-22.1196 308.723 -7.52197 314.351 15.271 311.858C35.9319 309.591 61.7228 300.814 89.0241 291.509C119.51 281.118 154.07 269.346 188.362 264.262C227.749 258.419 260.682 262.325 289.022 276.184C343.012 302.587 391.978 284.769 422.61 252.634L422.617 252.626Z" fill="url(#paint18_linear_559_4237)"/>
</g>
<g opacity="0.1">
<path d="M22.5613 74.8008C31.067 65.8772 39.9104 57.9012 49.0304 50.9366C65.0471 38.7035 82.3594 29.2619 100.479 22.8638C106.671 20.6776 113.032 18.8204 119.517 17.3103C77.7715 27.1475 37.3284 52.2505 1.28587 100.563C0.930505 101.11 -19.7332 132.796 -35.1407 172.622C-49.4021 209.48 -61.9389 261.046 -40.6668 297.361C-31.7487 312.592 -16.4983 318.46 7.32733 315.853C28.9094 313.488 55.8517 304.313 84.3715 294.597C116.218 283.748 152.311 271.453 188.135 266.136C229.269 260.035 263.657 264.107 293.262 278.591C362.503 312.467 423.847 276.688 451.529 229.12C472.58 192.949 475.656 143.369 432.682 119.957C422.549 114.434 410.721 107.433 398.194 100.024C345.459 68.8038 274.523 26.8122 201.475 15.2973C203.563 15.6237 205.657 15.9719 207.751 16.3498C279.23 29.1925 348.102 69.9648 398.386 99.735C410.899 107.145 422.727 114.145 432.86 119.669C452.098 130.147 463.688 146.871 466.358 168.019C468.785 187.226 463.617 208.976 451.814 229.27C437.239 254.323 413.944 274.467 387.919 284.531C357.484 296.299 324.692 294.357 293.098 278.893C226.737 246.435 147.846 273.317 84.4519 294.917C55.9096 304.643 28.9596 313.825 7.33298 316.194C-16.6263 318.811 -31.9718 312.898 -40.9537 297.561C-50.3823 281.478 -54.0366 261.101 -51.8129 236.987C-50.0374 217.711 -44.5306 196.025 -35.442 172.533C-19.9631 132.532 0.814907 100.725 1.02348 100.405C7.90024 91.1798 15.0921 82.6368 22.546 74.8168L22.5613 74.8008Z" fill="url(#paint19_linear_559_4237)"/>
</g>
<g opacity="0.05">
<path d="M15.301 68.5204C24.165 59.221 33.3878 50.9047 42.9009 43.6434C59.6056 30.891 77.6473 21.0458 96.5368 14.3896C114.051 8.20761 132.785 4.59261 152.211 3.63618C169.997 2.76534 188.903 4.09042 208.379 7.59295C282.896 20.9806 354.706 63.4858 407.135 94.5213C420.187 102.247 432.518 109.544 443.075 115.303C463.131 126.225 475.205 143.655 477.985 165.702C480.515 185.725 475.13 208.397 462.815 229.546C455.431 242.239 446.037 253.642 434.907 263.453C423.193 273.775 410.172 281.752 396.205 287.149C364.476 299.422 330.293 297.391 297.361 281.277C228.164 247.427 145.901 275.46 79.8007 297.976C50.0472 308.119 21.9387 317.693 -0.601541 320.152C-25.5714 322.89 -41.5617 316.713 -50.9265 300.736C-60.7516 283.969 -64.5605 262.728 -62.2432 237.604C-60.394 217.514 -54.6551 194.904 -45.1767 170.411C-29.0449 128.712 -7.37124 95.5458 -7.15504 95.2178C0.0137185 85.5998 7.51168 76.6923 15.2781 68.5444L15.301 68.5204ZM443.073 255.335C450.671 247.363 457.225 238.593 462.575 229.393C484.526 191.669 487.741 139.962 442.913 115.546C432.341 109.788 420.01 102.491 406.958 94.7647C354.551 63.735 282.763 21.2356 208.291 7.85944C119.318 -8.12184 48.921 20.4929 -6.92152 95.3488C-7.26887 95.8723 -28.8286 128.933 -44.9043 170.472C-59.7784 208.913 -72.8484 262.687 -50.6621 300.545C-41.3615 316.431 -25.4515 322.561 -0.593144 319.839C21.9101 317.376 50.0039 307.803 79.7421 297.676C112.942 286.362 150.582 273.543 187.923 268.008C230.805 261.65 266.655 265.895 297.525 280.99C356.347 309.757 409.705 290.341 443.073 255.335Z" fill="url(#paint20_linear_559_4237)"/>
</g>
</g>
<defs>
<linearGradient id="paint0_linear_559_4237" x1="176.329" y1="252.523" x2="209.37" y2="186.428" gradientUnits="userSpaceOnUse">
<stop stop-color="#FF5910"/>
<stop offset="1" stop-color="#5500FF"/>
</linearGradient>
<linearGradient id="paint1_linear_559_4237" x1="172.593" y1="259.109" x2="212.915" y2="178.448" gradientUnits="userSpaceOnUse">
<stop stop-color="#FF5910"/>
<stop offset="1" stop-color="#5500FF"/>
</linearGradient>
<linearGradient id="paint2_linear_559_4237" x1="168.881" y1="265.695" x2="216.49" y2="170.457" gradientUnits="userSpaceOnUse">
<stop stop-color="#FF5910"/>
<stop offset="1" stop-color="#5500FF"/>
</linearGradient>
<linearGradient id="paint3_linear_559_4237" x1="165.146" y1="272.281" x2="220.041" y2="162.468" gradientUnits="userSpaceOnUse">
<stop stop-color="#FF5910"/>
<stop offset="1" stop-color="#5500FF"/>
</linearGradient>
<linearGradient id="paint4_linear_559_4237" x1="161.408" y1="278.867" x2="223.595" y2="154.469" gradientUnits="userSpaceOnUse">
<stop stop-color="#FF5910"/>
<stop offset="1" stop-color="#5500FF"/>
</linearGradient>
<linearGradient id="paint5_linear_559_4237" x1="157.641" y1="285.51" x2="227.144" y2="146.477" gradientUnits="userSpaceOnUse">
<stop stop-color="#FF5910"/>
<stop offset="1" stop-color="#5500FF"/>
</linearGradient>
<linearGradient id="paint6_linear_559_4237" x1="153.905" y1="292.096" x2="230.699" y2="138.478" gradientUnits="userSpaceOnUse">
<stop stop-color="#FF5910"/>
<stop offset="1" stop-color="#5500FF"/>
</linearGradient>
<linearGradient id="paint7_linear_559_4237" x1="150.169" y1="298.682" x2="234.254" y2="130.478" gradientUnits="userSpaceOnUse">
<stop stop-color="#FF5910"/>
<stop offset="1" stop-color="#5500FF"/>
</linearGradient>
<linearGradient id="paint8_linear_559_4237" x1="146.427" y1="305.264" x2="237.798" y2="122.485" gradientUnits="userSpaceOnUse">
<stop stop-color="#FF5910"/>
<stop offset="1" stop-color="#5500FF"/>
</linearGradient>
<linearGradient id="paint9_linear_559_4237" x1="142.685" y1="311.86" x2="241.353" y2="114.485" gradientUnits="userSpaceOnUse">
<stop stop-color="#FF5910"/>
<stop offset="1" stop-color="#5500FF"/>
</linearGradient>
<linearGradient id="paint10_linear_559_4237" x1="138.949" y1="318.445" x2="244.903" y2="106.495" gradientUnits="userSpaceOnUse">
<stop stop-color="#FF5910"/>
<stop offset="1" stop-color="#5500FF"/>
</linearGradient>
<linearGradient id="paint11_linear_559_4237" x1="135.212" y1="325.032" x2="248.458" y2="98.4963" gradientUnits="userSpaceOnUse">
<stop stop-color="#FF5910"/>
<stop offset="1" stop-color="#5500FF"/>
</linearGradient>
<linearGradient id="paint12_linear_559_4237" x1="131.496" y1="331.58" x2="252.013" y2="90.4976" gradientUnits="userSpaceOnUse">
<stop stop-color="#FF5910"/>
<stop offset="1" stop-color="#5500FF"/>
</linearGradient>
<linearGradient id="paint13_linear_559_4237" x1="127.761" y1="338.166" x2="255.565" y2="82.5078" gradientUnits="userSpaceOnUse">
<stop stop-color="#FF5910"/>
<stop offset="1" stop-color="#5500FF"/>
</linearGradient>
<linearGradient id="paint14_linear_559_4237" x1="124.036" y1="344.757" x2="259.131" y2="74.5131" gradientUnits="userSpaceOnUse">
<stop stop-color="#FF5910"/>
<stop offset="1" stop-color="#5500FF"/>
</linearGradient>
<linearGradient id="paint15_linear_559_4237" x1="120.298" y1="351.343" x2="262.679" y2="66.5238" gradientUnits="userSpaceOnUse">
<stop stop-color="#FF5910"/>
<stop offset="1" stop-color="#5500FF"/>
</linearGradient>
<linearGradient id="paint16_linear_559_4237" x1="116.564" y1="357.929" x2="266.236" y2="58.5239" gradientUnits="userSpaceOnUse">
<stop stop-color="#FF5910"/>
<stop offset="1" stop-color="#5500FF"/>
</linearGradient>
<linearGradient id="paint17_linear_559_4237" x1="112.829" y1="364.515" x2="269.793" y2="50.5246" gradientUnits="userSpaceOnUse">
<stop stop-color="#FF5910"/>
<stop offset="1" stop-color="#5500FF"/>
</linearGradient>
<linearGradient id="paint18_linear_559_4237" x1="109.091" y1="371.101" x2="273.341" y2="42.5353" gradientUnits="userSpaceOnUse">
<stop stop-color="#FF5910"/>
<stop offset="1" stop-color="#5500FF"/>
</linearGradient>
<linearGradient id="paint19_linear_559_4237" x1="105.355" y1="377.687" x2="276.897" y2="34.5355" gradientUnits="userSpaceOnUse">
<stop stop-color="#FF5910"/>
<stop offset="1" stop-color="#5500FF"/>
</linearGradient>
<linearGradient id="paint20_linear_559_4237" x1="101.621" y1="384.273" x2="280.449" y2="26.5462" gradientUnits="userSpaceOnUse">
<stop stop-color="#FF5910"/>
<stop offset="1" stop-color="#5500FF"/>
</linearGradient>
</defs>
</svg>
