<svg width="21" height="21" viewBox="0 0 21 21" fill="none" xmlns="http://www.w3.org/2000/svg">
<path d="M4.499 16.518L16.518 4.499M12.965 2H8.035C7.457 2 6.641 2.34 6.233 2.748L2.748 6.233C2.34 6.641 2 7.457 2 8.035V12.965C2 13.543 2.34 14.359 2.748 14.767L6.233 18.252C6.641 18.66 7.457 19 8.035 19H12.965C13.543 19 14.359 18.66 14.767 18.252L18.252 14.767C18.66 14.359 19 13.543 19 12.965V8.035C19 7.457 18.66 6.641 18.252 6.233L14.767 2.748C14.359 2.34 13.543 2 12.965 2Z" stroke="#2C67F5" stroke-width="2.5" stroke-linecap="round" stroke-linejoin="round"/>
</svg>
