<svg width="24" height="24" viewBox="0 0 24 24" fill="none" xmlns="http://www.w3.org/2000/svg">
<path d="M19.7143 22.8571V23.1071H19.9643H22.8571H23.1071V22.8571C23.1071 19.8032 22.5276 16.9353 21.3669 14.256C20.2083 11.5815 18.6265 9.24077 16.6214 7.23572C14.6164 5.23068 12.2756 3.64882 9.60116 2.49024C6.92188 1.32958 4.05395 0.75 1 0.75H0.75V1V3.89286V4.14286H1C3.5816 4.14286 6.0066 4.63464 8.27753 5.61695C10.5532 6.60132 12.5356 7.93914 14.2268 9.63035C15.918 11.3216 17.2558 13.3039 18.2402 15.5796C19.2225 17.8505 19.7143 20.2755 19.7143 22.8571ZM12.0643 22.8571V23.1071H12.3143H15.2071H15.4571V22.8571C15.4571 20.7497 15.0985 18.7946 14.3785 16.9947C13.66 15.1982 12.6622 13.6432 11.3844 12.3326C10.1063 11.0218 8.58327 9.9961 6.81819 9.2552C5.04879 8.51249 3.10832 8.14286 1 8.14286H0.75V8.39286V11.2857V11.5357H1C4.32724 11.5357 6.99094 12.5966 9.01612 14.7053C11.0441 16.8169 12.0643 19.527 12.0643 22.8571ZM1.73929 22.1178C2.39779 22.7763 3.20641 23.1071 4.15 23.1071C5.09359 23.1071 5.90221 22.7763 6.56071 22.1178C7.2192 21.4594 7.55 20.6507 7.55 19.7071C7.55 18.7635 7.2192 17.9549 6.56071 17.2964C5.90221 16.6379 5.09359 16.3071 4.15 16.3071C3.20641 16.3071 2.39779 16.6379 1.7393 17.2964C1.0808 17.9549 0.75 18.7635 0.75 19.7071C0.75 20.6507 1.0808 21.4594 1.73929 22.1178Z" fill="#3289FF" stroke="#3289FF" stroke-width="0.5"/>
</svg>
