<svg width="25" height="26" viewBox="0 0 25 26" fill="none" xmlns="http://www.w3.org/2000/svg">
<path d="M8.59589 9.8413V9.84131H16.7742H16.7764V9.84132C16.8866 9.84231 16.9956 9.86495 17.0971 9.90808C17.1986 9.9512 17.2906 10.0139 17.3678 10.0925C17.4451 10.1712 17.5061 10.2643 17.5473 10.3665C17.5885 10.4684 17.6092 10.5773 17.6083 10.6871M8.59589 9.8413L17.3583 10.6861M8.59589 9.8413L8.59365 9.84132C8.48346 9.84231 8.3745 9.86495 8.27298 9.90808C8.17147 9.9512 8.07949 10.0139 8.00227 10.0925C7.92503 10.1712 7.86401 10.2643 7.82274 10.3665C7.78161 10.4684 7.76091 10.5773 7.76174 10.6871M8.59589 9.8413L8.01174 10.6861M17.6083 10.6871C17.6083 10.6875 17.6083 10.6879 17.6083 10.6884L17.3583 10.6861M17.6083 10.6871V10.6861H17.3583M17.6083 10.6871V11.8757M17.3583 10.6861V11.8767M17.6083 11.8757C17.6083 11.8753 17.6083 11.8749 17.6083 11.8744L17.3583 11.8767M17.6083 11.8757V11.8767H17.3583M17.6083 11.8757C17.6092 11.9855 17.5885 12.0944 17.5473 12.1963C17.5061 12.2985 17.4451 12.3916 17.3678 12.4703C17.2906 12.5489 17.1986 12.6116 17.0971 12.6547C16.9956 12.6978 16.8866 12.7205 16.7764 12.7215L16.7742 12.7215L8.59589 12.7215H8.59365L8.59365 12.7215C8.48346 12.7205 8.3745 12.6978 8.27298 12.6547C8.17147 12.6116 8.07949 12.5489 8.00227 12.4703C7.92503 12.3916 7.86401 12.2985 7.82274 12.1963C7.78161 12.0944 7.76091 11.9855 7.76174 11.8757M17.3583 11.8767H8.01174M7.76174 11.8757C7.76175 11.8752 7.76175 11.8748 7.76175 11.8744L8.01174 11.8767M7.76174 11.8757V11.8767H8.01174M7.76174 11.8757V10.6871M8.01174 11.8767V10.6861M7.76174 10.6871C7.76175 10.6875 7.76175 10.6879 7.76175 10.6884L8.01174 10.6861M7.76174 10.6871V10.6861H8.01174" fill="#706E6E" stroke="#706E6E" stroke-width="0.5"/>
<path d="M3.33674 0.321289V0.321278L3.33439 0.3213C2.64265 0.327813 1.98181 0.608781 1.49719 1.10243C1.01283 1.59582 0.744147 2.2613 0.750097 2.95262V18.4201C0.744147 19.1114 1.01284 19.7769 1.49719 20.2702C1.98181 20.7639 2.64265 21.0448 3.33439 21.0514H3.33674H8.52393L11.6004 24.7394C11.6006 24.7396 11.6007 24.7398 11.6009 24.74C11.7325 24.8994 11.8976 25.0279 12.0847 25.1161C12.2719 25.2044 12.4763 25.2502 12.6834 25.2502C12.8904 25.2502 13.0948 25.2044 13.282 25.1161C13.4691 25.0279 13.6342 24.8994 13.7658 24.74C13.766 24.7398 13.7661 24.7396 13.7663 24.7394L16.8428 21.0514L22.03 21.0514L22.0323 21.0514C22.7241 21.0448 23.3849 20.7639 23.8695 20.2702C24.3539 19.7768 24.6226 19.1114 24.6166 18.42V2.9527C24.6226 2.26135 24.3539 1.59583 23.8695 1.10243C23.3849 0.608781 22.7241 0.327813 22.0323 0.3213V0.321289H22.03H3.33674ZM3.58674 18.171V3.20152H21.78V18.1712L16.1883 18.1712L16.187 18.1712C15.9796 18.1723 15.775 18.2191 15.5877 18.3084C15.4008 18.3975 15.2358 18.5267 15.1044 18.6869C15.1042 18.6871 15.104 18.6874 15.1038 18.6876L12.6833 21.5998L10.2586 18.6834C10.2584 18.6831 10.2582 18.6828 10.258 18.6826C10.1267 18.5225 9.96169 18.3933 9.77473 18.3041C9.58748 18.2149 9.38285 18.168 9.17544 18.1669L9.17394 18.1669L3.58674 18.171Z" fill="#706E6E" stroke="#706E6E" stroke-width="0.5"/>
</svg>
