<svg width="25" height="26" viewBox="0 0 25 26" fill="none" xmlns="http://www.w3.org/2000/svg">
<path d="M8.59589 10.2698V10.2698H16.7742H16.7764V10.2698C16.8866 10.2708 16.9956 10.2934 17.0971 10.3365C17.1986 10.3797 17.2906 10.4424 17.3678 10.521C17.4451 10.5996 17.5061 10.6927 17.5473 10.795C17.5885 10.8969 17.6092 11.0058 17.6083 11.1156M8.59589 10.2698L17.3583 11.1146M8.59589 10.2698L8.59365 10.2698C8.48346 10.2708 8.3745 10.2934 8.27298 10.3365C8.17147 10.3797 8.07949 10.4424 8.00227 10.521C7.92503 10.5996 7.86401 10.6927 7.82274 10.795C7.78161 10.8969 7.76091 11.0058 7.76174 11.1156M8.59589 10.2698L8.01174 11.1146M17.6083 11.1156C17.6083 11.116 17.6083 11.1164 17.6083 11.1168L17.3583 11.1146M17.6083 11.1156V11.1146H17.3583M17.6083 11.1156V12.3042M17.3583 11.1146V12.3052M17.6083 12.3042C17.6083 12.3037 17.6083 12.3033 17.6083 12.3029L17.3583 12.3052M17.6083 12.3042V12.3052H17.3583M17.6083 12.3042C17.6092 12.4139 17.5885 12.5229 17.5473 12.6247C17.5061 12.727 17.4451 12.8201 17.3678 12.8987C17.2906 12.9773 17.1986 13.0401 17.0971 13.0832C16.9956 13.1263 16.8866 13.1489 16.7764 13.1499L16.7742 13.1499L8.59589 13.1499H8.59365L8.59365 13.1499C8.48346 13.1489 8.3745 13.1263 8.27298 13.0832C8.17147 13.0401 8.07949 12.9773 8.00227 12.8987C7.92503 12.8201 7.86401 12.727 7.82274 12.6247C7.78161 12.5228 7.76091 12.4139 7.76174 12.3041M17.3583 12.3052H8.01174M7.76174 12.3041C7.76175 12.3037 7.76175 12.3033 7.76175 12.3029L8.01174 12.3052M7.76174 12.3041V12.3052H8.01174M7.76174 12.3041V11.1156M8.01174 12.3052V11.1146M7.76174 11.1156C7.76175 11.116 7.76175 11.1164 7.76175 11.1168L8.01174 11.1146M7.76174 11.1156V11.1146H8.01174" fill="white" stroke="white" stroke-width="0.5"/>
<path d="M3.33674 0.75V0.749989L3.33439 0.750011C2.64265 0.756524 1.98181 1.03749 1.49719 1.53115C1.01283 2.02453 0.744147 2.69001 0.750097 3.38133V18.8488C0.744147 19.5401 1.01284 20.2056 1.49719 20.6989C1.98181 21.1926 2.64265 21.4736 3.33439 21.4801H3.33674H8.52393L11.6004 25.1681C11.6006 25.1683 11.6007 25.1685 11.6009 25.1687C11.7325 25.3281 11.8976 25.4566 12.0847 25.5448C12.2719 25.6331 12.4763 25.6789 12.6834 25.6789C12.8904 25.6789 13.0948 25.6331 13.282 25.5448C13.4691 25.4566 13.6342 25.3281 13.7658 25.1687C13.766 25.1685 13.7661 25.1683 13.7663 25.1681L16.8428 21.4801L22.03 21.4801L22.0323 21.4801C22.7241 21.4736 23.3849 21.1926 23.8695 20.6989C24.3539 20.2055 24.6226 19.5401 24.6166 18.8487V3.38141C24.6226 2.69006 24.3539 2.02455 23.8695 1.53115C23.3849 1.03749 22.7241 0.756524 22.0323 0.750011V0.75H22.03H3.33674ZM3.58674 18.5997V3.63023H21.78V18.5999L16.1883 18.5999L16.187 18.5999C15.9796 18.601 15.775 18.6478 15.5877 18.7371C15.4008 18.8262 15.2358 18.9555 15.1044 19.1156C15.1042 19.1158 15.104 19.1161 15.1038 19.1163L12.6833 22.0286L10.2586 19.1121C10.2584 19.1118 10.2582 19.1116 10.258 19.1113C10.1267 18.9512 9.96169 18.822 9.77473 18.7328C9.58748 18.6436 9.38285 18.5967 9.17544 18.5956L9.17394 18.5956L3.58674 18.5997Z" fill="white" stroke="white" stroke-width="0.5"/>
</svg>
