<svg width="218" height="265" viewBox="0 0 218 265" fill="none" xmlns="http://www.w3.org/2000/svg">
<path d="M197.806 0H84.8919C73.7398 0 64.6992 9.04058 64.6992 20.1927V268.381C64.6992 279.534 73.7398 288.574 84.8919 288.574H197.806C208.958 288.574 217.999 279.534 217.999 268.381V20.1927C217.999 9.04058 208.958 0 197.806 0Z" fill="#2B478B"/>
<path d="M210.399 22.1047V264.54C210.399 272.764 203.718 279.492 195.556 279.492H87.1372C78.9757 279.492 72.2969 272.764 72.2969 264.54V22.1047C72.2969 13.8806 78.9757 7.15234 87.1372 7.15234H195.556C203.718 7.15234 210.399 13.8806 210.399 22.1047Z" fill="#C0D8FB"/>
<path d="M195.556 7.15234L88.4792 279.492H87.1372C78.9757 279.492 72.2969 272.764 72.2969 264.54V22.1047C72.2969 13.8806 78.9757 7.15234 87.1372 7.15234H195.556Z" fill="#CBE1FD"/>
<path d="M118.691 1.69092H164.004C167.707 1.69092 170.714 4.69807 170.714 8.40097V9.45634C170.714 13.1593 167.707 16.1664 164.004 16.1664H118.691C114.988 16.1664 111.98 13.1593 111.98 9.45634V8.40097C111.98 4.69807 114.988 1.69092 118.691 1.69092Z" fill="#2B478B"/>
<path d="M163.843 68.2373H9.68854C4.33771 68.2373 0 72.575 0 77.9259V139.666C0 145.017 4.33771 149.355 9.68854 149.355H163.843C169.193 149.355 173.531 145.017 173.531 139.666V77.9259C173.531 72.575 169.193 68.2373 163.843 68.2373Z" fill="#699DEE"/>
<path d="M164.923 30.3086H104.585C100.109 30.3086 96.4805 33.937 96.4805 38.4128V49.8577C96.4805 54.3335 100.109 57.9618 104.585 57.9618H164.923C169.399 57.9618 173.027 54.3335 173.027 49.8577V38.4128C173.027 33.937 169.399 30.3086 164.923 30.3086Z" fill="#9ABFF6"/>
<path d="M92.712 226.6H162.275C167.633 226.6 171.982 230.949 171.982 236.307V251.011C171.982 256.369 167.633 260.718 162.275 260.718H92.7146C87.357 260.718 83.0078 256.369 83.0078 251.011V236.307C83.0078 230.949 87.357 226.6 92.7146 226.6H92.712Z" fill="#9ABFF6"/>
<path d="M123.596 163.49H189.313C195.731 163.49 200.94 168.702 200.94 175.118V200.832C200.94 207.25 195.728 212.459 189.313 212.459H123.596C117.178 212.459 111.969 207.248 111.969 200.832V175.118C111.969 168.699 117.18 163.49 123.596 163.49Z" fill="#F99746"/>
<path d="M66.69 105.735C66.69 111.509 64.746 116.828 61.4705 121.073C60.3838 122.483 59.1513 123.772 57.7962 124.919C53.4132 128.638 47.7429 130.876 41.5462 130.876C35.9149 130.876 30.7189 129.028 26.5287 125.899C24.6811 124.523 23.029 122.897 21.6219 121.07C18.3463 116.825 16.4023 111.507 16.4023 105.732C16.4023 91.8456 27.6596 80.5884 41.5462 80.5884C55.4327 80.5884 66.69 91.8456 66.69 105.732V105.735Z" fill="white"/>
<path d="M51.6514 117.618C51.5836 117.542 51.5185 117.472 51.4559 117.407C51.1667 117.185 50.8775 117.047 49.7152 116.847C49.1237 116.748 48.3029 116.63 47.1381 116.479C47.1381 116.479 46.8879 116.45 46.755 116.44C46.6664 116.432 46.5726 116.424 46.4632 116.414C46.1296 116.239 46.0436 114.856 46.0462 113.396C46.0462 113.287 46.0488 113.178 46.0488 113.068C46.054 112.516 46.0723 111.971 46.0931 111.481C46.0931 111.45 46.0957 111.421 46.0957 111.39C46.8149 111.45 47.2918 111.445 47.2918 111.445C48.6312 111.338 49.4677 107.747 49.7674 104.844C49.7674 104.844 50.4292 103.252 50.4292 101.529C50.4292 100.56 50.2208 99.5515 49.5693 98.7594C49.2306 98.3528 48.9179 98.0844 48.6286 97.9151C48.5452 97.8317 48.4592 97.7561 48.3758 97.6831C47.1302 96.2994 42.0645 91.1138 38.7394 94.1131C38.6534 93.8135 37.572 90.4467 32.329 91.549C32.6548 91.5151 34.9792 91.2962 35.6515 92.2369C35.5603 92.1978 33.5303 91.2962 32.2509 92.0832C31.6593 92.4428 31.2919 93.1907 31.0834 93.9776C31.0834 93.9828 31.0834 93.9881 31.0782 93.9933C31.0782 93.9985 31.0782 94.0011 31.0782 94.0063C31.0782 94.0063 31.073 94.0245 31.073 94.0324C31.0496 94.1392 31.0235 94.246 31.0001 94.3529C31.0001 94.3685 30.9922 94.3841 30.9896 94.4024C30.9896 94.4076 30.9896 94.4102 30.9896 94.4154V94.4206C30.8333 95.2336 30.8333 96.0232 30.9271 96.4063C31.1225 97.2271 32.5688 99.6714 33.5277 99.6714C33.8925 99.6714 34.2782 99.5515 34.6222 99.403C34.4737 99.8356 34.3408 100.31 34.2313 100.826C33.2124 105.618 36.3968 109.258 38.0463 108.357C39.1042 107.781 39.9042 109.631 39.9042 109.631L39.9094 109.623C39.7531 113.128 38.7915 115.416 38.0775 115.987C37.8222 116.015 37.2697 116.083 36.5792 116.192C36.5792 116.192 34.1479 116.456 32.2978 117.261C32.2821 117.266 32.2691 117.271 32.2535 117.279C31.8313 117.454 31.4717 117.649 31.2033 117.863C31.2007 117.868 31.1981 117.871 31.1955 117.871C31.0548 117.983 30.9401 118.1 30.8567 118.225C30.8124 118.277 30.776 118.329 30.7473 118.384C30.1297 119.562 29.5069 121.331 28.9102 123.405C32.4645 126.058 36.871 127.627 41.6475 127.627C46.9035 127.627 51.7139 125.727 55.4299 122.574C54.0644 119.729 52.5061 118.262 51.6566 117.618H51.6514Z" fill="#2B478B"/>
<path d="M112.473 88.6064H83.91C82.9155 88.6064 82.1094 89.4126 82.1094 90.4071V91.267C82.1094 92.2615 82.9155 93.0677 83.91 93.0677H112.473C113.467 93.0677 114.273 92.2615 114.273 91.267V90.4071C114.273 89.4126 113.467 88.6064 112.473 88.6064Z" fill="white"/>
<path d="M112.819 109.099H83.5634C82.7634 109.099 82.1094 108.445 82.1094 107.645C82.1094 106.845 82.7634 106.191 83.5634 106.191H112.819C113.619 106.191 114.273 106.845 114.273 107.645C114.273 108.445 113.619 109.099 112.819 109.099Z" fill="white"/>
<path d="M83.2221 113.073H99.8656C100.481 113.073 100.978 113.574 100.978 114.186V114.866C100.978 115.481 100.481 115.979 99.8656 115.979H83.2221C82.6071 115.979 82.1094 115.481 82.1094 114.866V114.186C82.1094 113.571 82.6097 113.073 83.2221 113.073Z" fill="white"/>
<path d="M133.79 113.073H106.893C106.121 113.073 105.496 113.699 105.496 114.47V114.585C105.496 115.356 106.121 115.982 106.893 115.982H133.79C134.562 115.982 135.187 115.356 135.187 114.585V114.47C135.187 113.699 134.562 113.073 133.79 113.073Z" fill="white"/>
<path d="M158.92 109.099H120.56C119.76 109.099 119.105 108.445 119.105 107.645C119.105 106.845 119.76 106.191 120.56 106.191H158.92C159.72 106.191 160.374 106.845 160.374 107.645C160.374 108.445 159.72 109.099 158.92 109.099Z" fill="white"/>
<path d="M112.819 122.861H83.5634C82.7634 122.861 82.1094 122.207 82.1094 121.407C82.1094 120.607 82.7634 119.953 83.5634 119.953H112.819C113.619 119.953 114.273 120.607 114.273 121.407C114.273 122.207 113.619 122.861 112.819 122.861Z" fill="white"/>
<path d="M158.92 122.861H120.56C119.76 122.861 119.105 122.207 119.105 121.407C119.105 120.607 119.76 119.953 120.56 119.953H158.92C159.72 119.953 160.374 120.607 160.374 121.407C160.374 122.207 159.72 122.861 158.92 122.861Z" fill="white"/>
<path d="M119.8 88.6064H140.314C141.166 88.6064 141.856 89.297 141.856 90.1491V91.525C141.856 92.3771 141.166 93.0677 140.314 93.0677H119.8C118.948 93.0677 118.258 92.3771 118.258 91.525V90.1491C118.258 89.297 118.948 88.6064 119.8 88.6064Z" fill="white"/>
<path d="M94.1427 233.121H114.45C115.156 233.121 115.73 233.695 115.73 234.401V235.011C115.73 235.717 115.156 236.29 114.45 236.29H94.1427C93.4366 236.29 92.8633 235.717 92.8633 235.011V234.401C92.8633 233.695 93.4366 233.121 94.1427 233.121Z" fill="#699DEE"/>
<path d="M114.698 244.41H93.8978C93.3297 244.41 92.8633 243.943 92.8633 243.375C92.8633 242.807 93.3297 242.341 93.8978 242.341H114.698C115.266 242.341 115.732 242.805 115.732 243.375C115.732 243.943 115.266 244.41 114.698 244.41Z" fill="#699DEE"/>
<path d="M93.6555 247.235H105.489C105.926 247.235 106.281 247.589 106.281 248.027V248.512C106.281 248.95 105.926 249.304 105.489 249.304H93.6555C93.2177 249.304 92.8633 248.95 92.8633 248.512V248.027C92.8633 247.589 93.2177 247.235 93.6555 247.235Z" fill="#699DEE"/>
<path d="M110.485 247.235H129.607C130.154 247.235 130.6 247.68 130.6 248.228V248.308C130.6 248.856 130.154 249.301 129.607 249.301H110.485C109.938 249.301 109.492 248.856 109.492 248.308V248.228C109.492 247.68 109.938 247.235 110.485 247.235Z" fill="#699DEE"/>
<path d="M147.475 244.41H120.202C119.634 244.41 119.168 243.943 119.168 243.375C119.168 242.807 119.634 242.341 120.202 242.341H147.475C148.043 242.341 148.51 242.805 148.51 243.375C148.51 243.943 148.046 244.41 147.475 244.41Z" fill="#699DEE"/>
<path d="M114.698 254.195H93.8978C93.3297 254.195 92.8633 253.729 92.8633 253.161C92.8633 252.592 93.3297 252.126 93.8978 252.126H114.698C115.266 252.126 115.732 252.592 115.732 253.161C115.732 253.729 115.266 254.195 114.698 254.195Z" fill="#699DEE"/>
<path d="M147.475 254.195H120.202C119.634 254.195 119.168 253.729 119.168 253.161C119.168 252.592 119.634 252.126 120.202 252.126H147.475C148.043 252.126 148.51 252.592 148.51 253.161C148.51 253.729 148.046 254.195 147.475 254.195Z" fill="#699DEE"/>
<path d="M119.66 233.121H134.244C134.849 233.121 135.342 233.614 135.342 234.218V235.196C135.342 235.8 134.849 236.293 134.244 236.293H119.66C119.055 236.293 118.562 235.8 118.562 235.196V234.218C118.562 233.614 119.055 233.121 119.66 233.121Z" fill="#699DEE"/>
<path d="M107.615 35.6426H127.923C128.629 35.6426 129.202 36.2159 129.202 36.9221V37.5318C129.202 38.238 128.629 38.8113 127.923 38.8113H107.615C106.909 38.8113 106.336 38.238 106.336 37.5318V36.9221C106.336 36.2159 106.909 35.6426 107.615 35.6426Z" fill="#699DEE"/>
<path d="M128.166 46.9309H107.367C106.798 46.9309 106.332 46.4644 106.332 45.8963C106.332 45.3283 106.798 44.8618 107.367 44.8618H128.166C128.734 44.8618 129.201 45.3283 129.201 45.8963C129.201 46.4644 128.737 46.9309 128.166 46.9309Z" fill="#699DEE"/>
<path d="M107.124 49.7559H118.957C119.395 49.7559 119.75 50.1103 119.75 50.548V51.0327C119.75 51.4705 119.395 51.8249 118.957 51.8249H107.124C106.686 51.8249 106.332 51.4705 106.332 51.0327V50.548C106.332 50.1103 106.686 49.7559 107.124 49.7559Z" fill="#699DEE"/>
<path d="M143.075 49.7559H123.954C123.405 49.7559 122.961 50.2004 122.961 50.7487V50.8295C122.961 51.3778 123.405 51.8223 123.954 51.8223H143.075C143.624 51.8223 144.068 51.3778 144.068 50.8295V50.7487C144.068 50.2004 143.624 49.7559 143.075 49.7559Z" fill="#699DEE"/>
<path d="M160.944 46.9309H133.671C133.103 46.9309 132.637 46.4644 132.637 45.8963C132.637 45.3283 133.103 44.8618 133.671 44.8618H160.944C161.512 44.8618 161.979 45.3283 161.979 45.8963C161.979 46.4644 161.515 46.9309 160.944 46.9309Z" fill="#699DEE"/>
<path d="M133.132 35.6426H147.717C148.322 35.6426 148.814 36.1351 148.814 36.7396V37.7168C148.814 38.3214 148.322 38.8139 147.717 38.8139H133.132C132.528 38.8139 132.035 38.3214 132.035 37.7168V36.7396C132.035 36.1351 132.528 35.6426 133.132 35.6426Z" fill="#699DEE"/>
<path d="M145.871 172.465H123.64C122.866 172.465 122.238 173.093 122.238 173.867V174.534C122.238 175.308 122.866 175.936 123.64 175.936H145.871C146.645 175.936 147.273 175.308 147.273 174.534V173.867C147.273 173.093 146.645 172.465 145.871 172.465Z" fill="#ED7D2B"/>
<path d="M146.138 184.825H123.365C122.743 184.825 122.234 184.317 122.234 183.694C122.234 183.071 122.743 182.563 123.365 182.563H146.138C146.761 182.563 147.269 183.071 147.269 183.694C147.269 184.317 146.761 184.825 146.138 184.825Z" fill="#ED7D2B"/>
<path d="M123.102 187.918H136.058C136.538 187.918 136.926 188.306 136.926 188.786V189.315C136.926 189.794 136.538 190.182 136.058 190.182H123.102C122.623 190.182 122.234 189.794 122.234 189.315V188.786C122.234 188.306 122.623 187.918 123.102 187.918Z" fill="#ED7D2B"/>
<path d="M141.528 187.918H162.463C163.063 187.918 163.55 188.405 163.55 189.005V189.093C163.55 189.693 163.063 190.18 162.463 190.18H141.528C140.929 190.18 140.441 189.693 140.441 189.093V189.005C140.441 188.405 140.929 187.918 141.528 187.918Z" fill="#ED7D2B"/>
<path d="M182.02 184.825H152.162C151.539 184.825 151.031 184.317 151.031 183.694C151.031 183.071 151.539 182.563 152.162 182.563H182.02C182.643 182.563 183.151 183.071 183.151 183.694C183.151 184.317 182.643 184.825 182.02 184.825Z" fill="#ED7D2B"/>
<path d="M146.138 195.537H123.365C122.743 195.537 122.234 195.029 122.234 194.406C122.234 193.783 122.743 193.275 123.365 193.275H146.138C146.761 193.275 147.269 193.783 147.269 194.406C147.269 195.029 146.761 195.537 146.138 195.537Z" fill="#ED7D2B"/>
<path d="M182.02 195.537H152.162C151.539 195.537 151.031 195.029 151.031 194.406C151.031 193.783 151.539 193.275 152.162 193.275H182.02C182.643 193.275 183.151 193.783 183.151 194.406C183.151 195.029 182.643 195.537 182.02 195.537Z" fill="#ED7D2B"/>
<path d="M146.138 201.111H123.365C122.743 201.111 122.234 200.603 122.234 199.98C122.234 199.357 122.743 198.849 123.365 198.849H146.138C146.761 198.849 147.269 199.357 147.269 199.98C147.269 200.603 146.761 201.111 146.138 201.111Z" fill="#ED7D2B"/>
<path d="M182.02 201.111H152.162C151.539 201.111 151.031 200.603 151.031 199.98C151.031 199.357 151.539 198.849 152.162 198.849H182.02C182.643 198.849 183.151 199.357 183.151 199.98C183.151 200.603 182.643 201.111 182.02 201.111Z" fill="#ED7D2B"/>
<path d="M151.572 172.465H167.538C168.2 172.465 168.74 173.002 168.74 173.666V174.737C168.74 175.399 168.203 175.938 167.538 175.938H151.572C150.911 175.938 150.371 175.402 150.371 174.737V173.666C150.371 173.004 150.908 172.465 151.572 172.465Z" fill="#ED7D2B"/>
<path d="M93.2038 22.3187L91.6585 23.4262L90.1055 22.3291C90.4494 21.8444 91.0175 21.5239 91.6585 21.5239C92.2996 21.5239 92.8599 21.8366 93.2038 22.3161V22.3187Z" fill="white"/>
<path d="M91.66 18.8218C90.1069 18.8218 88.7336 19.5957 87.9023 20.7762L88.8821 21.4641C89.4997 20.5911 90.516 20.0231 91.66 20.0231C92.8039 20.0231 93.8072 20.5833 94.4222 21.4433L95.3994 20.7423C94.5629 19.5775 93.1974 18.8218 91.66 18.8218Z" fill="white"/>
<path d="M91.6601 13.6855C88.3741 13.6855 85.4686 15.3194 83.707 17.8184L84.6894 18.5064C86.2321 16.3201 88.7832 14.8868 91.6601 14.8868C94.5369 14.8868 97.049 16.2966 98.5968 18.4542L99.5688 17.7533C97.8047 15.2907 94.92 13.6855 91.6601 13.6855Z" fill="white"/>
<path d="M91.6586 16.4976C89.3211 16.4976 87.2495 17.6546 85.9883 19.4265L86.9681 20.1145C88.013 18.6552 89.7251 17.6989 91.6586 17.6989C93.5921 17.6989 95.2781 18.6396 96.3257 20.078L97.2977 19.3822C96.0338 17.6337 93.9778 16.4976 91.6586 16.4976Z" fill="white"/>
<path d="M82.9844 185.977C82.9844 188.247 83.7479 190.334 85.0352 191.999C85.4625 192.554 85.9472 193.06 86.4788 193.511C87.0078 193.961 87.5837 194.352 88.1987 194.683C89.5876 195.429 91.172 195.853 92.8605 195.853C94.9687 195.853 96.9178 195.191 98.5204 194.071C98.6012 194.016 98.682 193.956 98.7602 193.899C99.4846 193.357 100.133 192.721 100.686 192.002C101.973 190.334 102.737 188.247 102.737 185.98C102.737 180.526 98.3146 176.106 92.8605 176.106C87.4065 176.106 82.987 180.528 82.987 185.98L82.9844 185.977Z" fill="white"/>
<path d="M95.5353 192.309L94.6259 191.504C94.5503 191.519 94.4748 191.532 94.3992 191.546C94.235 191.431 94.0552 191.319 93.8676 191.215C93.9275 190.847 93.977 190.506 94.0187 190.203C94.1568 189.146 94.1725 188.507 94.1725 188.408C94.6546 188.385 94.9803 188.332 94.9803 188.332C95.8923 188.121 95.9366 185.007 95.7256 183.384C95.8976 183.387 96.0643 183.363 96.2337 183.288C96.9243 182.983 96.9633 181.938 96.9633 181.938C96.9633 181.938 96.7627 182.31 96.4682 182.43C96.4682 182.43 97.6226 180.849 96.2832 179.767C94.949 178.683 93.5862 179.392 92.8096 179.439C91.1054 179.543 90.0031 179.645 89.4481 180.765C88.8982 181.87 89.1145 184.908 90.1673 186.026C90.1855 186.131 90.2038 186.232 90.2168 186.336C90.2793 186.738 90.4253 187.066 90.6337 187.329C90.3966 188.637 89.8572 189.615 89.3725 190.263C89.0442 190.519 88.7445 190.847 88.4657 191.241C88.4579 191.246 88.4474 191.254 88.4474 191.254C88.4474 191.254 88.45 191.254 88.4552 191.254C87.9419 191.983 87.5198 192.934 87.181 194.05C87.1784 194.055 87.1784 194.06 87.1758 194.065C87.7334 194.459 88.338 194.79 88.9764 195.056C89.0181 195.074 89.0598 195.089 89.1015 195.108C89.1119 195.11 89.1197 195.116 89.1302 195.118C89.1979 195.147 89.2683 195.173 89.336 195.199C89.5028 195.264 89.6696 195.324 89.8389 195.379C90.0161 195.436 90.196 195.488 90.3758 195.535C90.4591 195.556 90.5425 195.577 90.6259 195.595C90.6989 195.613 90.7718 195.629 90.8474 195.642C90.8578 195.642 90.8683 195.647 90.8787 195.65C90.9282 195.66 90.9777 195.668 91.0272 195.678C91.1419 195.699 91.2591 195.72 91.3764 195.738C91.4025 195.741 91.4311 195.746 91.4572 195.749C91.5223 195.759 91.5849 195.767 91.65 195.775C91.7412 195.785 91.8324 195.796 91.9236 195.806C92.0253 195.816 92.1295 195.824 92.2337 195.83C92.3301 195.837 92.4292 195.843 92.5282 195.845C92.6298 195.845 92.734 195.85 92.8383 195.85C92.9503 195.85 93.0598 195.848 93.1718 195.845C93.1823 195.845 93.1901 195.845 93.2005 195.843C93.2266 195.843 93.2552 195.843 93.2813 195.843C93.336 195.843 93.3907 195.843 93.4454 195.835C93.4533 195.835 93.4585 195.835 93.4663 195.835C93.5705 195.83 93.6722 195.822 93.7764 195.811C95.1106 195.686 96.3692 195.29 97.4975 194.686C96.9243 193.703 96.2103 192.937 95.5353 192.312V192.309Z" fill="#699DEE"/>
<path d="M179.945 243.376C179.945 245.659 180.714 247.762 182.009 249.442C182.439 250 182.926 250.511 183.461 250.964C185.193 252.434 187.437 253.32 189.887 253.32C192.112 253.32 194.168 252.59 195.825 251.352C196.558 250.808 197.209 250.164 197.767 249.442C199.062 247.764 199.831 245.661 199.831 243.376C199.831 237.885 195.38 233.435 189.889 233.435C184.399 233.435 179.948 237.885 179.948 243.376H179.945Z" fill="white"/>
<path d="M194.968 249.012C194.955 248.986 194.94 248.96 194.919 248.937C194.88 248.879 194.825 248.825 194.76 248.773C194.635 248.668 194.465 248.577 194.27 248.496C194.262 248.496 194.257 248.491 194.249 248.489C193.387 248.111 192.253 247.988 192.253 247.988C191.93 247.939 191.675 247.907 191.555 247.894C191.221 247.626 190.773 246.56 190.7 244.926V244.932C190.7 244.932 191.075 244.066 191.568 244.337C192.336 244.757 193.822 243.058 193.348 240.825C193.295 240.585 193.233 240.364 193.165 240.163C193.327 240.231 193.506 240.288 193.676 240.288C194.121 240.288 194.796 239.147 194.888 238.764C194.981 238.381 194.88 237.122 194.267 236.749C193.671 236.382 192.725 236.804 192.683 236.82C192.988 236.392 194.03 236.478 194.22 236.499C191.787 235.994 191.284 237.554 191.242 237.695C189.694 236.296 187.331 238.714 186.75 239.36C186.71 239.394 186.671 239.431 186.632 239.47C186.499 239.545 186.351 239.673 186.194 239.861C185.89 240.231 185.793 240.702 185.793 241.153C185.793 241.956 186.101 242.698 186.101 242.698C186.241 244.051 186.632 245.726 187.258 245.776C187.258 245.776 187.479 245.776 187.813 245.75C187.813 245.765 187.813 245.778 187.813 245.794C187.823 246.021 187.831 246.276 187.834 246.532V246.685C187.834 247.365 187.794 248.012 187.641 248.092C187.589 248.098 187.544 248.1 187.505 248.106C187.443 248.108 187.325 248.124 187.325 248.124C186.783 248.194 186.398 248.249 186.124 248.296C185.582 248.387 185.447 248.452 185.314 248.556C185.282 248.585 185.251 248.619 185.22 248.655C184.824 248.955 184.097 249.638 183.461 250.964C185.194 252.434 187.437 253.32 189.887 253.32C192.115 253.32 194.168 252.59 195.826 251.352C195.547 250.386 195.258 249.56 194.968 249.012Z" fill="#F99746"/>
<path d="M179.945 43.5439C179.945 45.8266 180.714 47.9295 182.009 49.6077C182.439 50.1653 182.926 50.6761 183.461 51.1295C185.193 52.5992 187.437 53.4852 189.887 53.4852C192.112 53.4852 194.168 52.7529 195.825 51.5177C196.558 50.9731 197.209 50.3295 197.767 49.6077C199.062 47.9295 199.831 45.8266 199.831 43.5439C199.831 38.0533 195.38 33.6025 189.889 33.6025C184.399 33.6025 179.948 38.0533 179.948 43.5439H179.945Z" fill="white"/>
<path d="M194.968 49.1751C194.955 49.149 194.94 49.1256 194.919 49.0995C194.88 49.0422 194.825 48.9874 194.76 48.9353C194.635 48.8337 194.465 48.7425 194.27 48.6591C194.262 48.6565 194.257 48.6539 194.249 48.6513C193.387 48.2761 192.253 48.151 192.253 48.151C191.93 48.1015 191.675 48.0702 191.555 48.0572C191.474 47.992 191.388 47.8852 191.302 47.7314C191.026 47.2441 190.755 46.3321 190.7 45.0891V45.0943C190.7 45.0943 191.075 44.2318 191.568 44.5002C192.336 44.9197 193.822 43.2233 193.348 40.9901C193.295 40.7478 193.233 40.5263 193.165 40.3256C193.327 40.3934 193.506 40.4507 193.676 40.4507C194.121 40.4507 194.796 39.3093 194.888 38.9289C194.981 38.5432 194.88 37.2846 194.267 36.9119C193.671 36.5471 192.725 36.9667 192.683 36.9849C192.988 36.5576 194.033 36.6435 194.22 36.6618C191.787 36.1563 191.284 37.7198 191.242 37.8579C189.694 36.4611 187.331 38.8794 186.75 39.523C186.71 39.5569 186.671 39.5934 186.632 39.6325C186.499 39.7106 186.351 39.8357 186.194 40.0259C185.89 40.3934 185.793 40.865 185.793 41.3158C185.793 42.121 186.101 42.8611 186.101 42.8611C186.241 44.2161 186.632 45.8891 187.258 45.9386C187.258 45.9386 187.479 45.9386 187.813 45.9152C187.813 45.9282 187.813 45.9412 187.813 45.9568C187.823 46.1836 187.831 46.4389 187.834 46.6969V46.8507C187.834 47.5308 187.794 48.1744 187.641 48.2578C187.589 48.2578 187.544 48.2656 187.505 48.2682C187.443 48.2734 187.325 48.2865 187.325 48.2865C186.783 48.3568 186.398 48.4116 186.124 48.4585C185.582 48.5523 185.447 48.6148 185.314 48.719C185.282 48.7503 185.251 48.7842 185.22 48.8181C184.824 49.1177 184.097 49.8031 183.461 51.1295C183.555 51.2102 183.651 51.2884 183.75 51.364C183.766 51.377 183.784 51.39 183.8 51.4031C183.873 51.4604 183.946 51.5151 184.021 51.5672C184.073 51.6089 184.125 51.648 184.18 51.6845C184.235 51.7236 184.29 51.7601 184.344 51.7939C184.422 51.8513 184.503 51.9034 184.587 51.9529C184.641 51.9894 184.696 52.0233 184.753 52.0571C184.821 52.0988 184.892 52.1405 184.962 52.1796C185.04 52.2239 185.118 52.2682 185.196 52.3099C185.204 52.3125 185.209 52.3177 185.217 52.3203C185.217 52.3229 185.225 52.3255 185.23 52.3281C185.23 52.3281 185.254 52.3412 185.264 52.3464C185.327 52.3803 185.389 52.4115 185.452 52.4428C185.457 52.4428 185.46 52.4428 185.465 52.448C185.483 52.4584 185.504 52.4689 185.522 52.4767C185.556 52.4949 185.593 52.5132 185.629 52.5288C185.663 52.5444 185.697 52.5601 185.733 52.5783C185.811 52.6148 185.895 52.6513 185.976 52.6851C186.056 52.719 186.14 52.7529 186.221 52.7842C186.26 52.7998 186.296 52.8154 186.333 52.8285C186.369 52.8415 186.406 52.8571 186.445 52.8702C186.52 52.8988 186.598 52.9249 186.674 52.9509C186.755 52.9796 186.833 53.0031 186.914 53.0291C186.981 53.05 187.049 53.0708 187.117 53.0917C187.125 53.0943 187.13 53.0943 187.138 53.0969C187.179 53.1099 187.224 53.1229 187.268 53.1334C187.505 53.1985 187.748 53.2558 187.993 53.3027C188.099 53.3236 188.206 53.3444 188.313 53.3601C188.342 53.3653 188.368 53.3705 188.396 53.3731C188.402 53.3731 188.409 53.3731 188.415 53.3731C188.415 53.3731 188.422 53.3731 188.425 53.3757C188.495 53.3861 188.561 53.3939 188.634 53.4018C188.649 53.4018 188.662 53.407 188.678 53.407C188.688 53.407 188.699 53.407 188.709 53.4122C188.774 53.4226 188.839 53.4278 188.902 53.433C188.912 53.433 188.925 53.4356 188.936 53.4356C188.954 53.4356 188.975 53.4408 188.996 53.4434C189.113 53.4539 189.228 53.4617 189.345 53.4669H189.363C189.4 53.4669 189.434 53.4721 189.473 53.4721C189.496 53.4721 189.517 53.4721 189.54 53.4721C189.655 53.4773 189.77 53.4799 189.884 53.4799C192.112 53.4799 194.166 52.7477 195.823 51.5099C195.544 50.5431 195.255 49.7197 194.966 49.1699L194.968 49.1751Z" fill="#F99746"/>
</svg>
