<svg width="174" height="255" viewBox="0 0 174 255" fill="none" xmlns="http://www.w3.org/2000/svg">
<path d="M72.0274 43.3117C71.718 43.1914 59.7294 40.046 60.4513 52.1721C61.1732 64.2983 73.1961 61.0669 73.2047 60.7146C73.2133 60.3622 72.0274 43.3117 72.0274 43.3117Z" fill="#B78876"/>
<path d="M69.2265 56.3498C69.1664 56.3068 69.0203 56.5044 68.6765 56.6935C68.1855 56.9391 67.6178 56.9823 67.0952 56.8138C65.789 56.4271 64.5858 54.4591 64.3967 52.2762C64.3029 51.2552 64.4319 50.226 64.7749 49.2597C64.8655 48.8732 65.0491 48.5147 65.3097 48.2151C65.5702 47.9156 65.9 47.6842 66.2702 47.5409C66.5092 47.462 66.7684 47.4696 67.0024 47.5622C67.2364 47.6549 67.4305 47.8268 67.5507 48.048C67.7312 48.3745 67.671 48.6238 67.7312 48.6409C67.7913 48.6581 67.9804 48.4175 67.8515 47.9276C67.7687 47.6298 67.5829 47.371 67.3273 47.1972C67.1555 47.0803 66.9621 46.9988 66.7585 46.9575C66.5549 46.9162 66.345 46.9159 66.1413 46.9565C65.6502 47.0849 65.2002 47.3372 64.8346 47.6894C64.4689 48.0415 64.1998 48.4816 64.053 48.9675C63.5916 50.0511 63.4084 51.2328 63.5201 52.4051C63.7436 54.8458 65.1358 57.0545 66.9147 57.4584C67.2466 57.5337 67.5912 57.5335 67.9229 57.4576C68.2547 57.3817 68.5651 57.2322 68.8312 57.0201C69.2179 56.642 69.2695 56.3669 69.2265 56.3498Z" fill="#AA6550"/>
<path d="M102.295 0.00805664C108.457 0.00805664 114.73 0.00805213 122.439 4.03864C127.303 6.61683 130.329 10.5959 132.864 15.4601C134.886 19.4147 135.873 23.8171 135.734 28.2565C135.511 32.4504 135.494 35.3809 133.818 39.231" fill="#263238"/>
<path d="M99.8285 0.962228C104.159 0.653628 108.509 1.2118 112.621 2.60409C116.734 3.99638 120.528 6.19483 123.781 9.07084C127.034 11.9469 129.68 15.4427 131.566 19.3538C133.452 23.2649 134.539 27.5128 134.763 31.849C135.554 47.0346 136.25 63.4577 136.087 71.7252C135.726 89.4804 117.945 92.1015 117.945 92.1015C117.945 92.1015 118.34 97.3611 118.804 103.892C119.011 107.013 118.59 110.143 117.566 113.097C116.543 116.052 114.937 118.771 112.844 121.095C110.751 123.418 108.214 125.299 105.382 126.625C102.55 127.951 99.4812 128.696 96.3565 128.815C93.2862 128.932 90.2229 128.443 87.3419 127.376C84.4608 126.308 81.8185 124.683 79.566 122.593C77.3135 120.504 75.4951 117.99 74.2147 115.197C72.9344 112.404 72.2172 109.386 72.1042 106.316L69.4659 34.7624C69.1443 26.282 72.1366 18.0095 77.8088 11.6972C83.4811 5.38487 91.3878 1.52853 99.8542 0.945036L99.8285 0.962228Z" fill="#B78876"/>
<path d="M117.945 92.1014C117.945 92.1014 107.031 92.6686 95.1709 85.0801C95.1709 85.0801 100.542 97.9711 118.263 96.5445L117.945 92.1014Z" fill="#AA6550"/>
<path d="M127.957 41.7224C127.971 42.3896 127.72 43.0352 127.26 43.5183C126.799 44.0013 126.166 44.2825 125.499 44.3006C125.178 44.3227 124.855 44.2802 124.55 44.1758C124.246 44.0713 123.965 43.9069 123.725 43.6923C123.484 43.4777 123.289 43.2171 123.151 42.9261C123.013 42.635 122.935 42.3192 122.921 41.9974C122.92 41.3339 123.175 40.6958 123.633 40.2156C124.091 39.7354 124.716 39.4501 125.379 39.4192C125.7 39.3983 126.022 39.4415 126.326 39.5464C126.63 39.6514 126.911 39.8158 127.151 40.0302C127.391 40.2446 127.586 40.5047 127.724 40.7952C127.863 41.0857 127.942 41.4009 127.957 41.7224Z" fill="#263238"/>
<path d="M130.423 38.1307C130.105 38.4572 128.197 37.022 125.464 37.0049C122.732 36.9877 120.729 38.3455 120.437 38.0104C120.291 37.8557 120.617 37.2627 121.494 36.6353C122.679 35.823 124.088 35.4023 125.525 35.4322C126.943 35.4334 128.323 35.8914 129.461 36.7384C130.294 37.383 130.578 37.9846 130.423 38.1307Z" fill="#263238"/>
<path d="M101.205 41.7218C101.219 42.3905 100.967 43.0374 100.504 43.5207C100.042 44.004 99.407 44.2842 98.7384 44.3C98.4172 44.3209 98.0951 44.2777 97.7909 44.1728C97.4866 44.0679 97.2064 43.9034 96.9664 43.689C96.7264 43.4746 96.5315 43.2145 96.3931 42.924C96.2546 42.6335 96.1755 42.3183 96.1602 41.9968C96.1595 41.332 96.4158 40.6926 96.8754 40.2122C97.335 39.7317 97.9624 39.4475 98.6267 39.4186C98.9475 39.3989 99.2692 39.443 99.5729 39.5483C99.8766 39.6537 100.156 39.8182 100.396 40.0324C100.636 40.2466 100.831 40.5062 100.97 40.7962C101.108 41.0861 101.188 41.4008 101.205 41.7218Z" fill="#263238"/>
<path d="M103.602 38.4323C103.284 38.7588 101.367 37.3236 98.643 37.3064C95.9187 37.2893 93.9077 38.6385 93.6069 38.3034C93.4694 38.1573 93.7874 37.5557 94.6726 36.9283C95.8597 36.1207 97.2677 35.7004 98.7032 35.7252C100.12 35.7348 101.498 36.192 102.639 37.0314C103.447 37.6846 103.756 38.2776 103.602 38.4323Z" fill="#263238"/>
<path d="M113.337 58.7132C113.337 58.5585 115.056 58.2835 117.772 57.9483C118.468 57.8795 119.13 57.7506 119.25 57.278C119.319 56.558 119.163 55.8342 118.803 55.2068C118.167 53.488 117.488 51.7692 116.783 49.8871C113.982 42.3072 111.962 36.0852 112.272 35.9734C112.581 35.8617 115.099 41.9119 117.892 49.4918C118.571 51.3567 119.215 53.1357 119.826 54.8459C120.258 55.6882 120.379 56.6557 120.169 57.5787C120.063 57.8233 119.904 58.0411 119.704 58.2165C119.503 58.3919 119.266 58.5205 119.009 58.5928C118.624 58.6885 118.229 58.7404 117.832 58.7475C115.065 58.8936 113.346 58.8936 113.337 58.7132Z" fill="#263238"/>
<path d="M105.295 60.5606C105.742 60.5606 105.717 63.4997 108.235 65.6225C110.753 67.7452 113.915 67.4444 113.932 67.8569C113.932 68.046 113.219 68.4327 111.887 68.4585C110.15 68.4618 108.468 67.8532 107.135 66.7397C105.857 65.6704 105.042 64.1498 104.857 62.4942C104.754 61.2911 105.089 60.5434 105.295 60.5606Z" fill="#263238"/>
<path d="M104.384 27.7744C104.109 28.5134 101.393 28.1439 98.1873 28.5049C94.9818 28.8658 92.3864 29.7166 91.9653 29.0463C91.7848 28.7283 92.2403 28.0322 93.2888 27.3275C94.6883 26.4606 96.2667 25.9235 97.9045 25.7568C99.5423 25.59 101.197 25.798 102.742 26.3649C103.92 26.8032 104.504 27.3876 104.384 27.7744Z" fill="#263238"/>
<path d="M130.037 28.4191C129.556 29.0378 127.682 28.3761 125.422 28.3331C123.162 28.2901 121.246 28.7113 120.807 28.0581C120.618 27.7401 120.919 27.1214 121.761 26.5456C122.89 25.8495 124.201 25.5056 125.527 25.5576C126.852 25.6097 128.132 26.0553 129.204 26.8378C129.994 27.4823 130.252 28.1183 130.037 28.4191Z" fill="#263238"/>
<path d="M69.647 40.3218C69.647 40.3218 70.4205 44.4297 70.6267 46.2774C70.7041 46.9563 70.6267 54.4761 72.4401 54.8714C74.0128 55.1979 77.1324 53.7627 78.5246 50.6517C79.9168 47.5407 82.5638 40.0725 82.2716 36.6779C81.8848 32.0543 81.67 27.3448 82.5981 22.79C83.5263 18.2352 85.7006 13.8007 89.353 10.9303C93.0055 8.0599 98.2908 7.07159 102.45 9.15134C105.028 10.4404 106.928 12.7178 109.325 14.3077C111.452 15.8142 114.057 16.4898 116.648 16.207C117.933 16.0456 119.146 15.5243 120.148 14.7033C121.15 13.8822 121.9 12.7948 122.311 11.5662C123.067 8.85914 121.675 5.89421 119.501 4.09806C117.326 2.30192 114.533 1.4769 111.766 0.926884C104.085 -0.722593 96.0932 -0.162414 88.7171 2.54255C81.438 5.36998 74.9667 10.8014 71.8729 17.9602C68.2806 26.2362 68.6931 31.3152 69.647 40.3046" fill="#263238"/>
<path d="M110.227 41.8342C110.141 40.8504 109.986 39.874 109.762 38.9122C109.074 36.3012 107.527 33.9976 105.371 32.3722C103.896 31.2567 102.18 30.5031 100.361 30.1721C98.2712 29.7903 96.1178 29.9712 94.1214 30.6964C93.0465 31.0799 92.0376 31.6278 91.1307 32.3206C90.1621 33.0171 89.3144 33.8677 88.6212 34.8387C87.1307 36.8682 86.327 39.3205 86.327 41.8385C86.327 44.3565 87.1307 46.8088 88.6212 48.8383C89.319 49.8053 90.166 50.6553 91.1307 51.3563C92.0379 52.0466 93.0468 52.5917 94.1214 52.972C96.1171 53.6996 98.2704 53.8835 100.361 53.5048C102.181 53.1726 103.898 52.4159 105.371 51.2962C107.529 49.6743 109.079 47.3739 109.771 44.7647C109.99 43.7996 110.143 42.8204 110.227 41.8342C110.239 41.8995 110.239 41.9666 110.227 42.0318V42.6076C110.231 42.9216 110.205 43.2353 110.149 43.5444C110.108 43.9679 110.034 44.3875 109.926 44.7991C109.286 47.4861 107.742 49.8712 105.551 51.554C103.929 52.8039 102.018 53.6245 99.9946 53.94C97.9712 54.2554 95.901 54.0555 93.9753 53.3587C92.8582 52.9714 91.8085 52.4117 90.8643 51.7001C89.8734 50.9831 89.0031 50.1127 88.2861 49.1219C86.7339 47.0188 85.8965 44.4738 85.8965 41.86C85.8965 39.2462 86.7339 36.7011 88.2861 34.598C89.7275 32.6353 91.7153 31.1408 94.0011 30.301C96.0639 29.5646 98.2853 29.3896 100.438 29.794C102.316 30.1506 104.082 30.9457 105.594 32.1144C107.783 33.795 109.327 36.1768 109.969 38.8607C110.077 39.2751 110.152 39.6976 110.192 40.124C110.248 40.4302 110.274 40.741 110.27 41.0521V41.6279C110.244 41.774 110.235 41.8342 110.227 41.8342Z" fill="#263238"/>
<path d="M141.486 41.834C141.395 40.8509 141.24 39.8748 141.022 38.912C140.331 36.2998 138.781 33.9961 136.622 32.372C135.148 31.255 133.431 30.5013 131.611 30.1719C129.525 29.79 127.374 29.9709 125.381 30.6961C123.18 31.5067 121.267 32.9474 119.881 34.8385C118.385 36.8658 117.578 39.3189 117.578 41.8383C117.578 44.3576 118.385 46.8107 119.881 48.8381C120.575 49.8048 121.419 50.6548 122.381 51.3561C123.291 52.0482 124.303 52.5934 125.381 52.9718C127.373 53.6995 129.524 53.8834 131.611 53.5046C133.432 53.1724 135.148 52.4157 136.622 51.296C138.78 49.6741 140.329 47.3736 141.022 44.7645C141.241 43.7989 141.396 42.8199 141.486 41.834C141.49 41.8998 141.49 41.9658 141.486 42.0316C141.486 42.1863 141.486 42.3754 141.486 42.6074C141.489 42.921 141.466 43.2344 141.417 43.5442C141.373 43.9679 141.296 44.3875 141.185 44.7989C140.552 47.4887 139.006 49.8759 136.811 51.5538C135.299 52.7208 133.532 53.513 131.654 53.8656C129.499 54.2787 127.273 54.1035 125.209 53.3585C122.919 52.5298 120.932 51.0328 119.502 49.0615C117.945 46.9606 117.104 44.4147 117.104 41.7996C117.104 39.1845 117.945 36.6386 119.502 34.5377C120.218 33.5459 121.089 32.6755 122.081 31.9595C123.027 31.2484 124.076 30.6862 125.192 30.2922C127.257 29.5555 129.482 29.3805 131.637 29.7852C133.515 30.1406 135.282 30.9357 136.794 32.1056C138.987 33.7818 140.532 36.1655 141.168 38.8519C141.278 39.2662 141.356 39.6886 141.4 40.1152C141.449 40.4221 141.472 40.7326 141.469 41.0433C141.469 41.2754 141.469 41.4644 141.469 41.6191C141.479 41.6903 141.485 41.762 141.486 41.834Z" fill="#263238"/>
<path d="M117.635 40.5454C117.635 40.6142 117.196 40.3907 116.517 40.1673C115.63 39.8688 114.693 39.7462 113.759 39.8063C112.835 39.8749 111.931 40.1139 111.094 40.511C110.45 40.829 110.089 41.104 110.046 41.0439C110.003 40.9837 110.304 40.6399 110.905 40.236C111.752 39.7256 112.709 39.425 113.696 39.3592C114.682 39.2934 115.67 39.4644 116.577 39.8579C117.325 40.1845 117.669 40.511 117.635 40.5454Z" fill="#263238"/>
<path d="M122.476 10.5862C122.656 9.66664 122.347 9.151 122.871 8.77286C123.395 8.39472 124.59 9.47757 124.985 9.92446C125.122 10.0706 125.535 9.50335 125.698 9.40023C125.877 9.03173 125.982 8.63174 126.008 8.22285C125.93 7.5783 124.925 7.36345 124.452 6.96812C123.964 6.53956 123.394 6.21498 122.776 6.01419C122.525 5.88968 122.245 5.83292 121.965 5.8495C121.684 5.86608 121.413 5.95542 121.178 6.10872C121.038 6.27371 120.934 6.4657 120.872 6.6727C120.81 6.87971 120.791 7.0973 120.817 7.31188C120.814 7.74183 120.896 8.1681 121.057 8.56661C121.219 8.96753 121.526 9.2928 121.917 9.47757" fill="#263238"/>
<path d="M68.9836 30.8847C68.9836 30.8847 77.6893 34.0731 82.2183 35.9981L81.9605 31.5464L69.3015 26.5361C69.3015 26.5361 68.975 29.8448 68.9836 30.8847Z" fill="#EBEBEB"/>
<path d="M69.8008 23.968C71.9045 24.6195 73.9629 25.409 75.9627 26.3314C78.0288 27.1186 80.0387 28.0461 81.9785 29.1072C79.8748 28.4557 77.8164 27.6662 75.8166 26.7439C73.7505 25.9566 71.7405 25.0292 69.8008 23.968Z" fill="#EBEBEB"/>
<path d="M72.423 117.745L71.7526 96.6809C71.7526 96.6809 75.9379 115.957 97.8612 115.708C118.805 115.467 118.427 98.7263 118.427 98.7263L119.174 107.217V141.516L105.51 197.471L88.0554 199.654L68.7705 123.168L72.423 117.745Z" fill="#FF725E"/>
<path d="M116.475 111.007C116.41 111.166 116.326 111.316 116.226 111.454C115.963 111.878 115.676 112.285 115.366 112.675C114.264 114.125 112.948 115.4 111.465 116.456C109.263 118.032 106.794 119.197 104.177 119.894C100.972 120.754 97.6298 120.984 94.3367 120.573C91.057 120.121 87.8677 119.161 84.8834 117.728C82.4614 116.569 80.1587 115.176 78.0082 113.568C76.5532 112.501 75.1588 111.353 73.8315 110.131C73.3588 109.701 73.0151 109.34 72.7744 109.1C72.6463 108.987 72.531 108.86 72.4307 108.721C72.5764 108.812 72.7119 108.919 72.8346 109.039L73.9518 110.002C74.9143 110.861 76.3409 112.004 78.1972 113.336C80.3585 114.894 82.6601 116.246 85.0724 117.376C88.0218 118.767 91.1661 119.7 94.3969 120.143C97.6303 120.549 100.911 120.336 104.065 119.515C106.643 118.846 109.085 117.735 111.284 116.233C112.761 115.212 114.088 113.992 115.229 112.606C116.054 111.575 116.441 110.982 116.475 111.007Z" fill="#263238"/>
<path d="M101.265 290.844L100.947 191.412L72.7075 118.87L71.7622 97.0327L54.5742 110.044C54.5742 110.044 29.5399 196.216 29.1188 193.242C28.6977 190.269 29.1188 290.844 29.1188 290.844H101.265Z" fill="#EBEBEB"/>
<path d="M100.585 290.571C100.464 290.571 100.361 268.166 100.361 240.528C100.361 212.89 100.464 190.485 100.585 190.485C100.705 190.485 100.808 212.89 100.808 240.528C100.808 268.166 100.705 290.571 100.585 290.571Z" fill="#263238"/>
<path d="M54.8037 124.208L58.2929 126.855L55.8436 142.943L97.0604 186.12L59.625 136.953L62.8133 124.208H54.8037Z" fill="#E0E0E0"/>
<path d="M102.811 239.909L39.5503 221.364L37.4533 173.315L54.8046 110.011C54.8046 110.011 13.4503 130.645 10.6315 143.794C7.81264 156.943 1.03198 188.844 0.318678 211.919C-0.325871 232.544 -0.420409 246.295 4.2891 252.921C17.7817 271.776 106.678 275.145 142.188 252.921" fill="#EBEBEB"/>
<path d="M97.861 187.159C97.861 187.159 97.7837 187.09 97.6547 186.927C97.5258 186.764 97.3196 186.514 97.0875 186.222L94.939 183.472C93.0656 181.049 90.3928 177.577 87.1013 173.297L61.3795 139.634L59.4458 137.056L59.3771 136.97V136.867C60.4771 132.467 61.5514 128.195 62.5741 124.122L62.7803 124.397H54.7707H54.5645V124.191C54.5645 119.034 54.5645 114.222 54.5645 109.993V109.907L54.6332 109.856L67.0687 100.402L70.5063 97.8243L71.3657 97.1626C71.4634 97.0817 71.5701 97.0125 71.6837 96.9563L71.4001 97.2055L70.5407 97.9016L67.1804 100.531L54.8395 110.105L54.9082 109.968C54.9082 114.196 54.9082 118.966 54.9082 124.165L54.702 123.967H62.7116H63.0553L62.9866 124.242L59.8068 136.987L59.7638 136.798L61.7061 139.333L87.3162 173.082L95.0508 183.335C95.9102 184.538 96.6406 185.474 97.1305 186.136C97.3539 186.446 97.5258 186.695 97.6633 186.875L97.861 187.159Z" fill="#B8B8B8"/>
<path d="M126.058 106.264C121.013 97.4463 118.392 98.3573 118.392 98.3573L118.658 101.503V108.111L116.261 136.472L100.938 198.082L101.255 290.846H159.188L166.398 177.611L165.745 128.823L126.058 106.264Z" fill="#EBEBEB"/>
<path d="M165.755 128.823C165.755 128.823 180.751 139.892 182.084 157.707C183.141 172.171 185.521 211.78 185.994 220.4C186.681 233.824 176.222 265.269 148.997 256.366C132.668 251.021 72.3555 230.524 72.3555 230.524L76.3688 204.905L147.957 209.202L149.383 149.491L165.755 128.823Z" fill="#EBEBEB"/>
<path d="M75.5153 207.853C75.5153 207.853 55.2506 205.661 50.5927 206.796C46.0808 207.887 39.6611 213.405 39.6611 213.405L39.7557 221.406L72.3527 230.524L75.5153 207.853Z" fill="#B78876"/>
<path d="M100.946 188.818C100.969 188.723 101 188.631 101.041 188.543C101.11 188.345 101.213 188.079 101.342 187.752C101.625 187.03 102.038 186.033 102.553 184.727L107.091 173.623L113.863 157.175C114.508 155.636 115.144 154.029 115.943 152.456C116.742 150.884 117.61 149.311 118.521 147.738C120.496 144.532 122.642 141.433 124.949 138.457C126.118 136.953 127.295 135.483 128.516 134.074V134.306L125.989 127.886L125.903 127.671L126.118 127.594L136.663 124.028L136.551 124.32C131.653 116.138 127.519 109.229 124.58 104.33C123.136 101.907 121.898 99.9643 120.584 99.1737C120.089 98.875 119.549 98.6574 118.985 98.5292C118.785 98.4915 118.587 98.4428 118.392 98.3831C118.594 98.3966 118.795 98.4224 118.994 98.4604C119.578 98.5656 120.139 98.7721 120.652 99.0706C121.45 99.5888 122.138 100.257 122.681 101.039C123.439 102.054 124.142 103.109 124.786 104.201L136.904 124.122L137.032 124.337L136.792 124.414L126.247 128.032L126.376 127.749L128.911 134.168L128.963 134.289L128.868 134.392C127.665 135.784 126.488 137.254 125.327 138.758C123.029 141.713 120.889 144.788 118.916 147.97C117.997 149.534 117.094 151.073 116.338 152.646C115.582 154.218 114.912 155.782 114.267 157.329C111.689 163.5 109.351 169.06 107.392 173.744C105.432 178.428 103.834 182.157 102.725 184.787C102.175 186.068 101.737 187.073 101.436 187.786C101.29 188.113 101.178 188.362 101.084 188.56C101.05 188.652 101.004 188.738 100.946 188.818Z" fill="#B8B8B8"/>
<path d="M173.98 251.382C173.907 251.48 173.823 251.569 173.731 251.649L172.957 252.396C171.94 253.327 170.838 254.162 169.666 254.889C167.797 256.026 165.77 256.877 163.65 257.415C160.841 258.111 157.93 258.297 155.056 257.965C153.38 257.77 151.725 257.419 150.114 256.917C148.395 256.384 146.745 255.722 144.958 255.103C141.426 253.814 137.627 252.525 133.64 251.081C125.647 248.28 116.838 245.289 107.557 242.238C88.9938 236.145 72.0636 231.006 59.7914 227.336L45.2503 223.039L41.2971 221.862L40.2744 221.553C40.1561 221.52 40.041 221.477 39.9307 221.424L40.2916 221.501L41.3229 221.776L45.3019 222.867C48.7395 223.83 53.7326 225.248 59.9117 227.035C72.2011 230.619 89.1313 235.715 107.72 241.817C117.01 244.859 125.819 247.833 133.803 250.686C137.79 252.104 141.58 253.453 145.113 254.751C146.883 255.387 148.55 256.057 150.269 256.59C151.857 257.094 153.488 257.448 155.142 257.647C157.989 257.996 160.876 257.836 163.667 257.175C165.779 256.657 167.805 255.838 169.683 254.743C170.854 254.032 171.964 253.224 173 252.328L173.799 251.614C173.854 251.533 173.914 251.455 173.98 251.382Z" fill="#B8B8B8"/>
<path d="M39.7225 221.551C39.7225 221.646 38.5795 221.397 36.7662 221.474C35.7063 221.518 34.6558 221.691 33.638 221.99C32.3957 222.362 31.2103 222.903 30.1145 223.597C28.1352 224.903 26.4613 226.62 25.2073 228.633C24.2533 230.18 23.8322 231.211 23.7549 231.211C23.8008 230.947 23.8817 230.689 23.9955 230.446C24.2555 229.762 24.5717 229.101 24.9409 228.47C26.1453 226.353 27.8362 224.553 29.8738 223.219C31.0064 222.504 32.2367 221.956 33.5263 221.594C34.5799 221.309 35.6661 221.162 36.7576 221.156C37.4901 221.146 38.2217 221.212 38.9405 221.354C39.209 221.383 39.4722 221.45 39.7225 221.551Z" fill="#B8B8B8"/>
<path d="M19.793 215.278C19.793 215.278 19.793 215.192 19.8703 215.046C19.9731 214.841 20.1064 214.653 20.2656 214.488C20.8793 213.887 21.6675 213.496 22.5172 213.37C23.7465 213.168 25.0006 213.168 26.2299 213.37C27.7338 213.569 29.212 213.929 30.6386 214.445C33.2478 215.361 35.6303 216.827 37.6255 218.742C38.2202 219.327 38.7636 219.963 39.2498 220.641C39.4385 220.881 39.5972 221.144 39.7224 221.423C39.6451 221.483 38.9404 220.383 37.4107 218.974C35.3936 217.169 33.0395 215.782 30.4839 214.892C29.0895 214.392 27.6507 214.026 26.1869 213.8C24.9957 213.585 23.779 213.55 22.5774 213.697C21.7779 213.789 21.0223 214.111 20.4031 214.625C19.9734 214.995 19.8273 215.295 19.793 215.278Z" fill="#B8B8B8"/>
<path d="M43.4113 160.122C43.2714 159.7 43.1735 159.265 43.1191 158.824C42.9902 158.412 42.8097 157.922 42.612 157.355C42.4144 156.787 42.0706 156.169 41.6753 155.516C40.7505 153.977 39.6706 152.537 38.4525 151.219C36.9454 149.617 35.2909 148.161 33.511 146.87C30.2798 144.508 26.6058 142.822 22.7083 141.911C21.5225 141.66 20.3183 141.505 19.1074 141.447C18.6613 141.45 18.2158 141.415 17.7754 141.344C18.2193 141.281 18.668 141.258 19.1161 141.275C20.3414 141.262 21.565 141.371 22.7685 141.602C26.7443 142.431 30.4957 144.105 33.7688 146.509C35.5775 147.81 37.2477 149.293 38.7533 150.935C39.9787 152.285 41.0509 153.766 41.9503 155.352C42.337 156.031 42.5863 156.693 42.8097 157.252C43.0331 157.81 43.1534 158.352 43.2566 158.773C43.3418 159.218 43.3935 159.669 43.4113 160.122Z" fill="#B8B8B8"/>
<path d="M163.509 233.566C163.499 233.463 163.499 233.359 163.509 233.257V232.354C163.509 231.563 163.449 230.403 163.337 228.917C163.026 224.693 162.159 220.529 160.759 216.533C160.338 215.208 159.761 213.939 159.04 212.751C158.236 211.486 157.068 210.494 155.689 209.907C152.81 208.669 149.346 208.832 145.823 208.635L122.757 207.664C103.695 206.804 86.7391 206.117 76.0826 205.549L76.2286 205.429C75.5841 209.348 75.0685 212.45 74.7161 214.608C74.5356 215.647 74.3981 216.455 74.295 217.031C74.252 217.289 74.2091 217.495 74.1833 217.658L74.1317 217.865C74.1241 217.793 74.1241 217.721 74.1317 217.65L74.2177 217.022C74.295 216.447 74.4153 215.63 74.5614 214.582C74.888 212.425 75.3521 209.314 75.9451 205.386V205.266H76.074L122.748 207.208L145.814 208.248C147.585 208.334 149.312 208.377 150.971 208.514C152.624 208.606 154.25 208.972 155.783 209.597C157.227 210.204 158.455 211.231 159.307 212.545C160.034 213.76 160.611 215.058 161.026 216.412C162.406 220.435 163.228 224.628 163.466 228.874C163.561 230.369 163.561 231.538 163.552 232.311C163.552 232.689 163.552 232.99 163.552 233.214C163.518 233.454 163.509 233.566 163.509 233.566Z" fill="#B8B8B8"/>
<path d="M149.853 177.517C149.974 177.517 150.077 184.452 150.077 192.986C150.077 201.52 149.974 208.455 149.853 208.455C149.733 208.455 149.63 201.52 149.63 192.986C149.63 184.452 149.733 177.517 149.853 177.517Z" fill="#263238"/>
<path d="M39.6289 215.614C50.2081 203.9 49.744 183.077 43.6681 168.304C43.1095 184.306 41.2188 198.503 39.775 214.058" fill="#E0E0E0"/>
<path d="M43.6935 171.295C43.7122 171.466 43.7122 171.639 43.6935 171.81C43.6935 172.197 43.642 172.67 43.599 173.271C43.4959 174.603 43.3584 176.425 43.1779 178.643C42.7998 183.232 42.3185 189.462 41.7255 196.355L40.3333 214.076C40.17 216.293 40.0325 218.115 39.9294 219.447L39.8005 220.899C39.7902 221.07 39.7672 221.239 39.7317 221.406C39.7066 221.238 39.7066 221.067 39.7317 220.899C39.7317 220.512 39.7317 220.04 39.7747 219.43C39.8176 218.158 39.9122 216.319 40.0325 214.05C40.2989 209.512 40.7286 203.239 41.2958 196.32C41.863 189.402 42.4302 183.146 42.8857 178.617C43.1177 176.4 43.3068 174.586 43.4443 173.254C43.5216 172.661 43.5818 172.18 43.6248 171.802C43.6246 171.63 43.6477 171.46 43.6935 171.295Z" fill="#B8B8B8"/>
<path d="M69.7664 150.137C69.993 153.159 70.0676 156.191 69.9899 159.221C70.0674 162.251 69.9928 165.282 69.7664 168.305C69.6461 168.305 69.543 164.231 69.543 159.221C69.543 154.211 69.6461 150.137 69.7664 150.137Z" fill="#263238"/>
<path d="M62.874 180.309C63.0541 182.065 63.7307 183.735 64.8249 185.121C65.8218 186.419 67.8413 187.699 69.4656 187.588C70.6894 187.65 71.9085 187.394 73.0036 186.844C74.0987 186.294 75.0324 185.47 75.7135 184.451C77.6901 181.305 78.1799 174.748 76.5728 170.872C75.4814 168.208 73.0321 165.716 70.1531 165.656C66.3718 165.57 63.9998 168.303 63.192 171.07" fill="#E0E0E0"/>
<path d="M63.2108 171.07C63.3357 170.416 63.5711 169.789 63.9069 169.214C64.281 168.523 64.7593 167.894 65.3249 167.349C66.0824 166.623 67.0013 166.087 68.0062 165.785C68.5889 165.606 69.1932 165.508 69.8024 165.493C70.4687 165.456 71.1359 165.544 71.7704 165.75C73.1545 166.24 74.3706 167.113 75.2767 168.268C76.2992 169.516 77.0093 170.989 77.3479 172.565C77.7046 174.239 77.8318 175.954 77.726 177.662C77.5541 180.352 77.0213 183.033 75.5345 185.078C74.7953 186.039 73.8092 186.782 72.6814 187.227C71.6558 187.638 70.5536 187.823 69.45 187.768C68.6441 187.775 67.8493 187.58 67.1382 187.201C66.5126 186.874 65.9343 186.464 65.4194 185.981C64.6104 185.174 63.9679 184.216 63.5287 183.162C63.2344 182.496 63.032 181.794 62.9272 181.074C62.8981 180.886 62.8808 180.696 62.8756 180.506C62.8644 180.441 62.8644 180.374 62.8756 180.309C63.0505 181.262 63.339 182.191 63.735 183.076C64.1941 184.086 64.8417 184.999 65.6429 185.766C66.1617 186.22 66.7399 186.602 67.3617 186.9C68.0254 187.243 68.7633 187.417 69.5102 187.407C70.5989 187.461 71.685 187.256 72.6787 186.808C73.6723 186.359 74.5452 185.681 75.2252 184.829C76.6088 182.913 77.1416 180.274 77.3049 177.645C77.494 174.207 76.9182 170.821 74.9845 168.535C74.1199 167.439 72.9644 166.608 71.6501 166.137C71.0547 165.94 70.4292 165.85 69.8024 165.871C69.2209 165.877 68.6429 165.961 68.0836 166.12C67.1229 166.397 66.2401 166.894 65.5054 167.572C64.9435 168.086 64.4599 168.68 64.0702 169.334C63.7513 169.896 63.4644 170.476 63.2108 171.07Z" fill="#263238"/>
<path d="M60.8633 180.482C61.0447 182.238 61.7212 183.907 62.8141 185.294C63.8024 186.592 65.8306 187.872 67.4549 187.761C68.6785 187.822 69.8973 187.566 70.9923 187.016C72.0873 186.466 73.0211 185.642 73.7027 184.624C75.6793 181.47 76.1692 174.921 74.5621 171.045C73.4707 168.373 71.0214 165.889 68.1424 165.829C66.5431 165.815 64.9859 166.341 63.7227 167.322C62.4595 168.303 61.5641 169.682 61.1813 171.234" fill="#E0E0E0"/>
<path d="M61.1974 171.234C61.3233 170.583 61.5587 169.958 61.8935 169.386C62.2676 168.695 62.7459 168.066 63.3115 167.521C64.5165 166.36 66.1158 165.697 67.789 165.665C68.4553 165.629 69.1224 165.717 69.757 165.923C71.1411 166.412 72.3573 167.286 73.2634 168.441C74.2865 169.686 74.994 171.16 75.3259 172.738C75.6899 174.411 75.82 176.126 75.7127 177.834C75.5408 180.524 75.0079 183.197 73.5212 185.251C72.7819 186.212 71.7958 186.954 70.668 187.399C69.6425 187.81 68.5402 187.995 67.4366 187.941C66.63 187.945 65.8352 187.747 65.1249 187.365C64.4978 187.044 63.9191 186.636 63.4061 186.153C62.5919 185.347 61.9489 184.386 61.5154 183.326C61.2212 182.663 61.0189 181.963 60.9138 181.246C60.9138 180.997 60.8622 180.808 60.8536 180.679C60.8444 180.613 60.8444 180.547 60.8536 180.481C61.0294 181.431 61.3179 182.358 61.713 183.24C62.1665 184.255 62.8147 185.172 63.6209 185.938C64.1397 186.393 64.7179 186.774 65.3397 187.073C66.0049 187.411 66.7418 187.585 67.4882 187.58C68.5756 187.632 69.6599 187.426 70.652 186.978C71.644 186.53 72.5155 185.852 73.1946 185.001C74.5868 183.076 75.1197 180.447 75.283 177.817C75.472 174.379 74.8962 170.993 72.9626 168.707C72.1117 167.602 70.9642 166.762 69.6539 166.284C69.0614 166.087 68.4388 165.997 67.8148 166.017C66.2197 166.042 64.6897 166.654 63.5178 167.736C62.9559 168.25 62.4724 168.844 62.0826 169.498C61.7514 170.057 61.4558 170.637 61.1974 171.234Z" fill="#263238"/>
<path d="M64.5164 170.272C63.5629 170.151 62.5959 170.345 61.7628 170.824C60.9296 171.304 60.276 172.042 59.9014 172.927C59.1878 174.73 59.1878 176.737 59.9014 178.539C60.197 179.473 60.686 180.334 61.3366 181.066C61.9994 181.803 62.9253 182.251 63.9148 182.312C64.631 182.272 65.3271 182.06 65.9446 181.695C66.5622 181.331 67.0833 180.823 67.4642 180.215C68.1292 179.269 68.5818 178.19 68.7909 177.052C69.0001 175.914 68.9608 174.745 68.6759 173.624C68.2806 172.128 67.1806 170.607 65.6422 170.564" fill="#E0E0E0"/>
<path d="M65.6331 170.563C65.6331 170.563 65.7534 170.563 65.9769 170.563C66.3082 170.601 66.6276 170.71 66.9136 170.881C67.4203 171.219 67.8546 171.654 68.1911 172.162C68.5275 172.67 68.7594 173.239 68.873 173.838C69.2924 175.601 69.1046 177.454 68.3402 179.097C67.9114 180.082 67.251 180.949 66.4152 181.624C65.9657 182.011 65.4302 182.286 64.8533 182.425C64.2763 182.564 63.6745 182.563 63.0979 182.423C61.972 182.064 61.0254 181.29 60.4509 180.257C59.9237 179.333 59.5521 178.328 59.3509 177.284C59.136 176.411 59.1013 175.504 59.2491 174.617C59.3969 173.73 59.7239 172.883 60.2103 172.127C60.5587 171.628 61.0022 171.203 61.5154 170.875C62.0286 170.548 62.6015 170.325 63.201 170.219C63.5287 170.171 63.8617 170.171 64.1893 170.219C64.4042 170.262 64.5159 170.297 64.5159 170.314C64.0876 170.299 63.6588 170.325 63.2354 170.391C62.1025 170.654 61.1126 171.34 60.4681 172.308C60.0229 173.038 59.7303 173.851 59.6077 174.697C59.4851 175.543 59.5351 176.406 59.7548 177.232C59.9555 178.227 60.3184 179.182 60.8291 180.06C61.3477 180.992 62.2019 181.693 63.2182 182.019C63.7275 182.143 64.2592 182.144 64.7689 182.022C65.2786 181.899 65.7517 181.657 66.1488 181.314C66.9286 180.679 67.552 179.874 67.9707 178.96C68.7146 177.397 68.923 175.633 68.5637 173.941C68.3827 172.796 67.767 171.764 66.8449 171.062C66.4753 170.822 66.0644 170.653 65.6331 170.563Z" fill="#263238"/>
<path d="M68.8458 184.4C68.7771 184.4 68.6825 184.125 68.3904 183.781C67.9967 183.339 67.4879 183.015 66.9208 182.845C66.3333 182.676 65.727 182.58 65.116 182.561C64.6434 182.561 64.334 182.484 64.334 182.424C64.334 182.363 64.6262 182.295 65.116 182.243C65.7685 182.173 66.4282 182.232 67.0583 182.415C67.7148 182.604 68.28 183.025 68.6482 183.601C68.9146 184.048 68.8974 184.392 68.8458 184.4Z" fill="#263238"/>
<path d="M69.5271 169.103C69.5271 169.103 69.3896 169.403 68.9943 169.721C68.4627 170.128 67.8404 170.399 67.1809 170.512C66.523 170.632 65.8462 170.597 65.2043 170.409C64.723 170.246 64.4652 170.056 64.491 170.005C65.3439 170.138 66.2104 170.161 67.0692 170.074C67.9254 169.852 68.7509 169.526 69.5271 169.103Z" fill="#263238"/>
<path d="M128.576 107.544C128.576 107.544 128.679 107.544 128.86 107.647C129.122 107.764 129.377 107.896 129.625 108.042C130.546 108.563 131.41 109.18 132.203 109.881C134.845 112.209 136.766 115.245 137.737 118.63C138.754 121.955 139.459 125.367 139.843 128.822C139.998 130.146 140.075 131.22 140.127 131.959C140.17 132.345 140.17 132.734 140.127 133.119C140.03 132.745 139.967 132.362 139.937 131.976C139.826 131.16 139.68 130.112 139.516 128.865C139.041 125.443 138.297 122.064 137.29 118.759C136.335 115.45 134.499 112.462 131.979 110.113C130.91 109.174 129.772 108.315 128.576 107.544Z" fill="#263238"/>
<path d="M117.868 202.138C120.36 202.043 122.354 199.56 124.846 199.697C125.298 199.736 125.737 199.862 126.139 200.071C126.542 200.279 126.899 200.564 127.191 200.911C127.483 201.257 127.704 201.657 127.842 202.089C127.979 202.521 128.03 202.976 127.992 203.427C127.953 203.878 127.826 204.318 127.618 204.72C127.41 205.123 127.124 205.48 126.778 205.772C126.432 206.064 126.031 206.285 125.599 206.423C125.168 206.56 124.713 206.611 124.262 206.572C121.641 206.272 120.111 203.204 117.55 202.619" fill="#263238"/>
<path d="M138.991 204.26C138.211 204.259 137.432 204.196 136.662 204.071L136.8 203.212C139.876 203.702 142.463 203.212 144.483 201.708C147.061 199.843 148.668 196.5 149.356 191.773V191.593C149.639 189.719 150.026 152.963 150.026 145.985C150.026 135.079 140.461 133.592 140.048 133.532C139.636 133.472 130.964 132.011 126.349 143.913C121.52 156.383 113.794 180.412 113.287 183.231C113.218 183.575 113.123 184.004 113.02 184.494C112.212 188.104 110.545 195.606 115.547 199.92C121.124 204.742 125.524 202.877 125.705 202.799L126.057 203.581C125.851 203.667 121.004 205.773 114.988 200.574C109.591 195.916 111.336 188.078 112.178 184.305C112.29 183.824 112.376 183.446 112.436 183.076C112.951 180.24 120.703 156.108 125.55 143.604C130.397 131.1 140.091 132.664 140.16 132.69C140.229 132.715 150.851 134.322 150.851 145.985C150.851 151.734 150.473 189.728 150.172 191.722V191.894C149.45 196.861 147.697 200.393 144.955 202.404C143.22 203.651 141.128 204.302 138.991 204.26Z" fill="#263238"/>
<path d="M150.482 153.024C150.101 151.512 149.499 150.064 148.694 148.727C147.78 147.317 146.632 146.073 145.3 145.049C143.659 143.81 141.776 142.932 139.774 142.471C136.095 141.661 132.25 142.163 128.902 143.889C127.535 144.636 126.263 145.545 125.112 146.596C125.167 146.502 125.233 146.415 125.31 146.338C125.506 146.092 125.722 145.862 125.955 145.651C126.79 144.849 127.729 144.164 128.748 143.614C132.143 141.755 136.098 141.193 139.877 142.032C141.941 142.52 143.875 143.446 145.549 144.748C146.918 145.809 148.083 147.111 148.986 148.59C149.591 149.58 150.037 150.659 150.31 151.787C150.391 152.092 150.451 152.402 150.49 152.715C150.49 152.904 150.499 153.024 150.482 153.024Z" fill="#263238"/>
<path d="M172.371 221.723C172.053 220.479 171.657 219.256 171.185 218.062C169.963 215.214 167.939 212.783 165.358 211.066C163.913 210.183 162.306 209.599 160.631 209.348C159.25 209.133 157.859 208.99 156.463 208.918L153.636 208.72C153.288 208.711 152.942 208.665 152.604 208.583C152.95 208.541 153.299 208.541 153.644 208.583L156.48 208.634C157.89 208.666 159.296 208.78 160.691 208.978C162.429 209.205 164.1 209.79 165.599 210.697C168.255 212.455 170.307 214.987 171.477 217.95C171.835 218.834 172.1 219.753 172.268 220.692C172.347 221.029 172.382 221.376 172.371 221.723Z" fill="#B8B8B8"/>
<path d="M129.015 207.389C129.015 207.389 137.471 194.593 139.628 192.917C141.785 191.241 160.254 182.905 162.394 184.246C164.534 185.587 163.253 188.491 163.253 188.491C163.253 188.491 171.056 185.758 171.89 186.833C172.338 187.479 172.579 188.246 172.579 189.033C172.579 189.819 172.338 190.587 171.89 191.233C171.89 191.233 176.187 190.571 176.187 191.903C176.17 192.798 175.934 193.674 175.499 194.456C175.065 195.238 174.445 195.902 173.695 196.389C171.701 197.885 158.733 206.513 157.693 208.902L153.49 208.644L129.015 207.389Z" fill="#B78876"/>
<path d="M153.333 203.719C153.428 203.435 153.558 203.164 153.72 202.911C154.131 202.212 154.597 201.545 155.112 200.917C156.84 198.856 158.914 197.112 161.239 195.761C163.553 194.408 165.98 193.257 168.493 192.323C169.447 191.954 170.212 191.679 170.77 191.464C171.046 191.35 171.335 191.269 171.63 191.223C171.383 191.394 171.114 191.53 170.83 191.627L168.605 192.581C166.151 193.585 163.768 194.754 161.472 196.079C159.187 197.412 157.123 199.09 155.353 201.055C154.012 202.645 153.41 203.762 153.333 203.719Z" fill="#AA6550"/>
<path d="M142.618 203.513C142.718 203.186 142.857 202.871 143.031 202.576C143.323 201.983 143.744 201.132 144.328 200.101C145.002 198.889 145.782 197.739 146.657 196.664C147.177 196.009 147.771 195.418 148.428 194.902C149.141 194.421 149.889 193.974 150.671 193.51C153.313 191.935 156.071 190.561 158.921 189.402C159.784 189.06 160.669 188.773 161.568 188.542C161.899 188.447 162.239 188.386 162.582 188.362C162.582 188.439 161.181 188.766 159.041 189.728C156.245 190.967 153.525 192.371 150.894 193.931C150.121 194.386 149.373 194.842 148.677 195.297C148.044 195.784 147.468 196.341 146.958 196.956C146.077 198.006 145.284 199.127 144.586 200.307L143.16 202.697C143.009 202.987 142.827 203.261 142.618 203.513Z" fill="#AA6550"/>
</svg>
