<svg width="15" height="15" viewBox="0 0 15 15" fill="none" xmlns="http://www.w3.org/2000/svg">
<g clip-path="url(#clip0_559_736)">
<path d="M7.95446 3.41431C7.7737 3.41431 7.60034 3.48611 7.47252 3.61393C7.3447 3.74175 7.2729 3.91511 7.2729 4.09587V7.27649H5.4554C5.27453 7.27649 5.10108 7.34834 4.97319 7.47623C4.84529 7.60412 4.77344 7.77758 4.77344 7.95845C4.77344 8.13932 4.84529 8.31278 4.97319 8.44068C5.10108 8.56857 5.27453 8.64042 5.4554 8.64042H7.95285C8.13361 8.64042 8.30697 8.56861 8.43478 8.44079C8.5626 8.31298 8.63441 8.13962 8.63441 7.95886V4.09587C8.63441 3.91539 8.56283 3.74227 8.43536 3.6145C8.30789 3.48673 8.13495 3.41473 7.95446 3.41431Z" fill="#E0A831"/>
<path d="M7.4996 0C6.01632 0 4.56635 0.439844 3.33305 1.26391C2.09975 2.08798 1.1385 3.25925 0.570876 4.62963C0.00324941 6 -0.145268 7.50792 0.144106 8.9627C0.43348 10.4175 1.14775 11.7538 2.19658 12.8026C3.24542 13.8515 4.58172 14.5657 6.0365 14.8551C7.49128 15.1445 8.9992 14.9959 10.3696 14.4283C11.7399 13.8607 12.9112 12.8995 13.7353 11.6662C14.5594 10.4328 14.9992 8.98288 14.9992 7.4996C14.9969 5.5113 14.206 3.60511 12.8 2.19917C11.3941 0.793232 9.4879 0.00234532 7.4996 0V0ZM7.4996 13.6361C6.28592 13.6361 5.0995 13.2762 4.09036 12.6019C3.08122 11.9276 2.29469 10.9692 1.83024 9.84793C1.36578 8.72663 1.24426 7.49279 1.48104 6.30243C1.71781 5.11207 2.30226 4.01866 3.16046 3.16046C4.01866 2.30225 5.11207 1.71781 6.30243 1.48103C7.49279 1.24426 8.72663 1.36578 9.84793 1.83024C10.9692 2.29469 11.9276 3.08122 12.6019 4.09036C13.2762 5.09949 13.6361 6.28592 13.6361 7.4996C13.6344 9.12657 12.9873 10.6864 11.8369 11.8369C10.6864 12.9873 9.12657 13.6344 7.4996 13.6361Z" fill="#E0A831"/>
</g>
<defs>
<clipPath id="clip0_559_736">
<rect width="15" height="15" fill="white"/>
</clipPath>
</defs>
</svg>
