<svg width="27" height="28" viewBox="0 0 27 28" fill="none" xmlns="http://www.w3.org/2000/svg">
<path d="M14.8005 5.59009H11.3262V22.0933H14.8005V5.59009Z" fill="#FF725E"/>
<path d="M5.24609 11.6702V16.0132H20.8807V11.6702H5.24609Z" fill="#FF725E"/>
<path d="M26.0884 13.8426C26.0754 13.771 26.0667 13.6987 26.0621 13.626C26.0621 13.4689 26.0359 13.2577 26.0201 12.9924C26.0201 12.8516 26.0201 12.6945 25.9885 12.5266C25.957 12.3587 25.936 12.1692 25.9044 11.9851C25.8461 11.5203 25.7547 11.0605 25.631 10.6095C25.3264 9.36444 24.8407 8.174 24.1903 7.07862C22.6577 4.43221 20.2764 2.41979 17.4571 1.3886C14.6378 0.357409 11.5575 0.372132 8.74763 1.43023C8.17203 1.64233 7.61157 1.89567 7.07033 2.1884C6.52172 2.49886 5.99466 2.84809 5.49294 3.2336C4.98101 3.62463 4.49449 4.04976 4.03648 4.50624C3.58562 4.98836 3.16583 5.50031 2.77982 6.03884C1.98396 7.14357 1.36449 8.37211 0.944792 9.67806C0.0615157 12.3855 0.0615157 15.316 0.944792 18.0234C1.36332 19.3298 1.98288 20.5586 2.77982 21.6626C3.16316 22.2033 3.5831 22.7154 4.03648 23.1952C4.49309 23.6549 4.9797 24.082 5.49294 24.4733C5.99466 24.8588 6.52172 25.208 7.07033 25.5184C7.61261 25.8089 8.17292 26.0622 8.74763 26.2766C11.5576 27.3266 14.6346 27.3379 17.4518 26.3084C20.269 25.279 22.6511 23.2729 24.1903 20.6337C24.8418 19.5369 25.3276 18.3445 25.631 17.0973C25.7552 16.6483 25.8466 16.1903 25.9044 15.7272C25.936 15.5214 25.9728 15.3373 25.9885 15.1856C26.0043 15.034 25.9885 14.8607 26.0201 14.7199C26.0201 14.4491 26.0516 14.2433 26.0621 14.0863C26.0662 14.0136 26.075 13.9412 26.0884 13.8697C26.0943 13.9418 26.0943 14.0142 26.0884 14.0863C26.0884 14.2433 26.0884 14.4545 26.0884 14.7199V15.1911C26.0884 15.3644 26.0411 15.5485 26.0201 15.7326C25.9678 16.2003 25.8834 16.6636 25.7677 17.119C25.4766 18.3831 24.9996 19.5939 24.3533 20.7095C23.4051 22.3579 22.1261 23.7788 20.6018 24.8771C19.0776 25.9754 17.3432 26.7258 15.5146 27.0781C13.2275 27.5148 10.8687 27.3186 8.67927 26.5095C8.0941 26.2915 7.52329 26.0346 6.97043 25.7405C5.84043 25.0993 4.79885 24.3052 3.87347 23.3793C3.41112 22.8908 2.98245 22.3696 2.59054 21.8197C1.77252 20.6929 1.13849 19.4363 0.71344 18.0992C0.280136 16.7218 0.0514555 15.2849 0.0351562 13.8372C0.0544434 12.3915 0.283058 10.9568 0.71344 9.58059C1.14073 8.24617 1.7746 6.99164 2.59054 5.86554C2.98374 5.31489 3.41233 4.79203 3.87347 4.30046C4.34206 3.83666 4.8391 3.40433 5.36149 3.00615C6.80365 1.91051 8.44922 1.13213 10.1959 0.719411C11.9426 0.306692 13.753 0.268456 15.5146 0.607074C17.3342 0.967161 19.0586 1.72171 20.5734 2.82066C22.0882 3.9196 23.3587 5.3378 24.3007 6.98114C24.946 8.09533 25.423 9.30419 25.7151 10.5662C25.8304 11.0236 25.9148 11.4886 25.9675 11.958C25.9675 12.1584 26.0253 12.3479 26.0359 12.4995V12.9653C26.0359 13.2361 26.0359 13.4473 26.0359 13.6043C26.0604 13.6819 26.078 13.7617 26.0884 13.8426Z" fill="#FF725E"/>
</svg>
