<svg width="309" height="239" viewBox="0 0 309 239" fill="none" xmlns="http://www.w3.org/2000/svg">
<path d="M323.575 260.439L142.017 261.212C97.8916 226.56 93.3299 175.227 124.817 144.11C143.869 125.281 168.064 129.081 191.105 126.117H191.169C199.192 125.059 207.045 123.207 214.538 119.259C238.257 106.748 251.583 77.2295 271.587 52.3888C274.077 49.277 276.685 46.2571 279.408 43.3288C295.813 25.8122 328.486 25.2407 345.569 49.8803C388.974 112.485 369.097 205.625 323.575 260.439Z" fill="#FFC727"/>
<path opacity="0.1" d="M327.607 117.205C322.855 191.696 236.827 219.5 183.103 197.189C136.385 177.778 151.679 133.494 191.104 126.086H191.168C199.19 125.027 207.044 123.175 214.537 119.227C238.256 106.717 251.581 77.1978 271.585 52.357C301.316 36.9043 331.099 62.6658 327.607 117.205Z" fill="black"/>
<path d="M164.466 272.167C167.271 271.109 230.542 220.57 231.738 217.13C232.193 215.818 225.388 206.175 216.794 194.755C214.931 192.289 213.004 189.76 211.036 187.198C198.25 170.539 184.29 153.16 184.29 153.16L141.869 186.86L169.779 219.966L175.897 227.238C175.897 227.238 160.338 257.434 159.428 261.361C158.518 265.287 161.672 273.194 164.466 272.167Z" fill="#EB9481"/>
<path d="M164.477 272.167C167.271 271.108 230.542 220.58 231.738 217.13C232.109 216.071 227.663 209.477 221.376 200.926C212.168 211.922 180.099 244.659 171.335 249.041C165.778 251.824 166.879 246.363 168.954 240.923C164.72 249.464 159.925 259.244 159.428 261.361C158.549 265.277 161.661 273.193 164.477 272.167Z" fill="#263238"/>
<path d="M99.0243 122.01C101.924 144.046 156.242 207.678 162.529 214.97L163.957 216.632L208.855 182.138L208.347 181.472L168.773 129.663C168.773 129.663 234.257 167.839 266.961 150.513C281.652 142.734 292.554 128.901 292.554 128.901L249.836 106.134C249.836 106.134 238.014 109.955 230.457 108.854C204.41 105.034 146.049 82.8812 132.205 83.4528C114.339 84.1619 96.3571 101.816 99.0243 122.01Z" fill="#263238"/>
<path d="M162.887 143.37C166.855 141.216 171.06 139.532 175.418 138.353L175.217 138.078C167.628 140.427 159.563 143.296 154.726 149.974C152.504 153.065 151.117 157.171 151.996 160.982C152.391 162.751 153.447 164.303 154.948 165.32C156.449 166.337 158.281 166.743 160.071 166.453C170.126 165.332 171.883 152.779 179.737 148.249C180.509 147.783 181.342 147.427 182.213 147.191L182.012 146.926C180.39 147.422 178.883 148.235 177.577 149.318C173.809 152.398 171.767 156.885 168.793 160.632C165.818 164.379 161.151 167.448 156.378 165.681C151.085 163.744 151.488 156.886 153.488 152.684C155.488 148.482 159.045 145.613 162.887 143.37ZM171.947 200.386C172.991 201.599 173.686 203.072 173.958 204.649C174.23 206.226 174.069 207.848 173.492 209.34L173.026 209.689C173.197 209.259 173.335 208.817 173.439 208.366C174.794 203.011 171.322 198.894 166.252 197.708C161.447 196.586 156.568 197.793 151.71 197.348C149.992 197.224 148.31 196.79 146.746 196.068L146.291 195.507C150.81 198.057 156.293 196.861 161.193 196.861C164.94 196.861 169.279 197.486 171.947 200.386ZM193.115 161.511C190.934 168.761 183.854 174.413 176.953 176.752C172.753 178.158 168.274 178.521 163.903 177.81C158.611 176.974 152.906 174.825 147.656 176.815C142.407 178.805 140.417 185.283 142.078 190.278L141.592 189.654C141.053 187.544 141.071 185.33 141.645 183.229C142.027 181.718 142.764 180.321 143.795 179.152C144.826 177.983 146.12 177.077 147.572 176.508C152.313 174.709 157.521 176.297 162.283 177.196C167.267 178.264 172.446 177.96 177.27 176.318C181.945 174.68 186.074 171.779 189.199 167.935C190.833 165.928 192.072 163.63 192.85 161.161L193.115 161.511ZM199.825 189.103L199.582 189.294C199.215 188.187 198.776 187.105 198.269 186.055C196.597 182.689 193.189 180.118 189.294 181.515C184.923 183.06 182.256 188.288 182.139 192.681C182.145 195.723 182.601 198.748 183.494 201.656L183.229 201.857C182.473 199.234 181.997 196.537 181.811 193.813C181.724 191.876 182.041 189.942 182.743 188.134C183.444 186.327 184.515 184.685 185.886 183.314C188.288 180.985 191.696 179.991 194.766 181.642C197.327 182.996 198.65 185.738 199.582 188.362C199.666 188.595 199.751 188.849 199.825 189.103ZM118.148 91.3173C117.266 90.4704 116.241 89.7861 115.121 89.2957L115.438 89.0841C115.676 89.1836 115.906 89.3003 116.126 89.4333C117.889 90.3832 119.317 91.8524 120.217 93.6417C121.116 95.431 121.443 97.4537 121.154 99.4353C120.55 104.325 117.587 108.675 117.979 113.734C117.986 114.947 118.313 116.136 118.926 117.182C119.539 118.228 120.417 119.094 121.471 119.693C122.678 120.195 123.993 120.378 125.291 120.224C126.588 120.07 127.825 119.585 128.88 118.815C133.463 115.639 134.416 108.929 134.521 103.817C134.579 100.824 134.252 97.836 133.548 94.9265C132.944 92.4392 131.96 90.0472 131.537 87.5176C131.304 86.1942 131.304 84.8403 131.537 83.5168H131.812C131.314 86.364 132.214 89.2005 133.029 91.8994C134.683 96.9998 135.207 102.399 134.564 107.723C134.003 111.956 132.616 116.92 128.721 119.365C125.684 121.238 121.44 121.26 119.196 118.222C116.952 115.184 117.555 110.665 118.656 107.246C120.296 101.901 122.847 95.7838 118.148 91.3173ZM119.767 160.728C119.598 160.505 119.439 160.272 119.291 160.061C118.307 154.927 118.233 149.36 113.999 145.931C112.453 144.735 110.6 144.001 108.654 143.814C108.569 143.677 108.474 143.539 108.4 143.391C109.989 143.555 111.528 144.045 112.919 144.83C118.635 148.037 118.434 154.822 119.767 160.675V160.728ZM140.523 164.347C138.035 169.068 131.738 171.841 126.647 170.253L126.245 169.703C128.42 170.492 130.792 170.559 133.008 169.893C135.129 169.31 137.046 168.145 138.542 166.532C140.038 164.918 141.054 162.919 141.475 160.759C141.899 158.347 141.818 155.873 141.237 153.494C140.655 151.115 139.587 148.882 138.099 146.936C135.019 142.798 130.499 139.983 125.8 138.025C117.682 134.648 107.807 134.246 100.854 128.499L100.557 127.705C101.993 128.998 103.599 130.087 105.331 130.944C110.146 133.347 115.502 134.289 120.635 135.813C125.18 137.053 129.477 139.069 133.336 141.771C140.057 146.757 144.746 156.24 140.523 164.347ZM178.011 94.8947L178.308 95.0006C177.251 96.1214 176.327 97.3609 175.556 98.6944C170.338 107.596 171.036 118.624 166.03 127.642C164.062 131.166 161.214 134.373 157.372 135.855C155.72 136.522 153.951 136.851 152.17 136.824C150.389 136.796 148.631 136.413 147 135.696C145.379 134.912 144.017 133.678 143.079 132.14C142.14 130.603 141.665 128.828 141.708 127.028C141.708 122.953 143.825 119.016 146.513 116.052C149.868 112.337 154.271 109.776 158.039 106.527C162.138 103.199 164.994 98.586 166.147 93.4341C166.274 92.7673 166.379 92.1005 166.443 91.4231L166.729 91.5078C166.454 94.2058 165.671 96.8274 164.421 99.2342C162.305 103.468 158.769 106.516 155.065 109.331C151.064 112.39 146.788 115.333 144.238 119.778C141.835 124.011 140.882 129.653 144.492 133.537C147.402 136.628 152.218 137.104 156.134 135.982C160.738 134.67 164.04 130.933 166.178 126.784C170.825 117.725 170.158 106.728 175.619 98.0382C176.301 96.8973 177.103 95.8328 178.011 94.863V94.8947ZM202.587 111.311C202.159 115.853 200.774 120.254 198.523 124.223C196.163 128.14 192.758 131.321 188.691 133.41C186.405 134.596 184.031 135.601 181.589 136.416L181.187 136.215C184.399 135.187 187.484 133.799 190.384 132.076C194.768 129.33 198.155 125.249 200.047 120.434C202.46 114.596 203.046 108.164 201.73 101.986L202.048 102.081C202.72 105.098 202.902 108.204 202.587 111.279V111.311ZM226.709 152.789L226.38 152.726C225.026 148.492 222.475 144.724 217.765 143.751C215.815 143.361 213.798 143.46 211.896 144.04C209.993 144.62 208.264 145.662 206.863 147.074L206.599 146.979C207.887 145.639 209.466 144.614 211.213 143.984C212.975 143.34 214.865 143.123 216.727 143.352C218.589 143.58 220.37 144.246 221.925 145.296C224.283 147.202 225.961 149.819 226.709 152.758V152.789ZM257.402 153.933C257.117 154.006 256.827 154.063 256.534 154.102C256.217 154.081 255.899 154.081 255.582 154.102C254.626 154.123 253.684 154.331 252.809 154.716C252.534 154.716 252.258 154.779 251.973 154.8C253.64 153.882 255.571 153.564 257.445 153.901L257.402 153.933ZM225.121 119.545C225.333 123.239 225.121 127.038 222.74 130.129C220.729 132.775 217.331 133.304 215.034 130.648C212.092 127.229 211.722 121.577 211.976 117.301C212.297 113.283 213.071 109.313 214.283 105.468L214.611 105.553C214.272 106.685 213.965 107.807 213.68 108.929C212.314 114.486 211.563 120.402 213.161 125.991C213.87 128.531 215.214 131.706 218.188 132.108C220.4 132.405 222.115 130.722 223.142 128.933C225.534 124.826 224.92 120.032 224.475 115.523C224.221 112.909 223.893 110.231 223.734 107.648C223.839 107.677 223.945 107.698 224.052 107.712C224.338 111.628 224.92 115.555 225.163 119.513L225.121 119.545ZM251.338 112.993C250.861 118.116 251.539 123.207 251.338 128.319C251.158 132.553 249.941 136.935 246.289 139.506C244.815 140.607 242.979 141.11 241.149 140.913C239.32 140.717 237.632 139.836 236.425 138.448C233.355 135.04 233.324 130.33 234.255 126.096C235.504 120.392 237.43 114.803 239.102 109.215C239.166 109.003 239.229 108.77 239.304 108.548L239.674 108.485C239.6 108.76 239.515 109.024 239.441 109.289C238.594 112.157 237.769 115.015 236.922 117.873C235.356 123.165 232.689 129.579 234.805 135.114C235.219 136.331 235.902 137.439 236.804 138.356C237.706 139.272 238.802 139.973 240.013 140.406C241.282 140.703 242.606 140.664 243.855 140.293C245.104 139.922 246.235 139.231 247.136 138.289C251.369 134.31 251.126 128.16 250.883 122.826C250.557 118.112 250.795 113.375 251.592 108.717C251.676 108.252 251.803 107.744 251.941 107.236L252.248 107.394C251.826 109.227 251.536 111.088 251.38 112.962L251.338 112.993ZM288.382 126.7C283.439 131.77 280.211 138.776 272.612 140.247C269.659 140.808 266.208 140.427 264.144 137.961C261.297 134.511 262.694 129.494 264.261 125.832C265.637 122.593 267.542 119.608 269.225 116.518L269.5 116.666C269.087 117.46 268.632 118.254 268.198 119.016C265.594 123.599 261.752 129.494 263.075 135.029C264.197 139.739 269.172 140.798 273.31 139.729C280.264 137.961 283.429 131.389 288.054 126.552L288.382 126.7Z" fill="#455A64"/>
<path d="M154.59 110.369C156.062 112.02 157.423 113.767 158.664 115.597C160.072 117.428 161.49 119.249 162.898 121.08C162.644 120.54 162.401 120.021 162.147 119.471C161.268 117.651 160.559 115.756 159.522 114.01C159.512 113.999 159.504 113.987 159.499 113.973C159.495 113.96 159.493 113.945 159.495 113.931C159.497 113.917 159.502 113.903 159.51 113.891C159.518 113.879 159.528 113.869 159.541 113.861C159.553 113.854 159.567 113.849 159.581 113.848C159.596 113.847 159.61 113.849 159.624 113.854C159.637 113.859 159.649 113.867 159.659 113.878C159.669 113.888 159.676 113.901 159.681 113.914C160.739 115.65 161.998 117.291 162.909 119.122C163.343 119.979 163.755 120.847 164.136 121.725C164.338 122.212 164.56 122.699 164.74 123.186C164.841 123.418 164.929 123.654 165.004 123.895C165.632 124.742 166.246 125.599 166.846 126.467C168.18 128.404 169.354 130.436 170.699 132.352C170.773 132.458 170.614 132.553 170.54 132.458C169.174 130.658 167.64 128.976 166.253 127.166C164.867 125.356 163.501 123.482 162.178 121.598C160.855 119.714 159.628 117.905 158.336 116.063C156.922 114.251 155.621 112.353 154.441 110.379C154.441 110.37 154.442 110.36 154.445 110.351C154.448 110.341 154.453 110.333 154.459 110.325C154.466 110.318 154.474 110.312 154.482 110.308C154.491 110.303 154.501 110.301 154.51 110.3C154.52 110.299 154.53 110.301 154.539 110.304C154.548 110.307 154.557 110.312 154.564 110.318C154.572 110.324 154.578 110.332 154.582 110.341C154.586 110.35 154.589 110.359 154.59 110.369Z" fill="#37474F"/>
<path d="M199.88 174.286C197.414 176.572 194.757 178.689 192.154 180.827C189.55 182.965 186.915 185.06 184.279 187.177C178.987 191.411 173.759 195.644 168.403 199.815C165.471 202.09 162.518 204.344 159.47 206.461C159.333 206.557 159.184 206.334 159.301 206.228C164.296 201.688 169.62 197.528 174.902 193.316C180.183 189.103 185.486 184.849 190.778 180.742C193.699 178.477 196.61 176.149 199.668 174.063C199.848 174 199.986 174.191 199.88 174.286Z" fill="#37474F"/>
<path d="M236.099 59.565C236.068 60.1137 236.186 60.6606 236.439 61.1483C236.692 61.6361 237.072 62.047 237.538 62.338C238.317 62.8711 239.13 63.352 239.972 63.7774C239.845 60.6975 240.089 57.5222 240.269 54.4952C240.48 50.9284 240.925 47.4462 241.433 43.9112H241.518C241.243 47.478 241.084 51.066 240.904 54.6434C240.745 57.7657 240.819 60.9409 240.639 64.0632C241.507 64.476 242.386 64.8358 243.285 65.1216C243.285 64.0632 243.285 62.9307 243.285 61.8405C243.285 58.5489 243.582 55.2996 243.751 52.0185C243.751 51.9339 243.867 51.9339 243.857 52.0185C243.74 55.1937 243.857 58.4536 243.857 61.65C243.857 62.8884 243.857 64.1161 243.92 65.3544C244.534 65.5661 245.148 65.7566 245.751 65.9471L246.958 66.2858C246.958 64.169 247.138 61.957 247.212 59.8402C247.35 56.4215 247.678 53.024 247.858 49.6054C247.858 49.5829 247.866 49.5614 247.882 49.5455C247.898 49.5296 247.92 49.5207 247.942 49.5207C247.965 49.5207 247.986 49.5296 248.002 49.5455C248.018 49.5614 248.027 49.5829 248.027 49.6054C247.868 53.0028 247.921 56.4321 247.836 59.8402C247.773 62.0311 247.836 64.2749 247.741 66.4869C253.17 67.763 258.783 68.0569 264.316 67.3548C267.529 66.9762 270.712 66.375 273.841 65.5555C274.593 65.3544 276.53 64.7935 278.424 64.2114C278.424 63.153 278.488 62.0946 278.498 61.1526C278.498 58.877 278.657 56.5803 278.615 54.3153C278.615 54.2412 278.699 54.2412 278.699 54.3153C278.816 56.5908 279.059 58.8558 279.112 61.1526C279.112 62.0734 279.112 63.026 279.176 63.9785C279.853 63.7774 280.509 63.5657 281.081 63.3646C280.869 59.0675 281.081 54.6963 281.155 50.4098C281.155 50.3039 281.282 50.3039 281.293 50.4098C281.451 54.6434 281.864 58.877 281.811 63.1106C282.248 62.9825 282.67 62.8086 283.071 62.592C284.013 61.8088 283.378 44.8108 283.325 40.8418C283.219 33.4329 282.372 22.5419 280.277 15.44C279.448 12.3587 277.949 9.49834 275.887 7.06317C273.825 4.62801 271.251 2.6781 268.348 1.35267C265.554 0.103747 262.294 0.294256 259.309 0.389513C256.195 0.518637 253.171 1.47189 250.546 3.15195C247.869 4.61963 245.588 6.71531 243.899 9.25896C242.237 12.0888 240.953 15.124 240.078 18.2872C237.866 25.7912 237.051 46.3878 236.511 53.6908C236.374 55.67 236.13 57.6281 236.099 59.565Z" fill="#263238"/>
<path d="M273.417 60.2848C262.548 80.8708 245.126 104.389 239.548 107.469C232.478 111.363 193.868 109.723 191.92 109.427C187.2 108.665 185.57 74.7426 190.629 75.3353C198.366 76.2456 225.863 81.9821 227.938 80.7438C230.012 79.5055 245.37 68.0429 261.468 54.8869C272.624 45.8058 280.17 47.5098 273.417 60.2848Z" fill="#EB9481"/>
<path d="M197.012 107.945C192.437 109.44 187.761 110.603 183.02 111.427C179.283 111.882 168.466 112.887 167.567 108.813C166.942 106.04 173.229 104.695 177.653 103.648C179.982 103.097 183.051 101.256 182.638 99.742C181.908 97.1066 175.886 98.6836 171.843 100.197C164.021 103.182 153.289 109.098 149.51 104.759C148.092 103.118 150.41 100.938 153.617 98.9482C148.6 101.065 143.372 102.6 141.71 100.843C140.768 99.8373 140.895 98.726 141.71 97.5088C141.093 97.6793 140.439 97.6638 139.831 97.4642C139.223 97.2646 138.687 96.8898 138.291 96.3869C137.074 94.5982 138.164 92.4284 140.165 90.354C139.897 90.283 139.649 90.1504 139.441 89.9666C139.234 89.7828 139.072 89.553 138.969 89.2956C136.619 84.0035 154.517 72.8691 160.137 72.4775C176.69 71.2921 194.461 76.4253 194.461 76.4253C199.912 82.3524 197.033 107.945 197.012 107.945Z" fill="#EB9481"/>
<path d="M175.981 89.4435C172.088 89.4177 168.234 90.2223 164.677 91.8037C160.2 93.8041 157.003 96.4924 153.108 99.0855C153.003 99.149 153.108 99.3078 153.204 99.2443C155.066 98.0165 162.729 93.4866 164.613 92.4917C168.128 90.6513 172.015 89.6343 175.981 89.5175C175.981 89.5175 176.044 89.4435 175.981 89.4435Z" fill="#263238"/>
<path d="M174.109 82.1936C169.686 82.5069 165.307 83.2657 161.037 84.4586C156.433 85.9298 152.57 88.9251 148.696 91.7933C146.403 93.515 144.142 95.279 141.912 97.0854C141.817 97.1595 141.912 97.3288 142.018 97.2441C145.913 94.2806 149.896 91.4299 153.967 88.6922C157.727 86.1258 161.957 84.3274 166.414 83.4002C168.954 82.8816 171.537 82.5535 174.119 82.2359L174.109 82.1936Z" fill="#263238"/>
<path d="M170.603 75.5474C166.369 75.7273 162.728 75.8543 158.77 77.4525C153.478 79.5693 148.122 83.6653 146.227 85.1259C144.111 86.7453 142.089 88.4282 140.068 90.1428C139.993 90.2063 140.068 90.3544 140.195 90.2803C144.779 86.5529 149.597 83.1237 154.621 80.0138C156.993 78.5006 159.585 77.3619 162.305 76.6375C165.036 76.0524 167.812 75.6983 170.603 75.5791V75.5474Z" fill="#263238"/>
<path d="M257.753 90.4172L245.549 63.703C251.48 59.0508 257.683 54.7566 264.125 50.8434C275.026 44.186 280.276 47.9645 273.65 63.8512C269.634 73.4138 264.282 82.3583 257.753 90.4172Z" fill="#455A64"/>
<path d="M249.456 61.915C250.588 63.7884 251.446 65.8523 252.409 67.8103C253.372 69.7684 254.261 71.5677 255.118 73.4728C256.904 77.4242 258.608 81.4073 260.23 85.4222C260.23 85.4857 260.146 85.5492 260.114 85.4751C258.209 81.6331 256.346 77.7805 254.547 73.8327C253.647 71.8958 252.8 69.9377 251.954 67.9797C251.107 66.0216 250.059 64.0001 249.339 61.9256C249.318 61.9044 249.424 61.8515 249.456 61.915Z" fill="#263238"/>
<path opacity="0.1" d="M273.63 63.8512C269.621 73.4126 264.275 82.357 257.754 90.4171L247.561 68.0848L274.021 47.9751C277.324 49.0864 277.652 54.2726 273.63 63.8512Z" fill="black"/>
<path d="M314.355 137.781C311.868 138.66 239.886 120.042 239.886 120.042L247.602 95.0111C247.602 95.0111 243.209 87.1577 244.924 79.4314C247.221 69.1119 265.701 51.7329 267.151 50.6957C273.025 46.5679 278.634 46.462 283.662 48.9599C304.629 59.3428 314.355 137.781 314.355 137.781Z" fill="#455A64"/>
<path d="M270.465 92.566C267.376 92.085 264.256 91.8303 261.13 91.804C259.574 91.804 258.04 91.8992 256.484 92.0051C255.711 92.0686 254.949 92.1003 254.176 92.1215C253.366 92.1764 252.552 92.1301 251.753 91.9839C251.689 91.9839 251.657 92.0686 251.753 92.0897C252.484 92.315 253.23 92.4883 253.986 92.6084C254.723 92.6984 255.466 92.7408 256.209 92.7354C257.775 92.7354 259.384 92.6718 260.929 92.6613C264.104 92.6613 267.279 92.6613 270.455 92.8306C270.582 92.8412 270.603 92.5872 270.465 92.566Z" fill="#263238"/>
<path d="M277.248 97.1065C274.822 96.2245 272.349 95.4789 269.839 94.8733C268.59 94.5769 267.331 94.3547 266.05 94.1642L264.219 93.9207C263.542 93.8466 262.865 93.8572 262.187 93.762C262.124 93.762 262.092 93.8572 262.187 93.8678C262.822 93.9737 263.436 94.1853 264.061 94.3229L265.934 94.7357C267.193 95.0215 268.442 95.3178 269.702 95.5824C272.221 96.1222 274.719 96.6408 277.216 97.3076C277.344 97.35 277.375 97.1489 277.248 97.1065Z" fill="#263238"/>
<path d="M292.363 57.9142C302.375 72.6789 323.808 123.535 313.446 131.389C303.084 139.242 252.736 121.196 239.008 112.581C234.923 110.019 254.482 84.967 259.658 84.967C263.944 84.967 283.482 96.8529 284.255 95.6887C285.123 94.3657 282.392 83.8874 279.365 64.4974C275.862 42.1016 286.605 49.4363 292.363 57.9142Z" fill="#EB9481"/>
<path d="M239.169 73.7366C228.828 71.0588 225.759 71.9584 218.244 65.0576C213.302 60.5277 208.295 61.7342 210.656 68.2964C214.498 79.018 227.114 85.2838 232.109 86.194L239.169 73.7366Z" fill="#EB9481"/>
<path d="M265.903 87.0833C265.903 87.0833 254.854 79.1559 244.121 75.208C236.713 72.4773 219.884 68.339 201.605 83.2731C197.276 86.8187 193.604 94.9155 202.791 91.7403C209.31 89.4542 212.761 86.0355 216.793 85.3899C216.793 85.3899 213.364 96.2703 217.079 100.483C220.332 104.159 223.844 107.597 227.589 110.77C228.333 110.222 229.041 109.624 229.706 108.982C229.706 108.982 233.558 112.58 241.56 112.75L265.903 87.0833Z" fill="#EB9481"/>
<path d="M236.627 73.7473C232.753 75.2185 224.593 78.4995 218.856 83.4952C212.506 89.0518 201.7 101.488 205.849 106.124C208.886 109.543 213.416 105.171 213.416 105.171C213.416 105.171 210.04 111.236 213.469 113.723C216.581 115.999 219.894 112.4 219.894 112.4C219.894 112.4 218.475 116.433 221.905 118.042C226.022 119.968 228.255 111.194 234.171 109.574C235.484 109.172 236.627 73.7473 236.627 73.7473Z" fill="#EB9481"/>
<path d="M225.79 89.2534C222.382 91.2432 215.788 97.7207 213.333 104.992C213.28 105.161 213.333 105.288 213.449 105.151C216.924 99.3771 221.085 94.0462 225.843 89.2746C225.843 89.2746 225.885 89.2005 225.79 89.2534Z" fill="#263238"/>
<path d="M231.261 95.8476C228.498 97.8692 222 104.876 219.766 112.306C219.714 112.475 219.819 112.602 219.893 112.454C223.065 106.524 226.9 100.975 231.324 95.9111C231.324 95.9111 231.303 95.8265 231.261 95.8476Z" fill="#263238"/>
<path d="M216.803 85.3267C213.257 85.9406 210.834 87.3588 207.711 89.0311C206.177 89.8778 204.597 90.6409 202.98 91.3173C201.499 91.91 199.308 92.8096 197.964 91.4549C197.658 91.0489 197.469 90.568 197.415 90.063C197.361 89.5581 197.444 89.0479 197.657 88.5866C198.232 87.243 199.018 85.9996 199.985 84.9033C199.985 84.9033 199.985 84.7975 199.911 84.8398C198.983 85.8284 198.161 86.9102 197.455 88.068C196.99 88.8647 196.772 89.7824 196.831 90.7034C197.117 92.6509 199.318 93.1589 200.959 92.8202C201.938 92.5861 202.891 92.2564 203.806 91.8359C204.684 91.4548 205.552 91.0315 206.41 90.587C208.167 89.6767 209.871 88.6607 211.606 87.7293C213.322 86.8596 215.089 86.0961 216.898 85.4431C216.909 85.422 216.877 85.3161 216.803 85.3267Z" fill="#263238"/>
<path d="M208.232 96.5456C210.861 92.6504 213.746 88.9342 216.868 85.4218C216.868 85.3689 216.868 85.3054 216.805 85.3371C213.841 87.5598 208.771 93.8044 207.522 95.8259C206.274 97.8475 204.834 100.419 204.559 102.79C204.136 106.368 206.432 107.32 207.29 107.606C208.31 107.913 209.404 107.86 210.391 107.458C211.557 106.914 212.601 106.14 213.46 105.182C213.46 105.182 213.46 105.066 213.397 105.108C211.989 106.378 209.766 107.521 207.851 107.045C207.419 106.957 207.009 106.784 206.645 106.535C206.281 106.286 205.972 105.966 205.734 105.595C205.303 104.671 205.22 103.622 205.501 102.642C206.056 100.469 206.98 98.407 208.232 96.5456Z" fill="#263238"/>
<path d="M284.235 95.657C285.802 96.8029 287.431 97.8629 289.114 98.8322C290.777 99.8418 292.491 100.767 294.247 101.605C292.795 100.292 291.21 99.1358 289.516 98.1548C287.844 97.1474 286.074 96.3106 284.235 95.657Z" fill="#263238"/>
<path d="M309.086 84.7862L279.768 82.5741C278.555 75.1367 277.788 67.6333 277.471 60.1042C276.91 47.3398 282.763 44.5562 293.443 58.0509C299.898 66.1759 305.165 75.1778 309.086 84.7862Z" fill="#455A64"/>
<path d="M280.118 78.2878C282.309 78.2031 284.521 78.4466 286.712 78.5524C288.902 78.6583 290.882 78.7429 292.967 78.9123C297.296 79.251 301.593 79.6743 305.9 80.2035C305.975 80.2035 305.975 80.3411 305.9 80.3305C301.617 80.1541 297.334 79.9142 293.051 79.6108C290.935 79.4627 288.818 79.2616 286.701 79.0605C284.584 78.8594 282.298 78.7959 280.139 78.4254C280.044 78.4043 280.044 78.2878 280.118 78.2878Z" fill="#263238"/>
<path d="M278.963 79.6745C278.783 78.6161 278.645 77.5577 278.518 76.4993C278.518 76.277 278.518 76.0547 278.444 75.8325C277.993 74.5701 277.611 73.284 277.301 71.9799C277.301 71.9799 277.301 71.9164 277.375 71.9799C277.743 72.9399 278.061 73.9185 278.328 74.9117C278.158 73.2817 278.01 71.6518 277.989 70.0112H278.074C278.465 72.128 278.709 74.2449 279.026 76.3617C279.174 77.4201 279.809 82.4581 279.873 82.4687C279.937 82.4793 282.307 82.7333 282.456 82.7968C282.604 82.8603 282.551 82.9979 282.456 82.9979L279.428 82.7756C279.428 82.7756 279.111 80.553 278.963 79.6745Z" fill="#263238"/>
<path d="M170.097 109.691H251.022V113.31H170.097V109.691Z" fill="#C7C7C7"/>
<path d="M170.095 109.691V113.321H218.634L215.861 109.691H170.095Z" fill="#A6A6A6"/>
<path d="M206.632 113.322H127.759L121.197 59.7556H200.059L206.632 113.322Z" fill="#A6A6A6"/>
<path d="M202.505 113.322H123.633L117.07 59.7556H195.932L202.505 113.322Z" fill="#C7C7C7"/>
<path d="M164.582 86.5327C164.596 87.1595 164.484 87.7829 164.254 88.366C164.023 88.9491 163.679 89.4802 163.24 89.928C162.801 90.3758 162.277 90.7312 161.698 90.9733C161.12 91.2155 160.499 91.3394 159.872 91.3378C158.591 91.3326 157.363 90.8273 156.45 89.9297C155.536 89.032 155.01 87.8131 154.982 86.5327C154.969 85.9058 155.082 85.2827 155.314 84.7001C155.546 84.1175 155.892 83.5872 156.332 83.1404C156.772 82.6936 157.296 82.3394 157.875 82.0985C158.454 81.8577 159.076 81.7351 159.703 81.7381C160.98 81.7433 162.206 82.2475 163.117 83.1431C164.029 84.0388 164.554 85.2551 164.582 86.5327Z" fill="white"/>
<path d="M278.709 50.7373C278.645 52.0603 274.041 61.3954 268.188 62.1575C266.273 62.4009 264.473 52.0391 264.473 52.0391L264.166 51.3088L259.869 41.0211L272.634 29.3787C272.634 29.3787 278.709 50.1763 278.709 50.7373Z" fill="#EB9481"/>
<path d="M259.817 41.0222L264.125 51.3099C266.819 49.714 269.149 47.5706 270.963 45.0182C272.777 42.4658 274.035 39.5613 274.656 36.4922C273.598 32.8725 272.741 29.8666 272.624 29.4326C272.62 29.4117 272.62 29.3901 272.624 29.3691L270.984 30.7556L259.817 41.0222Z" fill="#263238"/>
<path d="M243.146 26.8923C244.914 46.3776 256.779 47.5207 260.981 47.129C264.801 46.7798 277.735 45.0969 277.989 25.5376C278.243 5.97825 268.622 0.643879 259.859 0.993153C251.095 1.34243 241.379 7.41768 243.146 26.8923Z" fill="#EB9481"/>
<path d="M245.613 24.1187C246.041 23.9785 246.462 23.816 246.873 23.6318C247.34 23.5262 247.758 23.265 248.058 22.8909C248.132 22.7552 248.16 22.5991 248.137 22.4462C248.114 22.2934 248.042 22.1522 247.931 22.0442C247.676 21.8729 247.38 21.7719 247.073 21.7514C246.767 21.731 246.46 21.7918 246.185 21.9278C245.583 22.1127 245.073 22.5169 244.756 23.0603C244.688 23.1885 244.66 23.3339 244.674 23.4782C244.688 23.6225 244.744 23.7595 244.835 23.8722C244.927 23.9849 245.049 24.0683 245.187 24.1121C245.325 24.1559 245.474 24.1582 245.613 24.1187Z" fill="#263238"/>
<path d="M259.088 23.4951C258.623 23.4951 258.189 23.4951 257.734 23.4316C257.255 23.475 256.775 23.3597 256.368 23.1035C256.255 22.9992 256.181 22.8596 256.158 22.7076C256.135 22.5557 256.164 22.4004 256.241 22.2673C256.424 22.0207 256.67 21.8278 256.953 21.7086C257.236 21.5894 257.546 21.5485 257.85 21.5899C258.48 21.5825 259.091 21.8087 259.565 22.225C259.668 22.3254 259.739 22.4536 259.77 22.594C259.802 22.7344 259.791 22.8808 259.741 23.0155C259.69 23.1501 259.602 23.2672 259.486 23.3524C259.37 23.4375 259.232 23.4871 259.088 23.4951Z" fill="#263238"/>
<path d="M256.81 26.8291C256.81 26.8291 256.927 26.8291 256.927 26.9349C257.075 28.2579 257.456 29.7503 258.705 30.0255C258.705 30.0255 258.758 30.0996 258.705 30.0996C257.223 30.089 256.736 28.1098 256.81 26.8291Z" fill="#263238"/>
<path d="M257.805 25.2834C259.922 24.8283 260.652 29.0619 258.705 29.5171C256.757 29.9722 256.037 25.6962 257.805 25.2834Z" fill="#263238"/>
<path d="M258.673 25.3569C259.086 25.5368 259.52 25.8966 259.975 25.8543C260.43 25.812 260.811 25.3039 261.033 24.7959C261.033 24.7959 261.097 24.7959 261.107 24.7959C261.266 25.6003 261.107 26.4893 260.261 26.7645C259.414 27.0397 258.789 26.3941 258.44 25.6215C258.419 25.5368 258.504 25.2933 258.673 25.3569Z" fill="#263238"/>
<path d="M249.021 27.8655C249.021 27.8655 248.926 27.9501 248.936 28.0031C249.222 29.3049 249.338 30.8502 248.227 31.4958C248.227 31.4958 248.227 31.5805 248.227 31.5699C249.667 31.0936 249.497 29.0615 249.021 27.8655Z" fill="#263238"/>
<path d="M247.594 26.7539C245.477 26.9868 246.08 31.2416 248.059 30.9876C250.038 30.7335 249.393 26.5211 247.594 26.7539Z" fill="#263238"/>
<path d="M246.746 27.1248C246.449 27.4 246.174 27.8657 245.772 27.9503C245.37 28.035 244.904 27.6328 244.544 27.2412H244.481C244.576 28.0562 244.967 28.8606 245.772 28.9029C246.576 28.9452 246.936 28.1726 247.01 27.3365C247.021 27.2306 246.873 27.019 246.746 27.1248Z" fill="#263238"/>
<path d="M252.546 33.8247C252.546 33.8247 252.662 35.8357 252.842 36.7565C252.842 36.8412 253.086 36.8412 253.403 36.7565C254.223 36.7473 255.024 36.5123 255.719 36.0772C256.413 35.6421 256.974 35.0238 257.34 34.2904C257.347 34.27 257.346 34.2481 257.338 34.2281C257.331 34.2082 257.317 34.1914 257.298 34.1804C257.28 34.1694 257.259 34.1649 257.237 34.1676C257.216 34.1702 257.197 34.18 257.182 34.1952C256.159 35.2234 254.836 35.8982 253.403 36.1215C253.287 35.878 253.329 32.6711 253.181 32.6922C252.478 32.8957 251.806 33.1911 251.18 33.5707C250.831 29.4006 251.18 25.2093 250.736 21.0709C250.736 20.9228 250.503 20.9122 250.482 21.0709C250.006 25.5551 249.974 30.0752 250.387 34.5656C250.45 35.116 252.249 34.0576 252.546 33.8247Z" fill="#263238"/>
<path d="M277.757 26.6586C274.582 27.4312 272.846 20.1282 272.846 20.1282C272.846 20.1282 266.347 21.1866 262.654 12.222C263.302 14.9963 264.748 17.5202 266.813 19.4826C266.813 19.4826 255.044 20.8691 248.63 12.0738C248.63 12.0738 251.371 16.6461 253.456 18.0855C253.456 18.0855 248.429 17.5351 245.433 14.0107C245.433 14.0107 244.375 19.8848 243.052 21.6735C243.052 21.6735 240.205 1.5638 259.15 0.590068C259.15 0.590068 270.93 -0.563594 276.624 7.99891C282.319 16.5614 277.757 26.6586 277.757 26.6586Z" fill="#263238"/>
<path d="M275.025 27.3153C275.025 27.3153 278.2 20.552 281.153 21.5681C284.106 22.5842 282.54 31.8558 279.555 33.6234C279.187 33.874 278.771 34.0479 278.334 34.1347C277.896 34.2214 277.446 34.2193 277.01 34.1285C276.573 34.0376 276.159 33.8599 275.793 33.6058C275.427 33.3518 275.115 33.0266 274.877 32.6496L275.025 27.3153Z" fill="#EB9481"/>
<path d="M280.624 24.2139C280.624 24.2139 280.698 24.2668 280.624 24.2985C278.507 25.6109 277.735 27.8971 277.29 30.2044C277.381 29.9565 277.524 29.7311 277.711 29.5438C277.897 29.3564 278.121 29.2115 278.368 29.119C278.616 29.0265 278.88 28.9886 279.143 29.0079C279.407 29.0272 279.663 29.1032 279.894 29.2307C279.958 29.2307 279.894 29.3683 279.894 29.3683C279.475 29.3015 279.045 29.3677 278.666 29.5575C278.286 29.7474 277.975 30.0513 277.777 30.4267C277.462 31.0551 277.214 31.715 277.036 32.3953C276.973 32.6176 276.592 32.5753 276.624 32.3318C276.624 32.3318 276.624 32.3318 276.624 32.2789C276.094 29.453 277.65 25.05 280.624 24.2139Z" fill="#263238"/>
<path d="M0.443214 214.854C1.50162 217.659 52.3051 280.761 55.7025 281.947C57.015 282.402 66.6359 275.543 78.0243 266.928C80.4904 265.065 83.02 263.128 85.5708 261.149C102.188 248.31 119.524 234.297 119.524 234.297L85.6554 191.961L52.6332 219.977L45.3831 226.126C45.3831 226.126 15.1339 210.652 11.2072 209.763C7.28053 208.874 -0.594025 212.06 0.443214 214.854Z" fill="#EB9481"/>
<path d="M0.433563 214.854C1.49197 217.649 52.2425 280.761 55.7035 281.947C56.8466 282.349 64.3401 277.152 73.834 270.082C64.1496 263.044 27.3806 229.863 22.4378 220.94C19.8447 216.22 23.6338 216.262 28.2802 217.564C20.7021 213.828 13.0815 210.208 11.2399 209.785C7.31322 208.906 -0.593086 212.06 0.433563 214.854Z" fill="#263238"/>
<path d="M54.4325 213.616L89.6456 261.128L208.483 178.667L219.935 170.697C219.935 170.697 223.185 172.878 228.064 175.577C234.848 179.323 244.797 184.044 253.582 185.367C268.336 187.558 292.976 187.325 305.444 170.697C315.922 156.695 310.228 138.427 310.228 138.427L294.034 131.473C294.034 131.473 255.699 99.5408 230.869 98.5776C220.285 98.1543 204.969 106.145 190.745 114.454C176.52 122.762 54.4325 213.616 54.4325 213.616Z" fill="#263238"/>
<path d="M58.3804 210.684C58.1899 212.801 58.0064 214.889 57.83 216.95C57.83 217.32 57.7665 217.691 57.7242 218.061L58.0946 218.537C58.3592 215.817 58.5921 213.086 58.8355 210.345C58.6776 210.45 58.5257 210.563 58.3804 210.684ZM78.7335 195.602L79.1463 195.305C79.0619 196.702 78.8457 198.088 78.5007 199.444C77.3364 204.196 74.8598 208.662 72.6054 212.97C69.8528 217.916 67.4171 223.031 65.313 228.285L65.0695 227.978C66.6293 223.948 68.4355 220.017 70.478 216.209C73.0287 211.319 75.9076 206.387 77.6222 201.105C78.2111 199.322 78.5842 197.474 78.7335 195.602ZM93.7417 249.347C94.3001 251.798 95.536 254.043 97.3085 255.825L97.0545 255.994C95.6338 254.626 94.5473 252.95 93.8793 251.094C92.3023 246.68 92.9373 241.822 93.5724 237.335C94.2921 232.434 95.6892 226.645 93.8899 221.829C93.5101 220.608 92.7515 219.539 91.724 218.778C90.6964 218.017 89.4533 217.603 88.1745 217.595C85.9347 217.795 83.8631 218.867 82.4062 220.58C78.5113 224.814 79.3051 230.349 80.7763 235.398C82.0675 239.864 83.8668 244.257 83.5705 248.998C83.5052 250.118 83.3243 251.228 83.0307 252.311L82.7767 251.962C85.0734 243.251 77.9927 234.953 79.2733 226.115C79.5584 224.361 80.2636 222.702 81.3288 221.279C82.3941 219.856 83.7878 218.712 85.3909 217.945C86.1407 217.566 86.9595 217.344 87.7976 217.291C88.6357 217.238 89.4759 217.356 90.2673 217.637C91.0587 217.918 91.785 218.356 92.4021 218.926C93.0193 219.495 93.5146 220.184 93.8582 220.95C95.7527 224.867 94.9801 229.788 94.3979 233.937C93.7417 238.943 92.5669 244.278 93.7417 249.347ZM123.292 237.79L122.954 238.023C122.584 236.085 121.939 234.21 121.038 232.455C118.728 228.061 115.267 224.377 111.025 221.797C107.067 219.352 102.558 217.786 98.6739 215.277C94.9024 212.913 92.0614 209.321 90.63 205.106C89.0583 200.837 88.4792 196.265 88.9366 191.738C89.1264 190.175 89.5251 188.645 90.122 187.187C90.249 187.071 90.3866 186.976 90.5242 186.87C89.0654 190.463 88.6259 194.389 89.2541 198.216C89.9421 203.508 91.7202 209.033 95.7739 212.727C99.3725 215.997 104.051 217.733 108.316 219.934C115.45 223.618 121.588 229.841 123.292 237.79ZM126.468 211.785C123.568 213.711 119.831 214.24 116.942 212.081C113.767 209.7 112.899 205.286 112.931 201.497C112.931 196.364 114.635 190.574 111.872 185.864C110.839 184.277 109.46 182.944 107.837 181.967C106.215 180.99 104.392 180.394 102.505 180.223C101.52 180.117 100.527 180.117 99.5418 180.223L100.007 179.884C101.068 179.814 102.133 179.86 103.183 180.022C106.366 180.471 109.27 182.085 111.332 184.552C114.222 188.193 113.894 193.019 113.534 197.39C113.153 201.963 112.793 207.562 116.339 211.086C120.054 214.812 125.462 212.907 128.669 209.541C135.845 201.994 132.702 189.431 125.229 183.388C120.022 179.154 113.502 177.27 107.575 174.317L107.871 174.095C108.718 174.518 109.565 174.92 110.422 175.301C117.884 178.657 126.415 181.546 130.532 189.198C134.448 196.533 133.866 206.884 126.478 211.785H126.468ZM123.038 168.125C122.029 167.138 121.217 165.967 120.646 164.675L120.953 164.463C121.185 165.019 121.465 165.554 121.789 166.062C124.224 169.882 128.775 171.068 132.998 169.861C135.12 169.278 137.036 168.113 138.532 166.5C140.028 164.886 141.044 162.887 141.465 160.727C142.121 157.242 141.662 153.638 140.153 150.429L140.365 150.281C142.481 154.694 142.947 159.722 140.555 164.315C137.412 170.253 128.246 173.1 123.049 168.125H123.038ZM146.937 218.929C147.911 219.024 148.895 219.162 149.869 219.289L149.467 219.575H149.266C143.974 218.823 138.068 218.516 134.448 223.29C132.615 225.713 131.744 228.729 132.003 231.757L131.664 232C131.501 230.259 131.698 228.503 132.245 226.842C132.791 225.182 133.674 223.651 134.84 222.348C137.941 218.897 142.566 218.495 146.948 218.971L146.937 218.929ZM146.059 195.337C150.61 198.047 156.188 196.819 161.183 196.819C164.93 196.819 169.27 197.443 171.937 200.343C172.625 201.082 173.16 201.949 173.514 202.894L173.186 203.116C172.554 201.715 171.593 200.487 170.384 199.538C169.175 198.589 167.754 197.947 166.243 197.666C161.437 196.544 156.558 197.75 151.7 197.306C148.027 196.999 144.492 195.559 142.619 192.225C141.134 189.449 140.781 186.206 141.635 183.176C142.017 181.665 142.754 180.267 143.785 179.098C144.816 177.93 146.111 177.023 147.562 176.455C152.303 174.656 157.511 176.243 162.273 177.143C167.257 178.211 172.436 177.907 177.26 176.265C181.935 174.627 186.064 171.725 189.189 167.882C192.597 163.648 194.915 157.584 192.438 152.334C191.95 151.163 191.215 150.111 190.283 149.251C189.351 148.39 188.243 147.742 187.037 147.35C185.83 146.958 184.553 146.831 183.293 146.979C182.033 147.127 180.82 147.545 179.737 148.206C171.884 152.736 170.127 165.289 160.072 166.411C158.282 166.7 156.449 166.294 154.948 165.277C153.447 164.26 152.391 162.708 151.996 160.939C151.118 157.129 152.504 153.022 154.727 149.931C159.871 142.808 168.698 140.035 176.7 137.569C181.409 136.119 186.225 134.627 190.385 132.002C194.769 129.255 198.156 125.174 200.048 120.36C201.641 116.413 202.475 112.201 202.503 107.945C202.586 107.888 202.675 107.842 202.768 107.807C202.792 108.966 202.746 110.125 202.63 111.278C202.202 115.821 200.817 120.222 198.566 124.191C196.206 128.107 192.801 131.289 188.734 133.378C180.542 137.739 170.984 138.67 162.93 143.369C159.088 145.613 155.521 148.661 153.531 152.726C151.541 156.79 151.15 163.786 156.421 165.723C161.194 167.49 165.946 164.262 168.836 160.674C171.725 157.086 173.852 152.44 177.62 149.36C180.796 146.788 185.029 145.497 188.744 147.688C190.42 148.753 191.777 150.252 192.669 152.026C193.562 153.8 193.958 155.783 193.814 157.764C193.348 166.792 185.04 174.021 176.996 176.751C172.796 178.157 168.317 178.521 163.946 177.81C158.654 176.974 152.949 174.825 147.699 176.815C140.29 179.588 139.274 191.326 146.069 195.379L146.059 195.337ZM198.407 185.61L198.143 185.801C196.439 182.53 193.094 180.107 189.284 181.472C184.913 183.017 182.246 188.246 182.129 192.638C182.098 194.002 182.191 195.366 182.404 196.713L182.14 196.903C181.955 195.854 181.842 194.793 181.801 193.728C181.714 191.791 182.031 189.857 182.733 188.049C183.434 186.242 184.505 184.6 185.876 183.229C188.279 180.9 191.687 179.906 194.756 181.557C196.379 182.5 197.661 183.934 198.418 185.653L198.407 185.61ZM228.699 173.534C228.699 174.338 228.784 175.174 228.847 175.989L228.456 175.788C227.916 168.835 228.509 161.659 226.984 154.917C225.831 149.836 223.301 144.83 217.755 143.676C215.313 143.207 212.786 143.498 210.515 144.511C208.243 145.524 206.337 147.209 205.054 149.339C203.813 151.486 203.085 153.891 202.927 156.366C202.769 158.841 203.186 161.319 204.144 163.606C206.007 168.242 209.341 172.073 212.421 175.926L212.209 176.074C206.748 169.163 200.228 161.394 203.52 152.017C204.123 150.174 205.132 148.49 206.47 147.087C207.809 145.684 209.444 144.598 211.257 143.909C213.018 143.283 214.903 143.083 216.757 143.324C218.611 143.565 220.382 144.24 221.925 145.296C225.746 148.09 227.058 153.191 227.746 157.615C228.572 162.865 228.434 168.231 228.71 173.576L228.699 173.534ZM266.738 179.535C266.455 181.785 266.341 184.053 266.399 186.319H266.103C265.86 178.371 268.95 170.189 266.283 162.442C264.78 158.081 260.494 153.848 255.614 153.975C250.735 154.102 247.867 158.801 247.2 163.225C246.142 170.274 250.206 177.609 249.719 184.562L249.412 184.488C249.491 183.562 249.491 182.631 249.412 181.705C248.999 176.413 246.734 171.364 246.681 166.019C246.681 162.463 247.602 158.505 250.259 155.943C251.542 154.745 253.169 153.98 254.91 153.756C256.652 153.531 258.42 153.86 259.964 154.694C269.405 159.415 267.701 170.994 266.749 179.577L266.738 179.535ZM225.153 119.471C225.365 123.164 225.153 126.964 222.772 130.055C220.761 132.701 217.363 133.23 215.067 130.573C212.124 127.155 211.754 121.503 212.008 117.227C212.325 111.935 213.818 106.939 215.353 101.933L215.765 101.785C215.024 104.155 214.294 106.516 213.712 108.855C212.347 114.411 211.595 120.328 213.193 125.916C213.903 128.456 215.247 131.632 218.221 132.034C220.433 132.33 222.147 130.647 223.174 128.859C225.566 124.752 224.952 119.957 224.508 115.449C224.042 110.591 223.333 105.69 223.767 100.811C223.767 100.292 223.862 99.7524 223.947 99.2444L224.264 99.1809C223.999 101.006 223.893 102.851 223.947 104.695C224.042 109.68 224.857 114.602 225.164 119.513L225.153 119.471ZM251.37 112.919C250.894 118.042 251.571 123.133 251.37 128.245C251.19 132.478 249.973 136.86 246.321 139.432C244.847 140.533 243.011 141.035 241.182 140.839C239.352 140.643 237.665 139.762 236.457 138.374C233.388 134.966 233.356 130.256 234.287 126.022C235.536 120.317 237.463 114.729 239.135 109.141C240.091 106.287 240.872 103.378 241.474 100.43L241.739 100.515C241.739 100.631 241.739 100.726 241.739 100.843C241.164 103.674 240.426 106.469 239.526 109.215C238.68 112.083 237.854 114.941 237.007 117.798C235.441 123.09 232.774 129.504 234.891 135.04C235.304 136.257 235.988 137.365 236.889 138.281C237.791 139.197 238.888 139.898 240.098 140.332C241.367 140.629 242.691 140.59 243.94 140.218C245.19 139.847 246.32 139.157 247.221 138.215C251.455 134.235 251.211 128.086 250.968 122.752C250.642 118.037 250.88 113.301 251.677 108.643C251.941 107.316 252.317 106.013 252.799 104.748L253.021 104.854C252.167 107.485 251.616 110.205 251.381 112.961L251.37 112.919ZM272.623 140.215C269.67 140.776 266.219 140.395 264.156 137.929C261.308 134.479 262.706 129.462 264.272 125.8C265.944 121.873 268.368 118.327 270.241 114.507C270.343 114.56 270.439 114.624 270.527 114.697C269.807 116.168 269.014 117.587 268.209 118.984C265.606 123.567 261.764 129.462 263.087 134.997C264.209 139.707 269.183 140.766 273.321 139.697C280.18 137.95 283.344 131.536 287.874 126.721L288.128 126.911C283.355 131.949 280.095 138.765 272.623 140.215ZM310.874 158.388C310.885 158.472 310.885 158.558 310.874 158.642C310.058 158.577 309.261 158.361 308.524 158.007C304.597 156.144 302.618 151.752 299.199 149.212C294.966 146.111 289.06 144.883 284.382 147.571C280.011 150.08 277.492 155.255 279.238 160.124C280.762 164.358 284.53 167.279 287.705 170.338C290.689 173.073 292.882 176.561 294.056 180.435C293.968 180.498 293.872 180.548 293.77 180.583C292.737 177.054 290.825 173.846 288.213 171.258C285.387 168.348 282 165.797 279.958 162.241C278.981 160.653 278.454 158.829 278.434 156.965C278.413 155.101 278.9 153.266 279.841 151.657C280.86 149.934 282.293 148.494 284.011 147.466C285.728 146.439 287.674 145.856 289.674 145.772C291.835 145.728 293.982 146.126 295.984 146.941C297.986 147.757 299.801 148.972 301.316 150.514C303.994 153.329 306.513 157.996 310.874 158.388Z" fill="#455A64"/>
<path d="M219.936 170.698C219.936 170.698 223.185 172.878 228.064 175.577C236.701 165.247 254.98 146.471 255.583 145.804L219.936 170.698Z" fill="#37474F"/>
<path d="M279.949 120.804C282.235 122.392 284.457 124.085 286.712 125.715C288.966 127.345 291.231 128.838 293.348 130.584C295.465 132.33 297.582 134.278 299.561 136.194C300.535 137.125 301.508 138.056 302.45 139.02C303.432 139.947 304.342 140.948 305.17 142.015C305.244 142.121 305.096 142.237 305.001 142.174C303.924 141.409 302.899 140.575 301.932 139.676C300.873 138.776 299.815 137.855 298.756 136.956C296.703 135.199 294.597 133.495 292.544 131.738C290.49 129.981 288.606 128.086 286.585 126.319C284.563 124.551 282.139 122.667 279.896 120.878C279.864 120.847 279.896 120.773 279.949 120.804Z" fill="#37474F"/>
<path d="M66.4994 208.8C68.6162 211.404 70.5849 214.187 72.5535 216.918C74.5221 219.649 76.4908 222.401 78.4382 225.163C82.3332 230.688 86.2598 236.181 90.0807 241.759C92.1975 244.828 94.2402 247.908 96.1771 251.083C96.2618 251.221 96.0289 251.359 95.9337 251.242C91.7 245.95 87.8792 240.404 83.9949 234.879C80.1105 229.354 76.2262 223.808 72.4159 218.231C70.2991 215.172 68.1823 212.124 66.2877 208.948C66.203 208.8 66.4042 208.663 66.4994 208.8Z" fill="#37474F"/>
<path d="M160.167 212.398C166.083 207.731 172.212 203.339 178.34 198.967C184.468 194.596 190.543 190.257 196.724 186.044C198.502 184.827 200.302 183.642 202.09 182.456C203.879 181.271 205.742 180.17 207.488 178.932C207.594 178.858 207.679 179.027 207.584 179.101C205.975 180.255 204.408 181.546 202.874 182.742C201.339 183.938 199.868 185.039 198.344 186.171C195.38 188.373 192.385 190.521 189.39 192.691C183.314 197.073 177.197 201.412 171.026 205.646C167.512 208.059 164.02 210.472 160.442 212.758C160.273 212.896 160.019 212.557 160.167 212.398Z" fill="#37474F"/>
<path d="M122.224 163.373C127.686 158.843 133.539 154.768 139.265 150.588C144.991 146.407 150.823 142.12 156.644 137.887L173.928 125.366C179.516 121.323 185.083 117.216 190.989 113.628C194.228 111.674 197.548 109.871 200.949 108.22C204.249 106.514 207.691 105.098 211.236 103.986C211.342 103.986 211.395 104.113 211.3 104.166C208.389 105.796 205.33 107.161 202.388 108.728C199.446 110.294 196.609 111.903 193.783 113.618C187.92 117.174 182.384 121.217 176.849 125.26C165.291 133.569 153.765 141.909 142.133 150.101C135.624 154.684 129.242 159.521 122.489 163.733C122.277 163.86 122.066 163.532 122.224 163.373Z" fill="#37474F"/>
</svg>
