<svg width="221" height="68" viewBox="0 0 221 68" fill="none" xmlns="http://www.w3.org/2000/svg">
<path d="M186.237 0H33.8869C15.1717 0 0 15.1626 0 33.8667C0 52.5708 15.1717 67.7334 33.8869 67.7334H186.237C204.952 67.7334 220.123 52.5708 220.123 33.8667C220.123 15.1626 204.952 0 186.237 0Z" fill="#010102"/>
<path d="M86.6143 22.4979C86.6143 23.5109 86.3138 24.3178 85.7127 24.9185C85.0303 25.6335 84.1404 25.9916 83.0467 25.9916C81.953 25.9916 81.1079 25.6288 80.376 24.9032C79.6429 24.1776 79.2764 23.2777 79.2764 22.2034C79.2764 21.1291 79.6429 20.2292 80.376 19.5036C81.1079 18.778 81.9989 18.4141 83.0467 18.4141C83.5665 18.4141 84.0638 18.5154 84.5364 18.718C85.009 18.9206 85.3886 19.1903 85.6714 19.5284L85.0338 20.1668C84.5529 19.5932 83.8917 19.3057 83.0467 19.3057C82.283 19.3057 81.6218 19.5743 81.0643 20.1103C80.5068 20.6474 80.2275 21.3447 80.2275 22.2022C80.2275 23.0597 80.5056 23.7571 81.0643 24.2942C81.6218 24.8313 82.2818 25.0987 83.0467 25.0987C83.8576 25.0987 84.5329 24.829 85.0739 24.2895C85.4251 23.9373 85.6278 23.4485 85.682 22.8206H83.0467V21.949H86.5636C86.5978 22.1386 86.6143 22.32 86.6143 22.4967V22.4979Z" fill="#D0D0D0"/>
<path d="M92.1902 19.4679H88.8854V21.7672H91.866V22.6388H88.8854V24.9381H92.1902V25.8298H87.9531V18.5774H92.1902V19.4691V19.4679Z" fill="#D0D0D0"/>
<path d="M96.1227 25.8298H95.1893V19.4679H93.1621V18.5762H98.1487V19.4679H96.1216V25.8298H96.1227Z" fill="#D0D0D0"/>
<path d="M101.758 25.8298V18.5774H102.69V25.8298H101.758Z" fill="#D0D0D0"/>
<path d="M106.824 25.8298H105.89V19.4679H103.863V18.5762H108.85V19.4679H106.823V25.8298H106.824Z" fill="#D0D0D0"/>
<path d="M118.293 24.8926C117.58 25.6252 116.692 25.9916 115.631 25.9916C114.571 25.9916 113.683 25.6252 112.971 24.8926C112.258 24.1599 111.902 23.2635 111.902 22.2034C111.902 21.1433 112.258 20.2469 112.971 19.5142C113.683 18.7816 114.571 18.4141 115.631 18.4141C116.692 18.4141 117.571 18.7827 118.288 19.5189C119.003 20.2551 119.362 21.1492 119.362 22.2034C119.362 23.2576 119.005 24.1599 118.293 24.8926ZM113.66 24.2848C114.197 24.8278 114.854 25.0999 115.631 25.0999C116.409 25.0999 117.067 24.829 117.603 24.2848C118.141 23.7418 118.411 23.0468 118.411 22.2034C118.411 21.36 118.141 20.6651 117.603 20.122C117.067 19.5778 116.409 19.3069 115.631 19.3069C114.854 19.3069 114.197 19.5778 113.66 20.122C113.123 20.6651 112.855 21.36 112.855 22.2034C112.855 23.0468 113.123 23.7418 113.66 24.2848Z" fill="#D0D0D0"/>
<path d="M120.67 25.8298V18.5774H121.805L125.331 24.2196H125.372L125.331 22.8214V18.5774H126.265V25.8298H125.291L121.601 19.9143H121.561L121.601 21.3125V25.8298H120.669H120.67Z" fill="#D0D0D0"/>
<path d="M111.673 36.4099C110.24 36.4099 108.94 36.9588 108.003 37.8846C107.08 38.7964 106.51 40.0732 106.51 41.5515C106.51 43.1146 107.157 44.4609 108.186 45.3832C109.105 46.2078 110.331 46.6931 111.673 46.6931C112.935 46.6931 114.094 46.2631 114.993 45.5269C116.12 44.6034 116.838 43.1982 116.838 41.5515C116.838 40.3323 116.449 39.2498 115.796 38.397C114.852 37.1649 113.355 36.4111 111.674 36.4111L111.673 36.4099ZM111.673 44.6671C110.114 44.6671 108.77 43.382 108.77 41.5515C108.77 39.721 110.115 38.4359 111.673 38.4359C113.231 38.4359 114.576 39.7022 114.576 41.5515C114.576 43.4008 113.231 44.6671 111.673 44.6671ZM100.408 36.4099C99.3415 36.4099 98.3479 36.7138 97.5241 37.2509C96.1499 38.1461 95.2447 39.6892 95.2447 41.5515C95.2447 43.0321 95.8246 44.3172 96.7592 45.2325C97.695 46.1477 98.9856 46.6931 100.408 46.6931C101.588 46.6931 102.677 46.3185 103.548 45.6683C104.777 44.7507 105.572 43.2854 105.572 41.5527C105.572 40.5644 105.317 39.6668 104.873 38.9071C103.977 37.377 102.31 36.4111 100.408 36.4111V36.4099ZM100.408 44.6671C98.8489 44.6671 97.5053 43.382 97.5053 41.5515C97.5053 39.721 98.85 38.4359 100.408 38.4359C101.966 38.4359 103.311 39.7022 103.311 41.5515C103.311 43.4008 101.966 44.6671 100.408 44.6671ZM87.0087 37.9871V40.1686H92.2311C92.0755 41.396 91.6665 42.2912 91.0418 42.9143C90.2817 43.6741 89.0936 44.5116 87.0087 44.5116C83.7935 44.5116 81.2796 41.9213 81.2796 38.708C81.2796 35.4947 83.7935 32.9044 87.0087 32.9044C88.7436 32.9044 90.0094 33.5864 90.9452 34.4628L92.4844 32.9245C91.1786 31.6782 89.4449 30.7241 87.0087 30.7241C85.5131 30.7241 84.0976 31.1376 82.8813 31.8561C80.517 33.2531 78.9023 35.8021 78.9023 38.708C78.9023 41.6139 80.6196 44.3243 83.1064 45.6895C84.2708 46.3291 85.6038 46.6931 87.0075 46.6931C89.3848 46.6931 91.1774 45.9145 92.5799 44.4539C94.0213 43.0133 94.4704 40.9873 94.4704 39.3511C94.4704 38.8446 94.4315 38.377 94.3537 37.9883H87.0075L87.0087 37.9871ZM141.809 39.681C141.38 38.5325 140.075 36.4099 137.405 36.4099C136.266 36.4099 135.207 36.7963 134.373 37.4794C133.267 38.3841 132.553 39.8093 132.553 41.5515C132.553 44.4338 134.736 46.6931 137.659 46.6931C140.016 46.6931 141.381 45.2525 141.945 44.415L140.192 43.2465C139.607 44.1028 138.808 44.6682 137.659 44.6682C136.51 44.6682 135.69 44.1429 135.165 43.1099L142.043 40.2664L141.81 39.6821L141.809 39.681ZM134.794 41.3948C134.735 39.4089 136.333 38.3959 137.482 38.3959C138.379 38.3959 139.138 38.8435 139.391 39.4866L136.989 40.4831L134.794 41.3948ZM129.201 46.3797H131.462V31.2683H129.201V46.3797ZM125.499 37.5584H125.421C124.915 36.9553 123.94 36.4099 122.713 36.4099C121.486 36.4099 120.381 36.8928 119.494 37.6997C118.464 38.6373 117.783 40.0108 117.783 41.5715C117.783 43.3725 118.703 44.9238 120.022 45.8332C120.813 46.3786 121.748 46.6942 122.712 46.6942C123.94 46.6942 124.913 46.1489 125.42 45.5258H125.498V46.2655C125.498 48.2326 124.446 49.2845 122.751 49.2845C121.367 49.2845 120.51 48.2915 120.159 47.454L118.191 48.2715C118.755 49.6343 120.256 51.3093 122.751 51.3093C125.401 51.3093 127.642 49.7509 127.642 45.9533V36.722H125.498V37.5595L125.499 37.5584ZM122.907 44.6671C121.348 44.6671 120.043 43.3619 120.043 41.5703C120.043 39.7787 121.349 38.4347 122.907 38.4347C124.466 38.4347 125.655 39.7587 125.655 41.5703C125.655 43.382 124.447 44.6671 122.907 44.6671ZM152.396 31.2695H146.988V46.3809H149.245V40.6551H152.397C153.835 40.6551 155.26 40.0567 156.211 39.0001C156.913 38.2192 157.358 37.1873 157.358 35.9623C157.358 34.7373 156.926 33.7349 156.24 32.9574C155.289 31.8797 153.85 31.2683 152.397 31.2683L152.396 31.2695ZM152.454 38.5525H149.244V33.3721H152.454C154.141 33.3721 155.1 34.7679 155.1 35.9623C155.1 37.1567 154.141 38.5525 152.454 38.5525ZM166.401 36.3828C164.768 36.3828 163.075 37.1025 162.374 38.6962L164.377 39.5325C164.805 38.6962 165.603 38.4241 166.44 38.4241C167.607 38.4241 168.794 39.1238 168.814 40.3677V40.5232C168.405 40.2899 167.53 39.9401 166.46 39.9401C165.531 39.9401 164.595 40.1592 163.831 40.5856C162.817 41.151 162.103 42.0792 162.103 43.3419C162.103 44.4385 162.624 45.3232 163.417 45.9039C164.086 46.3939 164.949 46.666 165.858 46.666C167.375 46.666 168.211 45.9851 168.737 45.1889H168.815V46.355H170.994V40.562C170.994 38.9695 170.288 37.7951 169.173 37.1025C168.409 36.629 167.455 36.3816 166.403 36.3816L166.401 36.3828ZM166.129 44.6647C165.39 44.6647 164.359 44.2948 164.359 43.382C164.359 42.2158 165.642 41.7682 166.751 41.7682C167.743 41.7682 168.21 41.9826 168.812 42.2735C168.637 43.6729 167.431 44.6647 166.128 44.6647H166.129ZM178.928 36.7138L177.857 39.4265L176.341 43.2653H176.264L173.579 36.7138H171.147L173.09 41.131L175.175 45.8709L172.879 50.9642H175.232L179.634 40.8542L181.438 36.7126H178.928V36.7138ZM158.6 46.3821H160.857V31.2707H158.6V46.3821Z" fill="white"/>
<path d="M61.7934 28.5936L43.8199 18.0537C42.9006 17.5142 41.8139 17.8228 41.2529 18.5802L56.4756 33.8824L61.7946 28.5924L61.7934 28.5936Z" fill="url(#paint0_linear_404_1245)"/>
<path d="M40.8721 47.9372C40.8721 48.3636 41.0029 48.744 41.2198 49.0538L56.4743 33.8823L41.2516 18.5801C41.0159 18.8981 40.8721 19.2939 40.8721 19.7403V47.9372Z" fill="url(#paint1_linear_404_1245)"/>
<path d="M61.7009 39.1379L67.8614 35.5253C69.1496 34.7691 69.1496 32.908 67.8614 32.1517L61.7916 28.5933L56.4727 33.8833L61.7009 39.1391V39.1379Z" fill="url(#paint2_linear_404_1245)"/>
<path d="M41.2188 49.0546C41.7703 49.8438 42.8817 50.1747 43.8187 49.6247L61.7015 39.1389L56.4733 33.8831L41.2188 49.0546Z" fill="url(#paint3_linear_404_1245)"/>
<defs>
<linearGradient id="paint0_linear_404_1245" x1="16.8997" y1="-3.44203" x2="53.955" y2="27.0198" gradientUnits="userSpaceOnUse">
<stop stop-color="#32A071"/>
<stop offset="0.07" stop-color="#2DA771"/>
<stop offset="0.48" stop-color="#15CF74"/>
<stop offset="0.8" stop-color="#06E775"/>
<stop offset="1" stop-color="#00F076"/>
</linearGradient>
<linearGradient id="paint1_linear_404_1245" x1="67.1087" y1="33.6644" x2="39.4271" y2="33.8283" gradientUnits="userSpaceOnUse">
<stop stop-color="#00A1FF"/>
<stop offset="0.26" stop-color="#00BEFF"/>
<stop offset="0.51" stop-color="#00D2FF"/>
<stop offset="0.76" stop-color="#00DFFF"/>
<stop offset="1" stop-color="#00E3FF"/>
</linearGradient>
<linearGradient id="paint2_linear_404_1245" x1="70.9835" y1="34.5888" x2="45.9975" y2="32.6289" gradientUnits="userSpaceOnUse">
<stop stop-color="#FFE000"/>
<stop offset="0.41" stop-color="#FFBD00"/>
<stop offset="0.78" stop-color="#FFA500"/>
<stop offset="1" stop-color="#FF9C00"/>
</linearGradient>
<linearGradient id="paint3_linear_404_1245" x1="67.7312" y1="30.7757" x2="19.6522" y2="62.7121" gradientUnits="userSpaceOnUse">
<stop stop-color="#FF3A44"/>
<stop offset="1" stop-color="#C31162"/>
</linearGradient>
</defs>
</svg>
