<svg width="163" height="50" viewBox="0 0 163 50" fill="none" xmlns="http://www.w3.org/2000/svg">
<path d="M137.478 0H25.0149C11.1996 0 0 11.1929 0 25C0 38.8071 11.1996 50 25.0149 50H137.478C151.293 50 162.492 38.8071 162.492 25C162.492 11.1929 151.293 0 137.478 0Z" fill="#272727"/>
<path d="M63.9373 16.6086C63.9373 17.3564 63.7154 17.952 63.2717 18.3955C62.768 18.9233 62.1111 19.1876 61.3037 19.1876C60.4963 19.1876 59.8725 18.9198 59.3322 18.3842C58.7911 17.8486 58.5205 17.1842 58.5205 16.3912C58.5205 15.5982 58.7911 14.9339 59.3322 14.3983C59.8725 13.8627 60.5303 13.594 61.3037 13.594C61.6874 13.594 62.0545 13.6688 62.4034 13.8183C62.7523 13.9679 63.0324 14.167 63.2413 14.4166L62.7706 14.8878C62.4156 14.4644 61.9275 14.2522 61.3037 14.2522C60.7399 14.2522 60.2519 14.4505 59.8403 14.8461C59.4288 15.2426 59.2226 15.7574 59.2226 16.3904C59.2226 17.0234 59.4279 17.5381 59.8403 17.9346C60.2519 18.3311 60.7391 18.5285 61.3037 18.5285C61.9023 18.5285 62.4008 18.3294 62.8002 17.9312C63.0594 17.6712 63.2091 17.3103 63.2491 16.8469H61.3037V16.2034H63.8999C63.9251 16.3434 63.9373 16.4773 63.9373 16.6078V16.6086Z" fill="#D0D0D0"/>
<path d="M68.0535 14.372H65.614V16.0693H67.8143V16.7127H65.614V18.41H68.0535V19.0682H64.9258V13.7146H68.0535V14.3728V14.372Z" fill="#D0D0D0"/>
<path d="M70.956 19.0672H70.2669V14.3709H68.7705V13.7126H72.4516V14.3709H70.9551V19.0672H70.956Z" fill="#D0D0D0"/>
<path d="M75.1143 19.0682V13.7146H75.8024V19.0682H75.1143Z" fill="#D0D0D0"/>
<path d="M78.8584 19.0672H78.1693V14.3709H76.6729V13.7126H80.3539V14.3709H78.8575V19.0672H78.8584Z" fill="#D0D0D0"/>
<path d="M87.3227 18.3764C86.7964 18.9172 86.1412 19.1876 85.3582 19.1876C84.5752 19.1876 83.9201 18.9172 83.3946 18.3764C82.8682 17.8355 82.6055 17.1738 82.6055 16.3912C82.6055 15.6087 82.8682 14.947 83.3946 14.4061C83.9201 13.8653 84.5752 13.594 85.3582 13.594C86.1412 13.594 86.7903 13.8662 87.3193 14.4096C87.8474 14.9531 88.1118 15.613 88.1118 16.3912C88.1118 17.1695 87.8482 17.8355 87.3227 18.3764ZM83.9027 17.9277C84.2994 18.3285 84.784 18.5294 85.3582 18.5294C85.9324 18.5294 86.4179 18.3294 86.8138 17.9277C87.2105 17.5268 87.4097 17.0138 87.4097 16.3912C87.4097 15.7687 87.2105 15.2556 86.8138 14.8548C86.4179 14.4531 85.9324 14.2531 85.3582 14.2531C84.784 14.2531 84.2994 14.4531 83.9027 14.8548C83.5068 15.2556 83.3084 15.7687 83.3084 16.3912C83.3084 17.0138 83.5068 17.5268 83.9027 17.9277Z" fill="#D0D0D0"/>
<path d="M89.0761 19.0682V13.7146H89.9139L92.517 17.8796H92.5466L92.517 16.8475V13.7146H93.2061V19.0682H92.4874L89.7634 14.7015H89.7338L89.7634 15.7336V19.0682H89.0752H89.0761Z" fill="#D0D0D0"/>
<path d="M82.4342 26.8773C81.3762 26.8773 80.4166 27.2825 79.7249 27.966C79.0437 28.639 78.6226 29.5816 78.6226 30.6728C78.6226 31.8267 79.1002 32.8205 79.8598 33.5014C80.5384 34.11 81.4432 34.4683 82.4342 34.4683C83.3659 34.4683 84.2212 34.1509 84.885 33.6074C85.7168 32.9257 86.2466 31.8884 86.2466 30.6728C86.2466 29.7728 85.9595 28.9738 85.4775 28.3442C84.7806 27.4347 83.6757 26.8782 82.435 26.8782L82.4342 26.8773ZM82.4342 32.9727C81.2831 32.9727 80.2913 32.024 80.2913 30.6728C80.2913 29.3216 81.284 28.3729 82.4342 28.3729C83.5843 28.3729 84.577 29.3077 84.577 30.6728C84.577 32.0379 83.5843 32.9727 82.4342 32.9727ZM74.1185 26.8773C73.3311 26.8773 72.5977 27.1017 71.9895 27.4982C70.9751 28.159 70.3069 29.2981 70.3069 30.6728C70.3069 31.7658 70.735 32.7144 71.4249 33.39C72.1157 34.0657 73.0684 34.4683 74.1185 34.4683C74.9894 34.4683 75.7933 34.1917 76.4362 33.7118C77.3436 33.0344 77.93 31.9527 77.93 30.6737C77.93 29.9441 77.7421 29.2816 77.4141 28.7207C76.7529 27.5912 75.5227 26.8782 74.1185 26.8782V26.8773ZM74.1185 32.9727C72.9674 32.9727 71.9756 32.024 71.9756 30.6728C71.9756 29.3216 72.9683 28.3729 74.1185 28.3729C75.2686 28.3729 76.2613 29.3077 76.2613 30.6728C76.2613 32.0379 75.2686 32.9727 74.1185 32.9727ZM64.2272 28.0416V29.652H68.0823C67.9674 30.558 67.6655 31.2189 67.2044 31.6788C66.6432 32.2397 65.7663 32.8579 64.2272 32.8579C61.8538 32.8579 59.998 30.9458 59.998 28.5738C59.998 26.2017 61.8538 24.2897 64.2272 24.2897C65.5079 24.2897 66.4423 24.7931 67.1331 25.44L68.2693 24.3044C67.3053 23.3845 66.0255 22.6802 64.2272 22.6802C63.1231 22.6802 62.0782 22.9854 61.1804 23.5158C59.4351 24.547 58.2432 26.4287 58.2432 28.5738C58.2432 30.7189 59.5108 32.7197 61.3465 33.7274C62.2061 34.1996 63.1901 34.4683 64.2263 34.4683C65.9811 34.4683 67.3045 33.8935 68.3398 32.8153C69.4038 31.7519 69.7353 30.2563 69.7353 29.0485C69.7353 28.6746 69.7066 28.3294 69.6492 28.0425H64.2263L64.2272 28.0416ZM104.68 29.292C104.363 28.4442 103.4 26.8773 101.429 26.8773C100.588 26.8773 99.8068 27.1626 99.1908 27.6669C98.3747 28.3347 97.8475 29.3868 97.8475 30.6728C97.8475 32.8005 99.4588 34.4683 101.616 34.4683C103.356 34.4683 104.364 33.4048 104.781 32.7866L103.486 31.924C103.055 32.5562 102.465 32.9736 101.616 32.9736C100.768 32.9736 100.163 32.5857 99.7754 31.8232L104.853 29.7242L104.681 29.2929L104.68 29.292ZM99.5014 30.5572C99.4579 29.0911 100.638 28.3434 101.486 28.3434C102.148 28.3434 102.708 28.6738 102.895 29.1485L101.122 29.8842L99.5014 30.5572ZM95.3731 34.237H97.0418V23.0819H95.3731V34.237ZM92.6404 27.7251H92.583C92.2089 27.2799 91.4893 26.8773 90.5837 26.8773C89.678 26.8773 88.8619 27.2339 88.2076 27.8295C87.4472 28.5216 86.9444 29.5355 86.9444 30.6876C86.9444 32.0171 87.6238 33.1622 88.5974 33.8335C89.1812 34.2361 89.8711 34.4691 90.5828 34.4691C91.4893 34.4691 92.208 34.0665 92.5821 33.6066H92.6395V34.1526C92.6395 35.6047 91.8626 36.3812 90.6115 36.3812C89.5901 36.3812 88.9576 35.6482 88.6983 35.03L87.2454 35.6334C87.6621 36.6394 88.7697 37.8759 90.6115 37.8759C92.5682 37.8759 94.2221 36.7255 94.2221 33.9222V27.1078H92.6395V27.726L92.6404 27.7251ZM90.7272 32.9727C89.5762 32.9727 88.6131 32.0093 88.6131 30.6867C88.6131 29.3642 89.577 28.3721 90.7272 28.3721C91.8774 28.3721 92.7552 29.3494 92.7552 30.6867C92.7552 32.024 91.8635 32.9727 90.7272 32.9727ZM112.495 23.0828H108.504V34.2378H110.17V30.0111H112.496C113.557 30.0111 114.609 29.5694 115.311 28.7894C115.83 28.2129 116.158 27.4512 116.158 26.5469C116.158 25.6426 115.84 24.9027 115.333 24.3288C114.631 23.5332 113.569 23.0819 112.496 23.0819L112.495 23.0828ZM112.538 28.459H110.169V24.6349H112.538C113.784 24.6349 114.491 25.6652 114.491 26.5469C114.491 27.4286 113.784 28.459 112.538 28.459ZM122.834 26.8574C121.628 26.8574 120.378 27.3886 119.861 28.5651L121.34 29.1824C121.656 28.5651 122.245 28.3642 122.862 28.3642C123.724 28.3642 124.6 28.8807 124.615 29.7989V29.9137C124.313 29.7415 123.667 29.4833 122.877 29.4833C122.192 29.4833 121.501 29.645 120.936 29.9598C120.188 30.3772 119.661 31.0623 119.661 31.9945C119.661 32.804 120.045 33.457 120.631 33.8857C121.125 34.2474 121.762 34.4483 122.433 34.4483C123.552 34.4483 124.17 33.9457 124.558 33.3579H124.615V34.2187H126.224V29.9424C126.224 28.7668 125.703 27.8999 124.88 27.3886C124.316 27.0391 123.611 26.8565 122.835 26.8565L122.834 26.8574ZM122.633 32.9709C122.087 32.9709 121.326 32.6979 121.326 32.024C121.326 31.1632 122.273 30.8328 123.092 30.8328C123.825 30.8328 124.169 30.991 124.614 31.2058C124.484 32.2388 123.594 32.9709 122.632 32.9709H122.633ZM132.081 27.1017L131.29 29.1042L130.171 31.938H130.114L128.132 27.1017H126.337L127.771 30.3624L129.31 33.8613L127.615 37.6211H129.353L132.602 30.158L133.933 27.1008H132.081V27.1017ZM117.075 34.2387H118.741V23.0836H117.075V34.2387Z" fill="white"/>
<path d="M45.6139 21.1074L32.3461 13.327C31.6675 12.9287 30.8653 13.1565 30.4512 13.7156L41.6884 25.0116L45.6148 21.1066L45.6139 21.1074Z" fill="url(#paint0_linear_404_919)"/>
<path d="M30.1719 35.3859C30.1719 35.7007 30.2684 35.9815 30.4285 36.2102L41.6892 25.0108L30.452 13.7148C30.278 13.9496 30.1719 14.2418 30.1719 14.5713V35.3859Z" fill="url(#paint1_linear_404_919)"/>
<path d="M45.5469 28.8911L50.0945 26.2243C51.0455 25.6661 51.0455 24.2922 50.0945 23.734L45.6139 21.1072L41.6875 25.0122L45.5469 28.892V28.8911Z" fill="url(#paint2_linear_404_919)"/>
<path d="M30.4287 36.2109C30.8359 36.7935 31.6563 37.0378 32.348 36.6317L45.5488 28.8913L41.6894 25.0115L30.4287 36.2109Z" fill="url(#paint3_linear_404_919)"/>
<defs>
<linearGradient id="paint0_linear_404_919" x1="12.4739" y1="-2.54091" x2="39.8277" y2="19.9456" gradientUnits="userSpaceOnUse">
<stop stop-color="#32A071"/>
<stop offset="0.07" stop-color="#2DA771"/>
<stop offset="0.48" stop-color="#15CF74"/>
<stop offset="0.8" stop-color="#06E775"/>
<stop offset="1" stop-color="#00F076"/>
</linearGradient>
<linearGradient id="paint1_linear_404_919" x1="49.5395" y1="24.8499" x2="29.1052" y2="24.9709" gradientUnits="userSpaceOnUse">
<stop stop-color="#00A1FF"/>
<stop offset="0.26" stop-color="#00BEFF"/>
<stop offset="0.51" stop-color="#00D2FF"/>
<stop offset="0.76" stop-color="#00DFFF"/>
<stop offset="1" stop-color="#00E3FF"/>
</linearGradient>
<linearGradient id="paint2_linear_404_919" x1="52.3992" y1="25.533" x2="33.9549" y2="24.0862" gradientUnits="userSpaceOnUse">
<stop stop-color="#FFE000"/>
<stop offset="0.41" stop-color="#FFBD00"/>
<stop offset="0.78" stop-color="#FFA500"/>
<stop offset="1" stop-color="#FF9C00"/>
</linearGradient>
<linearGradient id="paint3_linear_404_919" x1="49.9999" y1="22.7177" x2="14.5085" y2="46.2928" gradientUnits="userSpaceOnUse">
<stop stop-color="#FF3A44"/>
<stop offset="1" stop-color="#C31162"/>
</linearGradient>
</defs>
</svg>
