<svg width="19" height="19" viewBox="0 0 19 19" fill="none" xmlns="http://www.w3.org/2000/svg">
<path d="M9.49984 12.4687C10.4366 12.4687 11.2316 12.1422 11.8847 11.4891C12.5379 10.8359 12.8644 10.041 12.8644 9.10416C12.8644 8.16735 12.5379 7.37239 11.8847 6.71926C11.2316 6.06614 10.4366 5.73957 9.49984 5.73957C8.56303 5.73957 7.76807 6.06614 7.11494 6.71926C6.46182 7.37239 6.13525 8.16735 6.13525 9.10416C6.13525 10.041 6.46182 10.8359 7.11494 11.4891C7.76807 12.1422 8.56303 12.4687 9.49984 12.4687ZM9.49984 11.3208C8.8797 11.3208 8.35522 11.1064 7.9264 10.6776C7.49758 10.2488 7.28317 9.7243 7.28317 9.10416C7.28317 8.48402 7.49758 7.95954 7.9264 7.53072C8.35522 7.1019 8.8797 6.88749 9.49984 6.88749C10.12 6.88749 10.6445 7.1019 11.0733 7.53072C11.5021 7.95954 11.7165 8.48402 11.7165 9.10416C11.7165 9.7243 11.5021 10.2488 11.0733 10.6776C10.6445 11.1064 10.12 11.3208 9.49984 11.3208ZM9.49984 15.0417C7.57345 15.0417 5.83178 14.4941 4.27484 13.3989C2.71789 12.3038 1.55678 10.8722 0.791504 9.10416C1.55678 7.3361 2.71789 5.9045 4.27484 4.80936C5.83178 3.71423 7.57345 3.16666 9.49984 3.16666C11.4262 3.16666 13.1679 3.71423 14.7248 4.80936C16.2818 5.9045 17.4429 7.3361 18.2082 9.10416C17.4429 10.8722 16.2818 12.3038 14.7248 13.3989C13.1679 14.4941 11.4262 15.0417 9.49984 15.0417ZM9.49984 13.8542C11.0964 13.8542 12.5642 13.422 13.9035 12.5578C15.2427 11.6936 16.262 10.5424 16.9613 9.10416C16.262 7.66596 15.2427 6.51475 13.9035 5.65051C12.5642 4.78627 11.0964 4.35416 9.49984 4.35416C7.90331 4.35416 6.43543 4.78627 5.09619 5.65051C3.75696 6.51475 2.73109 7.66596 2.01859 9.10416C2.73109 10.5424 3.75696 11.6936 5.09619 12.5578C6.43543 13.422 7.90331 13.8542 9.49984 13.8542Z" fill="#706E6E"/>
<rect x="18.1187" y="3.82437" width="1.21196" height="20.6033" transform="rotate(60 18.1187 3.82437)" fill="#706E6E"/>
</svg>
