<svg width="98" height="16" viewBox="0 0 98 16" fill="none" xmlns="http://www.w3.org/2000/svg">
<path d="M0.584 0.248H3.972L8.46 7.948H8.68L13.168 0.248H16.556V16H13.168V9.026L13.388 6.386H13.168L9.582 12.656H7.558L3.972 6.386H3.752L3.972 9.026V16H0.584V0.248ZM23.7086 8.674L18.4066 0.248H22.5426L25.3146 4.868H25.5346L28.1746 0.248H32.3546L27.1406 8.674V16H23.7086V8.674ZM34.207 16V0.248H39.839C40.6457 0.248 41.3864 0.372666 42.061 0.621999C42.7504 0.871332 43.3444 1.22333 43.843 1.678C44.3417 2.118 44.7304 2.65333 45.009 3.284C45.2877 3.91467 45.427 4.61133 45.427 5.374C45.427 6.13667 45.2877 6.83333 45.009 7.464C44.7304 8.09467 44.3417 8.63733 43.843 9.092C43.3444 9.532 42.7504 9.87667 42.061 10.126C41.3864 10.3753 40.6457 10.5 39.839 10.5H37.639V16H34.207ZM39.949 7.244C40.6677 7.244 41.203 7.068 41.555 6.716C41.907 6.364 42.083 5.91667 42.083 5.374C42.083 4.83133 41.907 4.384 41.555 4.032C41.203 3.68 40.6677 3.504 39.949 3.504H37.639V7.244H39.949ZM50.578 0.248H54.538L60.434 16H56.65L55.44 12.48H49.676L48.466 16H44.682L50.578 0.248ZM54.34 9.356L53.196 6.056L52.668 4.12H52.448L51.92 6.056L50.776 9.356H54.34ZM62.2871 0.248H67.8531C69.1145 0.248 70.2511 0.438666 71.2631 0.819999C72.2751 1.20133 73.1331 1.73667 73.8371 2.426C74.5411 3.11533 75.0765 3.944 75.4431 4.912C75.8245 5.88 76.0151 6.95067 76.0151 8.124C76.0151 9.29733 75.8245 10.368 75.4431 11.336C75.0765 12.304 74.5411 13.1327 73.8371 13.822C73.1331 14.5113 72.2751 15.0467 71.2631 15.428C70.2511 15.8093 69.1145 16 67.8531 16H62.2871V0.248ZM67.6771 12.744C68.5278 12.744 69.2611 12.634 69.8771 12.414C70.4931 12.1793 70.9991 11.8567 71.3951 11.446C71.8058 11.0353 72.1065 10.5513 72.2971 9.994C72.4878 9.422 72.5831 8.79867 72.5831 8.124C72.5831 7.44933 72.4878 6.83333 72.2971 6.276C72.1065 5.704 71.8058 5.21267 71.3951 4.802C70.9991 4.39133 70.4931 4.076 69.8771 3.856C69.2611 3.62133 68.5278 3.504 67.6771 3.504H65.7191V12.744H67.6771ZM78.4219 0.248H83.9879C85.2492 0.248 86.3859 0.438666 87.3979 0.819999C88.4099 1.20133 89.2679 1.73667 89.9719 2.426C90.6759 3.11533 91.2112 3.944 91.5779 4.912C91.9592 5.88 92.1499 6.95067 92.1499 8.124C92.1499 9.29733 91.9592 10.368 91.5779 11.336C91.2112 12.304 90.6759 13.1327 89.9719 13.822C89.2679 14.5113 88.4099 15.0467 87.3979 15.428C86.3859 15.8093 85.2492 16 83.9879 16H78.4219V0.248ZM83.8119 12.744C84.6626 12.744 85.3959 12.634 86.0119 12.414C86.6279 12.1793 87.1339 11.8567 87.5299 11.446C87.9406 11.0353 88.2412 10.5513 88.4319 9.994C88.6226 9.422 88.7179 8.79867 88.7179 8.124C88.7179 7.44933 88.6226 6.83333 88.4319 6.276C88.2412 5.704 87.9406 5.21267 87.5299 4.802C87.1339 4.39133 86.6279 4.076 86.0119 3.856C85.3959 3.62133 84.6626 3.504 83.8119 3.504H81.8539V12.744H83.8119ZM94.5567 0.248H97.9887V16H94.5567V0.248Z" fill="#002455"/>
</svg>
