<svg width="25" height="28" viewBox="0 0 25 28" fill="none" xmlns="http://www.w3.org/2000/svg">
<path d="M0.8125 22.9433V23.1308H1H22.375H22.5625V22.9433V21.3976V21.2101H22.375H19.7355V11.014C19.7355 9.13378 19.1402 7.46211 17.9522 6.00606C16.7954 4.5882 15.3073 3.69595 13.4954 3.33175V2.51218C13.4954 2.01536 13.3208 1.59922 12.9681 1.28085C12.6198 0.966527 12.1886 0.8125 11.6875 0.8125C11.1864 0.8125 10.7552 0.966527 10.4069 1.28085C10.0542 1.59922 9.87964 2.01536 9.87964 2.51218V3.33175C8.06789 3.69598 6.58524 4.58838 5.43943 6.00677C4.26315 7.46285 3.67399 9.13428 3.67399 11.014V21.2101H1H0.8125V21.3976V22.9433ZM9.20524 24.268H9.01774V24.4555C9.01774 25.1798 9.2865 25.7999 9.81719 26.3051C10.3453 26.8079 10.9716 27.0625 11.6875 27.0625C12.4247 27.0625 13.0581 26.809 13.5766 26.3036C14.0954 25.798 14.3573 25.1783 14.3573 24.4555V24.268H14.1698H9.20524ZM17.7746 21.2101H5.6004V11.014C5.6004 9.36183 6.18915 7.95935 7.37162 6.79591C8.55333 5.63322 9.99947 5.05195 11.722 5.05195C13.4207 5.05195 14.8495 5.63268 16.02 6.79528C17.1912 7.95858 17.7746 9.36125 17.7746 11.014V21.2101Z" fill="#002455" stroke="#002455" stroke-width="0.375"/>
</svg>
