<svg width="21" height="25" viewBox="0 0 21 25" fill="none" xmlns="http://www.w3.org/2000/svg">
<path d="M0.8125 20.5052V20.6927H1H20H20.1875V20.5052V19.1312V18.9437H20H17.6746V9.9013C17.6746 8.22523 17.1438 6.73465 16.0848 5.43666C15.0569 4.17689 13.7355 3.38241 12.1278 3.05562V2.34416C12.1278 1.89712 11.9705 1.52143 11.6522 1.23418C11.3384 0.950969 10.95 0.8125 10.5 0.8125C10.05 0.8125 9.66157 0.950969 9.34776 1.23418C9.02948 1.52143 8.87218 1.89712 8.87218 2.34416V3.05562C7.26468 3.38244 5.94805 4.17708 4.92995 5.43737C3.88137 6.73539 3.35605 8.22573 3.35605 9.9013V18.9437H1H0.8125V19.1312V20.5052ZM8.29355 21.6618H8.10605V21.8493C8.10605 22.499 8.34735 23.0556 8.82313 23.5085C9.29633 23.959 9.85814 24.1875 10.5 24.1875C11.1605 24.1875 11.7288 23.9602 12.1938 23.507C12.6589 23.0536 12.894 22.4975 12.894 21.8493V21.6618H12.7065H8.29355ZM15.8899 18.9437H5.11008V9.9013C5.11008 8.43834 5.63115 7.19704 6.67828 6.16677C7.72463 5.13725 9.00478 4.62257 10.5306 4.62257C12.0353 4.62257 13.3 5.13671 14.3364 6.16615C15.3735 7.19627 15.8899 8.43776 15.8899 9.9013V18.9437Z" fill="#2C67F5" stroke="#2C67F5" stroke-width="0.375"/>
</svg>
