<svg width="376" height="261" viewBox="0 0 376 261" fill="none" xmlns="http://www.w3.org/2000/svg">
<mask id="mask0_219_1944" style="mask-type:alpha" maskUnits="userSpaceOnUse" x="0" y="0" width="376" height="261">
<rect width="376" height="261" rx="30" fill="#FFFAFA"/>
</mask>
<g mask="url(#mask0_219_1944)">
<path d="M196.555 17.07C196.555 17.07 196.555 17.14 196.525 17.16C196.505 17.19 196.475 17.21 196.455 17.24C196.355 17.34 196.235 17.42 196.115 17.49C195.875 17.63 195.635 17.77 195.375 17.87C195.275 17.91 195.185 17.95 195.085 17.97C195.035 17.98 195.015 18.01 195.005 18.05C195.005 18.1 194.985 18.15 194.975 18.2C194.895 18.56 194.775 18.91 194.605 19.24C194.545 19.37 194.465 19.49 194.375 19.61C194.325 19.67 194.265 19.73 194.205 19.77C194.125 19.82 194.045 19.83 193.965 19.79C193.865 19.74 193.785 19.66 193.715 19.58C193.575 19.42 193.465 19.23 193.375 19.04C193.295 18.87 193.215 18.7 193.155 18.52C193.105 18.39 193.065 18.26 193.035 18.13C193.025 18.08 192.995 18.05 192.945 18.04C192.865 18.02 192.785 18 192.705 17.98C192.375 17.88 192.055 17.74 191.745 17.56C191.645 17.5 191.545 17.43 191.465 17.35C191.405 17.3 191.405 17.19 191.465 17.13C191.525 17.07 191.585 17.01 191.655 16.96C191.815 16.84 191.975 16.75 192.155 16.65C192.345 16.55 192.535 16.46 192.735 16.39C192.785 16.37 192.825 16.35 192.875 16.34C192.935 16.33 192.965 16.3 192.985 16.23C193.005 16.12 193.035 16.02 193.055 15.91C193.095 15.74 193.155 15.58 193.215 15.42C193.295 15.21 193.385 15.01 193.515 14.82C193.565 14.75 193.615 14.68 193.675 14.62C193.725 14.57 193.785 14.53 193.855 14.5C193.895 14.48 193.925 14.48 193.965 14.5C194.025 14.52 194.085 14.55 194.135 14.6C194.255 14.7 194.355 14.83 194.435 14.96C194.665 15.34 194.845 15.74 194.945 16.17C194.955 16.23 194.985 16.26 195.045 16.27C195.255 16.32 195.455 16.39 195.655 16.47C195.865 16.55 196.065 16.65 196.255 16.77C196.345 16.82 196.425 16.89 196.505 16.96C196.535 16.99 196.565 17.03 196.565 17.08L196.555 17.07Z" fill="white"/>
<path d="M323.725 82.9C323.725 82.9 323.715 82.98 323.685 83.01C323.655 83.04 323.625 83.07 323.595 83.1C323.475 83.21 323.335 83.31 323.195 83.4C322.915 83.57 322.625 83.73 322.325 83.85C322.215 83.89 322.105 83.94 321.985 83.97C321.925 83.98 321.895 84.01 321.885 84.07C321.885 84.13 321.865 84.18 321.855 84.24C321.765 84.67 321.615 85.08 321.425 85.47C321.345 85.62 321.255 85.77 321.155 85.91C321.095 85.98 321.025 86.05 320.945 86.1C320.855 86.16 320.765 86.17 320.655 86.12C320.535 86.06 320.445 85.97 320.365 85.87C320.195 85.68 320.075 85.46 319.965 85.23C319.865 85.03 319.775 84.83 319.705 84.62C319.645 84.47 319.605 84.32 319.565 84.16C319.545 84.1 319.515 84.07 319.455 84.06C319.365 84.04 319.265 84.01 319.175 83.98C318.775 83.86 318.405 83.69 318.045 83.49C317.925 83.42 317.815 83.34 317.705 83.24C317.635 83.18 317.635 83.05 317.705 82.98C317.775 82.9 317.855 82.84 317.935 82.78C318.115 82.64 318.315 82.53 318.525 82.42C318.745 82.3 318.975 82.2 319.215 82.11C319.265 82.09 319.325 82.07 319.385 82.06C319.455 82.04 319.495 82.01 319.505 81.93C319.525 81.8 319.565 81.68 319.585 81.55C319.625 81.35 319.705 81.16 319.775 80.97C319.875 80.72 319.975 80.48 320.125 80.26C320.185 80.18 320.235 80.09 320.315 80.02C320.375 79.96 320.445 79.91 320.525 79.88C320.565 79.86 320.605 79.86 320.645 79.88C320.725 79.9 320.785 79.94 320.845 79.99C320.985 80.11 321.105 80.26 321.205 80.42C321.485 80.87 321.685 81.35 321.815 81.86C321.835 81.93 321.865 81.96 321.935 81.98C322.185 82.04 322.425 82.12 322.655 82.22C322.905 82.32 323.135 82.44 323.365 82.57C323.475 82.63 323.575 82.71 323.665 82.8C323.705 82.84 323.735 82.88 323.735 82.94L323.725 82.9Z" fill="white"/>
<path d="M5.95506 146.93C5.95506 146.93 5.94506 147.01 5.91506 147.04C5.88506 147.07 5.85507 147.1 5.82507 147.13C5.70507 147.24 5.56506 147.34 5.42506 147.43C5.14506 147.6 4.85506 147.76 4.55506 147.88C4.44506 147.92 4.33507 147.97 4.21507 148C4.15507 148.01 4.12506 148.04 4.11506 148.1C4.11506 148.16 4.09506 148.21 4.08506 148.27C3.99506 148.7 3.84507 149.11 3.65507 149.5C3.57507 149.65 3.48507 149.8 3.38507 149.94C3.32507 150.01 3.25506 150.08 3.17506 150.13C3.08506 150.19 2.99507 150.2 2.88507 150.15C2.76507 150.09 2.67506 150 2.59506 149.9C2.42506 149.71 2.30506 149.49 2.19506 149.26C2.09506 149.06 2.00507 148.86 1.93507 148.65C1.87507 148.5 1.83507 148.35 1.79507 148.19C1.77507 148.13 1.74507 148.1 1.68507 148.09C1.59507 148.07 1.49507 148.04 1.40507 148.01C1.00507 147.89 0.635065 147.72 0.275065 147.52C0.155065 147.45 0.0450684 147.37 -0.0649316 147.27C-0.134932 147.21 -0.134932 147.08 -0.0649316 147.01C0.00506836 146.93 0.0850641 146.87 0.165064 146.81C0.345064 146.67 0.54506 146.56 0.75506 146.45C0.97506 146.33 1.20506 146.23 1.44506 146.14C1.49506 146.12 1.55506 146.1 1.61506 146.09C1.68506 146.07 1.72506 146.04 1.73506 145.96C1.75506 145.83 1.79506 145.71 1.81506 145.58C1.85506 145.38 1.93506 145.19 2.00506 145C2.10506 144.75 2.20507 144.51 2.35507 144.29C2.41507 144.21 2.46507 144.12 2.54507 144.05C2.60507 143.99 2.67506 143.94 2.75506 143.91C2.79506 143.89 2.83506 143.89 2.87506 143.91C2.95506 143.93 3.01507 143.97 3.07507 144.02C3.22507 144.14 3.33507 144.29 3.43507 144.45C3.71507 144.9 3.91507 145.38 4.04507 145.89C4.06507 145.96 4.09506 145.99 4.16506 146.01C4.41506 146.07 4.65507 146.15 4.88507 146.25C5.13507 146.35 5.36506 146.47 5.59506 146.6C5.70506 146.66 5.80506 146.74 5.89506 146.83C5.93506 146.87 5.96507 146.91 5.96507 146.97L5.95506 146.93Z" fill="white"/>
<path d="M92.595 17.13C93.8487 17.13 94.865 16.1137 94.865 14.86C94.865 13.6063 93.8487 12.59 92.595 12.59C91.3413 12.59 90.325 13.6063 90.325 14.86C90.325 16.1137 91.3413 17.13 92.595 17.13Z" fill="#E077A3"/>
<path d="M8.10497 79.2101C9.35865 79.2101 10.375 78.1937 10.375 76.94C10.375 75.6864 9.35865 74.67 8.10497 74.67C6.85128 74.67 5.83496 75.6864 5.83496 76.94C5.83496 78.1937 6.85128 79.2101 8.10497 79.2101Z" fill="#E077A3"/>
<path d="M267.965 20.97C269.219 20.97 270.235 19.9537 270.235 18.7C270.235 17.4464 269.219 16.4301 267.965 16.4301C266.711 16.4301 265.695 17.4464 265.695 18.7C265.695 19.9537 266.711 20.97 267.965 20.97Z" fill="#E077A3"/>
<path d="M367.165 149.62C368.419 149.62 369.435 148.604 369.435 147.35C369.435 146.096 368.419 145.08 367.165 145.08C365.911 145.08 364.895 146.096 364.895 147.35C364.895 148.604 365.911 149.62 367.165 149.62Z" fill="#E077A3"/>
<path d="M372.925 62.22C373.853 62.22 374.605 61.4678 374.605 60.54C374.605 59.6121 373.853 58.86 372.925 58.86C371.997 58.86 371.245 59.6121 371.245 60.54C371.245 61.4678 371.997 62.22 372.925 62.22Z" fill="#E077A3"/>
<path d="M315.565 233.51C316.493 233.51 317.245 232.758 317.245 231.83C317.245 230.902 316.493 230.15 315.565 230.15C314.637 230.15 313.885 230.902 313.885 231.83C313.885 232.758 314.637 233.51 315.565 233.51Z" fill="#E077A3"/>
<path d="M292.835 31.17H68.5248C62.4 31.17 57.4348 36.1352 57.4348 42.26V216.11C57.4348 222.235 62.4 227.2 68.5248 227.2H292.835C298.96 227.2 303.925 222.235 303.925 216.11V42.26C303.925 36.1352 298.96 31.17 292.835 31.17Z" fill="#BA457C"/>
<g style="mix-blend-mode:multiply" opacity="0.25">
<path d="M303.925 42.25V99.55C258.865 111.34 211.895 123.18 211.895 123.18C211.895 123.18 -18.3451 59.3 145.595 71.59C270.185 80.94 286.675 47.67 287.415 31.16H292.845C298.965 31.16 303.935 36.12 303.935 42.25H303.925Z" fill="#BA457C"/>
</g>
<path d="M105.686 42.9276H107.534L110.578 48.1957H110.69L113.734 42.9276H115.596V52.88H113.734V47.9733L113.845 46.3053H113.734L111.204 50.7672H110.078L107.534 46.3053H107.423L107.534 47.9733V52.88H105.686V42.9276ZM120.12 48.2513L116.77 42.9276H119.008L120.995 46.2219H121.107L123.025 42.9276H125.29L121.996 48.2513V52.88H120.12V48.2513ZM129.508 42.9276H131.357L134.401 48.1957H134.512L137.556 42.9276H139.419V52.88H137.556V47.9733L137.668 46.3053H137.556L135.027 50.7672H133.901L131.357 46.3053H131.246L131.357 47.9733V52.88H129.508V42.9276ZM143.303 44.7068V47.0142H147.292V48.7934H143.303V51.1008H147.737V52.88H141.427V42.9276H147.737V44.7068H143.303ZM149.462 42.9276H151.645L155.648 49.5996H155.759L155.648 47.6814V42.9276H157.511V52.88H155.537L151.311 45.8327H151.2L151.311 47.7509V52.88H149.462V42.9276ZM162.551 53.1024C162.125 53.1024 161.717 53.0422 161.328 52.9217C160.939 52.8012 160.582 52.6205 160.258 52.3796C159.934 52.1387 159.651 51.8468 159.41 51.5039C159.169 51.1518 158.979 50.744 158.84 50.2807L160.605 49.5857C160.735 50.0861 160.962 50.5031 161.287 50.8367C161.611 51.161 162.037 51.3232 162.565 51.3232C162.76 51.3232 162.945 51.3 163.121 51.2537C163.307 51.1981 163.469 51.124 163.608 51.0313C163.756 50.9294 163.872 50.8043 163.955 50.656C164.039 50.5077 164.08 50.3363 164.08 50.1417C164.08 49.9564 164.048 49.7896 163.983 49.6413C163.918 49.493 163.807 49.354 163.65 49.2243C163.501 49.0946 163.302 48.9695 163.052 48.849C162.811 48.7285 162.51 48.6034 162.148 48.4737L161.537 48.2513C161.268 48.1586 160.995 48.0335 160.717 47.876C160.448 47.7185 160.202 47.5285 159.98 47.3061C159.758 47.0837 159.572 46.8242 159.424 46.5277C159.285 46.2219 159.215 45.879 159.215 45.4991C159.215 45.1099 159.29 44.7485 159.438 44.4149C159.595 44.072 159.813 43.7755 160.091 43.5253C160.378 43.2658 160.717 43.0666 161.106 42.9276C161.504 42.7793 161.945 42.7052 162.426 42.7052C162.927 42.7052 163.358 42.7747 163.719 42.9137C164.09 43.0434 164.4 43.2149 164.65 43.428C164.91 43.6319 165.118 43.8589 165.276 44.1091C165.433 44.3593 165.549 44.5956 165.623 44.818L163.969 45.513C163.877 45.235 163.705 44.9848 163.455 44.7624C163.214 44.54 162.88 44.4288 162.454 44.4288C162.046 44.4288 161.708 44.5261 161.439 44.7207C161.171 44.906 161.036 45.1516 161.036 45.4574C161.036 45.7539 161.166 46.0088 161.426 46.2219C161.685 46.4258 162.097 46.625 162.663 46.8196L163.288 47.0281C163.687 47.1671 164.048 47.3293 164.372 47.5146C164.706 47.6907 164.989 47.9038 165.22 48.154C165.461 48.4042 165.642 48.6915 165.762 49.0158C165.892 49.3309 165.957 49.6969 165.957 50.1139C165.957 50.6328 165.85 51.0823 165.637 51.4622C165.433 51.8329 165.169 52.1387 164.845 52.3796C164.521 52.6205 164.155 52.8012 163.747 52.9217C163.339 53.0422 162.941 53.1024 162.551 53.1024ZM169.48 52.88V44.7068H166.7V42.9276H174.136V44.7068H171.356V52.88H169.48ZM175.471 42.9276H179.099C179.599 42.9276 180.053 43.0064 180.461 43.1639C180.869 43.3214 181.216 43.5392 181.503 43.8172C181.8 44.0952 182.027 44.4288 182.184 44.818C182.342 45.1979 182.421 45.6149 182.421 46.069C182.421 46.4026 182.365 46.7177 182.254 47.0142C182.143 47.3015 181.99 47.5656 181.795 47.8065C181.601 48.0382 181.374 48.2467 181.114 48.432C180.855 48.6081 180.581 48.7471 180.294 48.849L180.28 48.9463L182.949 52.7688V52.88H180.794L178.223 49.1409H177.347V52.88H175.471V42.9276ZM179.085 47.4173C179.511 47.4173 179.858 47.2876 180.127 47.0281C180.405 46.7686 180.544 46.4397 180.544 46.0412C180.544 45.8651 180.512 45.6937 180.447 45.5269C180.391 45.3601 180.303 45.2118 180.183 45.0821C180.062 44.9524 179.909 44.8504 179.724 44.7763C179.548 44.6929 179.344 44.6512 179.112 44.6512H177.347V47.4173H179.085ZM187.732 53.1024C187.148 53.1024 186.615 53.0097 186.134 52.8244C185.661 52.6298 185.258 52.3518 184.924 51.9904C184.591 51.629 184.331 51.1935 184.146 50.6838C183.961 50.1649 183.868 49.5764 183.868 48.9185V42.9276H185.744V49.0297C185.744 49.3633 185.786 49.6691 185.87 49.9471C185.953 50.2251 186.078 50.466 186.245 50.6699C186.412 50.8738 186.62 51.0359 186.87 51.1564C187.121 51.2676 187.408 51.3232 187.732 51.3232C188.066 51.3232 188.358 51.2676 188.608 51.1564C188.858 51.0359 189.067 50.8738 189.233 50.6699C189.4 50.466 189.525 50.2251 189.609 49.9471C189.692 49.6691 189.734 49.3633 189.734 49.0297V42.9276H191.61V48.9185C191.61 49.5394 191.518 50.1093 191.332 50.6282C191.156 51.1379 190.897 51.578 190.554 51.9487C190.22 52.3101 189.812 52.5927 189.331 52.7966C188.858 53.0005 188.325 53.1024 187.732 53.1024ZM196.294 42.9276H198.434L202.173 52.88H200.102L199.282 50.5031H195.446L194.626 52.88H192.555L196.294 42.9276ZM198.671 48.7795L197.781 46.2914L197.42 45.0821H197.308L196.947 46.2914L196.057 48.7795H198.671ZM203.339 42.9276H205.215V51.1008H209.427V52.88H203.339V42.9276ZM222.248 51.2815C221.757 51.8746 221.177 52.3286 220.51 52.6437C219.843 52.9495 219.097 53.1024 218.272 53.1024C217.531 53.1024 216.841 52.968 216.201 52.6993C215.571 52.4306 215.024 52.0645 214.561 51.6012C214.098 51.1379 213.732 50.5911 213.463 49.961C213.194 49.3216 213.06 48.6359 213.06 47.9038C213.06 47.1717 213.194 46.4906 213.463 45.8605C213.732 45.2211 214.098 44.6697 214.561 44.2064C215.024 43.7431 215.571 43.377 216.201 43.1083C216.841 42.8396 217.531 42.7052 218.272 42.7052C219.069 42.7052 219.769 42.8442 220.371 43.1222C220.983 43.4002 221.525 43.8033 221.998 44.3315L220.677 45.6103C220.381 45.2674 220.038 44.9941 219.648 44.7902C219.269 44.5863 218.814 44.4844 218.286 44.4844C217.823 44.4844 217.387 44.5678 216.98 44.7346C216.572 44.8921 216.215 45.1192 215.909 45.4157C215.613 45.7122 215.377 46.0736 215.2 46.4999C215.024 46.9169 214.936 47.3849 214.936 47.9038C214.936 48.4227 215.024 48.8953 215.2 49.3216C215.377 49.7386 215.613 50.0954 215.909 50.3919C216.215 50.6884 216.572 50.9201 216.98 51.0869C217.387 51.2444 217.823 51.3232 218.286 51.3232C218.842 51.3232 219.333 51.212 219.76 50.9896C220.195 50.7579 220.58 50.4336 220.913 50.0166L222.248 51.2815ZM226.27 48.2513L222.92 42.9276H225.158L227.146 46.2219H227.257L229.175 42.9276H231.441L228.147 48.2513V52.88H226.27V48.2513ZM240.749 51.2815C240.258 51.8746 239.679 52.3286 239.012 52.6437C238.345 52.9495 237.599 53.1024 236.774 53.1024C236.033 53.1024 235.342 52.968 234.703 52.6993C234.073 52.4306 233.526 52.0645 233.063 51.6012C232.599 51.1379 232.233 50.5911 231.965 49.961C231.696 49.3216 231.562 48.6359 231.562 47.9038C231.562 47.1717 231.696 46.4906 231.965 45.8605C232.233 45.2211 232.599 44.6697 233.063 44.2064C233.526 43.7431 234.073 43.377 234.703 43.1083C235.342 42.8396 236.033 42.7052 236.774 42.7052C237.571 42.7052 238.271 42.8442 238.873 43.1222C239.485 43.4002 240.027 43.8033 240.499 44.3315L239.179 45.6103C238.882 45.2674 238.539 44.9941 238.15 44.7902C237.77 44.5863 237.316 44.4844 236.788 44.4844C236.325 44.4844 235.889 44.5678 235.481 44.7346C235.074 44.8921 234.717 45.1192 234.411 45.4157C234.114 45.7122 233.878 46.0736 233.702 46.4999C233.526 46.9169 233.438 47.3849 233.438 47.9038C233.438 48.4227 233.526 48.8953 233.702 49.3216C233.878 49.7386 234.114 50.0954 234.411 50.3919C234.717 50.6884 235.074 50.9201 235.481 51.0869C235.889 51.2444 236.325 51.3232 236.788 51.3232C237.344 51.3232 237.835 51.212 238.261 50.9896C238.697 50.7579 239.081 50.4336 239.415 50.0166L240.749 51.2815ZM242.256 42.9276H244.132V51.1008H248.344V52.88H242.256V42.9276ZM251.557 44.7068V47.0142H255.547V48.7934H251.557V51.1008H255.992V52.88H249.681V42.9276H255.992V44.7068H251.557Z" fill="white"/>
<path d="M75.1449 56C75.1849 55.82 75.1649 55.63 75.1649 55.44C75.1649 55.35 75.0749 55.33 75.0149 55.38C73.9149 56.4 73.8349 56.69 72.4349 57.5C70.5349 58.61 68.8549 57.78 70.3549 55.42C71.0649 54.3 72.1849 52.87 73.0149 51.83C73.1349 51.67 73.1149 51.62 72.8949 51.56C71.9049 51.3 69.8549 51.67 67.8949 50.31C67.2349 49.85 67.1949 49.15 67.7649 48.58C69.1949 47.14 74.0949 47.09 74.2549 47.07C74.4449 47.04 74.3549 46.84 74.2449 46.68C73.7349 45.95 73.3649 45.14 72.9649 44.36C72.6849 43.81 72.3049 42.73 72.3849 41.87C72.4549 41.07 73.1149 40.65 73.8149 40.91C75.4849 41.52 76.7949 43.03 77.8249 44.47C78.7949 45.82 78.8149 40.19 81.0049 39.4C82.2049 38.97 82.6249 40.33 82.6349 41.29C82.6649 44.09 82.2349 44.09 82.4549 44.16C82.5549 44.19 82.5549 43.95 84.3649 42.76C86.3549 41.45 87.4149 42.78 86.4649 44.73C85.6049 46.51 85.1149 46.79 85.3049 46.9C85.4849 47 86.6249 46.39 86.8249 46.34C87.5949 46.12 89.1349 45.76 89.8649 46.25C91.6849 47.48 87.2249 50.29 86.3949 50.83C86.3449 50.86 86.3249 50.93 86.2849 50.98C86.8249 51.3 89.0949 51.62 90.1649 53.05C90.8449 53.97 90.5049 55 88.4549 55.21C87.1049 55.35 86.4349 55.18 84.3649 54.88C83.7649 54.79 85.6449 57.03 85.5749 60.21C85.5049 63.33 82.2149 60.95 80.3149 57.38C80.1149 57.01 79.8949 56.65 79.6849 56.29C79.6649 56.26 79.6049 56.22 79.5849 56.23C79.3549 56.3 79.2849 57.34 79.2349 57.52C78.9249 58.78 78.3149 60.91 77.1249 61.61C74.6149 63.09 74.9549 57.03 75.1549 56.02L75.1449 56Z" fill="#E077A3"/>
<path d="M82.4148 50.81C82.1748 52.77 79.0648 53.16 77.5448 52.32C76.0448 51.49 76.1748 49.7 77.5448 48.9C79.1448 47.97 82.7248 48.21 82.4048 50.81H82.4148Z" fill="white"/>
<path d="M286.225 56C286.185 55.82 286.205 55.63 286.205 55.44C286.205 55.35 286.295 55.33 286.355 55.38C287.455 56.4 287.535 56.69 288.935 57.5C290.835 58.61 292.515 57.78 291.015 55.42C290.305 54.3 289.185 52.87 288.355 51.83C288.235 51.67 288.255 51.62 288.475 51.56C289.465 51.3 291.515 51.67 293.475 50.31C294.135 49.85 294.175 49.15 293.605 48.58C292.175 47.14 287.275 47.09 287.115 47.07C286.925 47.04 287.015 46.84 287.125 46.68C287.635 45.95 288.005 45.14 288.405 44.36C288.685 43.81 289.065 42.73 288.985 41.87C288.915 41.07 288.255 40.65 287.555 40.91C285.885 41.52 284.575 43.03 283.545 44.47C282.575 45.82 282.555 40.19 280.365 39.4C279.165 38.97 278.745 40.33 278.735 41.29C278.705 44.09 279.135 44.09 278.915 44.16C278.815 44.19 278.815 43.95 277.005 42.76C275.015 41.45 273.955 42.78 274.905 44.73C275.765 46.51 276.255 46.79 276.065 46.9C275.885 47 274.745 46.39 274.545 46.34C273.775 46.12 272.235 45.76 271.505 46.25C269.685 47.48 274.145 50.29 274.975 50.83C275.025 50.86 275.045 50.93 275.085 50.98C274.545 51.3 272.275 51.62 271.205 53.05C270.525 53.97 270.865 55 272.915 55.21C274.265 55.35 274.935 55.18 277.005 54.88C277.605 54.79 275.725 57.03 275.795 60.21C275.865 63.33 279.155 60.95 281.055 57.38C281.255 57.01 281.475 56.65 281.685 56.29C281.705 56.26 281.765 56.22 281.785 56.23C282.015 56.3 282.085 57.34 282.135 57.52C282.445 58.78 283.055 60.91 284.245 61.61C286.755 63.09 286.415 57.03 286.215 56.02L286.225 56Z" fill="#E077A3"/>
<path d="M278.955 50.81C279.195 52.77 282.305 53.16 283.825 52.32C285.325 51.49 285.195 49.7 283.825 48.9C282.225 47.97 278.645 48.21 278.965 50.81H278.955Z" fill="white"/>
<path d="M303.925 65.9301V216.11C303.925 222.23 298.965 227.2 292.835 227.2H68.5248C62.4048 227.2 57.4348 222.24 57.4348 216.11V65.9301H303.925Z" fill="#292929"/>
<path d="M83.6347 97.7701C89.8755 97.7701 94.9347 92.7109 94.9347 86.47C94.9347 80.2292 89.8755 75.17 83.6347 75.17C77.3939 75.17 72.3347 80.2292 72.3347 86.47C72.3347 92.7109 77.3939 97.7701 83.6347 97.7701Z" fill="#2D2D2D"/>
<path d="M115.985 97.7701C122.226 97.7701 127.285 92.7109 127.285 86.47C127.285 80.2292 122.226 75.17 115.985 75.17C109.744 75.17 104.685 80.2292 104.685 86.47C104.685 92.7109 109.744 97.7701 115.985 97.7701Z" fill="#2D2D2D"/>
<path d="M148.335 97.7701C154.575 97.7701 159.635 92.7109 159.635 86.47C159.635 80.2292 154.575 75.17 148.335 75.17C142.094 75.17 137.035 80.2292 137.035 86.47C137.035 92.7109 142.094 97.7701 148.335 97.7701Z" fill="#2D2D2D"/>
<path d="M148.294 90.5901V83.4669L146.667 84.1523L146.022 82.6605L148.724 81.3971H150.054V90.5901H148.294Z" fill="#B5B7CF"/>
<path d="M180.685 97.7701C186.926 97.7701 191.985 92.7109 191.985 86.47C191.985 80.2292 186.926 75.17 180.685 75.17C174.444 75.17 169.385 80.2292 169.385 86.47C169.385 92.7109 174.444 97.7701 180.685 97.7701Z" fill="#2D2D2D"/>
<path d="M177.643 90.5901V88.9907C178.172 88.471 178.66 87.9872 179.108 87.5392C179.296 87.351 179.489 87.1584 179.686 86.9613C179.883 86.7642 180.067 86.5805 180.237 86.4102C180.407 86.24 180.56 86.0877 180.694 85.9533C180.828 85.8099 180.931 85.6979 181.003 85.6173C181.147 85.447 181.272 85.2947 181.379 85.1603C181.496 85.0259 181.586 84.896 181.648 84.7706C181.72 84.6362 181.774 84.5062 181.81 84.3808C181.845 84.2464 181.863 84.103 181.863 83.9507C181.863 83.655 181.747 83.3997 181.514 83.1846C181.281 82.9606 180.963 82.8486 180.56 82.8486C180.156 82.8486 179.843 82.9651 179.619 83.1981C179.395 83.4221 179.243 83.6774 179.162 83.9642L177.563 83.3056C177.634 83.0637 177.751 82.8173 177.912 82.5664C178.073 82.3066 178.279 82.0781 178.53 81.881C178.781 81.6749 179.077 81.5091 179.417 81.3837C179.767 81.2493 180.156 81.1821 180.587 81.1821C181.052 81.1821 181.474 81.2538 181.85 81.3971C182.226 81.5315 182.544 81.7197 182.804 81.9616C183.064 82.2035 183.266 82.4902 183.409 82.8218C183.552 83.1443 183.624 83.4938 183.624 83.8701C183.624 84.4435 183.481 84.9722 183.194 85.456C182.916 85.9309 182.576 86.3744 182.172 86.7866L181.017 87.9424C180.712 88.247 180.367 88.5875 179.982 88.9638L180.035 89.0445H183.758V90.5901H177.643Z" fill="#B5B7CF"/>
<path d="M213.035 97.7701C219.275 97.7701 224.335 92.7109 224.335 86.47C224.335 80.2292 219.275 75.17 213.035 75.17C206.794 75.17 201.735 80.2292 201.735 86.47C201.735 92.7109 206.794 97.7701 213.035 97.7701Z" fill="#2D2D2D"/>
<path d="M213.051 90.8051C212.675 90.8051 212.312 90.7558 211.963 90.6573C211.622 90.5587 211.309 90.4109 211.022 90.2138C210.735 90.0077 210.48 89.7523 210.256 89.4477C210.041 89.143 209.875 88.7891 209.758 88.3859L211.412 87.7274C211.528 88.1754 211.725 88.5158 212.003 88.7488C212.281 88.9728 212.63 89.0848 213.051 89.0848C213.239 89.0848 213.419 89.0579 213.589 89.0042C213.759 88.9414 213.907 88.8563 214.032 88.7488C214.158 88.6413 214.256 88.5158 214.328 88.3725C214.409 88.2202 214.449 88.0499 214.449 87.8618C214.449 87.4675 214.301 87.1584 214.006 86.9344C213.719 86.7104 213.32 86.5984 212.809 86.5984H212.016V84.999H212.742C212.921 84.999 213.096 84.9766 213.266 84.9318C213.437 84.887 213.584 84.8198 213.71 84.7302C213.844 84.6317 213.947 84.5107 214.019 84.3674C214.1 84.215 214.14 84.0403 214.14 83.8432C214.14 83.5386 214.032 83.2922 213.817 83.104C213.602 82.9069 213.311 82.8083 212.944 82.8083C212.55 82.8083 212.245 82.9158 212.03 83.1309C211.824 83.337 211.68 83.5699 211.6 83.8298L209.987 83.1712C210.068 82.9472 210.189 82.7187 210.35 82.4858C210.511 82.2438 210.713 82.0288 210.955 81.8406C211.206 81.6435 211.497 81.4867 211.828 81.3702C212.16 81.2448 212.541 81.1821 212.971 81.1821C213.41 81.1821 213.808 81.2448 214.167 81.3702C214.534 81.4957 214.848 81.6704 215.108 81.8944C215.367 82.1094 215.569 82.3693 215.712 82.6739C215.856 82.9696 215.927 83.2922 215.927 83.6416C215.927 83.9104 215.892 84.1523 215.82 84.3674C215.757 84.5824 215.672 84.775 215.565 84.9453C215.457 85.1155 215.332 85.2634 215.188 85.3888C215.054 85.5053 214.915 85.5994 214.772 85.671V85.7786C215.202 85.9488 215.556 86.2221 215.833 86.5984C216.12 86.9747 216.263 87.4496 216.263 88.023C216.263 88.4262 216.187 88.7981 216.035 89.1386C215.883 89.4701 215.663 89.7613 215.376 90.0122C215.099 90.263 214.763 90.4557 214.368 90.5901C213.974 90.7334 213.535 90.8051 213.051 90.8051Z" fill="#B5B7CF"/>
<path d="M245.385 97.7701C251.626 97.7701 256.685 92.7109 256.685 86.47C256.685 80.2292 251.626 75.17 245.385 75.17C239.144 75.17 234.085 80.2292 234.085 86.47C234.085 92.7109 239.144 97.7701 245.385 97.7701Z" fill="#2D2D2D"/>
<path d="M246.029 90.5901V88.8966H241.782V87.472L245.868 81.3971H247.776V87.257H248.932V88.8966H247.776V90.5901H246.029ZM246.029 84.0179H245.922L243.731 87.257H246.029V84.0179Z" fill="#B5B7CF"/>
<path d="M277.735 97.7701C283.976 97.7701 289.035 92.7109 289.035 86.47C289.035 80.2292 283.976 75.17 277.735 75.17C271.494 75.17 266.435 80.2292 266.435 86.47C266.435 92.7109 271.494 97.7701 277.735 97.7701Z" fill="#2D2D2D"/>
<path d="M277.678 90.8051C277.329 90.8051 276.979 90.7558 276.63 90.6573C276.289 90.5587 275.971 90.4064 275.676 90.2003C275.38 89.9942 275.12 89.7389 274.896 89.4342C274.681 89.1206 274.52 88.7488 274.412 88.3187L276.012 87.7005C276.11 88.1485 276.298 88.5069 276.576 88.7757C276.863 89.0445 277.226 89.1789 277.665 89.1789C277.88 89.1789 278.077 89.143 278.256 89.0714C278.444 88.9907 278.606 88.8832 278.74 88.7488C278.883 88.6144 278.991 88.4576 279.063 88.2784C279.143 88.0902 279.184 87.8842 279.184 87.6602C279.184 87.4451 279.143 87.248 279.063 87.0688C278.991 86.8806 278.888 86.7194 278.753 86.585C278.619 86.4416 278.458 86.3341 278.27 86.2624C278.09 86.1818 277.889 86.1414 277.665 86.1414C277.387 86.1414 277.141 86.2042 276.926 86.3296C276.711 86.4461 276.527 86.5939 276.375 86.7731L274.668 85.9936L275.205 81.3971H280.38V82.9427H276.67L276.321 85.0931L276.428 85.12C276.608 84.9677 276.827 84.8378 277.087 84.7302C277.347 84.6227 277.66 84.569 278.028 84.569C278.413 84.569 278.78 84.6451 279.13 84.7974C279.479 84.9408 279.788 85.1469 280.057 85.4157C280.326 85.6845 280.541 86.0115 280.702 86.3968C280.864 86.7731 280.944 87.1942 280.944 87.6602C280.944 88.1171 280.864 88.5382 280.702 88.9235C280.541 89.3088 280.313 89.6403 280.017 89.9181C279.73 90.1958 279.385 90.4154 278.982 90.5766C278.588 90.729 278.153 90.8051 277.678 90.8051Z" fill="#B5B7CF"/>
<path d="M83.6347 127.82C89.8755 127.82 94.9347 122.761 94.9347 116.52C94.9347 110.279 89.8755 105.22 83.6347 105.22C77.3939 105.22 72.3347 110.279 72.3347 116.52C72.3347 122.761 77.3939 127.82 83.6347 127.82Z" fill="#2D2D2D"/>
<path d="M80.946 120.035L84.7764 113.194L84.736 113.114H80.5024L80.5293 111.447H86.7655V113.194L82.4244 120.855L80.946 120.035Z" fill="#B5B7CF"/>
<path d="M115.985 127.82C122.226 127.82 127.285 122.761 127.285 116.52C127.285 110.279 122.226 105.22 115.985 105.22C109.744 105.22 104.685 110.279 104.685 116.52C104.685 122.761 109.744 127.82 115.985 127.82Z" fill="#2D2D2D"/>
<path d="M115.985 120.855C115.493 120.855 115.04 120.783 114.628 120.64C114.225 120.497 113.875 120.304 113.58 120.062C113.284 119.811 113.056 119.52 112.894 119.188C112.733 118.848 112.652 118.481 112.652 118.086C112.652 117.818 112.688 117.567 112.76 117.334C112.841 117.101 112.944 116.89 113.069 116.702C113.203 116.514 113.356 116.348 113.526 116.205C113.696 116.061 113.875 115.94 114.064 115.842V115.734C113.768 115.537 113.508 115.277 113.284 114.955C113.069 114.632 112.961 114.256 112.961 113.826C112.961 113.459 113.038 113.118 113.19 112.804C113.342 112.482 113.553 112.204 113.822 111.971C114.09 111.738 114.409 111.559 114.776 111.434C115.143 111.299 115.546 111.232 115.985 111.232C116.425 111.232 116.828 111.299 117.195 111.434C117.562 111.559 117.881 111.738 118.149 111.971C118.418 112.204 118.629 112.482 118.781 112.804C118.933 113.118 119.009 113.459 119.009 113.826C119.009 114.256 118.897 114.632 118.673 114.955C118.458 115.277 118.203 115.537 117.907 115.734V115.842C118.096 115.94 118.275 116.061 118.445 116.205C118.615 116.348 118.763 116.514 118.889 116.702C119.023 116.89 119.126 117.101 119.198 117.334C119.278 117.567 119.319 117.818 119.319 118.086C119.319 118.481 119.238 118.848 119.077 119.188C118.915 119.52 118.687 119.811 118.391 120.062C118.096 120.304 117.742 120.497 117.329 120.64C116.926 120.783 116.478 120.855 115.985 120.855ZM115.985 115.076C116.362 115.076 116.675 114.973 116.926 114.767C117.177 114.552 117.303 114.274 117.303 113.933C117.303 113.584 117.177 113.311 116.926 113.114C116.675 112.908 116.362 112.804 115.985 112.804C115.609 112.804 115.296 112.908 115.045 113.114C114.794 113.311 114.668 113.584 114.668 113.933C114.668 114.274 114.794 114.552 115.045 114.767C115.296 114.973 115.609 115.076 115.985 115.076ZM115.985 119.229C116.442 119.229 116.819 119.112 117.114 118.879C117.41 118.637 117.558 118.315 117.558 117.912C117.558 117.724 117.518 117.553 117.437 117.401C117.356 117.24 117.244 117.101 117.101 116.984C116.967 116.868 116.801 116.778 116.604 116.716C116.416 116.653 116.209 116.621 115.985 116.621C115.761 116.621 115.551 116.653 115.354 116.716C115.166 116.778 115 116.868 114.857 116.984C114.722 117.101 114.615 117.24 114.534 117.401C114.453 117.553 114.413 117.724 114.413 117.912C114.413 118.315 114.561 118.637 114.857 118.879C115.152 119.112 115.529 119.229 115.985 119.229Z" fill="#B5B7CF"/>
<path d="M148.335 127.82C154.575 127.82 159.635 122.761 159.635 116.52C159.635 110.279 154.575 105.22 148.335 105.22C142.094 105.22 137.035 110.279 137.035 116.52C137.035 122.761 142.094 127.82 148.335 127.82Z" fill="#2D2D2D"/>
<path d="M147.821 117.347C147.471 117.347 147.131 117.276 146.799 117.132C146.468 116.989 146.172 116.787 145.912 116.527C145.653 116.259 145.442 115.945 145.281 115.587C145.128 115.219 145.052 114.816 145.052 114.377C145.052 113.92 145.142 113.499 145.321 113.114C145.5 112.719 145.738 112.383 146.033 112.106C146.338 111.828 146.683 111.613 147.068 111.46C147.462 111.299 147.875 111.219 148.305 111.219C148.798 111.219 149.246 111.308 149.649 111.487C150.061 111.658 150.41 111.891 150.697 112.186C150.993 112.473 151.217 112.813 151.369 113.208C151.53 113.593 151.611 114.001 151.611 114.431C151.611 115.049 151.486 115.618 151.235 116.138C150.993 116.648 150.684 117.172 150.307 117.71L148.076 120.895L146.719 119.968L148.6 117.293L148.533 117.213C148.327 117.302 148.09 117.347 147.821 117.347ZM148.332 112.845C148.126 112.845 147.928 112.881 147.74 112.952C147.561 113.024 147.4 113.127 147.256 113.261C147.113 113.396 146.997 113.557 146.907 113.745C146.826 113.924 146.786 114.126 146.786 114.35C146.786 114.583 146.826 114.794 146.907 114.982C146.997 115.161 147.113 115.318 147.256 115.452C147.4 115.587 147.561 115.69 147.74 115.761C147.928 115.833 148.126 115.869 148.332 115.869C148.529 115.869 148.721 115.833 148.91 115.761C149.098 115.69 149.263 115.587 149.407 115.452C149.559 115.318 149.676 115.161 149.756 114.982C149.846 114.794 149.891 114.583 149.891 114.35C149.891 114.126 149.846 113.924 149.756 113.745C149.676 113.557 149.559 113.396 149.407 113.261C149.263 113.127 149.098 113.024 148.91 112.952C148.721 112.881 148.529 112.845 148.332 112.845Z" fill="#B5B7CF"/>
<path d="M180.685 127.82C186.926 127.82 191.985 122.761 191.985 116.52C191.985 110.279 186.926 105.22 180.685 105.22C174.444 105.22 169.385 110.279 169.385 116.52C169.385 122.761 174.444 127.82 180.685 127.82Z" fill="#2D2D2D"/>
<path d="M176.194 120.64V113.517L174.567 114.202L173.922 112.71L176.624 111.447H177.954V120.64H176.194ZM183.53 120.855C182.938 120.855 182.405 120.734 181.93 120.492C181.455 120.241 181.048 119.901 180.707 119.471C180.376 119.041 180.12 118.534 179.941 117.952C179.762 117.361 179.672 116.724 179.672 116.044C179.672 115.363 179.762 114.731 179.941 114.148C180.12 113.557 180.376 113.046 180.707 112.616C181.048 112.186 181.455 111.85 181.93 111.608C182.405 111.357 182.938 111.232 183.53 111.232C184.121 111.232 184.654 111.357 185.129 111.608C185.604 111.85 186.007 112.186 186.339 112.616C186.679 113.046 186.939 113.557 187.118 114.148C187.297 114.731 187.387 115.363 187.387 116.044C187.387 116.724 187.297 117.361 187.118 117.952C186.939 118.534 186.679 119.041 186.339 119.471C186.007 119.901 185.604 120.241 185.129 120.492C184.654 120.734 184.121 120.855 183.53 120.855ZM183.53 119.188C183.852 119.188 184.143 119.112 184.403 118.96C184.663 118.799 184.883 118.579 185.062 118.301C185.25 118.015 185.389 117.679 185.478 117.293C185.577 116.908 185.626 116.492 185.626 116.044C185.626 115.587 185.577 115.17 185.478 114.794C185.389 114.408 185.25 114.077 185.062 113.799C184.883 113.512 184.663 113.293 184.403 113.14C184.143 112.979 183.852 112.899 183.53 112.899C183.198 112.899 182.902 112.979 182.643 113.14C182.383 113.293 182.163 113.512 181.984 113.799C181.805 114.077 181.666 114.408 181.567 114.794C181.478 115.17 181.433 115.587 181.433 116.044C181.433 116.492 181.478 116.908 181.567 117.293C181.666 117.679 181.805 118.015 181.984 118.301C182.163 118.579 182.383 118.799 182.643 118.96C182.902 119.112 183.198 119.188 183.53 119.188Z" fill="#B5B7CF"/>
<path d="M213.035 127.82C219.275 127.82 224.335 122.761 224.335 116.52C224.335 110.279 219.275 105.22 213.035 105.22C206.794 105.22 201.735 110.279 201.735 116.52C201.735 122.761 206.794 127.82 213.035 127.82Z" fill="#2D2D2D"/>
<path d="M210.144 120.64V113.517L208.517 114.202L207.872 112.71L210.574 111.447H211.904V120.64H210.144ZM215.84 120.64V113.517L214.214 114.202L213.569 112.71L216.27 111.447H217.601V120.64H215.84Z" fill="#B5B7CF"/>
<path d="M245.385 127.82C251.626 127.82 256.685 122.761 256.685 116.52C256.685 110.279 251.626 105.22 245.385 105.22C239.144 105.22 234.085 110.279 234.085 116.52C234.085 122.761 239.144 127.82 245.385 127.82Z" fill="#2D2D2D"/>
<path d="M241.614 120.64V113.517L239.987 114.202L239.342 112.71L242.044 111.447H243.374V120.64H241.614ZM245.25 120.64V119.041C245.779 118.521 246.267 118.037 246.715 117.589C246.904 117.401 247.096 117.208 247.293 117.011C247.49 116.814 247.674 116.63 247.844 116.46C248.015 116.29 248.167 116.138 248.301 116.003C248.436 115.86 248.539 115.748 248.61 115.667C248.754 115.497 248.879 115.345 248.987 115.21C249.103 115.076 249.193 114.946 249.256 114.82C249.327 114.686 249.381 114.556 249.417 114.431C249.453 114.296 249.471 114.153 249.471 114.001C249.471 113.705 249.354 113.45 249.121 113.235C248.888 113.011 248.57 112.899 248.167 112.899C247.764 112.899 247.45 113.015 247.226 113.248C247.002 113.472 246.85 113.727 246.769 114.014L245.17 113.356C245.241 113.114 245.358 112.867 245.519 112.616C245.681 112.356 245.887 112.128 246.137 111.931C246.388 111.725 246.684 111.559 247.025 111.434C247.374 111.299 247.764 111.232 248.194 111.232C248.66 111.232 249.081 111.304 249.457 111.447C249.833 111.581 250.152 111.77 250.411 112.012C250.671 112.253 250.873 112.54 251.016 112.872C251.16 113.194 251.231 113.544 251.231 113.92C251.231 114.493 251.088 115.022 250.801 115.506C250.523 115.981 250.183 116.424 249.78 116.836L248.624 117.992C248.319 118.297 247.974 118.637 247.589 119.014L247.643 119.094H251.366V120.64H245.25Z" fill="#B5B7CF"/>
<path d="M277.735 127.82C283.976 127.82 289.035 122.761 289.035 116.52C289.035 110.279 283.976 105.22 277.735 105.22C271.494 105.22 266.435 110.279 266.435 116.52C266.435 122.761 271.494 127.82 277.735 127.82Z" fill="#2D2D2D"/>
<path d="M273.934 120.64V113.517L272.307 114.202L271.662 112.71L274.364 111.447H275.694V120.64H273.934ZM280.598 120.855C280.221 120.855 279.858 120.806 279.509 120.707C279.169 120.609 278.855 120.461 278.568 120.264C278.281 120.058 278.026 119.802 277.802 119.498C277.587 119.193 277.421 118.839 277.305 118.436L278.958 117.777C279.074 118.225 279.272 118.566 279.549 118.799C279.827 119.023 280.177 119.135 280.598 119.135C280.786 119.135 280.965 119.108 281.135 119.054C281.305 118.991 281.453 118.906 281.579 118.799C281.704 118.691 281.803 118.566 281.874 118.422C281.955 118.27 281.995 118.1 281.995 117.912C281.995 117.517 281.848 117.208 281.552 116.984C281.265 116.76 280.866 116.648 280.356 116.648H279.563V115.049H280.289C280.468 115.049 280.642 115.027 280.813 114.982C280.983 114.937 281.131 114.87 281.256 114.78C281.391 114.682 281.494 114.561 281.565 114.417C281.646 114.265 281.686 114.09 281.686 113.893C281.686 113.588 281.579 113.342 281.364 113.154C281.149 112.957 280.857 112.858 280.49 112.858C280.096 112.858 279.791 112.966 279.576 113.181C279.37 113.387 279.227 113.62 279.146 113.88L277.533 113.221C277.614 112.997 277.735 112.769 277.896 112.536C278.057 112.294 278.259 112.079 278.501 111.891C278.752 111.693 279.043 111.537 279.375 111.42C279.706 111.295 280.087 111.232 280.517 111.232C280.956 111.232 281.355 111.295 281.713 111.42C282.081 111.546 282.394 111.72 282.654 111.944C282.914 112.159 283.115 112.419 283.259 112.724C283.402 113.02 283.474 113.342 283.474 113.692C283.474 113.96 283.438 114.202 283.366 114.417C283.304 114.632 283.218 114.825 283.111 114.995C283.003 115.165 282.878 115.313 282.735 115.439C282.6 115.555 282.461 115.649 282.318 115.721V115.828C282.748 115.999 283.102 116.272 283.38 116.648C283.666 117.025 283.81 117.5 283.81 118.073C283.81 118.476 283.734 118.848 283.581 119.188C283.429 119.52 283.209 119.811 282.923 120.062C282.645 120.313 282.309 120.506 281.915 120.64C281.521 120.783 281.081 120.855 280.598 120.855Z" fill="#B5B7CF"/>
<path d="M83.6347 157.86C89.8755 157.86 94.9347 152.801 94.9347 146.56C94.9347 140.319 89.8755 135.26 83.6347 135.26C77.3939 135.26 72.3347 140.319 72.3347 146.56C72.3347 152.801 77.3939 157.86 83.6347 157.86Z" fill="#2D2D2D"/>
<path d="M79.4537 150.68V143.557L77.8275 144.242L77.1824 142.75L79.8838 141.487H81.2144V150.68H79.4537ZM87.1257 150.68V148.987H82.8786V147.562L86.9644 141.487H88.8729V147.347H90.0287V148.987H88.8729V150.68H87.1257ZM87.1257 144.108H87.0181L84.8274 147.347H87.1257V144.108Z" fill="#B5B7CF"/>
<path d="M115.985 157.86C122.226 157.86 127.285 152.801 127.285 146.56C127.285 140.319 122.226 135.26 115.985 135.26C109.744 135.26 104.685 140.319 104.685 146.56C104.685 152.801 109.744 157.86 115.985 157.86Z" fill="#2D2D2D"/>
<path d="M112.014 150.68V143.557L110.388 144.242L109.742 142.75L112.444 141.487H113.774V150.68H112.014ZM118.836 150.895C118.486 150.895 118.137 150.846 117.788 150.747C117.447 150.649 117.129 150.496 116.833 150.29C116.538 150.084 116.278 149.829 116.054 149.524C115.839 149.211 115.677 148.839 115.57 148.409L117.169 147.79C117.268 148.238 117.456 148.597 117.734 148.866C118.02 149.134 118.383 149.269 118.822 149.269C119.037 149.269 119.235 149.233 119.414 149.161C119.602 149.081 119.763 148.973 119.898 148.839C120.041 148.704 120.148 148.548 120.22 148.368C120.301 148.18 120.341 147.974 120.341 147.75C120.341 147.535 120.301 147.338 120.22 147.159C120.148 146.971 120.045 146.809 119.911 146.675C119.777 146.532 119.615 146.424 119.427 146.352C119.248 146.272 119.046 146.231 118.822 146.231C118.545 146.231 118.298 146.294 118.083 146.42C117.868 146.536 117.684 146.684 117.532 146.863L115.825 146.084L116.363 141.487H121.537V143.033H117.828L117.478 145.183L117.586 145.21C117.765 145.058 117.985 144.928 118.244 144.82C118.504 144.713 118.818 144.659 119.185 144.659C119.571 144.659 119.938 144.735 120.287 144.887C120.637 145.031 120.946 145.237 121.215 145.506C121.484 145.774 121.699 146.101 121.86 146.487C122.021 146.863 122.102 147.284 122.102 147.75C122.102 148.207 122.021 148.628 121.86 149.013C121.699 149.399 121.47 149.73 121.174 150.008C120.888 150.286 120.543 150.505 120.14 150.667C119.745 150.819 119.311 150.895 118.836 150.895Z" fill="#B5B7CF"/>
<path d="M148.335 157.86C154.575 157.86 159.635 152.801 159.635 146.56C159.635 140.319 154.575 135.26 148.335 135.26C142.094 135.26 137.035 140.319 137.035 146.56C137.035 152.801 142.094 157.86 148.335 157.86Z" fill="#2D2D2D"/>
<path d="M144.444 150.68V143.557L142.817 144.242L142.172 142.75L144.874 141.487H146.204V150.68H144.444ZM151.724 144.766C152.074 144.766 152.414 144.843 152.746 144.995C153.077 145.138 153.373 145.34 153.633 145.6C153.893 145.86 154.099 146.173 154.251 146.541C154.412 146.908 154.493 147.311 154.493 147.75C154.493 148.207 154.403 148.628 154.224 149.013C154.045 149.399 153.803 149.73 153.498 150.008C153.203 150.286 152.858 150.505 152.464 150.667C152.078 150.819 151.671 150.895 151.24 150.895C150.739 150.895 150.286 150.81 149.883 150.64C149.48 150.461 149.13 150.228 148.835 149.941C148.548 149.645 148.324 149.305 148.163 148.919C148.01 148.525 147.934 148.113 147.934 147.683C147.934 147.065 148.055 146.5 148.297 145.989C148.548 145.47 148.862 144.941 149.238 144.404L151.469 141.218L152.826 142.159L150.945 144.82L151.012 144.901C151.218 144.811 151.456 144.766 151.724 144.766ZM151.214 149.269C151.411 149.269 151.603 149.233 151.792 149.161C151.98 149.09 152.145 148.987 152.289 148.852C152.432 148.718 152.544 148.561 152.625 148.382C152.714 148.194 152.759 147.988 152.759 147.764C152.759 147.54 152.714 147.333 152.625 147.145C152.544 146.957 152.432 146.796 152.289 146.661C152.145 146.527 151.98 146.424 151.792 146.352C151.603 146.281 151.411 146.245 151.214 146.245C151.008 146.245 150.81 146.281 150.622 146.352C150.443 146.424 150.277 146.527 150.125 146.661C149.982 146.796 149.865 146.957 149.776 147.145C149.695 147.333 149.655 147.54 149.655 147.764C149.655 147.988 149.695 148.194 149.776 148.382C149.865 148.561 149.982 148.718 150.125 148.852C150.277 148.987 150.443 149.09 150.622 149.161C150.81 149.233 151.008 149.269 151.214 149.269Z" fill="#B5B7CF"/>
<path d="M180.685 157.86C186.926 157.86 191.985 152.801 191.985 146.56C191.985 140.319 186.926 135.26 180.685 135.26C174.444 135.26 169.385 140.319 169.385 146.56C169.385 152.801 174.444 157.86 180.685 157.86Z" fill="#2D2D2D"/>
<path d="M176.974 150.68V143.557L175.348 144.242L174.702 142.75L177.404 141.487H178.734V150.68H176.974ZM180.842 150.075L184.673 143.234L184.632 143.154H180.399L180.426 141.487H186.662V143.234L182.321 150.895L180.842 150.075Z" fill="#B5B7CF"/>
<path d="M213.035 157.86C219.275 157.86 224.335 152.801 224.335 146.56C224.335 140.319 219.275 135.26 213.035 135.26C206.794 135.26 201.735 140.319 201.735 146.56C201.735 152.801 206.794 157.86 213.035 157.86Z" fill="#2D2D2D"/>
<path d="M209.124 150.68V143.557L207.497 144.242L206.852 142.75L209.554 141.487H210.884V150.68H209.124ZM215.882 150.895C215.389 150.895 214.936 150.823 214.524 150.68C214.121 150.537 213.772 150.344 213.476 150.102C213.18 149.851 212.952 149.56 212.79 149.229C212.629 148.888 212.549 148.521 212.549 148.126C212.549 147.858 212.584 147.607 212.656 147.374C212.737 147.141 212.84 146.93 212.965 146.742C213.1 146.554 213.252 146.388 213.422 146.245C213.592 146.101 213.772 145.981 213.96 145.882V145.774C213.664 145.577 213.404 145.317 213.18 144.995C212.965 144.672 212.858 144.296 212.858 143.866C212.858 143.499 212.934 143.158 213.086 142.845C213.238 142.522 213.449 142.244 213.718 142.011C213.987 141.778 214.305 141.599 214.672 141.474C215.039 141.339 215.443 141.272 215.882 141.272C216.321 141.272 216.724 141.339 217.091 141.474C217.459 141.599 217.777 141.778 218.046 142.011C218.314 142.244 218.525 142.522 218.677 142.845C218.83 143.158 218.906 143.499 218.906 143.866C218.906 144.296 218.794 144.672 218.57 144.995C218.355 145.317 218.099 145.577 217.804 145.774V145.882C217.992 145.981 218.171 146.101 218.341 146.245C218.511 146.388 218.659 146.554 218.785 146.742C218.919 146.93 219.022 147.141 219.094 147.374C219.174 147.607 219.215 147.858 219.215 148.126C219.215 148.521 219.134 148.888 218.973 149.229C218.812 149.56 218.583 149.851 218.287 150.102C217.992 150.344 217.638 150.537 217.226 150.68C216.822 150.823 216.374 150.895 215.882 150.895ZM215.882 145.116C216.258 145.116 216.572 145.013 216.822 144.807C217.073 144.592 217.199 144.314 217.199 143.973C217.199 143.624 217.073 143.351 216.822 143.154C216.572 142.948 216.258 142.845 215.882 142.845C215.505 142.845 215.192 142.948 214.941 143.154C214.69 143.351 214.565 143.624 214.565 143.973C214.565 144.314 214.69 144.592 214.941 144.807C215.192 145.013 215.505 145.116 215.882 145.116ZM215.882 149.269C216.339 149.269 216.715 149.152 217.011 148.919C217.306 148.677 217.454 148.355 217.454 147.952C217.454 147.764 217.414 147.593 217.333 147.441C217.253 147.28 217.141 147.141 216.997 147.024C216.863 146.908 216.697 146.818 216.5 146.756C216.312 146.693 216.106 146.661 215.882 146.661C215.658 146.661 215.447 146.693 215.25 146.756C215.062 146.818 214.896 146.908 214.753 147.024C214.618 147.141 214.511 147.28 214.43 147.441C214.35 147.593 214.309 147.764 214.309 147.952C214.309 148.355 214.457 148.677 214.753 148.919C215.048 149.152 215.425 149.269 215.882 149.269Z" fill="#B5B7CF"/>
<path d="M245.385 157.86C251.626 157.86 256.685 152.801 256.685 146.56C256.685 140.319 251.626 135.26 245.385 135.26C239.144 135.26 234.085 140.319 234.085 146.56C234.085 152.801 239.144 157.86 245.385 157.86Z" fill="#2D2D2D"/>
<path d="M241.524 150.68V143.557L239.898 144.242L239.252 142.75L241.954 141.487H243.284V150.68H241.524ZM247.717 147.387C247.368 147.387 247.027 147.316 246.696 147.172C246.364 147.029 246.069 146.827 245.809 146.567C245.549 146.299 245.338 145.985 245.177 145.627C245.025 145.259 244.949 144.856 244.949 144.417C244.949 143.96 245.038 143.539 245.217 143.154C245.397 142.759 245.634 142.423 245.93 142.146C246.234 141.868 246.579 141.653 246.965 141.501C247.359 141.339 247.771 141.259 248.201 141.259C248.694 141.259 249.142 141.348 249.545 141.527C249.957 141.698 250.307 141.931 250.593 142.226C250.889 142.513 251.113 142.853 251.265 143.248C251.427 143.633 251.507 144.041 251.507 144.471C251.507 145.089 251.382 145.658 251.131 146.178C250.889 146.688 250.58 147.213 250.204 147.75L247.973 150.935L246.615 150.008L248.497 147.333L248.43 147.253C248.224 147.342 247.986 147.387 247.717 147.387ZM248.228 142.885C248.022 142.885 247.825 142.921 247.637 142.992C247.457 143.064 247.296 143.167 247.153 143.301C247.009 143.436 246.893 143.597 246.803 143.785C246.723 143.965 246.682 144.166 246.682 144.39C246.682 144.623 246.723 144.834 246.803 145.022C246.893 145.201 247.009 145.358 247.153 145.492C247.296 145.627 247.457 145.73 247.637 145.801C247.825 145.873 248.022 145.909 248.228 145.909C248.425 145.909 248.618 145.873 248.806 145.801C248.994 145.73 249.16 145.627 249.303 145.492C249.456 145.358 249.572 145.201 249.653 145.022C249.742 144.834 249.787 144.623 249.787 144.39C249.787 144.166 249.742 143.965 249.653 143.785C249.572 143.597 249.456 143.436 249.303 143.301C249.16 143.167 248.994 143.064 248.806 142.992C248.618 142.921 248.425 142.885 248.228 142.885Z" fill="#B5B7CF"/>
<path d="M277.735 157.86C283.976 157.86 289.035 152.801 289.035 146.56C289.035 140.319 283.976 135.26 277.735 135.26C271.494 135.26 266.435 140.319 266.435 146.56C266.435 152.801 271.494 157.86 277.735 157.86Z" fill="#2D2D2D"/>
<path d="M270.243 150.68V149.081C270.772 148.561 271.26 148.077 271.708 147.629C271.896 147.441 272.089 147.248 272.286 147.051C272.483 146.854 272.667 146.67 272.837 146.5C273.007 146.33 273.159 146.178 273.294 146.043C273.428 145.9 273.531 145.788 273.603 145.707C273.746 145.537 273.872 145.385 273.979 145.25C274.096 145.116 274.185 144.986 274.248 144.861C274.32 144.726 274.374 144.596 274.409 144.471C274.445 144.336 274.463 144.193 274.463 144.041C274.463 143.745 274.347 143.49 274.114 143.275C273.881 143.051 273.563 142.939 273.159 142.939C272.756 142.939 272.443 143.055 272.219 143.288C271.995 143.512 271.842 143.767 271.762 144.054L270.162 143.396C270.234 143.154 270.351 142.907 270.512 142.656C270.673 142.397 270.879 142.168 271.13 141.971C271.381 141.765 271.677 141.599 272.017 141.474C272.367 141.339 272.756 141.272 273.186 141.272C273.652 141.272 274.073 141.344 274.45 141.487C274.826 141.621 275.144 141.81 275.404 142.052C275.664 142.293 275.865 142.58 276.009 142.912C276.152 143.234 276.224 143.584 276.224 143.96C276.224 144.533 276.08 145.062 275.794 145.546C275.516 146.021 275.175 146.464 274.772 146.877L273.616 148.032C273.312 148.337 272.967 148.677 272.582 149.054L272.635 149.134H276.358V150.68H270.243ZM281.397 150.895C280.806 150.895 280.273 150.774 279.798 150.532C279.323 150.281 278.915 149.941 278.575 149.511C278.243 149.081 277.988 148.574 277.809 147.992C277.629 147.401 277.54 146.765 277.54 146.084C277.54 145.403 277.629 144.771 277.809 144.189C277.988 143.597 278.243 143.086 278.575 142.656C278.915 142.226 279.323 141.89 279.798 141.648C280.273 141.397 280.806 141.272 281.397 141.272C281.989 141.272 282.522 141.397 282.997 141.648C283.471 141.89 283.875 142.226 284.206 142.656C284.547 143.086 284.806 143.597 284.986 144.189C285.165 144.771 285.254 145.403 285.254 146.084C285.254 146.765 285.165 147.401 284.986 147.992C284.806 148.574 284.547 149.081 284.206 149.511C283.875 149.941 283.471 150.281 282.997 150.532C282.522 150.774 281.989 150.895 281.397 150.895ZM281.397 149.229C281.72 149.229 282.011 149.152 282.271 149C282.531 148.839 282.75 148.619 282.929 148.341C283.117 148.055 283.256 147.719 283.346 147.333C283.445 146.948 283.494 146.532 283.494 146.084C283.494 145.627 283.445 145.21 283.346 144.834C283.256 144.448 283.117 144.117 282.929 143.839C282.75 143.552 282.531 143.333 282.271 143.181C282.011 143.019 281.72 142.939 281.397 142.939C281.066 142.939 280.77 143.019 280.51 143.181C280.25 143.333 280.031 143.552 279.852 143.839C279.672 144.117 279.533 144.448 279.435 144.834C279.345 145.21 279.301 145.627 279.301 146.084C279.301 146.532 279.345 146.948 279.435 147.333C279.533 147.719 279.672 148.055 279.852 148.341C280.031 148.619 280.25 148.839 280.51 149C280.77 149.152 281.066 149.229 281.397 149.229Z" fill="#B5B7CF"/>
<path d="M259.155 146.74C259.155 158.91 244.165 164.87 235.555 156.45C230.105 151.42 230.105 142.06 235.555 137.02C244.175 128.6 259.145 134.56 259.155 146.73V146.74ZM258.265 146.74C258.265 135.44 244.205 129.88 236.275 137.76C231.275 142.44 231.275 151.04 236.275 155.72C244.205 163.59 258.275 158.03 258.275 146.74H258.265Z" fill="#F7CDDC"/>
<path d="M226.835 146.74C226.835 158.91 211.845 164.87 203.235 156.45C197.785 151.42 197.785 142.06 203.235 137.02C211.855 128.6 226.825 134.56 226.835 146.73V146.74ZM225.945 146.74C225.945 135.44 211.885 129.88 203.955 137.76C198.955 142.44 198.955 151.04 203.955 155.72C211.885 163.59 225.955 158.03 225.955 146.74H225.945Z" fill="#F7CDDC"/>
<path d="M194.515 146.74C194.515 158.91 179.525 164.87 170.915 156.45C165.465 151.42 165.465 142.06 170.915 137.02C179.535 128.6 194.505 134.56 194.515 146.73V146.74ZM193.625 146.74C193.625 135.44 179.565 129.88 171.635 137.76C166.635 142.44 166.635 151.04 171.635 155.72C179.565 163.59 193.635 158.03 193.635 146.74H193.625Z" fill="#F7CDDC"/>
<path d="M162.195 146.74C162.195 158.91 147.205 164.87 138.595 156.45C133.145 151.42 133.145 142.06 138.595 137.02C147.215 128.6 162.185 134.56 162.195 146.73V146.74ZM161.305 146.74C161.305 135.44 147.245 129.88 139.315 137.76C134.315 142.44 134.315 151.04 139.315 155.72C147.245 163.59 161.315 158.03 161.315 146.74H161.305Z" fill="#F7CDDC"/>
<path d="M129.865 146.74C129.865 158.91 114.875 164.87 106.265 156.45C100.815 151.42 100.815 142.06 106.265 137.02C114.885 128.6 129.855 134.56 129.865 146.73V146.74ZM128.975 146.74C128.975 135.44 114.915 129.88 106.985 137.76C101.985 142.44 101.985 151.04 106.985 155.72C114.915 163.59 128.985 158.03 128.985 146.74H128.975Z" fill="#F7CDDC"/>
<path d="M87.8213 187.132C93.613 184.807 96.4235 178.228 94.0988 172.436C91.7741 166.644 85.1944 163.834 79.4028 166.159C73.6111 168.483 70.8006 175.063 73.1253 180.855C75.45 186.646 82.0296 189.457 87.8213 187.132Z" fill="#2D2D2D"/>
<path d="M77.8031 180.73V179.131C78.3317 178.611 78.82 178.127 79.268 177.679C79.4562 177.491 79.6488 177.298 79.8459 177.101C80.0431 176.904 80.2267 176.721 80.397 176.55C80.5672 176.38 80.7195 176.228 80.8539 176.093C80.9883 175.95 81.0914 175.838 81.1631 175.757C81.3064 175.587 81.4319 175.435 81.5394 175.3C81.6559 175.166 81.7455 175.036 81.8082 174.911C81.8799 174.776 81.9336 174.646 81.9695 174.521C82.0053 174.386 82.0232 174.243 82.0232 174.091C82.0232 173.795 81.9067 173.54 81.6738 173.325C81.4408 173.101 81.1227 172.989 80.7195 172.989C80.3163 172.989 80.0027 173.105 79.7787 173.338C79.5547 173.562 79.4024 173.817 79.3218 174.104L77.7224 173.446C77.7941 173.204 77.9106 172.957 78.0719 172.706C78.2331 172.447 78.4392 172.218 78.6901 172.021C78.941 171.815 79.2367 171.649 79.5771 171.524C79.9266 171.389 80.3163 171.322 80.7464 171.322C81.2123 171.322 81.6335 171.394 82.0098 171.537C82.3861 171.672 82.7042 171.86 82.964 172.102C83.2239 172.344 83.4255 172.63 83.5688 172.962C83.7122 173.284 83.7839 173.634 83.7839 174.01C83.7839 174.584 83.6405 175.112 83.3538 175.596C83.076 176.071 82.7355 176.514 82.3323 176.927L81.1765 178.082C80.8719 178.387 80.5269 178.728 80.1416 179.104L80.1954 179.185H83.9183V180.73H77.8031ZM87.1863 180.73V173.607L85.56 174.292L84.9149 172.801L87.6164 171.537H88.9469V180.73H87.1863Z" fill="#B5B7CF"/>
<path d="M119.475 187.348C125.413 185.425 128.666 179.053 126.743 173.116C124.82 167.179 118.448 163.925 112.51 165.848C106.573 167.772 103.32 174.144 105.243 180.081C107.166 186.018 113.538 189.272 119.475 187.348Z" fill="#2D2D2D"/>
<path d="M109.273 180.73V179.131C109.802 178.611 110.29 178.127 110.738 177.679C110.926 177.491 111.119 177.298 111.316 177.101C111.513 176.904 111.697 176.721 111.867 176.55C112.037 176.38 112.19 176.228 112.324 176.093C112.458 175.95 112.561 175.838 112.633 175.757C112.776 175.587 112.902 175.435 113.009 175.3C113.126 175.166 113.215 175.036 113.278 174.911C113.35 174.776 113.404 174.646 113.439 174.521C113.475 174.386 113.493 174.243 113.493 174.091C113.493 173.795 113.377 173.54 113.144 173.325C112.911 173.101 112.593 172.989 112.19 172.989C111.786 172.989 111.473 173.105 111.249 173.338C111.025 173.562 110.872 173.817 110.792 174.104L109.192 173.446C109.264 173.204 109.381 172.957 109.542 172.706C109.703 172.447 109.909 172.218 110.16 172.021C110.411 171.815 110.707 171.649 111.047 171.524C111.397 171.389 111.786 171.322 112.216 171.322C112.682 171.322 113.103 171.394 113.48 171.537C113.856 171.672 114.174 171.86 114.434 172.102C114.694 172.344 114.895 172.63 115.039 172.962C115.182 173.284 115.254 173.634 115.254 174.01C115.254 174.584 115.11 175.112 114.824 175.596C114.546 176.071 114.206 176.514 113.802 176.927L112.646 178.082C112.342 178.387 111.997 178.728 111.612 179.104L111.665 179.185H115.388V180.73H109.273ZM116.597 180.73V179.131C117.125 178.611 117.614 178.127 118.062 177.679C118.25 177.491 118.443 177.298 118.64 177.101C118.837 176.904 119.02 176.721 119.191 176.55C119.361 176.38 119.513 176.228 119.648 176.093C119.782 175.95 119.885 175.838 119.957 175.757C120.1 175.587 120.226 175.435 120.333 175.3C120.45 175.166 120.539 175.036 120.602 174.911C120.674 174.776 120.727 174.646 120.763 174.521C120.799 174.386 120.817 174.243 120.817 174.091C120.817 173.795 120.7 173.54 120.467 173.325C120.235 173.101 119.916 172.989 119.513 172.989C119.11 172.989 118.796 173.105 118.572 173.338C118.348 173.562 118.196 173.817 118.115 174.104L116.516 173.446C116.588 173.204 116.704 172.957 116.866 172.706C117.027 172.447 117.233 172.218 117.484 172.021C117.735 171.815 118.03 171.649 118.371 171.524C118.72 171.389 119.11 171.322 119.54 171.322C120.006 171.322 120.427 171.394 120.803 171.537C121.18 171.672 121.498 171.86 121.758 172.102C122.018 172.344 122.219 172.63 122.363 172.962C122.506 173.284 122.578 173.634 122.578 174.01C122.578 174.584 122.434 175.112 122.147 175.596C121.87 176.071 121.529 176.514 121.126 176.927L119.97 178.082C119.666 178.387 119.321 178.728 118.935 179.104L118.989 179.185H122.712V180.73H116.597Z" fill="#B5B7CF"/>
<path d="M152.525 187.131C158.317 184.806 161.127 178.227 158.802 172.435C156.478 166.643 149.898 163.833 144.106 166.158C138.315 168.482 135.504 175.062 137.829 180.854C140.154 186.645 146.733 189.456 152.525 187.131Z" fill="#2D2D2D"/>
<path d="M141.523 180.73V179.131C142.052 178.611 142.54 178.127 142.988 177.679C143.176 177.491 143.369 177.298 143.566 177.101C143.763 176.904 143.947 176.721 144.117 176.55C144.287 176.38 144.44 176.228 144.574 176.093C144.708 175.95 144.811 175.838 144.883 175.757C145.026 175.587 145.152 175.435 145.259 175.3C145.376 175.166 145.465 175.036 145.528 174.911C145.6 174.776 145.654 174.646 145.689 174.521C145.725 174.386 145.743 174.243 145.743 174.091C145.743 173.795 145.627 173.54 145.394 173.325C145.161 173.101 144.843 172.989 144.44 172.989C144.036 172.989 143.723 173.105 143.499 173.338C143.275 173.562 143.122 173.817 143.042 174.104L141.442 173.446C141.514 173.204 141.631 172.957 141.792 172.706C141.953 172.447 142.159 172.218 142.41 172.021C142.661 171.815 142.957 171.649 143.297 171.524C143.647 171.389 144.036 171.322 144.466 171.322C144.932 171.322 145.353 171.394 145.73 171.537C146.106 171.672 146.424 171.86 146.684 172.102C146.944 172.344 147.145 172.63 147.289 172.962C147.432 173.284 147.504 173.634 147.504 174.01C147.504 174.584 147.36 175.112 147.074 175.596C146.796 176.071 146.456 176.514 146.052 176.927L144.896 178.082C144.592 178.387 144.247 178.728 143.862 179.104L143.915 179.185H147.638V180.73H141.523ZM152.005 180.945C151.629 180.945 151.266 180.896 150.917 180.797C150.576 180.699 150.262 180.551 149.976 180.354C149.689 180.148 149.434 179.892 149.21 179.588C148.995 179.283 148.829 178.929 148.712 178.526L150.365 177.867C150.482 178.315 150.679 178.656 150.957 178.889C151.235 179.113 151.584 179.225 152.005 179.225C152.193 179.225 152.373 179.198 152.543 179.144C152.713 179.081 152.861 178.996 152.986 178.889C153.112 178.781 153.21 178.656 153.282 178.513C153.363 178.36 153.403 178.19 153.403 178.002C153.403 177.608 153.255 177.298 152.959 177.074C152.673 176.85 152.274 176.738 151.763 176.738H150.97V175.139H151.696C151.875 175.139 152.05 175.117 152.22 175.072C152.39 175.027 152.538 174.96 152.664 174.87C152.798 174.772 152.901 174.651 152.973 174.507C153.053 174.355 153.094 174.18 153.094 173.983C153.094 173.679 152.986 173.432 152.771 173.244C152.556 173.047 152.265 172.948 151.898 172.948C151.503 172.948 151.199 173.056 150.984 173.271C150.778 173.477 150.634 173.71 150.554 173.97L148.941 173.311C149.021 173.087 149.142 172.859 149.304 172.626C149.465 172.384 149.667 172.169 149.909 171.981C150.159 171.784 150.451 171.627 150.782 171.51C151.114 171.385 151.494 171.322 151.925 171.322C152.364 171.322 152.762 171.385 153.121 171.51C153.488 171.636 153.802 171.81 154.061 172.034C154.321 172.249 154.523 172.509 154.666 172.814C154.81 173.11 154.881 173.432 154.881 173.782C154.881 174.05 154.845 174.292 154.774 174.507C154.711 174.722 154.626 174.915 154.518 175.085C154.411 175.256 154.285 175.403 154.142 175.529C154.008 175.645 153.869 175.739 153.725 175.811V175.919C154.156 176.089 154.509 176.362 154.787 176.738C155.074 177.115 155.217 177.59 155.217 178.163C155.217 178.566 155.141 178.938 154.989 179.279C154.837 179.61 154.617 179.901 154.33 180.152C154.053 180.403 153.717 180.596 153.322 180.73C152.928 180.873 152.489 180.945 152.005 180.945Z" fill="#B5B7CF"/>
<path d="M185.431 186.878C191.093 184.253 193.554 177.534 190.929 171.873C188.303 166.211 181.585 163.75 175.923 166.376C170.262 169.001 167.8 175.72 170.426 181.381C173.052 187.043 179.77 189.504 185.431 186.878Z" fill="#2D2D2D"/>
<path d="M173.503 180.73V179.131C174.032 178.611 174.52 178.127 174.968 177.679C175.156 177.491 175.349 177.298 175.546 177.101C175.743 176.904 175.927 176.72 176.097 176.55C176.267 176.38 176.419 176.228 176.554 176.093C176.688 175.95 176.791 175.838 176.863 175.757C177.006 175.587 177.132 175.435 177.239 175.3C177.356 175.166 177.445 175.036 177.508 174.91C177.58 174.776 177.634 174.646 177.669 174.521C177.705 174.386 177.723 174.243 177.723 174.091C177.723 173.795 177.607 173.54 177.374 173.325C177.141 173.101 176.823 172.989 176.419 172.989C176.016 172.989 175.703 173.105 175.479 173.338C175.255 173.562 175.102 173.817 175.022 174.104L173.422 173.445C173.494 173.204 173.611 172.957 173.772 172.706C173.933 172.446 174.139 172.218 174.39 172.021C174.641 171.815 174.937 171.649 175.277 171.524C175.627 171.389 176.016 171.322 176.446 171.322C176.912 171.322 177.333 171.394 177.71 171.537C178.086 171.671 178.404 171.86 178.664 172.102C178.924 172.343 179.125 172.63 179.269 172.962C179.412 173.284 179.484 173.634 179.484 174.01C179.484 174.583 179.34 175.112 179.054 175.596C178.776 176.071 178.435 176.514 178.032 176.926L176.876 178.082C176.572 178.387 176.227 178.727 175.842 179.104L175.895 179.184H179.618V180.73H173.503ZM184.993 180.73V179.037H180.746V177.612L184.832 171.537H186.74V177.397H187.896V179.037H186.74V180.73H184.993ZM184.993 174.158H184.886L182.695 177.397H184.993V174.158Z" fill="#B5B7CF"/>
<path d="M217.229 187.14C223.02 184.816 225.831 178.236 223.506 172.444C221.181 166.653 214.602 163.842 208.81 166.167C203.018 168.492 200.208 175.071 202.533 180.863C204.857 186.655 211.437 189.465 217.229 187.14Z" fill="#2D2D2D"/>
<path d="M206.133 180.73V179.131C206.662 178.611 207.15 178.127 207.598 177.679C207.786 177.491 207.979 177.298 208.176 177.101C208.373 176.904 208.557 176.721 208.727 176.55C208.897 176.38 209.049 176.228 209.184 176.093C209.318 175.95 209.421 175.838 209.493 175.757C209.636 175.587 209.762 175.435 209.869 175.3C209.986 175.166 210.075 175.036 210.138 174.911C210.21 174.776 210.263 174.646 210.299 174.521C210.335 174.386 210.353 174.243 210.353 174.091C210.353 173.795 210.237 173.54 210.004 173.325C209.771 173.101 209.453 172.989 209.049 172.989C208.646 172.989 208.333 173.105 208.109 173.338C207.885 173.562 207.732 173.817 207.652 174.104L206.052 173.446C206.124 173.204 206.24 172.957 206.402 172.706C206.563 172.447 206.769 172.218 207.02 172.021C207.271 171.815 207.566 171.649 207.907 171.524C208.256 171.389 208.646 171.322 209.076 171.322C209.542 171.322 209.963 171.394 210.34 171.537C210.716 171.672 211.034 171.86 211.294 172.102C211.554 172.344 211.755 172.63 211.899 172.962C212.042 173.284 212.114 173.634 212.114 174.01C212.114 174.584 211.97 175.112 211.684 175.596C211.406 176.071 211.065 176.514 210.662 176.927L209.506 178.082C209.202 178.387 208.857 178.728 208.471 179.104L208.525 179.185H212.248V180.73H206.133ZM216.642 180.945C216.292 180.945 215.943 180.896 215.594 180.797C215.253 180.699 214.935 180.546 214.639 180.34C214.344 180.134 214.084 179.879 213.86 179.574C213.645 179.261 213.484 178.889 213.376 178.459L214.975 177.841C215.074 178.289 215.262 178.647 215.54 178.916C215.827 179.185 216.189 179.319 216.628 179.319C216.844 179.319 217.041 179.283 217.22 179.211C217.408 179.131 217.569 179.023 217.704 178.889C217.847 178.754 217.955 178.598 218.026 178.418C218.107 178.23 218.147 178.024 218.147 177.8C218.147 177.585 218.107 177.388 218.026 177.209C217.955 177.021 217.852 176.859 217.717 176.725C217.583 176.582 217.421 176.474 217.233 176.402C217.054 176.322 216.852 176.281 216.628 176.281C216.351 176.281 216.104 176.344 215.889 176.47C215.674 176.586 215.491 176.734 215.338 176.913L213.631 176.134L214.169 171.537H219.343V173.083H215.634L215.284 175.233L215.392 175.26C215.571 175.108 215.791 174.978 216.051 174.87C216.31 174.763 216.624 174.709 216.991 174.709C217.377 174.709 217.744 174.785 218.093 174.937C218.443 175.081 218.752 175.287 219.021 175.556C219.29 175.825 219.505 176.152 219.666 176.537C219.827 176.913 219.908 177.334 219.908 177.8C219.908 178.257 219.827 178.678 219.666 179.064C219.505 179.449 219.276 179.78 218.98 180.058C218.694 180.336 218.349 180.555 217.946 180.717C217.551 180.869 217.117 180.945 216.642 180.945Z" fill="#B5B7CF"/>
<path d="M249.58 187.14C255.372 184.815 258.183 178.235 255.858 172.444C253.533 166.652 246.953 163.842 241.162 166.166C235.37 168.491 232.56 175.071 234.884 180.862C237.209 186.654 243.789 189.465 249.58 187.14Z" fill="#2D2D2D"/>
<path d="M238.523 180.73V179.131C239.052 178.611 239.54 178.127 239.988 177.679C240.176 177.491 240.369 177.298 240.566 177.101C240.763 176.904 240.947 176.721 241.117 176.55C241.287 176.38 241.44 176.228 241.574 176.093C241.708 175.95 241.811 175.838 241.883 175.757C242.026 175.587 242.152 175.435 242.259 175.3C242.376 175.166 242.465 175.036 242.528 174.911C242.6 174.776 242.654 174.646 242.689 174.521C242.725 174.386 242.743 174.243 242.743 174.091C242.743 173.795 242.627 173.54 242.394 173.325C242.161 173.101 241.843 172.989 241.44 172.989C241.036 172.989 240.723 173.105 240.499 173.338C240.275 173.562 240.122 173.817 240.042 174.104L238.442 173.446C238.514 173.204 238.631 172.957 238.792 172.706C238.953 172.447 239.159 172.218 239.41 172.021C239.661 171.815 239.957 171.649 240.297 171.524C240.647 171.389 241.036 171.322 241.466 171.322C241.932 171.322 242.353 171.394 242.73 171.537C243.106 171.672 243.424 171.86 243.684 172.102C243.944 172.344 244.145 172.63 244.289 172.962C244.432 173.284 244.504 173.634 244.504 174.01C244.504 174.584 244.36 175.112 244.074 175.596C243.796 176.071 243.456 176.514 243.052 176.927L241.896 178.082C241.592 178.387 241.247 178.728 240.862 179.104L240.915 179.185H244.638V180.73H238.523ZM249.556 174.817C249.906 174.817 250.246 174.893 250.578 175.045C250.909 175.188 251.205 175.39 251.465 175.65C251.725 175.91 251.931 176.223 252.083 176.591C252.244 176.958 252.325 177.361 252.325 177.8C252.325 178.257 252.235 178.678 252.056 179.064C251.877 179.449 251.635 179.78 251.33 180.058C251.035 180.336 250.69 180.555 250.295 180.717C249.91 180.869 249.502 180.945 249.072 180.945C248.571 180.945 248.118 180.86 247.715 180.69C247.312 180.511 246.962 180.278 246.667 179.991C246.38 179.695 246.156 179.355 245.995 178.969C245.842 178.575 245.766 178.163 245.766 177.733C245.766 177.115 245.887 176.55 246.129 176.04C246.38 175.52 246.693 174.991 247.07 174.454L249.301 171.268L250.658 172.209L248.777 174.87L248.844 174.951C249.05 174.861 249.287 174.817 249.556 174.817ZM249.045 179.319C249.243 179.319 249.435 179.283 249.623 179.211C249.812 179.14 249.977 179.037 250.121 178.902C250.264 178.768 250.376 178.611 250.457 178.432C250.546 178.244 250.591 178.038 250.591 177.814C250.591 177.59 250.546 177.384 250.457 177.195C250.376 177.007 250.264 176.846 250.121 176.712C249.977 176.577 249.812 176.474 249.623 176.402C249.435 176.331 249.243 176.295 249.045 176.295C248.839 176.295 248.642 176.331 248.454 176.402C248.275 176.474 248.109 176.577 247.957 176.712C247.813 176.846 247.697 177.007 247.607 177.195C247.527 177.384 247.486 177.59 247.486 177.814C247.486 178.038 247.527 178.244 247.607 178.432C247.697 178.611 247.813 178.768 247.957 178.902C248.109 179.037 248.275 179.14 248.454 179.211C248.642 179.283 248.839 179.319 249.045 179.319Z" fill="#B5B7CF"/>
<path d="M280.494 187.559C286.546 186.036 290.217 179.895 288.693 173.843C287.17 167.791 281.029 164.12 274.977 165.643C268.925 167.167 265.254 173.308 266.777 179.36C268.301 185.412 274.442 189.083 280.494 187.559Z" fill="#2D2D2D"/>
<path d="M271.023 180.73V179.131C271.551 178.611 272.04 178.127 272.488 177.679C272.676 177.491 272.869 177.298 273.066 177.101C273.263 176.904 273.446 176.72 273.617 176.55C273.787 176.38 273.939 176.228 274.074 176.093C274.208 175.95 274.311 175.838 274.383 175.757C274.526 175.587 274.652 175.435 274.759 175.3C274.876 175.166 274.965 175.036 275.028 174.91C275.1 174.776 275.153 174.646 275.189 174.521C275.225 174.386 275.243 174.243 275.243 174.091C275.243 173.795 275.126 173.54 274.894 173.325C274.661 173.101 274.342 172.989 273.939 172.989C273.536 172.989 273.222 173.105 272.998 173.338C272.774 173.562 272.622 173.817 272.542 174.104L270.942 173.445C271.014 173.204 271.13 172.957 271.292 172.706C271.453 172.446 271.659 172.218 271.91 172.021C272.161 171.815 272.456 171.649 272.797 171.524C273.146 171.389 273.536 171.322 273.966 171.322C274.432 171.322 274.853 171.394 275.23 171.537C275.606 171.671 275.924 171.86 276.184 172.102C276.444 172.343 276.645 172.63 276.789 172.962C276.932 173.284 277.004 173.634 277.004 174.01C277.004 174.583 276.86 175.112 276.574 175.596C276.296 176.071 275.955 176.514 275.552 176.926L274.396 178.082C274.092 178.387 273.747 178.727 273.361 179.104L273.415 179.184H277.138V180.73H271.023ZM278.709 180.125L282.54 173.284L282.499 173.204H278.266L278.293 171.537H284.529V173.284L280.188 180.945L278.709 180.125Z" fill="#B5B7CF"/>
<path d="M83.6347 217.96C89.8755 217.96 94.9347 212.901 94.9347 206.66C94.9347 200.419 89.8755 195.36 83.6347 195.36C77.3939 195.36 72.3347 200.419 72.3347 206.66C72.3347 212.901 77.3939 217.96 83.6347 217.96Z" fill="#2D2D2D"/>
<path d="M76.713 210.78V209.181C77.2416 208.661 77.7299 208.177 78.1779 207.729C78.3661 207.541 78.5587 207.348 78.7558 207.151C78.953 206.954 79.1366 206.771 79.3069 206.6C79.4771 206.43 79.6294 206.278 79.7638 206.143C79.8982 206 80.0013 205.888 80.073 205.807C80.2163 205.637 80.3418 205.485 80.4493 205.35C80.5658 205.216 80.6554 205.086 80.7181 204.961C80.7898 204.826 80.8435 204.696 80.8794 204.571C80.9152 204.436 80.9331 204.293 80.9331 204.141C80.9331 203.845 80.8166 203.59 80.5837 203.375C80.3507 203.151 80.0326 203.039 79.6294 203.039C79.2262 203.039 78.9126 203.155 78.6886 203.388C78.4646 203.612 78.3123 203.868 78.2317 204.154L76.6323 203.496C76.704 203.254 76.8205 203.007 76.9818 202.756C77.143 202.497 77.3491 202.268 77.6 202.071C77.8509 201.865 78.1466 201.699 78.487 201.574C78.8365 201.439 79.2262 201.372 79.6563 201.372C80.1222 201.372 80.5434 201.444 80.9197 201.587C81.296 201.722 81.6141 201.91 81.8739 202.152C82.1338 202.394 82.3354 202.68 82.4787 203.012C82.6221 203.334 82.6938 203.684 82.6938 204.06C82.6938 204.634 82.5504 205.162 82.2637 205.646C81.9859 206.121 81.6454 206.564 81.2422 206.977L80.0864 208.132C79.7818 208.437 79.4368 208.778 79.0515 209.154L79.1053 209.235H82.8282V210.78H76.713ZM87.2892 210.995C86.7964 210.995 86.3439 210.924 85.9318 210.78C85.5286 210.637 85.1791 210.444 84.8834 210.202C84.5878 209.951 84.3593 209.66 84.198 209.329C84.0367 208.988 83.9561 208.621 83.9561 208.227C83.9561 207.958 83.9919 207.707 84.0636 207.474C84.1442 207.241 84.2473 207.03 84.3727 206.842C84.5071 206.654 84.6594 206.488 84.8297 206.345C84.9999 206.202 85.1791 206.081 85.3673 205.982V205.875C85.0716 205.677 84.8118 205.418 84.5878 205.095C84.3727 204.772 84.2652 204.396 84.2652 203.966C84.2652 203.599 84.3414 203.258 84.4937 202.945C84.646 202.622 84.8566 202.344 85.1254 202.111C85.3942 201.878 85.7122 201.699 86.0796 201.574C86.447 201.439 86.8502 201.372 87.2892 201.372C87.7282 201.372 88.1314 201.439 88.4988 201.574C88.8662 201.699 89.1842 201.878 89.453 202.111C89.7218 202.344 89.9324 202.622 90.0847 202.945C90.237 203.258 90.3132 203.599 90.3132 203.966C90.3132 204.396 90.2012 204.772 89.9772 205.095C89.7622 205.418 89.5068 205.677 89.2111 205.875V205.982C89.3993 206.081 89.5785 206.202 89.7487 206.345C89.919 206.488 90.0668 206.654 90.1922 206.842C90.3266 207.03 90.4297 207.241 90.5014 207.474C90.582 207.707 90.6223 207.958 90.6223 208.227C90.6223 208.621 90.5417 208.988 90.3804 209.329C90.2191 209.66 89.9906 209.951 89.695 210.202C89.3993 210.444 89.0454 210.637 88.6332 210.78C88.23 210.924 87.782 210.995 87.2892 210.995ZM87.2892 205.216C87.6655 205.216 87.9791 205.113 88.23 204.907C88.4809 204.692 88.6063 204.414 88.6063 204.074C88.6063 203.724 88.4809 203.451 88.23 203.254C87.9791 203.048 87.6655 202.945 87.2892 202.945C86.9129 202.945 86.5993 203.048 86.3484 203.254C86.0975 203.451 85.9721 203.724 85.9721 204.074C85.9721 204.414 86.0975 204.692 86.3484 204.907C86.5993 205.113 86.9129 205.216 87.2892 205.216ZM87.2892 209.369C87.7462 209.369 88.1225 209.252 88.4182 209.02C88.7138 208.778 88.8617 208.455 88.8617 208.052C88.8617 207.864 88.8214 207.693 88.7407 207.541C88.6601 207.38 88.5481 207.241 88.4047 207.124C88.2703 207.008 88.1046 206.918 87.9074 206.856C87.7193 206.793 87.5132 206.762 87.2892 206.762C87.0652 206.762 86.8546 206.793 86.6575 206.856C86.4694 206.918 86.3036 207.008 86.1602 207.124C86.0258 207.241 85.9183 207.38 85.8377 207.541C85.757 207.693 85.7167 207.864 85.7167 208.052C85.7167 208.455 85.8646 208.778 86.1602 209.02C86.4559 209.252 86.8322 209.369 87.2892 209.369Z" fill="#B5B7CF"/>
<path d="M115.985 217.96C122.226 217.96 127.285 212.901 127.285 206.66C127.285 200.419 122.226 195.36 115.985 195.36C109.744 195.36 104.685 200.419 104.685 206.66C104.685 212.901 109.744 217.96 115.985 217.96Z" fill="#2D2D2D"/>
<path d="M109.123 210.78V209.181C109.652 208.661 110.14 208.177 110.588 207.729C110.776 207.541 110.969 207.348 111.166 207.151C111.363 206.954 111.547 206.771 111.717 206.6C111.887 206.43 112.04 206.278 112.174 206.143C112.308 206 112.411 205.888 112.483 205.807C112.626 205.637 112.752 205.485 112.859 205.35C112.976 205.216 113.066 205.086 113.128 204.961C113.2 204.826 113.254 204.696 113.29 204.571C113.325 204.436 113.343 204.293 113.343 204.141C113.343 203.845 113.227 203.59 112.994 203.375C112.761 203.151 112.443 203.039 112.04 203.039C111.636 203.039 111.323 203.155 111.099 203.388C110.875 203.612 110.722 203.868 110.642 204.154L109.042 203.496C109.114 203.254 109.231 203.007 109.392 202.756C109.553 202.497 109.759 202.268 110.01 202.071C110.261 201.865 110.557 201.699 110.897 201.574C111.247 201.439 111.636 201.372 112.066 201.372C112.532 201.372 112.954 201.444 113.33 201.587C113.706 201.722 114.024 201.91 114.284 202.152C114.544 202.394 114.746 202.68 114.889 203.012C115.032 203.334 115.104 203.684 115.104 204.06C115.104 204.634 114.961 205.162 114.674 205.646C114.396 206.121 114.056 206.564 113.652 206.977L112.497 208.132C112.192 208.437 111.847 208.778 111.462 209.154L111.515 209.235H115.238V210.78H109.123ZM119.135 207.487C118.785 207.487 118.445 207.416 118.113 207.272C117.782 207.129 117.486 206.927 117.226 206.668C116.967 206.399 116.756 206.085 116.595 205.727C116.442 205.359 116.366 204.956 116.366 204.517C116.366 204.06 116.456 203.639 116.635 203.254C116.814 202.86 117.052 202.524 117.347 202.246C117.652 201.968 117.997 201.753 118.382 201.601C118.776 201.439 119.189 201.359 119.619 201.359C120.112 201.359 120.56 201.448 120.963 201.628C121.375 201.798 121.724 202.031 122.011 202.326C122.307 202.613 122.531 202.954 122.683 203.348C122.844 203.733 122.925 204.141 122.925 204.571C122.925 205.189 122.8 205.758 122.549 206.278C122.307 206.788 121.998 207.313 121.621 207.85L119.39 211.036L118.033 210.108L119.914 207.434L119.847 207.353C119.641 207.443 119.404 207.487 119.135 207.487ZM119.646 202.985C119.44 202.985 119.242 203.021 119.054 203.092C118.875 203.164 118.714 203.267 118.57 203.402C118.427 203.536 118.311 203.697 118.221 203.885C118.14 204.065 118.1 204.266 118.1 204.49C118.1 204.723 118.14 204.934 118.221 205.122C118.311 205.301 118.427 205.458 118.57 205.592C118.714 205.727 118.875 205.83 119.054 205.901C119.242 205.973 119.44 206.009 119.646 206.009C119.843 206.009 120.035 205.973 120.224 205.901C120.412 205.83 120.577 205.727 120.721 205.592C120.873 205.458 120.99 205.301 121.07 205.122C121.16 204.934 121.205 204.723 121.205 204.49C121.205 204.266 121.16 204.065 121.07 203.885C120.99 203.697 120.873 203.536 120.721 203.402C120.577 203.267 120.412 203.164 120.224 203.092C120.035 203.021 119.843 202.985 119.646 202.985Z" fill="#B5B7CF"/>
<path d="M148.335 217.96C154.575 217.96 159.635 212.901 159.635 206.66C159.635 200.419 154.575 195.36 148.335 195.36C142.094 195.36 137.035 200.419 137.035 206.66C137.035 212.901 142.094 217.96 148.335 217.96Z" fill="#2D2D2D"/>
<path d="M143.901 210.995C143.525 210.995 143.162 210.946 142.813 210.847C142.472 210.749 142.159 210.601 141.872 210.404C141.585 210.198 141.33 209.942 141.106 209.638C140.891 209.333 140.725 208.979 140.609 208.576L142.262 207.917C142.378 208.365 142.575 208.706 142.853 208.939C143.131 209.163 143.48 209.275 143.901 209.275C144.09 209.275 144.269 209.248 144.439 209.194C144.609 209.132 144.757 209.046 144.883 208.939C145.008 208.831 145.107 208.706 145.178 208.563C145.259 208.41 145.299 208.24 145.299 208.052C145.299 207.658 145.151 207.348 144.856 207.124C144.569 206.9 144.17 206.788 143.659 206.788H142.867V205.189H143.592C143.771 205.189 143.946 205.167 144.116 205.122C144.287 205.077 144.435 205.01 144.56 204.92C144.694 204.822 144.797 204.701 144.869 204.557C144.95 204.405 144.99 204.23 144.99 204.033C144.99 203.729 144.883 203.482 144.667 203.294C144.452 203.097 144.161 202.998 143.794 202.998C143.4 202.998 143.095 203.106 142.88 203.321C142.674 203.527 142.531 203.76 142.45 204.02L140.837 203.361C140.918 203.137 141.039 202.909 141.2 202.676C141.361 202.434 141.563 202.219 141.805 202.031C142.056 201.834 142.347 201.677 142.678 201.56C143.01 201.435 143.391 201.372 143.821 201.372C144.26 201.372 144.659 201.435 145.017 201.56C145.384 201.686 145.698 201.86 145.958 202.084C146.218 202.3 146.419 202.559 146.563 202.864C146.706 203.16 146.778 203.482 146.778 203.832C146.778 204.1 146.742 204.342 146.67 204.557C146.607 204.772 146.522 204.965 146.415 205.135C146.307 205.306 146.182 205.453 146.038 205.579C145.904 205.695 145.765 205.789 145.622 205.861V205.969C146.052 206.139 146.406 206.412 146.683 206.788C146.97 207.165 147.114 207.64 147.114 208.213C147.114 208.616 147.037 208.988 146.885 209.329C146.733 209.66 146.513 209.951 146.227 210.202C145.949 210.453 145.613 210.646 145.219 210.78C144.824 210.924 144.385 210.995 143.901 210.995ZM152.094 210.995C151.503 210.995 150.97 210.874 150.495 210.632C150.02 210.381 149.612 210.041 149.272 209.611C148.94 209.181 148.685 208.675 148.506 208.092C148.326 207.501 148.237 206.865 148.237 206.184C148.237 205.503 148.326 204.871 148.506 204.289C148.685 203.697 148.94 203.187 149.272 202.756C149.612 202.326 150.02 201.99 150.495 201.748C150.97 201.498 151.503 201.372 152.094 201.372C152.685 201.372 153.219 201.498 153.693 201.748C154.168 201.99 154.571 202.326 154.903 202.756C155.243 203.187 155.503 203.697 155.683 204.289C155.862 204.871 155.951 205.503 155.951 206.184C155.951 206.865 155.862 207.501 155.683 208.092C155.503 208.675 155.243 209.181 154.903 209.611C154.571 210.041 154.168 210.381 153.693 210.632C153.219 210.874 152.685 210.995 152.094 210.995ZM152.094 209.329C152.417 209.329 152.708 209.252 152.968 209.1C153.227 208.939 153.447 208.719 153.626 208.442C153.814 208.155 153.953 207.819 154.043 207.434C154.141 207.048 154.191 206.632 154.191 206.184C154.191 205.727 154.141 205.31 154.043 204.934C153.953 204.548 153.814 204.217 153.626 203.939C153.447 203.652 153.227 203.433 152.968 203.281C152.708 203.119 152.417 203.039 152.094 203.039C151.763 203.039 151.467 203.119 151.207 203.281C150.947 203.433 150.728 203.652 150.548 203.939C150.369 204.217 150.23 204.548 150.132 204.934C150.042 205.31 149.997 205.727 149.997 206.184C149.997 206.632 150.042 207.048 150.132 207.434C150.23 207.819 150.369 208.155 150.548 208.442C150.728 208.719 150.947 208.939 151.207 209.1C151.467 209.252 151.763 209.329 152.094 209.329Z" fill="#B5B7CF"/>
<path d="M180.685 217.96C186.926 217.96 191.985 212.901 191.985 206.66C191.985 200.419 186.926 195.36 180.685 195.36C174.444 195.36 169.385 200.419 169.385 206.66C169.385 212.901 174.444 217.96 180.685 217.96Z" fill="#2D2D2D"/>
<path d="M177.911 210.995C177.535 210.995 177.172 210.946 176.823 210.847C176.482 210.749 176.169 210.601 175.882 210.404C175.595 210.198 175.34 209.942 175.116 209.638C174.901 209.333 174.735 208.979 174.619 208.576L176.272 207.917C176.388 208.365 176.585 208.706 176.863 208.939C177.141 209.163 177.49 209.275 177.911 209.275C178.1 209.275 178.279 209.248 178.449 209.194C178.619 209.132 178.767 209.046 178.893 208.939C179.018 208.831 179.117 208.706 179.188 208.563C179.269 208.41 179.309 208.24 179.309 208.052C179.309 207.658 179.161 207.348 178.866 207.124C178.579 206.9 178.18 206.788 177.669 206.788H176.877V205.189H177.602C177.781 205.189 177.956 205.167 178.126 205.122C178.297 205.077 178.445 205.01 178.57 204.92C178.704 204.822 178.807 204.701 178.879 204.557C178.96 204.405 179 204.23 179 204.033C179 203.729 178.893 203.482 178.677 203.294C178.462 203.097 178.171 202.998 177.804 202.998C177.41 202.998 177.105 203.106 176.89 203.321C176.684 203.527 176.541 203.76 176.46 204.02L174.847 203.361C174.928 203.137 175.049 202.909 175.21 202.676C175.371 202.434 175.573 202.219 175.815 202.031C176.066 201.834 176.357 201.677 176.688 201.56C177.02 201.435 177.401 201.372 177.831 201.372C178.27 201.372 178.669 201.435 179.027 201.56C179.394 201.686 179.708 201.86 179.968 202.084C180.228 202.3 180.429 202.559 180.573 202.864C180.716 203.16 180.788 203.482 180.788 203.832C180.788 204.1 180.752 204.342 180.68 204.557C180.617 204.772 180.532 204.965 180.425 205.135C180.317 205.306 180.192 205.453 180.048 205.579C179.914 205.695 179.775 205.789 179.632 205.861V205.969C180.062 206.139 180.416 206.412 180.693 206.788C180.98 207.165 181.124 207.64 181.124 208.213C181.124 208.616 181.047 208.988 180.895 209.329C180.743 209.66 180.523 209.951 180.237 210.202C179.959 210.453 179.623 210.646 179.229 210.78C178.834 210.924 178.395 210.995 177.911 210.995ZM184.333 210.78V203.657L182.707 204.342L182.062 202.851L184.763 201.587H186.094V210.78H184.333Z" fill="#B5B7CF"/>
<path d="M213.035 217.96C219.275 217.96 224.335 212.901 224.335 206.66C224.335 200.419 219.275 195.36 213.035 195.36C206.794 195.36 201.735 200.419 201.735 206.66C201.735 212.901 206.794 217.96 213.035 217.96Z" fill="#2D2D2D"/>
<path d="M245.385 217.96C251.626 217.96 256.685 212.901 256.685 206.66C256.685 200.419 251.626 195.36 245.385 195.36C239.144 195.36 234.085 200.419 234.085 206.66C234.085 212.901 239.144 217.96 245.385 217.96Z" fill="#2D2D2D"/>
<path d="M277.735 217.96C283.976 217.96 289.035 212.901 289.035 206.66C289.035 200.419 283.976 195.36 277.735 195.36C271.494 195.36 266.435 200.419 266.435 206.66C266.435 212.901 271.494 217.96 277.735 217.96Z" fill="#2D2D2D"/>
<g style="mix-blend-mode:multiply" opacity="0.35">
<path d="M303.925 65.9301V216.11C303.925 222.23 298.965 227.2 292.835 227.2H81.2449C98.7049 225.58 124.855 222.47 156.195 216.04C212.305 204.52 240.355 198.76 260.925 179.61C297.235 145.8 295.595 89.33 293.475 65.94H303.925V65.9301Z" fill="#2D2D2D"/>
</g>
<path d="M60.9349 189.78C59.4649 193.3 57.8449 196.65 56.6049 198.86C53.9749 203.55 53.2149 204.27 52.0649 206.8C41.7449 229.58 45.8149 246.69 36.6249 269.1C34.6549 273.91 31.6949 277.46 26.7049 280.13C22.2449 282.51 17.9149 283.55 13.0449 282.55C10.0849 281.94 7.72491 281.36 4.57491 279.11C4.53491 279.08 4.4949 279.06 4.4649 279.03C-2.0951 272.85 -4.81511 265.85 -5.15511 258.55C-5.23511 256.99 -5.19509 255.41 -5.06509 253.83C-3.89509 239.47 5.0549 224.36 11.1149 212.22C15.5549 203.32 18.3449 194.2 16.6449 184.15C16.4249 182.84 16.0749 180.08 15.8249 178.52C12.5249 157.99 13.7349 163.25 13.0949 156.17C13.0349 155.53 12.9249 154.88 13.0149 154.26C13.3249 152.12 12.4149 144.3 21.2549 133.75C27.7049 126.06 34.8749 117.22 44.0549 115.04C46.0249 114.57 50.2849 113.88 52.8849 113.76C54.1149 113.71 57.8549 113.04 59.2149 113.32C60.9449 113.67 61.4849 115.39 61.8249 117.03C62.2149 118.91 61.9449 121.64 60.5749 123.89C57.9249 128.26 54.2549 129.87 52.5949 134.23C52.1449 135.4 51.6549 136.56 51.1949 137.72C50.9949 138.22 50.7049 138.64 50.2949 138.98C48.0849 140.82 47.0649 141.7 43.1349 142.69C42.9849 142.73 42.9049 142.82 42.9049 142.98C42.9149 143.6 42.8349 144.22 42.9649 144.83C43.0049 145.02 43.3049 153.52 49.1049 160.43C53.3049 165.43 57.8749 167.7 61.5149 171.21C62.4449 172.11 63.9049 170.8 64.5849 170.21C65.7049 169.24 66.0549 171.42 65.9649 172.97C65.6149 179.08 63.2649 184.19 60.9349 189.77V189.78Z" fill="#AD665F"/>
<g style="mix-blend-mode:multiply" opacity="0.25">
<path d="M60.935 189.78C59.465 193.3 57.845 196.65 56.605 198.86C53.975 203.55 53.215 204.27 52.065 206.8C41.745 229.58 45.815 246.69 36.625 269.1C34.655 273.91 31.695 277.46 26.705 280.13C22.245 282.51 17.915 283.55 13.045 282.55C10.085 281.94 7.72498 281.36 4.57498 279.11C4.53498 279.08 4.49498 279.06 4.46498 279.03C-2.09502 272.85 -4.81503 265.85 -5.15503 258.55C-4.23503 257.29 -2.94502 255.73 -1.63503 254.52C0.254975 252.76 2.36498 251.35 4.72498 250.35C14.555 246.2 22.975 250.1 29.015 241.61C33.035 235.95 35.545 224.56 37.915 218.53C40.185 212.74 41.965 208.77 47.565 201.65C50.375 198.07 56.485 192.03 60.945 189.79L60.935 189.78Z" fill="#AD665F"/>
</g>
<g style="mix-blend-mode:multiply" opacity="0.25">
<path d="M42.0849 136.26C42.6149 135.89 42.8349 135.98 43.6849 134.75C44.9149 132.97 46.2449 131.3 46.7649 129.32C47.2149 127.61 48.0449 128.87 51.5049 127.82C51.8849 127.7 52.2649 127.55 52.6849 127.61C52.7849 127.63 52.9049 127.57 53.0149 127.55C55.0349 127.16 56.5449 127.5 57.0249 127.55C57.2249 127.58 57.4249 127.73 57.2949 127.9C56.9149 128.4 56.0949 129.14 55.1149 130.23C53.3849 132.15 53.1749 132.86 52.3149 134.94C51.0349 138.04 51.0949 138.32 50.2849 138.99C48.7149 140.3 47.9849 140.98 45.9449 141.82C44.8249 142.28 43.4649 142.63 43.2449 142.65C42.5949 142.7 43.1849 141.41 42.1649 137.92C42.0049 137.37 41.6549 136.55 42.0849 136.25V136.26Z" fill="#AD665F"/>
</g>
<path d="M19.4549 173.41C17.9449 165.63 15.545 157.58 17.465 149.65C17.505 149.4 17.625 149.14 17.775 148.93C17.675 149.18 17.6049 149.4 17.6249 149.67C16.9549 157.51 19.3949 165.59 19.4549 173.41Z" fill="#804242"/>
<path d="M42.2449 136.42C46.1049 131.56 48.8849 125.85 44.3949 120.33C44.9249 120.81 45.5949 121.31 46.0649 121.94C49.8649 126.73 46.6249 133.28 42.2449 136.42Z" fill="#804242"/>
<path d="M42.7849 142.74C42.2649 139.69 41.8048 136.36 38.6248 135.02C37.7048 134.53 36.7049 134.11 35.7249 133.6C41.2949 133.89 43.9349 137.28 42.7849 142.74Z" fill="#804242"/>
<path d="M50.8449 127.96C50.1549 128.63 49.4049 128.78 48.5549 128.68C48.1649 128.65 48.0649 128.4 47.7549 128.24C47.8449 128.08 48.0449 128.02 48.1849 127.97C49.0849 127.59 49.8949 127.39 50.8449 127.97V127.96Z" fill="#804242"/>
<path d="M67.0349 136.54C65.8649 141.49 64.7149 146.67 64.6749 151.85C64.5849 165.21 68.7549 174.67 62.8549 179.58C61.1849 180.97 59.7449 181.69 57.5449 182.03C55.0349 182.41 52.3149 182.12 49.7249 180.98C44.2149 178.54 39.3649 173.8 38.6249 167.7C38.2949 164.96 37.9749 164.8 38.1849 163.09C38.8049 158.13 40.8449 154.76 44.1249 150.88C44.7449 150.15 45.2049 149.3 45.6949 148.49C47.3449 145.78 48.6549 143.31 49.5249 140.27C50.6749 136.28 50.5049 136.51 51.1149 130.01C51.4449 126.5 52.3949 123.29 52.9949 120.96C53.4549 119.17 54.2249 117.52 55.1749 115.96C56.4349 113.89 59.1249 111.8 62.2549 111.49C66.7449 111.04 69.9849 114.91 69.8949 119.5C69.7449 126.73 69.1049 127.76 67.0249 136.55L67.0349 136.54Z" fill="#AD665F"/>
<path d="M57.0949 114.07C55.3749 115.51 54.6549 117.76 53.8549 119.78C52.4749 123.37 52.0049 129.01 51.4649 132.84C50.7649 137.29 50.0949 141.8 48.0549 145.88C46.0149 149.93 42.7449 153.08 40.3949 156.89C39.2249 158.75 38.2349 160.78 37.7349 162.95C37.8149 161.83 38.1949 160.76 38.5549 159.7C40.4249 154.4 44.7249 150.4 47.1849 145.45C48.1449 143.5 48.7449 141.38 49.2349 139.22C50.9249 132.74 50.8349 125.85 53.3649 119.59C54.3349 117.6 55.2049 115.35 57.0949 114.07Z" fill="#804242"/>
<path d="M62.675 138.48C59.865 136.95 57.495 135.83 54.345 135.18C57.435 134.25 60.955 135.83 62.675 138.48Z" fill="#804242"/>
<path d="M61.4649 142.47C58.6849 144.07 54.9249 142.55 53.2649 139.99C55.8949 141.31 58.4549 142.51 61.4649 142.47Z" fill="#804242"/>
<path d="M60.9348 139.99C58.7248 140.26 56.5448 139.55 54.8848 138.07C57.1248 138.19 59.0248 138.83 60.9348 139.99Z" fill="#804242"/>
<path d="M68.7749 116.42C68.7149 117.86 68.5949 119.58 67.9549 120.88C66.8649 123.11 64.2749 123.32 62.3249 122.16C61.2549 121.52 60.3749 120.5 60.0149 119.27C59.7449 118.35 59.5549 117.4 59.6349 116.43C59.7649 114.88 60.1049 112.21 61.2749 111.03C63.1049 109.16 66.3449 109.47 67.8449 111.79C68.7049 113.12 68.8349 114.83 68.7649 116.41L68.7749 116.42Z" fill="#E077A3"/>
<g style="mix-blend-mode:multiply" opacity="0.5">
<path d="M68.1749 120.36C66.6949 124.66 61.0749 122.91 60.0249 119.27C59.7549 118.35 59.5649 117.4 59.6449 116.43C59.7249 115.5 59.8249 114.56 60.0749 113.66C60.3349 112.68 60.5549 111.78 61.2949 111.04C61.4749 111.15 61.6349 111.29 61.7649 111.46C62.5649 112.54 62.6349 113.97 62.4849 115.31C61.8549 120.97 66.0149 119.11 68.1249 120.32C68.1449 120.33 68.1649 120.34 68.1849 120.36H68.1749Z" fill="#E077A3"/>
</g>
<path d="M66.3149 116.2C65.8649 115.18 65.9049 114.34 65.8349 113.36C65.8149 113.06 65.8049 112.75 65.7649 112.36C66.1549 112.47 66.4449 112.78 66.6249 113.11C67.1549 114.1 67.0349 115.32 66.3049 116.21L66.3149 116.2Z" fill="white"/>
<path d="M293.305 140.46C290.305 141.04 286.925 139.47 286.775 136.23C286.735 135.41 287.985 132.18 290.365 130.01C291.805 128.69 292.785 127.85 294.355 127.28C298.055 125.93 301.315 129.14 301.505 132.89C301.635 135.48 298.915 139.39 293.305 140.47V140.46Z" fill="#AD665F"/>
<path d="M291.675 131.67C291.605 132.46 291.285 133.16 290.755 133.72C289.745 134.8 287.505 136.44 286.145 136.29C285.255 136.19 284.755 135.79 285.315 134.81C286.215 133.24 288.255 131.41 289.875 130.03C290.235 129.72 290.605 129.54 290.955 129.89C291.455 130.37 291.755 130.94 291.675 131.66V131.67Z" fill="#E077A3"/>
<g style="mix-blend-mode:multiply" opacity="0.5">
<path d="M291.675 131.67C291.605 132.46 291.285 133.16 290.755 133.72C287.825 136.84 285.105 136.49 285.895 135.91C286.325 135.6 287.895 134.86 288.945 132.79C289.905 130.89 289.035 130.51 290.185 129.81C290.455 129.65 290.725 129.67 290.955 129.89C291.455 130.37 291.755 130.94 291.675 131.66V131.67Z" fill="#E077A3"/>
</g>
<g style="mix-blend-mode:multiply" opacity="0.25">
<path d="M301.125 134.78C300.065 137.3 297.805 139.4 293.865 140.35C291.125 141.01 288.945 140.15 287.725 138.72C287.575 138.54 287.455 138.34 287.645 138.19C289.215 137.02 291.385 137.95 293.655 136.09C296.145 134.05 296.995 131.07 300.385 130.28C300.745 130.2 300.845 130.24 300.985 130.57C301.555 131.92 301.705 133.41 301.125 134.79V134.78Z" fill="#E077A3"/>
</g>
<path d="M297.095 149.64C292.005 152.57 287.585 148.9 291.575 142.43C292.995 140.12 295.155 137.36 297.595 136.22C298.385 135.85 300.025 135.55 300.485 135.72C301.385 136.05 302.195 136.48 302.725 137.33C305.645 141.99 301.895 146.88 297.085 149.64H297.095Z" fill="#AD665F"/>
<path d="M289.255 148.81C288.655 148.89 287.935 148.62 287.945 147.9C287.945 147.59 287.955 147.29 288.085 147C288.265 146.61 288.425 146.2 288.635 145.83C289.765 143.82 291.395 141.65 291.905 141.15C292.245 140.81 292.595 140.77 293.005 141.02C295.825 142.68 291.875 148.47 289.245 148.82L289.255 148.81Z" fill="#E077A3"/>
<g style="mix-blend-mode:multiply" opacity="0.5">
<path d="M291.575 143.93C291.625 143.29 291.665 142.73 291.485 142.19C291.385 141.89 291.455 141.66 291.655 141.42C292.275 140.68 292.855 140.67 293.475 141.42C295.515 143.89 290.915 148.74 289.555 148.72C288.995 148.72 290.045 147.98 290.815 146.52C291.265 145.68 291.615 144.82 291.585 143.92L291.575 143.93Z" fill="#E077A3"/>
</g>
<path d="M299.115 137.82C297.975 139.97 295.265 140.99 292.995 140.18C293.535 139.84 294.125 139.8 294.625 139.64C296.225 139.23 297.555 138.4 299.115 137.82Z" fill="#804242"/>
<path d="M404.075 263.05C401.945 264.48 399.325 265.57 396.665 266.37C392.735 267.55 388.725 268.07 386.065 268.06C368.875 268 352.895 255.88 341.985 244.1C333.105 234.51 326.145 223.38 319.525 212.17C311.735 199 307.405 192.74 304.895 180.68C304.495 178.78 304.145 176.73 303.835 174.49C303.485 171.96 303.085 171.01 304.205 169.43C305.355 167.79 307.425 165.65 309.185 162.97C311.165 159.94 313.885 154.66 313.935 151.13C313.945 150.11 314.205 149.14 313.975 146.03C313.385 138.07 311.475 135.08 307.945 129.08C305.785 125.42 303.215 122.08 302.795 116.85C302.675 115.33 302.975 115.83 302.945 115.69C302.045 112.28 307.735 110.49 310.055 109.68C314.115 108.26 318.215 106.95 322.315 105.69C329.215 103.56 331.175 105.47 334.615 108.77C338.775 112.76 342.045 116.45 343.995 118.99C346.025 121.62 348.845 125.53 350.355 128.47C350.895 129.51 350.925 129.07 351.775 131.16C356.745 143.38 351.895 159.04 350.115 171.51C349.295 177.27 349.375 182.53 351.155 188.15C353.605 195.87 364.935 205.53 370.765 211.34C382.565 223.11 394.055 232.82 401.355 241.35C401.375 241.38 401.395 241.4 401.425 241.42C404.735 245.29 407.175 248.92 408.385 252.38C408.425 252.48 408.455 252.58 408.485 252.69C409.925 257.22 407.715 260.61 404.085 263.05H404.075Z" fill="#AD665F"/>
<g style="mix-blend-mode:multiply" opacity="0.25">
<path d="M404.075 263.05C401.945 264.48 399.325 265.57 396.665 266.37C392.735 267.55 388.725 268.07 386.065 268.06C368.875 268 352.895 255.88 341.985 244.1C333.105 234.51 326.145 223.38 319.525 212.17C311.735 199 307.405 192.74 304.895 180.68C305.905 181.41 306.865 182.17 307.125 182.37C316.835 189.81 321.665 203.41 330.955 213.33C339.995 222.98 357.485 235 367.165 233.31C375.595 231.84 383.085 229.54 391.975 232.69C392.705 232.95 393.395 233.21 394.025 233.61C396.955 236.56 399.365 239.07 401.345 241.35C401.365 241.38 401.385 241.4 401.415 241.42C404.965 245.5 407.125 248.79 408.375 252.38C408.415 252.48 408.445 252.58 408.475 252.69C409.695 256.69 407.345 260.39 404.075 263.05Z" fill="#E077A3"/>
</g>
<path d="M345.065 179.81C342.785 171.56 345.275 163.13 346.635 154.97C346.915 161.24 345.035 167.33 345.025 173.58C345.005 175.41 344.865 178.01 345.065 179.81Z" fill="#804242"/>
<path d="M323.005 120.85C319.765 122.55 315.935 122.7 312.355 122.23C315.845 121.22 319.385 121.13 323.005 120.85Z" fill="#804242"/>
<path d="M323.645 120.43C324.055 117.29 325.015 114.59 325.825 111.54C326.515 114.64 325.415 117.88 323.645 120.43Z" fill="#804242"/>
<path d="M328.695 127.57C326.135 126.93 324.055 124.19 323.805 121.59C325.475 123.61 326.935 125.63 328.695 127.57Z" fill="#804242"/>
<path d="M277.615 140.18L281.315 149.57L277.135 151.13L264.865 153.08L258.445 154.1C258.005 154.14 257.605 153.9 257.455 153.52C257.375 153.33 257.375 153.12 257.435 152.92C257.485 152.73 257.615 152.55 257.785 152.42L263.175 148.78L273.475 141.83L277.615 140.18Z" fill="#E077A3"/>
<path d="M263.175 148.78L264.865 153.08L258.445 154.1C258.005 154.14 257.605 153.9 257.455 153.52C257.375 153.33 257.375 153.12 257.435 152.92C257.485 152.73 257.615 152.55 257.785 152.42L263.175 148.78Z" fill="#BA457C"/>
<path d="M376.785 114.94C376.665 115.05 376.435 115.18 376.125 115.33C374.925 115.93 372.545 116.77 370.945 116.82C367.655 116.93 364.165 116.14 361.525 114.12C360.675 113.46 360.365 112.63 360.505 111.55C360.795 109.47 361.755 107.47 363.035 105.75C366.445 101.18 372.205 98.6601 374.165 102.24C375.095 103.94 374.565 105.69 374.305 106.99C374.055 108.22 374.425 107.49 376.545 109.46C378.095 110.89 378.625 113.35 376.785 114.94Z" fill="#E077A3"/>
<g style="mix-blend-mode:multiply" opacity="0.25">
<path d="M376.135 115.33C374.935 115.93 372.555 116.77 370.955 116.82C367.665 116.93 364.175 116.14 361.535 114.12C360.685 113.46 360.375 112.63 360.515 111.55C360.805 109.47 361.765 107.47 363.045 105.75C363.045 105.75 363.048 105.75 363.055 105.75C364.625 106.28 365.875 107.18 366.615 108.74C368.595 112.92 370.735 115.27 375.905 115.32C375.985 115.32 376.065 115.32 376.135 115.32V115.33Z" fill="#E077A3"/>
</g>
<path d="M372.925 104.2C371.915 104.12 371.025 103.92 370.115 104.23C369.285 104.46 368.475 105.04 367.445 105.46C368.265 103.22 371.315 102.16 372.925 104.21V104.2Z" fill="white"/>
<path d="M362.665 112.09C363.935 115.31 362.345 118.94 359.135 120.21L359.035 120.25L354.565 121.92L277.135 151.1L273.495 141.85L350.045 110.42L354.455 108.6C355.615 108.12 356.835 108.02 357.985 108.23C360.035 108.61 361.855 110 362.685 112.1L362.665 112.09Z" fill="#98ABEB"/>
<g style="mix-blend-mode:multiply" opacity="0.75">
<path d="M362.665 112.09C363.935 115.31 362.345 118.94 359.135 120.21L359.035 120.25L354.565 121.92L350.035 110.42L354.445 108.6C357.675 107.26 361.385 108.83 362.665 112.09Z" fill="#98ABEB"/>
</g>
<path d="M301.365 133.39C312.175 128.43 323.415 124.07 334.755 120.46C323.945 125.43 312.705 129.78 301.365 133.39Z" fill="#D1DBFF"/>
<g style="mix-blend-mode:multiply" opacity="0.35">
<path d="M362.665 112.09C363.935 115.31 362.345 118.94 359.135 120.21L359.035 120.25L354.565 121.92L277.135 151.1L276.765 150.16C277.575 147.29 280.985 146.41 283.705 145.5C288.535 143.89 349.165 120.89 353.715 118.13C355.825 116.85 357.365 116.28 357.105 113.43C356.935 111.64 357.055 109.65 357.965 108.22C360.015 108.6 361.835 109.99 362.665 112.09Z" fill="#98ABEB"/>
</g>
<path d="M292.065 115.96C293.445 111.62 299.275 109.82 303.595 112.64C308.295 115.72 310.505 118.86 312.585 123.25C316.345 131.19 315.395 132.91 319.255 137.01C321.285 139.16 323.455 141.13 326.325 145.67C328.415 148.98 329.975 152.96 330.305 156.76C330.385 157.7 330.495 158.63 330.425 159.57C330.405 159.87 330.505 160.18 330.475 160.48C329.875 165.51 327.705 169.56 323.295 172.9C320.825 174.77 319.355 175.73 315.815 176.91C313.515 177.67 310.205 178.29 307.865 177.64C304.955 176.84 303.865 174.54 303.275 171.57C303.145 170.91 301.835 164.72 301.665 161.11C301.385 155.14 301.665 155.61 301.475 154.42C301.445 154.26 301.565 152.26 301.485 150.99C301.275 147.57 301.775 144.13 299.635 138.26C297.305 131.85 293.645 126.82 292.235 122.55C291.555 120.49 291.415 118.01 292.065 115.95V115.96Z" fill="#AD665F"/>
<path d="M300.895 117.35C299.165 119.46 295.615 121.66 293.705 119.98C293.665 119.95 293.625 119.91 293.595 119.87C291.725 118.01 290.225 115.16 290.255 112.5C290.285 109.92 292.645 107.98 294.685 108.09C294.765 108.09 294.845 108.1 294.925 108.11C297.475 108.45 299.775 111.42 301.075 113.64C301.895 115.03 301.605 116.48 300.885 117.35H300.895Z" fill="#E077A3"/>
<g style="mix-blend-mode:multiply" opacity="0.5">
<path d="M300.895 117.35C299.165 119.46 295.615 121.66 293.705 119.98C294.615 117.57 296.875 117.48 297.495 115.06C297.595 114.65 297.345 113.05 296.415 111.67C295.165 109.81 294.695 109.09 294.695 108.09C294.775 108.09 294.855 108.1 294.935 108.11C297.485 108.45 299.785 111.42 301.085 113.64C301.905 115.03 301.615 116.48 300.895 117.35Z" fill="#E077A3"/>
</g>
<path d="M294.025 115.41C292.655 114.89 291.475 113.25 292.215 111.83C293.015 113.15 293.775 113.85 294.025 115.41Z" fill="white"/>
<path d="M330.615 155.92C328.955 147.66 322.285 142.54 317.545 136.1C315.415 132.61 314.435 128.68 312.635 125.07C311.375 122.36 309.845 119.77 308.245 117.24C307.715 116.38 307.195 115.54 306.415 114.89C307.265 115.45 307.895 116.27 308.475 117.08C310.325 119.48 311.955 122.03 313.365 124.71C315.305 128.19 316.315 132.2 318.445 135.54C320.595 138.81 323.705 141.59 325.925 144.89C328.405 148.06 330.135 151.92 330.615 155.93V155.92Z" fill="#804242"/>
<path d="M309.385 130.38C306.935 131.11 304.615 132.08 302.455 133.45C302.655 133.38 302.545 133.26 302.625 133.03C302.895 132.54 303.205 132.16 303.615 131.8C304.635 130.88 306.025 130.41 307.335 130.21C307.975 130.09 308.775 130.03 309.385 130.38Z" fill="#804242"/>
<path d="M311.275 134.32C310.645 136.82 307.815 138.37 305.325 138.03C305.165 138.03 304.945 137.88 304.915 138.04C304.845 137.82 305.145 137.82 305.285 137.73C307.535 136.92 309.415 135.95 311.275 134.32Z" fill="#804242"/>
<path d="M309.275 132.21C308.365 133.73 306.805 134.8 304.985 134.69C306.255 133.42 307.485 132.55 309.275 132.21Z" fill="#804242"/>
<path d="M301.055 146.18C300.345 144.12 300.305 142.32 300.245 140.15C301.715 141.78 301.835 144.2 301.055 146.18Z" fill="#804242"/>
</g>
</svg>
