<svg width="21" height="18" viewBox="0 0 21 18" fill="none" xmlns="http://www.w3.org/2000/svg">
<path d="M10.0883 12.7684C7.8026 12.7684 5.94727 10.913 5.94727 8.62735C5.94727 6.34166 7.8026 4.48633 10.0883 4.48633C12.374 4.48633 14.2293 6.34166 14.2293 8.62735C14.2293 10.913 12.374 12.7684 10.0883 12.7684ZM10.0883 5.92086C8.59637 5.92086 7.3818 7.13544 7.3818 8.62735C7.3818 10.1193 8.59637 11.3338 10.0883 11.3338C11.5802 11.3338 12.7948 10.1193 12.7948 8.62735C12.7948 7.13544 11.5802 5.92086 10.0883 5.92086Z" fill="#3289FF"/>
<path d="M10.0848 17.2527C6.48888 17.2527 3.09381 15.1487 0.760303 11.4954C-0.253435 9.91742 -0.253435 7.34482 0.760303 5.75727C3.10338 2.10398 6.49844 0 10.0848 0C13.6711 0 17.0662 2.10398 19.3997 5.75727C20.4134 7.33526 20.4134 9.90786 19.3997 11.4954C17.0662 15.1487 13.6711 17.2527 10.0848 17.2527ZM10.0848 1.43453C6.99575 1.43453 4.04061 3.28987 1.97488 6.53192C1.25761 7.65085 1.25761 9.60182 1.97488 10.7208C4.04061 13.9628 6.99575 15.8181 10.0848 15.8181C13.1738 15.8181 16.129 13.9628 18.1947 10.7208C18.912 9.60182 18.912 7.65085 18.1947 6.53192C16.129 3.28987 13.1738 1.43453 10.0848 1.43453Z" fill="#3289FF"/>
</svg>
