<svg width="166" height="188" viewBox="0 0 166 188" fill="none" xmlns="http://www.w3.org/2000/svg">
<path opacity="0.4" d="M158.529 45.107V174.266H95.6143V45.107C95.6153 37.9259 98.0714 30.9611 102.575 25.3678C107.079 19.7745 113.359 15.8889 120.374 14.3557V8.02356C120.36 6.68925 120.745 5.38117 121.48 4.26748C122.215 3.15378 123.267 2.28538 124.499 1.77389C125.732 1.2624 127.089 1.1312 128.397 1.39716C129.704 1.66312 130.902 2.31408 131.837 3.26637C132.462 3.88375 132.958 4.6196 133.295 5.43086C133.633 6.24212 133.805 7.1125 133.802 7.99109V14.3232C140.817 15.8641 147.094 19.7572 151.592 25.3565C156.089 30.9559 158.537 37.9248 158.529 45.107Z" fill="white"/>
<path opacity="0.4" d="M158.529 45.107V174.266H95.6143V45.107C95.6153 37.9259 98.0714 30.9611 102.575 25.3678C107.079 19.7745 113.359 15.8889 120.374 14.3557V8.02356C120.36 6.68925 120.745 5.38117 121.48 4.26748C122.215 3.15378 123.267 2.28538 124.499 1.77389C125.732 1.2624 127.089 1.1312 128.397 1.39716C129.704 1.66312 130.902 2.31408 131.837 3.26637C132.462 3.88375 132.958 4.6196 133.295 5.43086C133.633 6.24212 133.805 7.1125 133.802 7.99109V14.3232C140.817 15.8641 147.094 19.7572 151.592 25.3565C156.089 30.9559 158.537 37.9248 158.529 45.107Z" fill="white"/>
<path d="M158.529 45.107V174.266H95.6143V45.107C95.6153 37.9259 98.0714 30.9611 102.575 25.3678C107.079 19.7745 113.359 15.8889 120.374 14.3557V8.02356C120.36 6.68925 120.745 5.38117 121.48 4.26748C122.215 3.15378 123.267 2.28538 124.499 1.77389C125.732 1.2624 127.089 1.1312 128.397 1.39716C129.704 1.66312 130.902 2.31408 131.837 3.26637C132.462 3.88375 132.958 4.6196 133.295 5.43086C133.633 6.24212 133.805 7.1125 133.802 7.99109V14.3232C140.817 15.8641 147.094 19.7572 151.592 25.3565C156.089 30.9559 158.537 37.9248 158.529 45.107Z" fill="#9327FF"/>
<path opacity="0.4" d="M158.529 45.107V174.266H95.6143V45.107C95.6153 37.9259 98.0714 30.9611 102.575 25.3678C107.079 19.7745 113.359 15.8889 120.374 14.3557V8.02356C120.36 6.68925 120.745 5.38117 121.48 4.26748C122.215 3.15378 123.267 2.28538 124.499 1.77389C125.732 1.2624 127.089 1.1312 128.397 1.39716C129.704 1.66312 130.902 2.31408 131.837 3.26637C132.462 3.88375 132.958 4.6196 133.295 5.43086C133.633 6.24212 133.805 7.1125 133.802 7.99109V14.3232C140.817 15.8641 147.094 19.7572 151.592 25.3565C156.089 30.9559 158.537 37.9248 158.529 45.107Z" fill="white"/>
<path d="M95.6156 174.265L95.2422 131.32L95.0311 88.3595L94.885 45.4798C94.8217 38.0806 97.3012 30.8841 101.909 25.0943C106.516 19.3045 112.973 15.2726 120.197 13.6731L119.58 14.4362V8.03919C119.577 7.25667 119.698 6.47859 119.937 5.73366C120.426 4.22577 121.38 2.91143 122.662 1.97924C123.944 1.04704 125.488 0.544922 127.073 0.544922C128.658 0.544922 130.203 1.04704 131.485 1.97924C132.767 2.91143 133.72 4.22577 134.209 5.73366C134.441 6.48039 134.561 7.25728 134.566 8.03919V14.3551L133.949 13.592C141.184 15.1975 147.647 19.2427 152.253 25.049C156.859 30.8552 159.328 38.069 159.245 45.4798L159.115 88.4407L158.888 131.402L158.531 174.346L158.157 131.402L157.946 88.4407L157.816 45.4798C157.869 38.4227 155.492 31.5624 151.083 26.0513C146.675 20.5402 140.505 16.7141 133.608 15.2156L132.991 15.0857V8.03919C132.984 7.42196 132.885 6.80919 132.699 6.22074C132.312 5.03597 131.56 4.00391 130.551 3.27212C129.542 2.54032 128.328 2.14625 127.081 2.14625C125.835 2.14625 124.62 2.54032 123.611 3.27212C122.602 4.00391 121.851 5.03597 121.464 6.22074C121.282 6.80997 121.189 7.42275 121.188 8.03919V15.0045L120.571 15.1344C113.654 16.6292 107.466 20.4646 103.05 25.993C98.6335 31.5214 96.26 38.4043 96.33 45.4798L96.1189 88.3595L95.9079 131.32L95.6156 174.265Z" fill="#9327FF"/>
<path d="M159.196 187.01H94.9335C93.2441 187.01 91.6235 186.34 90.4274 185.147C89.2312 183.954 88.557 182.335 88.5527 180.646C88.5527 179.808 88.7178 178.978 89.0384 178.204C89.3591 177.43 89.8291 176.726 90.4216 176.134C91.0142 175.541 91.7176 175.071 92.4917 174.751C93.2659 174.43 94.0956 174.265 94.9335 174.265H159.196C160.889 174.265 162.512 174.937 163.708 176.134C164.905 177.33 165.577 178.953 165.577 180.646C165.573 182.335 164.899 183.954 163.702 185.147C162.506 186.34 160.886 187.01 159.196 187.01Z" fill="#9327FF"/>
<path opacity="0.4" d="M135.977 20.7681C141.065 22.964 145.384 26.627 148.381 31.2891C148.771 31.8736 149.128 32.4743 149.501 33.0751C149.858 33.7419 150.173 34.4306 150.443 35.1371C150.94 36.4692 151.336 37.8369 151.628 39.2286C152.179 41.9061 152.542 44.6187 152.716 47.3467C153.049 52.685 153 58.0404 152.57 63.3718C152.194 68.689 151.511 73.98 150.524 79.2183C149.612 73.9665 149.027 68.6634 148.771 63.3393L147.861 47.6714C147.683 45.0898 147.456 42.5245 147.082 40.0566C146.91 38.8484 146.671 37.6506 146.368 36.4684C146.213 35.9177 146.029 35.3757 145.816 34.8448L145.069 33.2212C142.783 28.5746 139.706 24.3609 135.977 20.7681Z" fill="white"/>
<path opacity="0.4" d="M150.525 83.4243C151.36 84.1418 152.012 85.0494 152.424 86.0708C152.765 86.9122 152.947 87.8096 152.96 88.7173C152.96 89.6196 152.784 90.5132 152.44 91.3476C152.013 92.3603 151.357 93.2605 150.525 93.9778C149.682 93.2699 149.024 92.367 148.609 91.3476C148.258 90.5155 148.081 89.6203 148.089 88.7173C148.086 87.7134 148.302 86.7209 148.723 85.8093C149.143 84.8978 149.758 84.0893 150.525 83.4405V83.4243Z" fill="white"/>
<path opacity="0.1" d="M158.529 173.924V174.265H95.6143V83.4395C99.2025 111.333 105.145 150.332 111.233 159.538C118.183 170.059 144.225 173.063 158.529 173.924Z" fill="black"/>
<path d="M86.1518 66.263L0.0800781 95.5139L29.331 181.586L115.403 152.335L86.1518 66.263Z" fill="#9327FF"/>
<path opacity="0.1" d="M89.1531 113.25C90.2855 116.325 90.9797 119.544 91.2151 122.813C91.3748 126.116 91.0853 129.426 90.3546 132.652C89.5075 135.87 88.2353 138.96 86.5716 141.842C84.8278 144.693 82.6968 147.288 80.2395 149.554C77.7215 151.785 74.901 153.649 71.8616 155.09C68.7913 156.457 65.554 157.412 62.2336 157.932C58.8826 158.351 55.4899 158.308 52.1509 157.802C45.447 156.735 39.2219 153.668 34.2911 149.002C31.8543 146.664 29.7559 143.997 28.0564 141.079C26.4332 138.133 25.2153 134.982 24.4358 131.71C23.7307 128.454 23.4848 125.115 23.7051 121.79C23.9994 118.455 24.7534 115.177 25.9457 112.048C27.2241 108.976 28.9058 106.088 30.9465 103.459C33.0564 100.915 35.5035 98.6696 38.2203 96.7863C40.9561 94.9692 43.9352 93.548 47.069 92.5649C44.0551 93.7781 41.2029 95.3596 38.5775 97.2734C36.0438 99.2572 33.7885 101.573 31.8719 104.158C30.0212 106.759 28.52 109.592 27.407 112.584C25.2671 118.591 24.9341 125.094 26.449 131.288C27.9569 137.445 31.2232 143.03 35.8498 147.362C38.191 149.45 40.7945 151.224 43.5944 152.639C46.4346 153.996 49.4432 154.968 52.5406 155.529C55.6457 156.016 58.8024 156.081 61.9251 155.724C65.0542 155.293 68.1119 154.446 71.0173 153.207C75.3871 151.266 79.2808 148.395 82.4271 144.794C85.5733 141.194 87.8964 136.95 89.2343 132.36C90.1133 129.27 90.5666 126.074 90.5819 122.862C90.5212 119.61 90.041 116.379 89.1531 113.25Z" fill="black"/>
<path opacity="0.4" d="M47.0684 92.5643C51.1064 90.7102 55.5186 89.8156 59.9599 89.9502C64.4636 90.0742 68.8874 91.1699 72.9283 93.1624C76.9692 95.1548 80.5319 97.997 83.3724 101.494C86.1928 104.931 88.172 108.978 89.1525 113.314C87.3411 109.42 84.9184 105.841 81.9761 102.712C76.1195 96.5665 68.2714 92.7 59.83 91.8012C55.5626 91.3762 51.2547 91.6338 47.0684 92.5643Z" fill="white"/>
<path opacity="0.4" d="M82.6104 115.474C84.4044 120.383 84.676 125.719 83.3897 130.784C82.707 133.321 81.6916 135.756 80.3698 138.026C78.9858 140.252 77.3032 142.279 75.369 144.049C73.4193 145.784 71.2326 147.233 68.8746 148.352C65.2707 150.006 61.344 150.838 57.3789 150.787C53.4139 150.737 49.5097 149.805 45.9491 148.06C43.588 146.866 41.4026 145.352 39.4546 143.562C37.5482 141.74 35.9084 139.657 34.5838 137.376C33.2949 135.079 32.328 132.615 31.71 130.054C31.1434 127.486 30.9466 124.851 31.1255 122.228C31.3468 119.617 31.9259 117.05 32.8465 114.597C33.8316 112.175 35.1308 109.893 36.7107 107.81C38.357 105.792 40.2685 104.006 42.3934 102.501C44.5193 101.043 46.8357 99.8849 49.2775 99.0588C46.8856 99.9856 44.6213 101.213 42.5395 102.712C40.5019 104.262 38.6832 106.081 37.1329 108.119C35.6397 110.181 34.4225 112.43 33.5122 114.808C32.6789 117.208 32.171 119.709 32.0022 122.244C31.8982 124.773 32.1219 127.306 32.6679 129.778C33.2894 132.23 34.234 134.588 35.4768 136.792C36.7736 138.959 38.3575 140.942 40.1853 142.685C42.0632 144.374 44.1537 145.809 46.4037 146.956C48.6826 148.044 51.0958 148.824 53.5801 149.277C56.0731 149.667 58.6075 149.716 61.1137 149.423C63.6191 149.071 66.0656 148.383 68.3875 147.378C70.6903 146.314 72.8415 144.949 74.7845 143.319C76.6931 141.643 78.3646 139.714 79.7528 137.587C81.0869 135.417 82.1296 133.081 82.8539 130.638C83.524 128.167 83.8571 125.616 83.8443 123.056C83.7658 120.485 83.351 117.936 82.6104 115.474Z" fill="white"/>
<path opacity="0.1" d="M49.2773 99.0594L51.729 98.2151C52.5733 97.9878 53.3526 97.8092 54.2618 97.6144C55.1711 97.4195 55.9829 97.4195 56.8596 97.3059C57.7364 97.1922 58.5969 97.3059 59.4737 97.3059C62.9953 97.4409 66.449 98.3159 69.6101 99.8741C72.7711 101.432 75.5686 103.639 77.8205 106.349C78.3401 107.048 78.8921 107.73 79.4441 108.444C79.9962 109.158 80.3696 109.921 80.7755 110.684C81.1814 111.448 81.5061 112.308 81.8471 113.055C82.1881 113.802 82.3991 114.679 82.6589 115.523C81.3501 112.367 79.4982 109.466 77.1873 106.95C72.5579 101.925 66.2289 98.7948 59.4249 98.1664C56.0162 97.8721 52.5823 98.1743 49.2773 99.0594Z" fill="black"/>
<path d="M35.9476 179.331L29.3232 181.572L34.2753 185.29L35.9476 179.331Z" fill="#9327FF"/>
<path d="M42.5716 177.074L35.9473 179.331L40.8993 183.033L42.5716 177.074Z" fill="#9327FF"/>
<path d="M49.1956 174.833L42.5713 177.074L47.5233 180.792L49.1956 174.833Z" fill="#9327FF"/>
<path d="M55.8034 172.576L49.1953 174.833L54.1473 178.535L55.8034 172.576Z" fill="#9327FF"/>
<path d="M62.4271 170.336L55.8027 172.576L60.7548 176.294L62.4271 170.336Z" fill="#9327FF"/>
<path d="M69.0511 168.079L62.4268 170.336L67.3788 174.038L69.0511 168.079Z" fill="#9327FF"/>
<path d="M75.6781 165.839L69.0537 168.079L74.0057 171.781L75.6781 165.839Z" fill="#9327FF"/>
<path d="M82.2849 163.582L75.6768 165.839L80.6288 169.54L82.2849 163.582Z" fill="#9327FF"/>
<path d="M88.9095 161.325L82.2852 163.582L87.2372 167.284L88.9095 161.325Z" fill="#9327FF"/>
<path d="M95.5335 159.084L88.9092 161.325L93.8612 165.043L95.5335 159.084Z" fill="#9327FF"/>
<path d="M102.158 156.828L95.5332 159.085L100.485 162.787L102.158 156.828Z" fill="#9327FF"/>
<path d="M108.767 154.586L102.159 156.827L107.111 160.545L108.767 154.586Z" fill="#9327FF"/>
<path d="M115.391 152.331L108.767 154.587L113.719 158.289L115.391 152.331Z" fill="#9327FF"/>
<g opacity="0.1">
<path d="M35.9476 179.331L29.3232 181.572L34.2753 185.29L35.9476 179.331Z" fill="black"/>
<path d="M42.5716 177.074L35.9473 179.331L40.8993 183.033L42.5716 177.074Z" fill="black"/>
<path d="M49.1956 174.834L42.5713 177.074L47.5233 180.792L49.1956 174.834Z" fill="black"/>
<path d="M55.8054 172.577L49.1973 174.834L54.1493 178.536L55.8054 172.577Z" fill="black"/>
<path d="M62.429 170.337L55.8047 172.577L60.7567 176.295L62.429 170.337Z" fill="black"/>
<path d="M69.0531 168.08L62.4287 170.337L67.3807 174.039L69.0531 168.08Z" fill="black"/>
<path d="M75.6771 165.839L69.0527 168.08L74.0048 171.782L75.6771 165.839Z" fill="black"/>
<path d="M82.2849 163.583L75.6768 165.84L80.6288 169.541L82.2849 163.583Z" fill="black"/>
<path d="M88.9085 161.326L82.2842 163.583L87.2362 167.285L88.9085 161.326Z" fill="black"/>
<path d="M95.5355 159.084L88.9111 161.325L93.8632 165.043L95.5355 159.084Z" fill="black"/>
<path d="M102.16 156.827L95.5352 159.084L100.487 162.786L102.16 156.827Z" fill="black"/>
<path d="M108.767 154.587L102.159 156.828L107.111 160.546L108.767 154.587Z" fill="black"/>
<path d="M115.391 152.33L108.767 154.587L113.719 158.289L115.391 152.33Z" fill="black"/>
</g>
<path d="M79.5254 68.519L86.1497 66.2622L81.1977 62.5603L79.5254 68.519Z" fill="#9327FF"/>
<path d="M72.8994 70.7595L79.5238 68.5189L74.5717 64.8008L72.8994 70.7595Z" fill="#9327FF"/>
<path d="M66.292 73.0163L72.9001 70.7595L67.9481 67.0576L66.292 73.0163Z" fill="#9327FF"/>
<path d="M59.668 75.2565L66.2923 73.0159L61.3403 69.2979L59.668 75.2565Z" fill="#9327FF"/>
<path d="M53.0439 77.5134L59.6683 75.2565L54.7163 71.5547L53.0439 77.5134Z" fill="#9327FF"/>
<path d="M46.4199 79.7702L53.0443 77.5134L48.0922 73.8115L46.4199 79.7702Z" fill="#9327FF"/>
<path d="M39.7959 82.0116L46.4203 79.7711L41.4682 76.053L39.7959 82.0116Z" fill="#9327FF"/>
<path d="M33.1855 84.2685L39.7937 82.0117L34.8579 78.3098L33.1855 84.2685Z" fill="#9327FF"/>
<path d="M26.5615 86.509L33.1859 84.2684L28.2338 80.5503L26.5615 86.509Z" fill="#9327FF"/>
<path d="M19.9375 88.7658L26.5619 86.509L21.6098 82.8071L19.9375 88.7658Z" fill="#9327FF"/>
<path d="M13.3301 91.0224L19.9382 88.7656L14.9862 85.0637L13.3301 91.0224Z" fill="#9327FF"/>
<path d="M6.70605 93.2629L13.3304 91.0223L8.36214 87.3042L6.70605 93.2629Z" fill="#9327FF"/>
<path d="M0.0800781 95.5197L6.70444 93.2629L1.75241 89.561L0.0800781 95.5197Z" fill="#9327FF"/>
<g opacity="0.4">
<path d="M79.5244 68.519L86.1488 66.2622L81.1967 62.5603L79.5244 68.519Z" fill="white"/>
<path d="M72.9004 70.7595L79.5247 68.5189L74.5727 64.8008L72.9004 70.7595Z" fill="white"/>
<path d="M66.293 73.016L72.9011 70.7592L67.9491 67.0574L66.293 73.016Z" fill="white"/>
<path d="M59.6689 75.2565L66.2933 73.0159L61.3413 69.2979L59.6689 75.2565Z" fill="white"/>
<path d="M53.042 77.5146L59.6664 75.2578L54.7143 71.5559L53.042 77.5146Z" fill="white"/>
<path d="M46.418 79.7702L53.0423 77.5134L48.0903 73.8115L46.418 79.7702Z" fill="white"/>
<path d="M39.7949 82.0116L46.4193 79.7711L41.4672 76.053L39.7949 82.0116Z" fill="white"/>
<path d="M33.1865 84.2685L39.7946 82.0117L34.8588 78.3098L33.1865 84.2685Z" fill="white"/>
<path d="M26.5625 86.509L33.1868 84.2684L28.2348 80.5503L26.5625 86.509Z" fill="white"/>
<path d="M19.9385 88.7656L26.5628 86.5087L21.6108 82.8069L19.9385 88.7656Z" fill="white"/>
<path d="M13.3291 91.0224L19.9372 88.7656L14.9852 85.0637L13.3291 91.0224Z" fill="white"/>
<path d="M6.70508 93.2629L13.3294 91.0223L8.36117 87.3042L6.70508 93.2629Z" fill="white"/>
<path d="M0.0810547 95.5197L6.70541 93.2629L1.75338 89.561L0.0810547 95.5197Z" fill="white"/>
</g>
</svg>
