<svg width="22" height="22" viewBox="0 0 22 22" fill="none" xmlns="http://www.w3.org/2000/svg">
<path d="M1.6875 10.2197V14.7097C1.6875 19.1997 3.4875 20.9997 7.9775 20.9997H13.3675C17.8575 20.9997 19.6575 19.1997 19.6575 14.7097V10.2197" stroke="#2C67F5" stroke-width="2" stroke-linecap="round" stroke-linejoin="round"/>
<path d="M10.6782 11C12.5082 11 13.8582 9.51 13.6782 7.68L13.0182 1H8.34821L7.67821 7.68C7.49821 9.51 8.84821 11 10.6782 11Z" stroke="#2C67F5" stroke-width="2" stroke-linecap="round" stroke-linejoin="round"/>
<path d="M16.9881 11C19.0081 11 20.4881 9.36 20.2881 7.35L20.0081 4.6C19.6481 2 18.6481 1 16.0281 1H12.9781L13.6781 8.01C13.8481 9.66 15.3381 11 16.9881 11ZM4.31811 11C5.96811 11 7.4581 9.66 7.6181 8.01L7.83811 5.8L8.31811 1H5.26811C2.64811 1 1.64811 2 1.28811 4.6L1.01811 7.35C0.818105 9.36 2.29811 11 4.31811 11ZM10.6781 16C9.00811 16 8.17811 16.83 8.17811 18.5V21H13.1781V18.5C13.1781 16.83 12.3481 16 10.6781 16Z" stroke="#2C67F5" stroke-width="2" stroke-linecap="round" stroke-linejoin="round"/>
</svg>
