<svg width="19" height="10" viewBox="0 0 19 10" fill="none" xmlns="http://www.w3.org/2000/svg">
<path d="M8.52343 10C9.06175 10 9.51725 9.61808 9.51725 8.91152V5.24507C9.59317 5.51241 9.80712 5.74157 10.1798 5.94526L17.2125 9.76448C17.4886 9.91725 17.7232 10 18.0062 10C18.5445 10 19 9.61808 19 8.91152V1.08848C19 0.381922 18.5445 0 18.0062 0C17.7232 0 17.4955 0.0827498 17.2125 0.235519L10.1798 4.05474C9.80022 4.25843 9.59317 4.48759 9.51725 4.75493V1.08848C9.51725 0.381922 9.06175 0 8.52343 0C8.24047 0 8.01271 0.0827498 7.72975 0.235519L0.697058 4.05474C0.207047 4.32209 0 4.63399 0 4.99682C0 5.36601 0.207047 5.67791 0.697058 5.94526L7.72975 9.76448C8.00581 9.91725 8.24047 10 8.52343 10Z" fill="white"/>
</svg>
