<svg width="19" height="10" viewBox="0 0 19 10" fill="none" xmlns="http://www.w3.org/2000/svg">
<path d="M0.993464 10C1.27633 10 1.51089 9.91725 1.78686 9.76448L8.81699 5.94526C9.19644 5.74157 9.40341 5.51241 9.4793 5.24507V8.91152C9.4793 9.61808 9.93464 10 10.4728 10C10.7556 10 10.9902 9.91725 11.2662 9.76448L18.3032 5.94526C18.7861 5.67791 19 5.36601 19 4.99682C19 4.63399 18.7861 4.32209 18.3032 4.05474L11.2662 0.235519C10.9902 0.0827498 10.7556 0 10.4728 0C9.93464 0 9.4793 0.381922 9.4793 1.08848V4.75493C9.40341 4.48759 9.19644 4.25843 8.81699 4.05474L1.78686 0.235519C1.50399 0.0827498 1.27633 0 0.993464 0C0.455338 0 0 0.381922 0 1.08848V8.91152C0 9.61808 0.455338 10 0.993464 10Z" fill="white"/>
</svg>
