<svg width="27" height="19" viewBox="0 0 27 19" fill="none" xmlns="http://www.w3.org/2000/svg">
<path d="M13.5007 15.0309C14.9305 15.0309 16.1439 14.5325 17.1408 13.5356C18.1376 12.5387 18.6361 11.3254 18.6361 9.89551C18.6361 8.46565 18.1376 7.25228 17.1408 6.2554C16.1439 5.25853 14.9305 4.76009 13.5007 4.76009C12.0708 4.76009 10.8574 5.25853 9.86055 6.2554C8.86367 7.25228 8.36524 8.46565 8.36524 9.89551C8.36524 11.3254 8.86367 12.5387 9.86055 13.5356C10.8574 14.5325 12.0708 15.0309 13.5007 15.0309ZM13.5007 13.2788C12.5541 13.2788 11.7536 12.9516 11.0991 12.2971C10.4446 11.6426 10.1173 10.842 10.1173 9.89551C10.1173 8.94898 10.4446 8.14846 11.0991 7.49395C11.7536 6.83943 12.5541 6.51217 13.5007 6.51217C14.4472 6.51217 15.2477 6.83943 15.9022 7.49395C16.5567 8.14846 16.884 8.94898 16.884 9.89551C16.884 10.842 16.5567 11.6426 15.9022 12.2971C15.2477 12.9516 14.4472 13.2788 13.5007 13.2788ZM13.5007 18.958C10.5604 18.958 7.90204 18.1222 5.52565 16.4507C3.14926 14.7792 1.37704 12.5941 0.208984 9.89551C1.37704 7.1969 3.14926 5.01183 5.52565 3.3403C7.90204 1.66877 10.5604 0.833008 13.5007 0.833008C16.4409 0.833008 19.0993 1.66877 21.4757 3.3403C23.852 5.01183 25.6243 7.1969 26.7923 9.89551C25.6243 12.5941 23.852 14.7792 21.4757 16.4507C19.0993 18.1222 16.4409 18.958 13.5007 18.958ZM13.5007 17.1455C15.9375 17.1455 18.1779 16.486 20.222 15.1669C22.2661 13.8478 23.8218 12.0906 24.8892 9.89551C23.8218 7.70037 22.2661 5.94325 20.222 4.62415C18.1779 3.30506 15.9375 2.64551 13.5007 2.64551C11.0638 2.64551 8.8234 3.30506 6.7793 4.62415C4.7352 5.94325 3.1694 7.70037 2.0819 9.89551C3.1694 12.0906 4.7352 13.8478 6.7793 15.1669C8.8234 16.486 11.0638 17.1455 13.5007 17.1455Z" fill="#706E6E"/>
</svg>
