<svg width="215" height="65" viewBox="0 0 215 65" fill="none" xmlns="http://www.w3.org/2000/svg">
<rect x="68" y="21" width="108" height="23" rx="11.5" stroke="#DBDBDB" stroke-width="2" stroke-linecap="round" stroke-linejoin="round" stroke-dasharray="5 10"/>
<rect x="177" y="18" width="29" height="28" fill="white"/>
<path d="M214.961 30.5846C214.145 16.6649 201.498 5.93713 186.932 8.33707C176.901 9.99303 168.863 18.1289 167.303 28.1606C166.391 33.9685 167.591 39.4644 170.206 44.0003L168.071 51.9441C167.591 53.744 169.246 55.376 171.022 54.872L178.845 52.7121C182.397 54.8 186.548 56 190.988 56C204.522 56 215.752 44.0723 214.961 30.5846ZM202.722 40.9283C202.143 42.1156 201.155 43.0533 199.938 43.5683C199.219 43.8803 198.427 44.0243 197.587 44.0243C196.363 44.0243 195.043 43.7363 193.675 43.1363C192.217 42.4961 190.834 41.6995 189.548 40.7603C188.156 39.7524 186.86 38.6244 185.612 37.4004C184.365 36.1524 183.261 34.8325 182.253 33.4645C181.269 32.0965 180.477 30.7286 179.901 29.3606C179.325 27.9926 179.037 26.6727 179.037 25.4247C179.037 24.6087 179.181 23.8167 179.469 23.0967C179.757 22.3528 180.213 21.6808 180.861 21.0808C181.629 20.3128 182.469 19.9528 183.357 19.9528C183.693 19.9528 184.029 20.0248 184.341 20.1688C184.652 20.3128 184.94 20.5288 185.156 20.8408L187.94 24.7767C188.156 25.0887 188.324 25.3527 188.42 25.6167C188.54 25.8807 188.588 26.1207 188.588 26.3607C188.588 26.6487 188.492 26.9367 188.324 27.2246C188.156 27.5126 187.94 27.8006 187.652 28.0886L186.74 29.0486C186.596 29.1926 186.548 29.3366 186.548 29.5286C186.548 29.6246 186.572 29.7206 186.596 29.8166C186.644 29.9126 186.668 29.9846 186.692 30.0566C186.908 30.4646 187.292 30.9686 187.82 31.5925C188.944 32.9129 190.171 34.1408 191.492 35.2645C192.116 35.7925 192.643 36.1524 193.051 36.3684C193.123 36.3924 193.195 36.4404 193.267 36.4644C193.363 36.5124 193.459 36.5124 193.579 36.5124C193.795 36.5124 193.939 36.4404 194.083 36.2964L194.995 35.3845C195.307 35.0725 195.595 34.8565 195.859 34.7125C196.147 34.5445 196.411 34.4485 196.723 34.4485C196.963 34.4485 197.203 34.4965 197.467 34.6165C197.731 34.7365 198.019 34.8805 198.307 35.0965L202.29 37.9284C202.602 38.1444 202.818 38.4084 202.962 38.6964C203.082 39.0084 203.154 39.2964 203.154 39.6324C203.01 40.0404 202.914 40.4963 202.722 40.9283Z" fill="#02E677"/>
<path d="M0.84375 14.9807V48.5409L8.9618 40.4229H47.2087C59.1933 40.4229 62.4126 30.2125 62.5242 25.1074V14.9807C62.5242 3.33091 52.3138 0.139485 47.2087 0H16.6614C4.5429 0 1.06693 9.98715 0.84375 14.9807Z" fill="#50A8FA"/>
<mask id="mask0_559_1881" style="mask-type:alpha" maskUnits="userSpaceOnUse" x="0" y="0" width="63" height="49">
<path d="M0.84375 14.9812V48.5414L8.9618 40.4233H47.2087C59.1933 40.4233 62.4126 30.213 62.5242 25.1079V14.9812C62.5242 3.3314 52.3138 0.139974 47.2087 0.000488281H16.6614C4.5429 0.000488281 1.06693 9.98764 0.84375 14.9812Z" fill="#50A8FA"/>
</mask>
<g mask="url(#mask0_559_1881)">
<mask id="mask1_559_1881" style="mask-type:alpha" maskUnits="userSpaceOnUse" x="0" y="-1" width="64" height="51">
<path d="M0.84375 14.9817V48.5419L8.9618 40.4238H47.2087C59.1933 40.4238 62.4126 30.2135 62.5242 25.1083V14.9817C62.5242 3.33189 52.3138 0.140462 47.2087 0.000976562H16.6614C4.5429 0.000976562 1.06693 9.98813 0.84375 14.9817Z" fill="#D9D9D9" stroke="black"/>
</mask>
<g mask="url(#mask1_559_1881)">
<path d="M6.11701 16.4891C6.11701 4.50453 17.0527 0.504092 22.5205 0.0019443L18.8381 -3.76416C3.63975 -3.76416 0.00755524 8.73373 0.0912464 14.9827V50.133L6.11701 44.1072V16.4891Z" fill="#3499F7"/>
</g>
</g>
<path d="M46.8754 43.0178H14.6543C16.7968 53.5964 25.3668 56.4084 29.3839 56.4921H68.133L75.9999 64.3591V32.389C75.9999 23.2834 68.8583 18.4405 65.2875 17.1572V26.3633C63.078 39.9547 52.0922 43.1294 46.8754 43.0178Z" fill="#CEE8FF"/>
<mask id="mask2_559_1881" style="mask-type:alpha" maskUnits="userSpaceOnUse" x="14" y="17" width="62" height="48">
<path d="M46.8715 43.0183H14.6504C16.7929 53.5969 25.3629 56.4089 29.38 56.4926H68.1291L75.996 64.3596V32.3895C75.996 23.2839 68.8544 18.441 65.2836 17.1577V26.3637C63.0741 39.9552 52.0883 43.1299 46.8715 43.0183Z" fill="#FAB400"/>
</mask>
<g mask="url(#mask2_559_1881)">
<mask id="mask3_559_1881" style="mask-type:alpha" maskUnits="userSpaceOnUse" x="14" y="16" width="63" height="50">
<path d="M46.8656 43.0178H14.6445C16.787 53.5964 25.357 56.4084 29.3742 56.4921H68.1232L75.9902 64.3591V32.389C75.9902 23.2834 68.8485 18.4405 65.2777 17.1572V26.3633C63.0683 39.9547 52.0824 43.1294 46.8656 43.0178Z" fill="#DC9600" stroke="black"/>
</mask>
<g mask="url(#mask3_559_1881)">
<path d="M19.8338 42.0967H12.8037L11.9668 44.6911L24.6879 60.9272L34.8145 57.3285C22.8969 54.1147 19.8617 45.8349 19.8338 42.0967Z" fill="#C0E2FF"/>
</g>
</g>
<circle cx="25.1164" cy="21.5925" r="3.01288" fill="white"/>
<circle cx="33.1516" cy="21.5925" r="3.01288" fill="white"/>
<circle cx="41.1848" cy="21.5925" r="3.01288" fill="white"/>
<path d="M144 21L136.5 25.3301L136.5 16.6699L144 21Z" fill="#D9D9D9"/>
<path d="M101 44L108.5 39.6699L108.5 48.3301L101 44Z" fill="#D9D9D9"/>
</svg>
