<svg width="14" height="14" viewBox="0 0 14 14" fill="none" xmlns="http://www.w3.org/2000/svg">
<path d="M13.9885 6.58717C13.7505 2.52726 10.062 -0.601672 5.81355 0.0983127C2.88793 0.581302 0.543238 2.95425 0.0882969 5.88018C-0.177668 7.57414 0.172286 9.17711 0.935187 10.5001L0.312268 12.817C0.172286 13.342 0.655223 13.818 1.17316 13.671L3.45486 13.041C4.49072 13.65 5.70157 14 6.9964 14C10.9439 14 14.2195 10.5211 13.9885 6.58717ZM10.419 9.6041C10.2502 9.95038 9.96177 10.2239 9.60706 10.3741C9.39708 10.4651 9.16611 10.5071 8.92115 10.5071C8.56419 10.5071 8.17924 10.4231 7.78029 10.2481C7.3551 10.0614 6.95145 9.82902 6.57645 9.5551C6.1705 9.26111 5.79255 8.93211 5.4286 8.57512C5.06465 8.21113 4.74269 7.82614 4.44873 7.42715C4.16177 7.02816 3.9308 6.62917 3.76282 6.23017C3.59484 5.83118 3.51085 5.44619 3.51085 5.0822C3.51085 4.84421 3.55285 4.61321 3.63683 4.40322C3.72082 4.18622 3.85381 3.99022 4.04278 3.81523C4.26675 3.59123 4.51172 3.48624 4.77069 3.48624C4.86867 3.48624 4.96666 3.50724 5.05765 3.54924C5.14864 3.59123 5.23263 3.65423 5.29562 3.74523L6.10751 4.8932C6.1705 4.9842 6.2195 5.0612 6.24749 5.1382C6.28249 5.2152 6.29649 5.2852 6.29649 5.35519C6.29649 5.43919 6.26849 5.52319 6.2195 5.60719C6.1705 5.69119 6.10751 5.77519 6.02352 5.85918L5.75756 6.13918C5.71556 6.18118 5.70157 6.22318 5.70157 6.27917C5.70157 6.30717 5.70856 6.33517 5.71556 6.36317C5.72956 6.39117 5.73656 6.41217 5.74356 6.43317C5.80655 6.55217 5.91854 6.69916 6.07252 6.88116C6.4002 7.26627 6.75831 7.62441 7.14338 7.95214C7.32535 8.10613 7.47933 8.21113 7.59832 8.27413C7.61932 8.28113 7.64031 8.29513 7.66131 8.30213C7.68931 8.31613 7.7173 8.31613 7.7523 8.31613C7.81529 8.31613 7.85728 8.29513 7.89928 8.25313L8.16524 7.98714C8.25623 7.89614 8.34022 7.83314 8.41721 7.79114C8.5012 7.74214 8.57819 7.71414 8.66918 7.71414C8.73917 7.71414 8.80916 7.72814 8.88615 7.76314C8.96314 7.79814 9.04713 7.84014 9.13112 7.90314L10.293 8.72912C10.384 8.79212 10.4469 8.86912 10.4889 8.95311C10.5239 9.04411 10.5449 9.12811 10.5449 9.22611C10.5029 9.34511 10.4749 9.4781 10.419 9.6041Z" fill="#02E677"/>
</svg>
